<svg width="174" height="37" viewBox="0 0 174 37" fill="none" xmlns="http://www.w3.org/2000/svg">
<rect width="174" height="37" rx="10" fill="#59BDA3"/>
<path d="M45.7727 15.5341L44.1818 15.9602C44.125 15.7045 44.0256 15.4583 43.8835 15.2216C43.7462 14.9801 43.5331 14.7836 43.2443 14.6321C42.9602 14.4759 42.572 14.3977 42.0795 14.3977C41.4119 14.3977 40.8319 14.5516 40.3395 14.8594C39.8471 15.1624 39.5653 15.5483 39.4943 16.017C39.4233 16.429 39.518 16.758 39.7784 17.0043C40.0388 17.2505 40.4744 17.4517 41.0852 17.608L42.6477 18.0057C43.5852 18.2472 44.2528 18.6094 44.6506 19.0923C45.053 19.5705 45.1903 20.1932 45.0625 20.9602C44.9583 21.5852 44.6861 22.1439 44.2457 22.6364C43.8054 23.1288 43.242 23.517 42.5554 23.8011C41.8688 24.0852 41.1042 24.2273 40.2614 24.2273C39.1392 24.2273 38.2538 23.9858 37.6051 23.5028C36.9564 23.0152 36.6108 22.3097 36.5682 21.3864L38.2443 20.9886C38.2869 21.571 38.4953 22.0114 38.8693 22.3097C39.2481 22.6032 39.7784 22.75 40.4602 22.75C41.2415 22.75 41.8925 22.5843 42.4134 22.2528C42.9342 21.9167 43.2301 21.5142 43.3011 21.0455C43.3722 20.6619 43.2964 20.3423 43.0739 20.0866C42.8561 19.831 42.4773 19.6392 41.9375 19.5114L40.2045 19.0852C39.2386 18.8437 38.5616 18.4744 38.1733 17.9773C37.7898 17.4801 37.6619 16.8551 37.7898 16.1023C37.8939 15.4867 38.1591 14.9422 38.5852 14.4688C39.0161 13.9953 39.5559 13.6236 40.2045 13.3537C40.858 13.0838 41.5682 12.9489 42.3352 12.9489C43.4148 12.9489 44.2221 13.1856 44.7571 13.6591C45.2921 14.1278 45.6307 14.7528 45.7727 15.5341ZM50.256 24.2557C49.5647 24.2557 48.9587 24.1255 48.4379 23.8651C47.917 23.5999 47.5311 23.2188 47.2802 22.7216C47.0292 22.2197 46.9606 21.6136 47.0742 20.9034C47.1831 20.2784 47.3938 19.7718 47.7063 19.3835C48.0188 18.9905 48.3976 18.6828 48.8427 18.4602C49.2925 18.233 49.7754 18.0649 50.2915 17.956C50.8124 17.8423 51.3308 17.7547 51.8469 17.6932C52.5193 17.608 53.0662 17.5417 53.4876 17.4943C53.909 17.447 54.2262 17.3688 54.4393 17.2599C54.6523 17.151 54.7826 16.964 54.8299 16.6989V16.642C54.9435 15.946 54.8512 15.4039 54.5529 15.0156C54.2546 14.6226 53.7219 14.4261 52.9549 14.4261C52.1594 14.4261 51.4942 14.6013 50.9592 14.9517C50.4241 15.3021 50.0288 15.6761 49.7731 16.0739L48.2958 15.5057C48.6841 14.8428 49.1481 14.3267 49.6879 13.9574C50.2276 13.5833 50.7934 13.3229 51.3853 13.1761C51.9772 13.0246 52.5477 12.9489 53.0969 12.9489C53.4473 12.9489 53.8427 12.9915 54.283 13.0767C54.7234 13.1572 55.1353 13.3253 55.5188 13.581C55.9071 13.8366 56.1983 14.2225 56.3924 14.7386C56.5913 15.2547 56.6197 15.946 56.4776 16.8125L55.2844 24H53.6083L53.864 22.5227H53.7788C53.6272 22.7595 53.3952 23.0128 53.0827 23.2827C52.775 23.5526 52.3844 23.7822 51.9109 23.9716C51.4421 24.161 50.8905 24.2557 50.256 24.2557ZM50.739 22.75C51.4019 22.75 51.9819 22.6198 52.479 22.3594C52.9809 22.099 53.3834 21.7628 53.6864 21.3509C53.9942 20.9389 54.186 20.5057 54.2617 20.0511L54.5174 18.517C54.4322 18.6023 54.2641 18.6804 54.0131 18.7514C53.7622 18.8177 53.4781 18.8769 53.1609 18.929C52.8484 18.9763 52.543 19.0189 52.2447 19.0568C51.9511 19.09 51.7144 19.1184 51.5344 19.142C51.0894 19.1989 50.6656 19.2912 50.2631 19.419C49.8654 19.5421 49.5292 19.7292 49.2546 19.9801C48.9847 20.2263 48.8166 20.5625 48.7504 20.9886C48.6509 21.571 48.7906 22.0114 49.1694 22.3097C49.5482 22.6032 50.0714 22.75 50.739 22.75ZM58.3438 24L60.1619 13.0909H61.8381L60.0199 24H58.3438ZM61.5114 11.2443C61.1847 11.2443 60.9029 11.133 60.6662 10.9105C60.4342 10.688 60.3182 10.4205 60.3182 10.108C60.3182 9.79545 60.4342 9.52794 60.6662 9.3054C60.9029 9.08286 61.1847 8.97159 61.5114 8.97159C61.8381 8.97159 62.1174 9.08286 62.3494 9.3054C62.5862 9.52794 62.7045 9.79545 62.7045 10.108C62.7045 10.4205 62.5862 10.688 62.3494 10.9105C62.1174 11.133 61.8381 11.2443 61.5114 11.2443ZM63.3171 24L65.7319 9.45455H67.408L66.5273 14.8239H66.6694C66.8209 14.6345 67.0316 14.393 67.3015 14.0994C67.5714 13.8011 67.9336 13.536 68.3881 13.304C68.8427 13.0672 69.4251 12.9489 70.1353 12.9489C71.0539 12.9489 71.8233 13.1785 72.4435 13.6378C73.0685 14.0971 73.5065 14.7481 73.7575 15.5909C74.0131 16.4337 74.0463 17.428 73.8569 18.5739C73.6675 19.7292 73.3053 20.7306 72.7702 21.5781C72.2399 22.4209 71.5865 23.0743 70.81 23.5384C70.0382 23.9976 69.1978 24.2273 68.2887 24.2273C67.5879 24.2273 67.0458 24.1113 66.6623 23.8793C66.2835 23.6425 66.0041 23.375 65.8242 23.0767C65.649 22.7737 65.5141 22.5227 65.4194 22.3239H65.2205L64.9364 24H63.3171ZM65.8739 18.5455C65.7414 19.3693 65.7437 20.0961 65.881 20.7259C66.0183 21.3509 66.2906 21.8409 66.6978 22.196C67.105 22.5464 67.6448 22.7216 68.3171 22.7216C69.0179 22.7216 69.6334 22.5369 70.1637 22.1676C70.694 21.7936 71.1296 21.2917 71.4705 20.6619C71.8114 20.0275 72.0482 19.322 72.1808 18.5455C72.3039 17.7784 72.2991 17.0871 72.1665 16.4716C72.0387 15.8513 71.7688 15.3613 71.3569 15.0014C70.9497 14.6368 70.391 14.4545 69.6808 14.4545C68.9989 14.4545 68.3952 14.6274 67.8697 14.973C67.3488 15.3139 66.918 15.7921 66.5771 16.4077C66.2409 17.0185 66.0065 17.7311 65.8739 18.5455ZM78.6935 24.2557C78.0022 24.2557 77.3962 24.1255 76.8754 23.8651C76.3545 23.5999 75.9686 23.2188 75.7177 22.7216C75.4667 22.2197 75.3981 21.6136 75.5117 20.9034C75.6206 20.2784 75.8313 19.7718 76.1438 19.3835C76.4563 18.9905 76.8351 18.6828 77.2802 18.4602C77.73 18.233 78.2129 18.0649 78.729 17.956C79.2499 17.8423 79.7683 17.7547 80.2844 17.6932C80.9568 17.608 81.5037 17.5417 81.9251 17.4943C82.3465 17.447 82.6637 17.3688 82.8768 17.2599C83.0898 17.151 83.2201 16.964 83.2674 16.6989V16.642C83.381 15.946 83.2887 15.4039 82.9904 15.0156C82.6921 14.6226 82.1594 14.4261 81.3924 14.4261C80.5969 14.4261 79.9317 14.6013 79.3967 14.9517C78.8616 15.3021 78.4663 15.6761 78.2106 16.0739L76.7333 15.5057C77.1216 14.8428 77.5856 14.3267 78.1254 13.9574C78.6651 13.5833 79.2309 13.3229 79.8228 13.1761C80.4147 13.0246 80.9852 12.9489 81.5344 12.9489C81.8848 12.9489 82.2802 12.9915 82.7205 13.0767C83.1609 13.1572 83.5728 13.3253 83.9563 13.581C84.3446 13.8366 84.6358 14.2225 84.8299 14.7386C85.0288 15.2547 85.0572 15.946 84.9151 16.8125L83.7219 24H82.0458L82.3015 22.5227H82.2163C82.0647 22.7595 81.8327 23.0128 81.5202 23.2827C81.2125 23.5526 80.8219 23.7822 80.3484 23.9716C79.8796 24.161 79.328 24.2557 78.6935 24.2557ZM79.1765 22.75C79.8394 22.75 80.4194 22.6198 80.9165 22.3594C81.4184 22.099 81.8209 21.7628 82.1239 21.3509C82.4317 20.9389 82.6235 20.5057 82.6992 20.0511L82.9549 18.517C82.8697 18.6023 82.7016 18.6804 82.4506 18.7514C82.1997 18.8177 81.9156 18.8769 81.5984 18.929C81.2859 18.9763 80.9805 19.0189 80.6822 19.0568C80.3886 19.09 80.1519 19.1184 79.9719 19.142C79.5269 19.1989 79.1031 19.2912 78.7006 19.419C78.3029 19.5421 77.9667 19.7292 77.6921 19.9801C77.4222 20.2263 77.2541 20.5625 77.1879 20.9886C77.0884 21.571 77.2281 22.0114 77.6069 22.3097C77.9857 22.6032 78.5089 22.75 79.1765 22.75ZM92.4062 24L94.2244 13.0909H95.8438L95.5597 14.7955H95.7017C96.0284 14.2131 96.4711 13.7609 97.0298 13.4389C97.5933 13.1122 98.2301 12.9489 98.9403 12.9489C99.6506 12.9489 100.221 13.1122 100.652 13.4389C101.083 13.7609 101.384 14.2131 101.554 14.7955H101.668C102.037 14.2273 102.529 13.7775 103.145 13.446C103.765 13.1146 104.466 12.9489 105.247 12.9489C106.213 12.9489 106.956 13.2543 107.477 13.8651C108.003 14.4759 108.159 15.4205 107.946 16.6989L106.724 24H105.048L106.27 16.6989C106.398 15.8892 106.27 15.3139 105.886 14.973C105.508 14.6274 105.02 14.4545 104.423 14.4545C103.656 14.4545 103.024 14.6842 102.527 15.1435C102.03 15.6027 101.724 16.1875 101.611 16.8977L100.418 24H98.7131L99.9631 16.5284C100.063 15.9034 99.9441 15.4015 99.608 15.0227C99.2718 14.6439 98.7841 14.4545 98.1449 14.4545C97.7093 14.4545 97.2831 14.5729 96.8665 14.8097C96.4498 15.0417 96.0923 15.3636 95.794 15.7756C95.4957 16.1828 95.304 16.6515 95.2188 17.1818L94.0824 24H92.4062ZM112.971 24.2557C112.28 24.2557 111.674 24.1255 111.153 23.8651C110.632 23.5999 110.246 23.2188 109.995 22.7216C109.744 22.2197 109.675 21.6136 109.789 20.9034C109.898 20.2784 110.109 19.7718 110.421 19.3835C110.734 18.9905 111.112 18.6828 111.558 18.4602C112.007 18.233 112.49 18.0649 113.006 17.956C113.527 17.8423 114.046 17.7547 114.562 17.6932C115.234 17.608 115.781 17.5417 116.202 17.4943C116.624 17.447 116.941 17.3688 117.154 17.2599C117.367 17.151 117.497 16.964 117.545 16.6989V16.642C117.658 15.946 117.566 15.4039 117.268 15.0156C116.969 14.6226 116.437 14.4261 115.67 14.4261C114.874 14.4261 114.209 14.6013 113.674 14.9517C113.139 15.3021 112.744 15.6761 112.488 16.0739L111.011 15.5057C111.399 14.8428 111.863 14.3267 112.403 13.9574C112.942 13.5833 113.508 13.3229 114.1 13.1761C114.692 13.0246 115.263 12.9489 115.812 12.9489C116.162 12.9489 116.558 12.9915 116.998 13.0767C117.438 13.1572 117.85 13.3253 118.234 13.581C118.622 13.8366 118.913 14.2225 119.107 14.7386C119.306 15.2547 119.335 15.946 119.192 16.8125L117.999 24H116.323L116.579 22.5227H116.494C116.342 22.7595 116.11 23.0128 115.798 23.2827C115.49 23.5526 115.099 23.7822 114.626 23.9716C114.157 24.161 113.605 24.2557 112.971 24.2557ZM113.454 22.75C114.117 22.75 114.697 22.6198 115.194 22.3594C115.696 22.099 116.098 21.7628 116.401 21.3509C116.709 20.9389 116.901 20.5057 116.977 20.0511L117.232 18.517C117.147 18.6023 116.979 18.6804 116.728 18.7514C116.477 18.8177 116.193 18.8769 115.876 18.929C115.563 18.9763 115.258 19.0189 114.96 19.0568C114.666 19.09 114.429 19.1184 114.249 19.142C113.804 19.1989 113.38 19.2912 112.978 19.419C112.58 19.5421 112.244 19.7292 111.969 19.9801C111.7 20.2263 111.531 20.5625 111.465 20.9886C111.366 21.571 111.505 22.0114 111.884 22.3097C112.263 22.6032 112.786 22.75 113.454 22.75ZM121.059 24L122.877 13.0909H124.553L122.735 24H121.059ZM124.226 11.2443C123.9 11.2443 123.618 11.133 123.381 10.9105C123.149 10.688 123.033 10.4205 123.033 10.108C123.033 9.79545 123.149 9.52794 123.381 9.3054C123.618 9.08286 123.9 8.97159 124.226 8.97159C124.553 8.97159 124.832 9.08286 125.064 9.3054C125.301 9.52794 125.419 9.79545 125.419 10.108C125.419 10.4205 125.301 10.688 125.064 10.9105C124.832 11.133 124.553 11.2443 124.226 11.2443ZM134.952 15.5341L133.362 15.9602C133.305 15.7045 133.205 15.4583 133.063 15.2216C132.926 14.9801 132.713 14.7836 132.424 14.6321C132.14 14.4759 131.752 14.3977 131.259 14.3977C130.592 14.3977 130.012 14.5516 129.519 14.8594C129.027 15.1624 128.745 15.5483 128.674 16.017C128.603 16.429 128.698 16.758 128.958 17.0043C129.219 17.2505 129.654 17.4517 130.265 17.608L131.827 18.0057C132.765 18.2472 133.433 18.6094 133.83 19.0923C134.233 19.5705 134.37 20.1932 134.242 20.9602C134.138 21.5852 133.866 22.1439 133.425 22.6364C132.985 23.1288 132.422 23.517 131.735 23.8011C131.049 24.0852 130.284 24.2273 129.441 24.2273C128.319 24.2273 127.433 23.9858 126.785 23.5028C126.136 23.0152 125.79 22.3097 125.748 21.3864L127.424 20.9886C127.467 21.571 127.675 22.0114 128.049 22.3097C128.428 22.6032 128.958 22.75 129.64 22.75C130.421 22.75 131.072 22.5843 131.593 22.2528C132.114 21.9167 132.41 21.5142 132.481 21.0455C132.552 20.6619 132.476 20.3423 132.254 20.0866C132.036 19.831 131.657 19.6392 131.117 19.5114L129.384 19.0852C128.418 18.8437 127.741 18.4744 127.353 17.9773C126.969 17.4801 126.842 16.8551 126.969 16.1023C127.074 15.4867 127.339 14.9422 127.765 14.4688C128.196 13.9953 128.736 13.6236 129.384 13.3537C130.038 13.0838 130.748 12.9489 131.515 12.9489C132.594 12.9489 133.402 13.1856 133.937 13.6591C134.472 14.1278 134.81 14.7528 134.952 15.5341Z" fill="#212529"/>
</svg>
