<svg width="642" height="108" viewBox="0 0 642 108" fill="none" xmlns="http://www.w3.org/2000/svg">
<rect width="642" height="108" rx="10" fill="#59BDA3"/>
<path d="M42.2727 69.4261C40.0379 69.4261 38.1155 68.9527 36.5057 68.0057C34.9053 67.0492 33.6742 65.7235 32.8125 64.0284C31.9602 62.3333 31.5341 60.3826 31.5341 58.1761C31.5341 55.9413 31.965 53.9811 32.8267 52.2955C33.6979 50.6004 34.9337 49.2794 36.5341 48.3324C38.1345 47.3759 40.0379 46.8977 42.2443 46.8977C44.1477 46.8977 45.8144 47.2434 47.2443 47.9347C48.6742 48.6259 49.8059 49.5966 50.6392 50.8466C51.4725 52.0966 51.9318 53.5644 52.017 55.25H46.3068C46.1458 54.161 45.7197 53.285 45.0284 52.6222C44.3466 51.9498 43.4517 51.6136 42.3438 51.6136C41.4062 51.6136 40.5871 51.8693 39.8864 52.3807C39.1951 52.8826 38.6553 53.6165 38.267 54.5824C37.8788 55.5483 37.6847 56.7178 37.6847 58.0909C37.6847 59.483 37.8741 60.6667 38.2528 61.642C38.6411 62.6174 39.1856 63.3608 39.8864 63.8722C40.5871 64.3835 41.4062 64.6392 42.3438 64.6392C43.035 64.6392 43.6553 64.4972 44.2045 64.2131C44.7633 63.929 45.2225 63.517 45.5824 62.9773C45.9517 62.428 46.1932 61.7699 46.3068 61.0028H52.017C51.9223 62.6695 51.4678 64.1373 50.6534 65.4062C49.8485 66.6657 48.7358 67.6506 47.3153 68.3608C45.8949 69.071 44.214 69.4261 42.2727 69.4261ZM65.7493 69.4261C63.5429 69.4261 61.6347 68.9574 60.0249 68.0199C58.4245 67.0729 57.1887 65.7566 56.3175 64.071C55.4463 62.3759 55.0107 60.411 55.0107 58.1761C55.0107 55.9223 55.4463 53.9527 56.3175 52.267C57.1887 50.572 58.4245 49.2557 60.0249 48.3182C61.6347 47.3712 63.5429 46.8977 65.7493 46.8977C67.9557 46.8977 69.8591 47.3712 71.4595 48.3182C73.0694 49.2557 74.3099 50.572 75.1811 52.267C76.0523 53.9527 76.4879 55.9223 76.4879 58.1761C76.4879 60.411 76.0523 62.3759 75.1811 64.071C74.3099 65.7566 73.0694 67.0729 71.4595 68.0199C69.8591 68.9574 67.9557 69.4261 65.7493 69.4261ZM65.7777 64.7386C66.7815 64.7386 67.6196 64.4545 68.2919 63.8864C68.9643 63.3087 69.4709 62.5227 69.8118 61.5284C70.1622 60.5341 70.3374 59.4025 70.3374 58.1335C70.3374 56.8646 70.1622 55.733 69.8118 54.7386C69.4709 53.7443 68.9643 52.9583 68.2919 52.3807C67.6196 51.803 66.7815 51.5142 65.7777 51.5142C64.7644 51.5142 63.9122 51.803 63.2209 52.3807C62.5391 52.9583 62.023 53.7443 61.6726 54.7386C61.3317 55.733 61.1612 56.8646 61.1612 58.1335C61.1612 59.4025 61.3317 60.5341 61.6726 61.5284C62.023 62.5227 62.5391 63.3087 63.2209 63.8864C63.9122 64.4545 64.7644 64.7386 65.7777 64.7386ZM80.4226 69V47.1818H86.1896V51.0312H86.4453C86.8999 49.7528 87.6574 48.7443 88.718 48.0057C89.7786 47.267 91.0476 46.8977 92.5249 46.8977C94.0211 46.8977 95.2947 47.2718 96.3459 48.0199C97.397 48.7585 98.0978 49.7623 98.4482 51.0312H98.6754C99.1205 49.7812 99.9254 48.7822 101.09 48.0341C102.264 47.2765 103.652 46.8977 105.252 46.8977C107.288 46.8977 108.941 47.5464 110.21 48.8438C111.488 50.1316 112.127 51.9593 112.127 54.3267V69H106.09V55.5199C106.09 54.3078 105.768 53.3987 105.124 52.7926C104.48 52.1866 103.675 51.8835 102.71 51.8835C101.611 51.8835 100.754 52.2339 100.138 52.9347C99.523 53.6259 99.2152 54.5398 99.2152 55.6761V69H93.3487V55.392C93.3487 54.322 93.041 53.4697 92.4254 52.8352C91.8194 52.2008 91.0192 51.8835 90.0249 51.8835C89.3525 51.8835 88.7464 52.054 88.2067 52.3949C87.6764 52.7263 87.255 53.1951 86.9425 53.8011C86.63 54.3977 86.4737 55.0985 86.4737 55.9034V69H80.4226ZM126.85 69.4261C124.606 69.4261 122.674 68.9716 121.055 68.0625C119.445 67.1439 118.204 65.8466 117.333 64.1705C116.462 62.4848 116.026 60.4915 116.026 58.1903C116.026 55.946 116.462 53.9763 117.333 52.2812C118.204 50.5862 119.431 49.2652 121.012 48.3182C122.603 47.3712 124.469 46.8977 126.609 46.8977C128.048 46.8977 129.388 47.1297 130.629 47.5938C131.879 48.0483 132.968 48.7348 133.896 49.6534C134.833 50.572 135.562 51.7273 136.083 53.1193C136.604 54.5019 136.864 56.1212 136.864 57.9773V59.6392H118.441V55.8892H131.168C131.168 55.018 130.979 54.2462 130.6 53.5739C130.221 52.9015 129.696 52.3759 129.023 51.9972C128.361 51.6089 127.589 51.4148 126.708 51.4148C125.79 51.4148 124.975 51.6278 124.265 52.054C123.564 52.4706 123.015 53.0341 122.617 53.7443C122.219 54.4451 122.016 55.2263 122.006 56.0881V59.6534C122.006 60.733 122.205 61.6657 122.603 62.4517C123.01 63.2377 123.583 63.8438 124.322 64.2699C125.06 64.696 125.936 64.9091 126.95 64.9091C127.622 64.9091 128.237 64.8144 128.796 64.625C129.355 64.4356 129.833 64.1515 130.231 63.7727C130.629 63.3939 130.932 62.9299 131.14 62.3807L136.737 62.75C136.452 64.0947 135.87 65.2689 134.989 66.2727C134.118 67.267 132.991 68.0436 131.609 68.6023C130.236 69.1515 128.649 69.4261 126.85 69.4261ZM150.671 69.4261C148.436 69.4261 146.514 68.9527 144.904 68.0057C143.304 67.0492 142.073 65.7235 141.211 64.0284C140.359 62.3333 139.933 60.3826 139.933 58.1761C139.933 55.9413 140.363 53.9811 141.225 52.2955C142.096 50.6004 143.332 49.2794 144.933 48.3324C146.533 47.3759 148.436 46.8977 150.643 46.8977C152.546 46.8977 154.213 47.2434 155.643 47.9347C157.073 48.6259 158.204 49.5966 159.038 50.8466C159.871 52.0966 160.33 53.5644 160.415 55.25H154.705C154.544 54.161 154.118 53.285 153.427 52.6222C152.745 51.9498 151.85 51.6136 150.742 51.6136C149.805 51.6136 148.986 51.8693 148.285 52.3807C147.594 52.8826 147.054 53.6165 146.665 54.5824C146.277 55.5483 146.083 56.7178 146.083 58.0909C146.083 59.483 146.272 60.6667 146.651 61.642C147.04 62.6174 147.584 63.3608 148.285 63.8722C148.986 64.3835 149.805 64.6392 150.742 64.6392C151.433 64.6392 152.054 64.4972 152.603 64.2131C153.162 63.929 153.621 63.517 153.981 62.9773C154.35 62.428 154.592 61.7699 154.705 61.0028H160.415C160.321 62.6695 159.866 64.1373 159.052 65.4062C158.247 66.6657 157.134 67.6506 155.714 68.3608C154.293 69.071 152.612 69.4261 150.671 69.4261ZM149.251 68.8864H152.035L151.808 70.1222C152.783 70.2737 153.578 70.6383 154.194 71.2159C154.819 71.7936 155.136 72.5795 155.146 73.5739C155.155 74.9848 154.502 76.107 153.185 76.9403C151.869 77.7831 150.022 78.2045 147.646 78.2045L147.589 75.5057C148.782 75.5057 149.715 75.3589 150.387 75.0653C151.069 74.7813 151.424 74.3362 151.452 73.7301C151.471 73.1525 151.249 72.7121 150.785 72.4091C150.321 72.1061 149.596 71.893 148.612 71.7699L149.251 68.8864ZM170.511 69.4119C169.119 69.4119 167.879 69.1705 166.79 68.6875C165.701 68.1951 164.839 67.4706 164.205 66.5142C163.58 65.5483 163.267 64.3456 163.267 62.9062C163.267 61.6941 163.49 60.6761 163.935 59.8523C164.38 59.0284 164.986 58.3655 165.753 57.8636C166.52 57.3617 167.391 56.983 168.366 56.7273C169.351 56.4716 170.384 56.2917 171.463 56.1875C172.732 56.0549 173.755 55.9318 174.531 55.8182C175.308 55.6951 175.871 55.5152 176.222 55.2784C176.572 55.0417 176.747 54.6913 176.747 54.2273V54.142C176.747 53.2424 176.463 52.5464 175.895 52.054C175.336 51.5616 174.541 51.3153 173.509 51.3153C172.42 51.3153 171.553 51.5568 170.909 52.0398C170.265 52.5133 169.839 53.1098 169.631 53.8295L164.034 53.375C164.318 52.0492 164.877 50.9034 165.71 49.9375C166.544 48.9621 167.618 48.214 168.935 47.6932C170.26 47.1629 171.795 46.8977 173.537 46.8977C174.749 46.8977 175.909 47.0398 177.017 47.3239C178.134 47.608 179.124 48.0483 179.986 48.6449C180.857 49.2415 181.544 50.0085 182.045 50.946C182.547 51.8741 182.798 52.9867 182.798 54.2841V69H177.06V65.9744H176.889C176.539 66.6562 176.07 67.2576 175.483 67.7784C174.896 68.2898 174.19 68.6922 173.366 68.9858C172.543 69.2699 171.591 69.4119 170.511 69.4119ZM172.244 65.2358C173.134 65.2358 173.92 65.0606 174.602 64.7102C175.284 64.3504 175.819 63.8674 176.207 63.2614C176.596 62.6553 176.79 61.9687 176.79 61.2017V58.8864C176.6 59.0095 176.34 59.1231 176.009 59.2273C175.687 59.322 175.322 59.4119 174.915 59.4972C174.508 59.5729 174.1 59.6439 173.693 59.7102C173.286 59.767 172.917 59.8191 172.585 59.8665C171.875 59.9706 171.255 60.1364 170.724 60.3636C170.194 60.5909 169.782 60.8987 169.489 61.2869C169.195 61.6657 169.048 62.1392 169.048 62.7074C169.048 63.5312 169.347 64.161 169.943 64.5966C170.549 65.0227 171.316 65.2358 172.244 65.2358ZM187.493 69V47.1818H193.359V50.9886H193.587C193.984 49.6345 194.652 48.6117 195.589 47.9205C196.527 47.2197 197.607 46.8693 198.828 46.8693C199.131 46.8693 199.458 46.8883 199.808 46.9261C200.159 46.964 200.466 47.0161 200.732 47.0824V52.4517C200.447 52.3665 200.054 52.2907 199.553 52.2244C199.051 52.1581 198.591 52.125 198.175 52.125C197.285 52.125 196.489 52.3191 195.788 52.7074C195.097 53.0862 194.548 53.6165 194.141 54.2983C193.743 54.9801 193.544 55.7661 193.544 56.6562V69H187.493ZM219.339 69.4119C217.947 69.4119 216.707 69.1705 215.618 68.6875C214.529 68.1951 213.667 67.4706 213.033 66.5142C212.408 65.5483 212.095 64.3456 212.095 62.9062C212.095 61.6941 212.318 60.6761 212.763 59.8523C213.208 59.0284 213.814 58.3655 214.581 57.8636C215.348 57.3617 216.219 56.983 217.195 56.7273C218.179 56.4716 219.212 56.2917 220.291 56.1875C221.56 56.0549 222.583 55.9318 223.359 55.8182C224.136 55.6951 224.699 55.5152 225.05 55.2784C225.4 55.0417 225.575 54.6913 225.575 54.2273V54.142C225.575 53.2424 225.291 52.5464 224.723 52.054C224.164 51.5616 223.369 51.3153 222.337 51.3153C221.248 51.3153 220.381 51.5568 219.737 52.0398C219.093 52.5133 218.667 53.1098 218.459 53.8295L212.862 53.375C213.146 52.0492 213.705 50.9034 214.538 49.9375C215.372 48.9621 216.446 48.214 217.763 47.6932C219.089 47.1629 220.623 46.8977 222.365 46.8977C223.577 46.8977 224.737 47.0398 225.845 47.3239C226.963 47.608 227.952 48.0483 228.814 48.6449C229.685 49.2415 230.372 50.0085 230.874 50.946C231.375 51.8741 231.626 52.9867 231.626 54.2841V69H225.888V65.9744H225.717C225.367 66.6562 224.898 67.2576 224.311 67.7784C223.724 68.2898 223.018 68.6922 222.195 68.9858C221.371 69.2699 220.419 69.4119 219.339 69.4119ZM221.072 65.2358C221.963 65.2358 222.749 65.0606 223.43 64.7102C224.112 64.3504 224.647 63.8674 225.036 63.2614C225.424 62.6553 225.618 61.9687 225.618 61.2017V58.8864C225.429 59.0095 225.168 59.1231 224.837 59.2273C224.515 59.322 224.15 59.4119 223.743 59.4972C223.336 59.5729 222.929 59.6439 222.521 59.7102C222.114 59.767 221.745 59.8191 221.413 59.8665C220.703 59.9706 220.083 60.1364 219.553 60.3636C219.022 60.5909 218.61 60.8987 218.317 61.2869C218.023 61.6657 217.876 62.1392 217.876 62.7074C217.876 63.5312 218.175 64.161 218.771 64.5966C219.377 65.0227 220.144 65.2358 221.072 65.2358ZM246.151 77.6364C244.19 77.6364 242.509 77.3665 241.108 76.8267C239.716 76.2964 238.608 75.572 237.784 74.6534C236.96 73.7348 236.425 72.7027 236.179 71.5568L241.776 70.804C241.946 71.2396 242.216 71.6468 242.585 72.0256C242.955 72.4044 243.442 72.7074 244.048 72.9347C244.664 73.1714 245.412 73.2898 246.293 73.2898C247.609 73.2898 248.693 72.9678 249.545 72.3239C250.407 71.6894 250.838 70.6241 250.838 69.1278V65.1364H250.582C250.317 65.7424 249.92 66.3153 249.389 66.8551C248.859 67.3949 248.177 67.8352 247.344 68.1761C246.51 68.517 245.516 68.6875 244.361 68.6875C242.723 68.6875 241.231 68.3087 239.886 67.5511C238.551 66.7841 237.486 65.6146 236.69 64.0426C235.904 62.4612 235.511 60.4631 235.511 58.0483C235.511 55.5767 235.914 53.5123 236.719 51.8551C237.524 50.1979 238.594 48.9574 239.929 48.1335C241.274 47.3097 242.746 46.8977 244.347 46.8977C245.568 46.8977 246.591 47.1061 247.415 47.5227C248.239 47.9299 248.902 48.4413 249.403 49.0568C249.915 49.6629 250.308 50.2595 250.582 50.8466H250.81V47.1818H256.818V69.2131C256.818 71.0691 256.364 72.6222 255.455 73.8722C254.545 75.1222 253.286 76.0597 251.676 76.6847C250.076 77.3191 248.234 77.6364 246.151 77.6364ZM246.278 64.142C247.254 64.142 248.078 63.9006 248.75 63.4176C249.432 62.9252 249.953 62.2244 250.312 61.3153C250.682 60.3968 250.866 59.2983 250.866 58.0199C250.866 56.7415 250.687 55.6335 250.327 54.696C249.967 53.7491 249.446 53.0152 248.764 52.4943C248.082 51.9735 247.254 51.7131 246.278 51.7131C245.284 51.7131 244.446 51.983 243.764 52.5227C243.082 53.053 242.566 53.7917 242.216 54.7386C241.866 55.6856 241.69 56.7794 241.69 58.0199C241.69 59.2794 241.866 60.3684 242.216 61.2869C242.576 62.196 243.092 62.9015 243.764 63.4034C244.446 63.8958 245.284 64.142 246.278 64.142ZM271.491 69.4261C269.285 69.4261 267.377 68.9574 265.767 68.0199C264.167 67.0729 262.931 65.7566 262.06 64.071C261.188 62.3759 260.753 60.411 260.753 58.1761C260.753 55.9223 261.188 53.9527 262.06 52.267C262.931 50.572 264.167 49.2557 265.767 48.3182C267.377 47.3712 269.285 46.8977 271.491 46.8977C273.698 46.8977 275.601 47.3712 277.202 48.3182C278.812 49.2557 280.052 50.572 280.923 52.267C281.795 53.9527 282.23 55.9223 282.23 58.1761C282.23 60.411 281.795 62.3759 280.923 64.071C280.052 65.7566 278.812 67.0729 277.202 68.0199C275.601 68.9574 273.698 69.4261 271.491 69.4261ZM271.52 64.7386C272.524 64.7386 273.362 64.4545 274.034 63.8864C274.706 63.3087 275.213 62.5227 275.554 61.5284C275.904 60.5341 276.08 59.4025 276.08 58.1335C276.08 56.8646 275.904 55.733 275.554 54.7386C275.213 53.7443 274.706 52.9583 274.034 52.3807C273.362 51.803 272.524 51.5142 271.52 51.5142C270.507 51.5142 269.654 51.803 268.963 52.3807C268.281 52.9583 267.765 53.7443 267.415 54.7386C267.074 55.733 266.903 56.8646 266.903 58.1335C266.903 59.4025 267.074 60.5341 267.415 61.5284C267.765 62.5227 268.281 63.3087 268.963 63.8864C269.654 64.4545 270.507 64.7386 271.52 64.7386ZM286.165 69V47.1818H292.031V50.9886H292.259C292.656 49.6345 293.324 48.6117 294.261 47.9205C295.199 47.2197 296.278 46.8693 297.5 46.8693C297.803 46.8693 298.13 46.8883 298.48 46.9261C298.83 46.964 299.138 47.0161 299.403 47.0824V52.4517C299.119 52.3665 298.726 52.2907 298.224 52.2244C297.723 52.1581 297.263 52.125 296.847 52.125C295.956 52.125 295.161 52.3191 294.46 52.7074C293.769 53.0862 293.22 53.6165 292.812 54.2983C292.415 54.9801 292.216 55.7661 292.216 56.6562V69H286.165ZM308.129 69.4119C306.737 69.4119 305.496 69.1705 304.407 68.6875C303.318 68.1951 302.456 67.4706 301.822 66.5142C301.197 65.5483 300.884 64.3456 300.884 62.9062C300.884 61.6941 301.107 60.6761 301.552 59.8523C301.997 59.0284 302.603 58.3655 303.37 57.8636C304.137 57.3617 305.008 56.983 305.984 56.7273C306.969 56.4716 308.001 56.2917 309.08 56.1875C310.349 56.0549 311.372 55.9318 312.148 55.8182C312.925 55.6951 313.488 55.5152 313.839 55.2784C314.189 55.0417 314.364 54.6913 314.364 54.2273V54.142C314.364 53.2424 314.08 52.5464 313.512 52.054C312.953 51.5616 312.158 51.3153 311.126 51.3153C310.037 51.3153 309.17 51.5568 308.526 52.0398C307.882 52.5133 307.456 53.1098 307.248 53.8295L301.651 53.375C301.935 52.0492 302.494 50.9034 303.327 49.9375C304.161 48.9621 305.236 48.214 306.552 47.6932C307.878 47.1629 309.412 46.8977 311.154 46.8977C312.366 46.8977 313.526 47.0398 314.634 47.3239C315.752 47.608 316.741 48.0483 317.603 48.6449C318.474 49.2415 319.161 50.0085 319.663 50.946C320.165 51.8741 320.415 52.9867 320.415 54.2841V69H314.677V65.9744H314.506C314.156 66.6562 313.687 67.2576 313.1 67.7784C312.513 68.2898 311.808 68.6922 310.984 68.9858C310.16 69.2699 309.208 69.4119 308.129 69.4119ZM309.862 65.2358C310.752 65.2358 311.538 65.0606 312.219 64.7102C312.901 64.3504 313.436 63.8674 313.825 63.2614C314.213 62.6553 314.407 61.9687 314.407 61.2017V58.8864C314.218 59.0095 313.957 59.1231 313.626 59.2273C313.304 59.322 312.939 59.4119 312.532 59.4972C312.125 59.5729 311.718 59.6439 311.31 59.7102C310.903 59.767 310.534 59.8191 310.202 59.8665C309.492 59.9706 308.872 60.1364 308.342 60.3636C307.811 60.5909 307.399 60.8987 307.106 61.2869C306.812 61.6657 306.665 62.1392 306.665 62.7074C306.665 63.5312 306.964 64.161 307.56 64.5966C308.166 65.0227 308.933 65.2358 309.862 65.2358ZM344.197 77.6364C342.237 77.6364 340.556 77.3665 339.155 76.8267C337.763 76.2964 336.655 75.572 335.831 74.6534C335.007 73.7348 334.472 72.7027 334.226 71.5568L339.822 70.804C339.993 71.2396 340.263 71.6468 340.632 72.0256C341.001 72.4044 341.489 72.7074 342.095 72.9347C342.711 73.1714 343.459 73.2898 344.339 73.2898C345.656 73.2898 346.74 72.9678 347.592 72.3239C348.454 71.6894 348.885 70.6241 348.885 69.1278V65.1364H348.629C348.364 65.7424 347.966 66.3153 347.436 66.8551C346.906 67.3949 346.224 67.8352 345.391 68.1761C344.557 68.517 343.563 68.6875 342.408 68.6875C340.769 68.6875 339.278 68.3087 337.933 67.5511C336.598 66.7841 335.533 65.6146 334.737 64.0426C333.951 62.4612 333.558 60.4631 333.558 58.0483C333.558 55.5767 333.961 53.5123 334.766 51.8551C335.571 50.1979 336.641 48.9574 337.976 48.1335C339.321 47.3097 340.793 46.8977 342.393 46.8977C343.615 46.8977 344.638 47.1061 345.462 47.5227C346.286 47.9299 346.948 48.4413 347.45 49.0568C347.962 49.6629 348.355 50.2595 348.629 50.8466H348.857V47.1818H354.865V69.2131C354.865 71.0691 354.411 72.6222 353.501 73.8722C352.592 75.1222 351.333 76.0597 349.723 76.6847C348.123 77.3191 346.281 77.6364 344.197 77.6364ZM344.325 64.142C345.301 64.142 346.125 63.9006 346.797 63.4176C347.479 62.9252 348 62.2244 348.359 61.3153C348.729 60.3968 348.913 59.2983 348.913 58.0199C348.913 56.7415 348.733 55.6335 348.374 54.696C348.014 53.7491 347.493 53.0152 346.811 52.4943C346.129 51.9735 345.301 51.7131 344.325 51.7131C343.331 51.7131 342.493 51.983 341.811 52.5227C341.129 53.053 340.613 53.7917 340.263 54.7386C339.912 55.6856 339.737 56.7794 339.737 58.0199C339.737 59.2794 339.912 60.3684 340.263 61.2869C340.623 62.196 341.139 62.9015 341.811 63.4034C342.493 63.8958 343.331 64.142 344.325 64.142ZM359.68 69V47.1818H365.547V50.9886H365.774C366.172 49.6345 366.839 48.6117 367.777 47.9205C368.714 47.2197 369.794 46.8693 371.016 46.8693C371.319 46.8693 371.645 46.8883 371.996 46.9261C372.346 46.964 372.654 47.0161 372.919 47.0824V52.4517C372.635 52.3665 372.242 52.2907 371.74 52.2244C371.238 52.1581 370.779 52.125 370.362 52.125C369.472 52.125 368.677 52.3191 367.976 52.7074C367.285 53.0862 366.735 53.6165 366.328 54.2983C365.93 54.9801 365.732 55.7661 365.732 56.6562V69H359.68ZM381.644 69.4119C380.252 69.4119 379.012 69.1705 377.923 68.6875C376.834 68.1951 375.972 67.4706 375.337 66.5142C374.712 65.5483 374.4 64.3456 374.4 62.9062C374.4 61.6941 374.622 60.6761 375.067 59.8523C375.513 59.0284 376.119 58.3655 376.886 57.8636C377.653 57.3617 378.524 56.983 379.499 56.7273C380.484 56.4716 381.516 56.2917 382.596 56.1875C383.865 56.0549 384.888 55.9318 385.664 55.8182C386.441 55.6951 387.004 55.5152 387.354 55.2784C387.705 55.0417 387.88 54.6913 387.88 54.2273V54.142C387.88 53.2424 387.596 52.5464 387.028 52.054C386.469 51.5616 385.674 51.3153 384.641 51.3153C383.552 51.3153 382.686 51.5568 382.042 52.0398C381.398 52.5133 380.972 53.1098 380.763 53.8295L375.167 53.375C375.451 52.0492 376.01 50.9034 376.843 49.9375C377.676 48.9621 378.751 48.214 380.067 47.6932C381.393 47.1629 382.927 46.8977 384.67 46.8977C385.882 46.8977 387.042 47.0398 388.15 47.3239C389.267 47.608 390.257 48.0483 391.119 48.6449C391.99 49.2415 392.676 50.0085 393.178 50.946C393.68 51.8741 393.931 52.9867 393.931 54.2841V69H388.192V65.9744H388.022C387.672 66.6562 387.203 67.2576 386.616 67.7784C386.029 68.2898 385.323 68.6922 384.499 68.9858C383.675 69.2699 382.724 69.4119 381.644 69.4119ZM383.377 65.2358C384.267 65.2358 385.053 65.0606 385.735 64.7102C386.417 64.3504 386.952 63.8674 387.34 63.2614C387.728 62.6553 387.923 61.9687 387.923 61.2017V58.8864C387.733 59.0095 387.473 59.1231 387.141 59.2273C386.819 59.322 386.455 59.4119 386.048 59.4972C385.64 59.5729 385.233 59.6439 384.826 59.7102C384.419 59.767 384.049 59.8191 383.718 59.8665C383.008 59.9706 382.388 60.1364 381.857 60.3636C381.327 60.5909 380.915 60.8987 380.621 61.2869C380.328 61.6657 380.181 62.1392 380.181 62.7074C380.181 63.5312 380.479 64.161 381.076 64.5966C381.682 65.0227 382.449 65.2358 383.377 65.2358ZM410.231 47.1818V51.7273H397.092V47.1818H410.231ZM400.075 41.9545H406.126V62.2955C406.126 62.8542 406.211 63.2898 406.381 63.6023C406.552 63.9053 406.789 64.1184 407.092 64.2415C407.404 64.3646 407.764 64.4261 408.171 64.4261C408.455 64.4261 408.739 64.4025 409.023 64.3551C409.308 64.2983 409.525 64.2557 409.677 64.2273L410.629 68.7301C410.326 68.8248 409.899 68.9337 409.35 69.0568C408.801 69.1894 408.133 69.2699 407.347 69.2983C405.889 69.3551 404.611 69.161 403.512 68.7159C402.423 68.2708 401.576 67.5795 400.969 66.642C400.363 65.7045 400.065 64.5208 400.075 63.0909V41.9545ZM428.164 59.7102V47.1818H434.215V69H428.406V65.0369H428.178C427.686 66.3153 426.867 67.3428 425.721 68.1193C424.585 68.8958 423.197 69.2841 421.559 69.2841C420.101 69.2841 418.817 68.9527 417.71 68.2898C416.602 67.6269 415.735 66.6847 415.11 65.4631C414.495 64.2415 414.182 62.7784 414.173 61.0739V47.1818H420.224V59.9943C420.233 61.2822 420.579 62.3002 421.261 63.0483C421.942 63.7964 422.856 64.1705 424.002 64.1705C424.731 64.1705 425.413 64.0047 426.048 63.6733C426.682 63.3324 427.193 62.8305 427.582 62.1676C427.979 61.5047 428.174 60.6856 428.164 59.7102ZM439.055 69V47.1818H445.107V69H439.055ZM442.095 44.3693C441.196 44.3693 440.424 44.071 439.78 43.4744C439.145 42.8684 438.828 42.1439 438.828 41.3011C438.828 40.4678 439.145 39.7528 439.78 39.1562C440.424 38.5502 441.196 38.2472 442.095 38.2472C442.995 38.2472 443.762 38.5502 444.396 39.1562C445.04 39.7528 445.362 40.4678 445.362 41.3011C445.362 42.1439 445.04 42.8684 444.396 43.4744C443.762 44.071 442.995 44.3693 442.095 44.3693ZM461.559 47.1818V51.7273H448.42V47.1818H461.559ZM451.403 41.9545H457.454V62.2955C457.454 62.8542 457.539 63.2898 457.71 63.6023C457.88 63.9053 458.117 64.1184 458.42 64.2415C458.732 64.3646 459.092 64.4261 459.499 64.4261C459.783 64.4261 460.067 64.4025 460.352 64.3551C460.636 64.2983 460.853 64.2557 461.005 64.2273L461.957 68.7301C461.654 68.8248 461.228 68.9337 460.678 69.0568C460.129 69.1894 459.461 69.2699 458.675 69.2983C457.217 69.3551 455.939 69.161 454.84 68.7159C453.751 68.2708 452.904 67.5795 452.298 66.642C451.692 65.7045 451.393 64.5208 451.403 63.0909V41.9545ZM471.722 69.4119C470.33 69.4119 469.09 69.1705 468.001 68.6875C466.912 68.1951 466.05 67.4706 465.415 66.5142C464.79 65.5483 464.478 64.3456 464.478 62.9062C464.478 61.6941 464.701 60.6761 465.146 59.8523C465.591 59.0284 466.197 58.3655 466.964 57.8636C467.731 57.3617 468.602 56.983 469.577 56.7273C470.562 56.4716 471.594 56.2917 472.674 56.1875C473.943 56.0549 474.966 55.9318 475.742 55.8182C476.519 55.6951 477.082 55.5152 477.433 55.2784C477.783 55.0417 477.958 54.6913 477.958 54.2273V54.142C477.958 53.2424 477.674 52.5464 477.106 52.054C476.547 51.5616 475.752 51.3153 474.719 51.3153C473.63 51.3153 472.764 51.5568 472.12 52.0398C471.476 52.5133 471.05 53.1098 470.842 53.8295L465.245 53.375C465.529 52.0492 466.088 50.9034 466.921 49.9375C467.754 48.9621 468.829 48.214 470.146 47.6932C471.471 47.1629 473.005 46.8977 474.748 46.8977C475.96 46.8977 477.12 47.0398 478.228 47.3239C479.345 47.608 480.335 48.0483 481.197 48.6449C482.068 49.2415 482.754 50.0085 483.256 50.946C483.758 51.8741 484.009 52.9867 484.009 54.2841V69H478.271V65.9744H478.1C477.75 66.6562 477.281 67.2576 476.694 67.7784C476.107 68.2898 475.401 68.6922 474.577 68.9858C473.754 69.2699 472.802 69.4119 471.722 69.4119ZM473.455 65.2358C474.345 65.2358 475.131 65.0606 475.813 64.7102C476.495 64.3504 477.03 63.8674 477.418 63.2614C477.807 62.6553 478.001 61.9687 478.001 61.2017V58.8864C477.811 59.0095 477.551 59.1231 477.219 59.2273C476.897 59.322 476.533 59.4119 476.126 59.4972C475.719 59.5729 475.311 59.6439 474.904 59.7102C474.497 59.767 474.128 59.8191 473.796 59.8665C473.086 59.9706 472.466 60.1364 471.935 60.3636C471.405 60.5909 470.993 60.8987 470.7 61.2869C470.406 61.6657 470.259 62.1392 470.259 62.7074C470.259 63.5312 470.558 64.161 471.154 64.5966C471.76 65.0227 472.527 65.2358 473.455 65.2358ZM488.704 69V47.1818H494.471V51.0312H494.727C495.181 49.7528 495.939 48.7443 496.999 48.0057C498.06 47.267 499.329 46.8977 500.806 46.8977C502.302 46.8977 503.576 47.2718 504.627 48.0199C505.678 48.7585 506.379 49.7623 506.729 51.0312H506.957C507.402 49.7812 508.207 48.7822 509.371 48.0341C510.546 47.2765 511.933 46.8977 513.533 46.8977C515.569 46.8977 517.222 47.5464 518.491 48.8438C519.769 50.1316 520.408 51.9593 520.408 54.3267V69H514.371V55.5199C514.371 54.3078 514.049 53.3987 513.406 52.7926C512.762 52.1866 511.957 51.8835 510.991 51.8835C509.892 51.8835 509.035 52.2339 508.42 52.9347C507.804 53.6259 507.496 54.5398 507.496 55.6761V69H501.63V55.392C501.63 54.322 501.322 53.4697 500.707 52.8352C500.101 52.2008 499.3 51.8835 498.306 51.8835C497.634 51.8835 497.028 52.054 496.488 52.3949C495.958 52.7263 495.536 53.1951 495.224 53.8011C494.911 54.3977 494.755 55.0985 494.755 55.9034V69H488.704ZM535.131 69.4261C532.887 69.4261 530.955 68.9716 529.336 68.0625C527.726 67.1439 526.486 65.8466 525.614 64.1705C524.743 62.4848 524.308 60.4915 524.308 58.1903C524.308 55.946 524.743 53.9763 525.614 52.2812C526.486 50.5862 527.712 49.2652 529.293 48.3182C530.884 47.3712 532.75 46.8977 534.89 46.8977C536.329 46.8977 537.669 47.1297 538.91 47.5938C540.16 48.0483 541.249 48.7348 542.177 49.6534C543.114 50.572 543.844 51.7273 544.364 53.1193C544.885 54.5019 545.146 56.1212 545.146 57.9773V59.6392H526.722V55.8892H539.45C539.45 55.018 539.26 54.2462 538.881 53.5739C538.503 52.9015 537.977 52.3759 537.305 51.9972C536.642 51.6089 535.87 51.4148 534.989 51.4148C534.071 51.4148 533.256 51.6278 532.546 52.054C531.845 52.4706 531.296 53.0341 530.898 53.7443C530.501 54.4451 530.297 55.2263 530.288 56.0881V59.6534C530.288 60.733 530.487 61.6657 530.884 62.4517C531.291 63.2377 531.864 63.8438 532.603 64.2699C533.342 64.696 534.218 64.9091 535.231 64.9091C535.903 64.9091 536.519 64.8144 537.077 64.625C537.636 64.4356 538.114 64.1515 538.512 63.7727C538.91 63.3939 539.213 62.9299 539.421 62.3807L545.018 62.75C544.734 64.0947 544.151 65.2689 543.271 66.2727C542.399 67.267 541.272 68.0436 539.89 68.6023C538.517 69.1515 536.931 69.4261 535.131 69.4261ZM555.146 56.3864V69H549.094V47.1818H554.862V51.0312H555.117C555.6 49.7623 556.41 48.7585 557.546 48.0199C558.683 47.2718 560.06 46.8977 561.68 46.8977C563.195 46.8977 564.516 47.2292 565.643 47.892C566.77 48.5549 567.646 49.5019 568.271 50.733C568.896 51.9545 569.208 53.4129 569.208 55.108V69H563.157V56.1875C563.166 54.8523 562.826 53.8106 562.134 53.0625C561.443 52.3049 560.491 51.9261 559.279 51.9261C558.465 51.9261 557.745 52.1013 557.12 52.4517C556.504 52.8021 556.022 53.3134 555.671 53.9858C555.33 54.6487 555.155 55.4489 555.146 56.3864ZM585.582 47.1818V51.7273H572.443V47.1818H585.582ZM575.426 41.9545H581.477V62.2955C581.477 62.8542 581.563 63.2898 581.733 63.6023C581.903 63.9053 582.14 64.1184 582.443 64.2415C582.756 64.3646 583.116 64.4261 583.523 64.4261C583.807 64.4261 584.091 64.4025 584.375 64.3551C584.659 64.2983 584.877 64.2557 585.028 64.2273L585.98 68.7301C585.677 68.8248 585.251 68.9337 584.702 69.0568C584.152 69.1894 583.485 69.2699 582.699 69.2983C581.241 69.3551 579.962 69.161 578.864 68.7159C577.775 68.2708 576.927 67.5795 576.321 66.642C575.715 65.7045 575.417 64.5208 575.426 63.0909V41.9545ZM599.148 69.4261C596.941 69.4261 595.033 68.9574 593.423 68.0199C591.823 67.0729 590.587 65.7566 589.716 64.071C588.845 62.3759 588.409 60.411 588.409 58.1761C588.409 55.9223 588.845 53.9527 589.716 52.267C590.587 50.572 591.823 49.2557 593.423 48.3182C595.033 47.3712 596.941 46.8977 599.148 46.8977C601.354 46.8977 603.258 47.3712 604.858 48.3182C606.468 49.2557 607.708 50.572 608.58 52.267C609.451 53.9527 609.886 55.9223 609.886 58.1761C609.886 60.411 609.451 62.3759 608.58 64.071C607.708 65.7566 606.468 67.0729 604.858 68.0199C603.258 68.9574 601.354 69.4261 599.148 69.4261ZM599.176 64.7386C600.18 64.7386 601.018 64.4545 601.69 63.8864C602.363 63.3087 602.869 62.5227 603.21 61.5284C603.561 60.5341 603.736 59.4025 603.736 58.1335C603.736 56.8646 603.561 55.733 603.21 54.7386C602.869 53.7443 602.363 52.9583 601.69 52.3807C601.018 51.803 600.18 51.5142 599.176 51.5142C598.163 51.5142 597.311 51.803 596.619 52.3807C595.938 52.9583 595.421 53.7443 595.071 54.7386C594.73 55.733 594.56 56.8646 594.56 58.1335C594.56 59.4025 594.73 60.5341 595.071 61.5284C595.421 62.5227 595.938 63.3087 596.619 63.8864C597.311 64.4545 598.163 64.7386 599.176 64.7386Z" fill="white"/>
</svg>
