<svg width="303" height="81" viewBox="0 0 303 81" fill="none" xmlns="http://www.w3.org/2000/svg">
<g filter="url(#filter0_d_567_616)">
<rect x="4" width="295" height="73" rx="36.5" fill="#59BDA3"/>
</g>
<g filter="url(#filter1_d_567_616)">
<path d="M84.3253 23.8182V50H79.5824V23.8182H84.3253ZM93.8846 38.4943V50H89.2567V30.3636H93.68V33.7003H93.9102C94.3619 32.6009 95.082 31.7273 96.0707 31.0795C97.0678 30.4318 98.2994 30.108 99.7653 30.108C101.12 30.108 102.301 30.3977 103.306 30.9773C104.321 31.5568 105.105 32.3963 105.659 33.4957C106.221 34.5952 106.498 35.929 106.49 37.4972V50H101.862V38.2131C101.862 36.9006 101.521 35.8736 100.839 35.1321C100.166 34.3906 99.2326 34.0199 98.0394 34.0199C97.2298 34.0199 96.5096 34.1989 95.8789 34.5568C95.2567 34.9062 94.7667 35.4134 94.4087 36.0781C94.0593 36.7429 93.8846 37.5483 93.8846 38.4943ZM111.194 50V30.3636H115.822V50H111.194ZM113.521 27.5767C112.788 27.5767 112.157 27.3338 111.629 26.848C111.1 26.3537 110.836 25.7614 110.836 25.071C110.836 24.3722 111.1 23.7798 111.629 23.294C112.157 22.7997 112.788 22.5526 113.521 22.5526C114.262 22.5526 114.893 22.7997 115.413 23.294C115.941 23.7798 116.206 24.3722 116.206 25.071C116.206 25.7614 115.941 26.3537 115.413 26.848C114.893 27.3338 114.262 27.5767 113.521 27.5767ZM129.146 50.3835C127.186 50.3835 125.503 49.9531 124.097 49.0923C122.699 48.2315 121.621 47.0426 120.862 45.5256C120.112 44 119.737 42.2443 119.737 40.2585C119.737 38.2642 120.121 36.5043 120.888 34.9787C121.655 33.4446 122.737 32.2514 124.135 31.3991C125.541 30.5384 127.203 30.108 129.121 30.108C130.714 30.108 132.125 30.402 133.352 30.9901C134.588 31.5696 135.572 32.392 136.305 33.4574C137.038 34.5142 137.456 35.75 137.558 37.1648H133.135C132.956 36.2187 132.53 35.4304 131.857 34.7997C131.192 34.1605 130.301 33.8409 129.185 33.8409C128.239 33.8409 127.408 34.0966 126.692 34.608C125.976 35.1108 125.418 35.8352 125.017 36.7812C124.625 37.7273 124.429 38.8608 124.429 40.1818C124.429 41.5199 124.625 42.6705 125.017 43.6335C125.409 44.5881 125.959 45.3253 126.666 45.8452C127.382 46.3565 128.222 46.6122 129.185 46.6122C129.866 46.6122 130.476 46.4844 131.013 46.2287C131.558 45.9645 132.014 45.5852 132.381 45.0909C132.747 44.5966 132.999 43.9957 133.135 43.2884H137.558C137.447 44.6776 137.038 45.9091 136.331 46.983C135.624 48.0483 134.661 48.8835 133.442 49.4886C132.223 50.0852 130.791 50.3835 129.146 50.3835ZM141.358 50V30.3636H145.986V50H141.358ZM143.685 27.5767C142.952 27.5767 142.321 27.3338 141.793 26.848C141.265 26.3537 141 25.7614 141 25.071C141 24.3722 141.265 23.7798 141.793 23.294C142.321 22.7997 142.952 22.5526 143.685 22.5526C144.426 22.5526 145.057 22.7997 145.577 23.294C146.105 23.7798 146.37 24.3722 146.37 25.071C146.37 25.7614 146.105 26.3537 145.577 26.848C145.057 27.3338 144.426 27.5767 143.685 27.5767ZM156.396 50.3963C155.151 50.3963 154.031 50.1747 153.033 49.7315C152.045 49.2798 151.261 48.6151 150.681 47.7372C150.11 46.8594 149.825 45.777 149.825 44.4901C149.825 43.3821 150.029 42.4659 150.438 41.7415C150.847 41.017 151.406 40.4375 152.113 40.0028C152.82 39.5682 153.617 39.2401 154.504 39.0185C155.398 38.7884 156.323 38.6222 157.278 38.5199C158.428 38.4006 159.362 38.294 160.077 38.2003C160.793 38.098 161.313 37.9446 161.637 37.7401C161.969 37.527 162.136 37.1989 162.136 36.7557V36.679C162.136 35.7159 161.85 34.9702 161.279 34.4418C160.708 33.9134 159.886 33.6491 158.812 33.6491C157.678 33.6491 156.779 33.8963 156.114 34.3906C155.458 34.8849 155.015 35.4687 154.785 36.142L150.464 35.5284C150.805 34.3352 151.367 33.3381 152.151 32.5369C152.935 31.7273 153.894 31.1222 155.028 30.7216C156.161 30.3125 157.414 30.108 158.786 30.108C159.732 30.108 160.674 30.2188 161.612 30.4403C162.549 30.6619 163.406 31.0284 164.181 31.5398C164.957 32.0426 165.579 32.7287 166.048 33.598C166.525 34.4673 166.763 35.554 166.763 36.858V50H162.315V47.3026H162.161C161.88 47.848 161.484 48.3594 160.972 48.8366C160.469 49.3054 159.835 49.6847 159.067 49.9744C158.309 50.2557 157.418 50.3963 156.396 50.3963ZM157.597 46.9957C158.526 46.9957 159.332 46.8125 160.013 46.446C160.695 46.071 161.219 45.5767 161.586 44.9631C161.961 44.3494 162.148 43.6804 162.148 42.956V40.642C162.004 40.7614 161.756 40.8722 161.407 40.9744C161.066 41.0767 160.683 41.1662 160.256 41.2429C159.83 41.3196 159.408 41.3878 158.991 41.4474C158.573 41.5071 158.211 41.5582 157.904 41.6009C157.214 41.6946 156.596 41.848 156.05 42.0611C155.505 42.2741 155.075 42.5724 154.759 42.956C154.444 43.331 154.286 43.8168 154.286 44.4134C154.286 45.2656 154.597 45.9091 155.219 46.3438C155.842 46.7784 156.634 46.9957 157.597 46.9957ZM176.045 38.4943V50H171.417V30.3636H175.84V33.7003H176.07C176.522 32.6009 177.242 31.7273 178.231 31.0795C179.228 30.4318 180.46 30.108 181.925 30.108C183.281 30.108 184.461 30.3977 185.467 30.9773C186.481 31.5568 187.265 32.3963 187.819 33.4957C188.381 34.5952 188.658 35.929 188.65 37.4972V50H184.022V38.2131C184.022 36.9006 183.681 35.8736 182.999 35.1321C182.326 34.3906 181.393 34.0199 180.2 34.0199C179.39 34.0199 178.67 34.1989 178.039 34.5568C177.417 34.9062 176.927 35.4134 176.569 36.0781C176.219 36.7429 176.045 37.5483 176.045 38.4943ZM203.16 30.3636V33.9432H191.871V30.3636H203.16ZM194.658 25.6591H199.286V44.0938C199.286 44.7159 199.38 45.1932 199.567 45.5256C199.763 45.8494 200.019 46.071 200.335 46.1903C200.65 46.3097 200.999 46.3693 201.383 46.3693C201.673 46.3693 201.937 46.348 202.175 46.3054C202.423 46.2628 202.61 46.2244 202.738 46.1903L203.518 49.8082C203.271 49.8935 202.917 49.9872 202.457 50.0895C202.005 50.1918 201.451 50.2514 200.795 50.2685C199.636 50.3026 198.592 50.1278 197.663 49.7443C196.734 49.3523 195.996 48.7472 195.451 47.929C194.914 47.1108 194.65 46.0881 194.658 44.8608V25.6591ZM215.512 50.3835C213.544 50.3835 211.843 49.9744 210.412 49.1562C208.988 48.3295 207.893 47.1619 207.126 45.6534C206.359 44.1364 205.975 42.3509 205.975 40.2969C205.975 38.277 206.359 36.5043 207.126 34.9787C207.902 33.4446 208.984 32.2514 210.373 31.3991C211.762 30.5384 213.395 30.108 215.27 30.108C216.48 30.108 217.622 30.304 218.696 30.696C219.778 31.0795 220.733 31.6761 221.559 32.4858C222.395 33.2955 223.051 34.3267 223.528 35.5795C224.005 36.8239 224.244 38.3068 224.244 40.0284V41.4474H208.149V38.3281H219.808C219.799 37.4418 219.608 36.6534 219.233 35.9631C218.858 35.2642 218.333 34.7145 217.66 34.3139C216.995 33.9134 216.22 33.7131 215.333 33.7131C214.387 33.7131 213.556 33.9432 212.841 34.4034C212.125 34.8551 211.566 35.4517 211.166 36.1932C210.774 36.9261 210.574 37.7315 210.565 38.6094V41.3324C210.565 42.4744 210.774 43.4545 211.191 44.2727C211.609 45.0824 212.193 45.7045 212.943 46.1392C213.693 46.5653 214.571 46.7784 215.576 46.7784C216.25 46.7784 216.859 46.6847 217.404 46.4972C217.95 46.3011 218.423 46.0156 218.824 45.6406C219.224 45.2656 219.527 44.8011 219.731 44.2472L224.052 44.733C223.779 45.875 223.26 46.8722 222.493 47.7244C221.734 48.5682 220.762 49.2244 219.578 49.6932C218.393 50.1534 217.038 50.3835 215.512 50.3835Z" fill="white"/>
</g>
<defs>
<filter id="filter0_d_567_616" x="0" y="0" width="303" height="81" filterUnits="userSpaceOnUse" color-interpolation-filters="sRGB">
<feFlood flood-opacity="0" result="BackgroundImageFix"/>
<feColorMatrix in="SourceAlpha" type="matrix" values="0 0 0 0 0 0 0 0 0 0 0 0 0 0 0 0 0 0 127 0" result="hardAlpha"/>
<feOffset dy="4"/>
<feGaussianBlur stdDeviation="2"/>
<feComposite in2="hardAlpha" operator="out"/>
<feColorMatrix type="matrix" values="0 0 0 0 0 0 0 0 0 0 0 0 0 0 0 0 0 0 0.25 0"/>
<feBlend mode="normal" in2="BackgroundImageFix" result="effect1_dropShadow_567_616"/>
<feBlend mode="normal" in="SourceGraphic" in2="effect1_dropShadow_567_616" result="shape"/>
</filter>
<filter id="filter1_d_567_616" x="75.582" y="22.5526" width="152.662" height="35.8438" filterUnits="userSpaceOnUse" color-interpolation-filters="sRGB">
<feFlood flood-opacity="0" result="BackgroundImageFix"/>
<feColorMatrix in="SourceAlpha" type="matrix" values="0 0 0 0 0 0 0 0 0 0 0 0 0 0 0 0 0 0 127 0" result="hardAlpha"/>
<feOffset dy="4"/>
<feGaussianBlur stdDeviation="2"/>
<feComposite in2="hardAlpha" operator="out"/>
<feColorMatrix type="matrix" values="0 0 0 0 0 0 0 0 0 0 0 0 0 0 0 0 0 0 0.25 0"/>
<feBlend mode="normal" in2="BackgroundImageFix" result="effect1_dropShadow_567_616"/>
<feBlend mode="normal" in="SourceGraphic" in2="effect1_dropShadow_567_616" result="shape"/>
</filter>
</defs>
</svg>
