<svg width="408" height="93" viewBox="0 0 408 93" fill="none" xmlns="http://www.w3.org/2000/svg">
<g filter="url(#filter0_d_567_633)">
<rect x="4" width="400" height="85" rx="30" fill="#59BDA3"/>
</g>
<g filter="url(#filter1_d_567_633)">
<path d="M54.008 56V33.6H63.224C65.208 33.6 66.904 33.92 68.312 34.56C69.7413 35.2 70.84 36.1173 71.608 37.312C72.376 38.5067 72.76 39.9253 72.76 41.568C72.76 43.2107 72.376 44.6293 71.608 45.824C70.84 46.9973 69.7413 47.904 68.312 48.544C66.904 49.1627 65.208 49.472 63.224 49.472H56.312L58.168 47.584V56H54.008ZM68.664 56L63 47.872H67.448L73.144 56H68.664ZM58.168 48.032L56.312 46.048H63.032C64.8667 46.048 66.2427 45.6533 67.16 44.864C68.0987 44.0747 68.568 42.976 68.568 41.568C68.568 40.1387 68.0987 39.04 67.16 38.272C66.2427 37.504 64.8667 37.12 63.032 37.12H56.312L58.168 35.072V48.032ZM85.0623 56.224C83.1636 56.224 81.4996 55.8507 80.0703 55.104C78.6623 54.336 77.5636 53.2907 76.7743 51.968C76.0063 50.6453 75.6223 49.1413 75.6223 47.456C75.6223 45.7493 75.9956 44.2453 76.7423 42.944C77.5103 41.6213 78.5556 40.5867 79.8783 39.84C81.2223 39.0933 82.7476 38.72 84.4543 38.72C86.1183 38.72 87.6009 39.0827 88.9023 39.808C90.2036 40.5333 91.2276 41.5573 91.9743 42.88C92.7209 44.2027 93.0943 45.76 93.0943 47.552C93.0943 47.7227 93.0836 47.9147 93.0623 48.128C93.0623 48.3413 93.0516 48.544 93.0303 48.736H78.7903V46.08H90.9183L89.3503 46.912C89.3716 45.9307 89.1689 45.0667 88.7423 44.32C88.3156 43.5733 87.7289 42.9867 86.9823 42.56C86.2569 42.1333 85.4143 41.92 84.4543 41.92C83.4729 41.92 82.6089 42.1333 81.8623 42.56C81.1369 42.9867 80.5609 43.584 80.1343 44.352C79.7289 45.0987 79.5263 45.984 79.5263 47.008V47.648C79.5263 48.672 79.7609 49.5787 80.2303 50.368C80.6996 51.1573 81.3609 51.7653 82.2143 52.192C83.0676 52.6187 84.0489 52.832 85.1583 52.832C86.1183 52.832 86.9823 52.6827 87.7503 52.384C88.5183 52.0853 89.2009 51.616 89.7983 50.976L91.9423 53.44C91.1743 54.336 90.2036 55.0293 89.0303 55.52C87.8783 55.9893 86.5556 56.224 85.0623 56.224ZM104.777 56.224C102.985 56.224 101.385 55.8507 99.9765 55.104C98.5898 54.336 97.5018 53.2907 96.7125 51.968C95.9232 50.6453 95.5285 49.1413 95.5285 47.456C95.5285 45.7493 95.9232 44.2453 96.7125 42.944C97.5018 41.6213 98.5898 40.5867 99.9765 39.84C101.385 39.0933 102.985 38.72 104.777 38.72C106.441 38.72 107.902 39.0613 109.161 39.744C110.441 40.4053 111.411 41.3867 112.073 42.688L109.001 44.48C108.489 43.6693 107.859 43.072 107.113 42.688C106.387 42.304 105.598 42.112 104.745 42.112C103.763 42.112 102.878 42.3253 102.089 42.752C101.299 43.1787 100.681 43.7973 100.233 44.608C99.7845 45.3973 99.5605 46.3467 99.5605 47.456C99.5605 48.5653 99.7845 49.5253 100.233 50.336C100.681 51.1253 101.299 51.7333 102.089 52.16C102.878 52.5867 103.763 52.8 104.745 52.8C105.598 52.8 106.387 52.608 107.113 52.224C107.859 51.84 108.489 51.2427 109.001 50.432L112.073 52.224C111.411 53.504 110.441 54.496 109.161 55.2C107.902 55.8827 106.441 56.224 104.777 56.224ZM122.96 56.224C121.211 56.224 119.654 55.8507 118.288 55.104C116.923 54.336 115.846 53.2907 115.056 51.968C114.267 50.6453 113.872 49.1413 113.872 47.456C113.872 45.7493 114.267 44.2453 115.056 42.944C115.846 41.6213 116.923 40.5867 118.288 39.84C119.654 39.0933 121.211 38.72 122.96 38.72C124.731 38.72 126.299 39.0933 127.664 39.84C129.051 40.5867 130.128 41.6107 130.896 42.912C131.686 44.2133 132.08 45.728 132.08 47.456C132.08 49.1413 131.686 50.6453 130.896 51.968C130.128 53.2907 129.051 54.336 127.664 55.104C126.299 55.8507 124.731 56.224 122.96 56.224ZM122.96 52.8C123.942 52.8 124.816 52.5867 125.584 52.16C126.352 51.7333 126.95 51.1147 127.376 50.304C127.824 49.4933 128.048 48.544 128.048 47.456C128.048 46.3467 127.824 45.3973 127.376 44.608C126.95 43.7973 126.352 43.1787 125.584 42.752C124.816 42.3253 123.952 42.112 122.992 42.112C122.011 42.112 121.136 42.3253 120.368 42.752C119.622 43.1787 119.024 43.7973 118.576 44.608C118.128 45.3973 117.904 46.3467 117.904 47.456C117.904 48.544 118.128 49.4933 118.576 50.304C119.024 51.1147 119.622 51.7333 120.368 52.16C121.136 52.5867 122 52.8 122.96 52.8ZM157.473 38.72C158.839 38.72 160.044 38.9867 161.089 39.52C162.156 40.0533 162.988 40.8747 163.585 41.984C164.183 43.072 164.481 44.48 164.481 46.208V56H160.481V46.72C160.481 45.2053 160.151 44.0747 159.489 43.328C158.828 42.5813 157.879 42.208 156.641 42.208C155.767 42.208 154.988 42.4 154.305 42.784C153.644 43.168 153.121 43.7333 152.737 44.48C152.375 45.2267 152.193 46.176 152.193 47.328V56H148.193V46.72C148.193 45.2053 147.863 44.0747 147.201 43.328C146.54 42.5813 145.591 42.208 144.353 42.208C143.479 42.208 142.7 42.4 142.017 42.784C141.356 43.168 140.833 43.7333 140.449 44.48C140.087 45.2267 139.905 46.176 139.905 47.328V56H135.905V38.912H139.713V43.456L139.041 42.112C139.617 41.0027 140.449 40.16 141.537 39.584C142.647 39.008 143.905 38.72 145.313 38.72C146.913 38.72 148.3 39.1147 149.473 39.904C150.668 40.6933 151.457 41.888 151.841 43.488L150.273 42.944C150.828 41.664 151.745 40.64 153.025 39.872C154.305 39.104 155.788 38.72 157.473 38.72ZM177.656 56.224C175.757 56.224 174.093 55.8507 172.664 55.104C171.256 54.336 170.157 53.2907 169.368 51.968C168.6 50.6453 168.216 49.1413 168.216 47.456C168.216 45.7493 168.589 44.2453 169.336 42.944C170.104 41.6213 171.149 40.5867 172.472 39.84C173.816 39.0933 175.341 38.72 177.048 38.72C178.712 38.72 180.195 39.0827 181.496 39.808C182.797 40.5333 183.821 41.5573 184.568 42.88C185.315 44.2027 185.688 45.76 185.688 47.552C185.688 47.7227 185.677 47.9147 185.656 48.128C185.656 48.3413 185.645 48.544 185.624 48.736H171.384V46.08H183.512L181.944 46.912C181.965 45.9307 181.763 45.0667 181.336 44.32C180.909 43.5733 180.323 42.9867 179.576 42.56C178.851 42.1333 178.008 41.92 177.048 41.92C176.067 41.92 175.203 42.1333 174.456 42.56C173.731 42.9867 173.155 43.584 172.728 44.352C172.323 45.0987 172.12 45.984 172.12 47.008V47.648C172.12 48.672 172.355 49.5787 172.824 50.368C173.293 51.1573 173.955 51.7653 174.808 52.192C175.661 52.6187 176.643 52.832 177.752 52.832C178.712 52.832 179.576 52.6827 180.344 52.384C181.112 52.0853 181.795 51.616 182.392 50.976L184.536 53.44C183.768 54.336 182.797 55.0293 181.624 55.52C180.472 55.9893 179.149 56.224 177.656 56.224ZM199.226 38.72C200.592 38.72 201.808 38.9867 202.874 39.52C203.962 40.0533 204.816 40.8747 205.434 41.984C206.053 43.072 206.362 44.48 206.362 46.208V56H202.362V46.72C202.362 45.2053 202 44.0747 201.274 43.328C200.57 42.5813 199.578 42.208 198.298 42.208C197.36 42.208 196.528 42.4 195.802 42.784C195.077 43.168 194.512 43.744 194.106 44.512C193.722 45.2587 193.53 46.208 193.53 47.36V56H189.53V38.912H193.338V43.52L192.666 42.112C193.264 41.024 194.128 40.192 195.258 39.616C196.41 39.0187 197.733 38.72 199.226 38.72ZM218.7 56.224C217.057 56.224 215.574 55.8613 214.252 55.136C212.95 54.3893 211.926 53.3653 211.18 52.064C210.433 50.7627 210.06 49.2267 210.06 47.456C210.06 45.6853 210.433 44.1493 211.18 42.848C211.926 41.5467 212.95 40.5333 214.252 39.808C215.574 39.0827 217.057 38.72 218.7 38.72C220.129 38.72 221.409 39.04 222.54 39.68C223.67 40.2987 224.566 41.248 225.228 42.528C225.889 43.808 226.22 45.4507 226.22 47.456C226.22 49.44 225.9 51.0827 225.26 52.384C224.62 53.664 223.734 54.624 222.604 55.264C221.473 55.904 220.172 56.224 218.7 56.224ZM219.18 52.8C220.14 52.8 220.993 52.5867 221.74 52.16C222.508 51.7333 223.116 51.1147 223.564 50.304C224.033 49.4933 224.268 48.544 224.268 47.456C224.268 46.3467 224.033 45.3973 223.564 44.608C223.116 43.7973 222.508 43.1787 221.74 42.752C220.993 42.3253 220.14 42.112 219.18 42.112C218.22 42.112 217.356 42.3253 216.588 42.752C215.841 43.1787 215.233 43.7973 214.764 44.608C214.316 45.3973 214.092 46.3467 214.092 47.456C214.092 48.544 214.316 49.4933 214.764 50.304C215.233 51.1147 215.841 51.7333 216.588 52.16C217.356 52.5867 218.22 52.8 219.18 52.8ZM224.364 56V51.968L224.524 47.424L224.204 42.88V32.256H228.172V56H224.364ZM243.965 56V52.544L243.741 51.808V45.76C243.741 44.5867 243.389 43.68 242.685 43.04C241.981 42.3787 240.914 42.048 239.485 42.048C238.525 42.048 237.575 42.1973 236.637 42.496C235.719 42.7947 234.941 43.2107 234.301 43.744L232.733 40.832C233.65 40.128 234.738 39.6053 235.997 39.264C237.277 38.9013 238.599 38.72 239.965 38.72C242.439 38.72 244.349 39.3173 245.693 40.512C247.058 41.6853 247.741 43.5093 247.741 45.984V56H243.965ZM238.589 56.224C237.309 56.224 236.189 56.0107 235.229 55.584C234.269 55.136 233.522 54.528 232.989 53.76C232.477 52.9707 232.221 52.0853 232.221 51.104C232.221 50.144 232.445 49.28 232.893 48.512C233.362 47.744 234.119 47.136 235.165 46.688C236.21 46.24 237.597 46.016 239.325 46.016H244.285V48.672H239.613C238.247 48.672 237.33 48.896 236.861 49.344C236.391 49.7707 236.157 50.304 236.157 50.944C236.157 51.6693 236.445 52.2453 237.021 52.672C237.597 53.0987 238.397 53.312 239.421 53.312C240.402 53.312 241.277 53.088 242.045 52.64C242.834 52.192 243.399 51.5307 243.741 50.656L244.413 53.056C244.029 54.0587 243.335 54.8373 242.333 55.392C241.351 55.9467 240.103 56.224 238.589 56.224ZM260.745 56.224C258.953 56.224 257.353 55.8507 255.945 55.104C254.559 54.336 253.471 53.2907 252.681 51.968C251.892 50.6453 251.497 49.1413 251.497 47.456C251.497 45.7493 251.892 44.2453 252.681 42.944C253.471 41.6213 254.559 40.5867 255.945 39.84C257.353 39.0933 258.953 38.72 260.745 38.72C262.409 38.72 263.871 39.0613 265.129 39.744C266.409 40.4053 267.38 41.3867 268.041 42.688L264.969 44.48C264.457 43.6693 263.828 43.072 263.081 42.688C262.356 42.304 261.567 42.112 260.713 42.112C259.732 42.112 258.847 42.3253 258.057 42.752C257.268 43.1787 256.649 43.7973 256.201 44.608C255.753 45.3973 255.529 46.3467 255.529 47.456C255.529 48.5653 255.753 49.5253 256.201 50.336C256.649 51.1253 257.268 51.7333 258.057 52.16C258.847 52.5867 259.732 52.8 260.713 52.8C261.567 52.8 262.356 52.608 263.081 52.224C263.828 51.84 264.457 51.2427 264.969 50.432L268.041 52.224C267.38 53.504 266.409 54.496 265.129 55.2C263.871 55.8827 262.409 56.224 260.745 56.224ZM259.081 63.296C258.505 63.296 257.972 63.232 257.481 63.104C256.991 62.9973 256.543 62.8373 256.137 62.624L256.873 60.736C257.215 60.9067 257.556 61.0347 257.897 61.12C258.26 61.2053 258.644 61.248 259.049 61.248C259.668 61.248 260.105 61.1413 260.361 60.928C260.617 60.7147 260.745 60.4373 260.745 60.096C260.745 59.776 260.607 59.52 260.329 59.328C260.073 59.136 259.647 59.04 259.049 59.04H258.057L258.921 55.776H261.097L260.649 57.568C261.588 57.6747 262.281 57.9733 262.729 58.464C263.199 58.976 263.433 59.5733 263.433 60.256C263.433 61.1947 263.039 61.9307 262.249 62.464C261.46 63.0187 260.404 63.296 259.081 63.296ZM278.929 56.224C277.18 56.224 275.622 55.8507 274.257 55.104C272.892 54.336 271.814 53.2907 271.025 51.968C270.236 50.6453 269.841 49.1413 269.841 47.456C269.841 45.7493 270.236 44.2453 271.025 42.944C271.814 41.6213 272.892 40.5867 274.257 39.84C275.622 39.0933 277.18 38.72 278.929 38.72C280.7 38.72 282.268 39.0933 283.633 39.84C285.02 40.5867 286.097 41.6107 286.865 42.912C287.654 44.2133 288.049 45.728 288.049 47.456C288.049 49.1413 287.654 50.6453 286.865 51.968C286.097 53.2907 285.02 54.336 283.633 55.104C282.268 55.8507 280.7 56.224 278.929 56.224ZM278.929 52.8C279.91 52.8 280.785 52.5867 281.553 52.16C282.321 51.7333 282.918 51.1147 283.345 50.304C283.793 49.4933 284.017 48.544 284.017 47.456C284.017 46.3467 283.793 45.3973 283.345 44.608C282.918 43.7973 282.321 43.1787 281.553 42.752C280.785 42.3253 279.921 42.112 278.961 42.112C277.98 42.112 277.105 42.3253 276.337 42.752C275.59 43.1787 274.993 43.7973 274.545 44.608C274.097 45.3973 273.873 46.3467 273.873 47.456C273.873 48.544 274.097 49.4933 274.545 50.304C274.993 51.1147 275.59 51.7333 276.337 52.16C277.105 52.5867 277.969 52.8 278.929 52.8ZM281.201 36.576C280.689 36.576 280.22 36.48 279.793 36.288C279.388 36.0747 279.014 35.8293 278.673 35.552C278.353 35.2533 278.044 34.9973 277.745 34.784C277.446 34.5707 277.148 34.464 276.849 34.464C276.401 34.464 276.038 34.6347 275.761 34.976C275.484 35.3173 275.324 35.7867 275.281 36.384H273.137C273.18 35.0613 273.5 34.016 274.097 33.248C274.716 32.48 275.548 32.096 276.593 32.096C277.105 32.096 277.574 32.2027 278.001 32.416C278.428 32.6293 278.801 32.8747 279.121 33.152C279.462 33.4293 279.782 33.6747 280.081 33.888C280.38 34.1013 280.668 34.208 280.945 34.208C281.393 34.208 281.756 34.048 282.033 33.728C282.332 33.408 282.492 32.96 282.513 32.384H284.657C284.636 33.6213 284.316 34.6347 283.697 35.424C283.078 36.192 282.246 36.576 281.201 36.576ZM299.906 56.224C298.007 56.224 296.343 55.8507 294.914 55.104C293.506 54.336 292.407 53.2907 291.618 51.968C290.85 50.6453 290.466 49.1413 290.466 47.456C290.466 45.7493 290.839 44.2453 291.586 42.944C292.354 41.6213 293.399 40.5867 294.722 39.84C296.066 39.0933 297.591 38.72 299.298 38.72C300.962 38.72 302.445 39.0827 303.746 39.808C305.047 40.5333 306.071 41.5573 306.818 42.88C307.565 44.2027 307.938 45.76 307.938 47.552C307.938 47.7227 307.927 47.9147 307.906 48.128C307.906 48.3413 307.895 48.544 307.874 48.736H293.634V46.08H305.762L304.194 46.912C304.215 45.9307 304.013 45.0667 303.586 44.32C303.159 43.5733 302.573 42.9867 301.826 42.56C301.101 42.1333 300.258 41.92 299.298 41.92C298.317 41.92 297.453 42.1333 296.706 42.56C295.981 42.9867 295.405 43.584 294.978 44.352C294.573 45.0987 294.37 45.984 294.37 47.008V47.648C294.37 48.672 294.605 49.5787 295.074 50.368C295.543 51.1573 296.205 51.7653 297.058 52.192C297.911 52.6187 298.893 52.832 300.002 52.832C300.962 52.832 301.826 52.6827 302.594 52.384C303.362 52.0853 304.045 51.616 304.642 50.976L306.786 53.44C306.018 54.336 305.047 55.0293 303.874 55.52C302.722 55.9893 301.399 56.224 299.906 56.224ZM317.06 56.224C315.631 56.224 314.255 56.0427 312.932 55.68C311.631 55.296 310.596 54.8373 309.828 54.304L311.364 51.264C312.132 51.7547 313.05 52.16 314.116 52.48C315.183 52.8 316.25 52.96 317.316 52.96C318.575 52.96 319.482 52.7893 320.036 52.448C320.612 52.1067 320.9 51.648 320.9 51.072C320.9 50.6027 320.708 50.2507 320.324 50.016C319.94 49.76 319.439 49.568 318.82 49.44C318.202 49.312 317.508 49.1947 316.74 49.088C315.994 48.9813 315.236 48.8427 314.468 48.672C313.722 48.48 313.039 48.2133 312.42 47.872C311.802 47.5093 311.3 47.0293 310.916 46.432C310.532 45.8347 310.34 45.0453 310.34 44.064C310.34 42.976 310.65 42.0373 311.268 41.248C311.887 40.4373 312.751 39.8187 313.86 39.392C314.991 38.944 316.324 38.72 317.86 38.72C319.012 38.72 320.175 38.848 321.348 39.104C322.522 39.36 323.492 39.7227 324.26 40.192L322.724 43.232C321.914 42.7413 321.092 42.4107 320.26 42.24C319.45 42.048 318.639 41.952 317.828 41.952C316.612 41.952 315.706 42.1333 315.108 42.496C314.532 42.8587 314.244 43.3173 314.244 43.872C314.244 44.384 314.436 44.768 314.82 45.024C315.204 45.28 315.706 45.4827 316.324 45.632C316.943 45.7813 317.626 45.9093 318.372 46.016C319.14 46.1013 319.898 46.24 320.644 46.432C321.391 46.624 322.074 46.8907 322.692 47.232C323.332 47.552 323.844 48.0107 324.228 48.608C324.612 49.2053 324.804 49.984 324.804 50.944C324.804 52.0107 324.484 52.9387 323.844 53.728C323.226 54.5173 322.34 55.136 321.188 55.584C320.036 56.0107 318.66 56.224 317.06 56.224ZM348.296 37.964L353.624 46.064L348.296 54.236H343.436L348.332 46.064L343.436 37.964H348.296ZM349.376 44.12V48.044H336.488V44.12H349.376Z" fill="white"/>
</g>
<defs>
<filter id="filter0_d_567_633" x="0" y="0" width="408" height="93" filterUnits="userSpaceOnUse" color-interpolation-filters="sRGB">
<feFlood flood-opacity="0" result="BackgroundImageFix"/>
<feColorMatrix in="SourceAlpha" type="matrix" values="0 0 0 0 0 0 0 0 0 0 0 0 0 0 0 0 0 0 127 0" result="hardAlpha"/>
<feOffset dy="4"/>
<feGaussianBlur stdDeviation="2"/>
<feComposite in2="hardAlpha" operator="out"/>
<feColorMatrix type="matrix" values="0 0 0 0 0 0 0 0 0 0 0 0 0 0 0 0 0 0 0.25 0"/>
<feBlend mode="normal" in2="BackgroundImageFix" result="effect1_dropShadow_567_633"/>
<feBlend mode="normal" in="SourceGraphic" in2="effect1_dropShadow_567_633" result="shape"/>
</filter>
<filter id="filter1_d_567_633" x="50.0078" y="32.0959" width="307.615" height="39.2001" filterUnits="userSpaceOnUse" color-interpolation-filters="sRGB">
<feFlood flood-opacity="0" result="BackgroundImageFix"/>
<feColorMatrix in="SourceAlpha" type="matrix" values="0 0 0 0 0 0 0 0 0 0 0 0 0 0 0 0 0 0 127 0" result="hardAlpha"/>
<feOffset dy="4"/>
<feGaussianBlur stdDeviation="2"/>
<feComposite in2="hardAlpha" operator="out"/>
<feColorMatrix type="matrix" values="0 0 0 0 0 0 0 0 0 0 0 0 0 0 0 0 0 0 0.25 0"/>
<feBlend mode="normal" in2="BackgroundImageFix" result="effect1_dropShadow_567_633"/>
<feBlend mode="normal" in="SourceGraphic" in2="effect1_dropShadow_567_633" result="shape"/>
</filter>
</defs>
</svg>
