<svg width="385" height="107" viewBox="0 0 385 107" fill="none" xmlns="http://www.w3.org/2000/svg">
<g filter="url(#filter0_d_590_12)">
<rect x="4" width="377" height="99" rx="37" fill="#59BDA3"/>
</g>
<g filter="url(#filter1_d_590_12)">
<path d="M64.0668 44.6364L58.3459 61H53.2322L47.5114 44.6364H52.3054L55.7038 56.3445H55.8743L59.2621 44.6364H64.0668ZM73.3192 61.3196C71.636 61.3196 70.1871 60.9787 68.9727 60.2969C67.7653 59.608 66.8349 58.6349 66.1815 57.3778C65.5281 56.1136 65.2013 54.6186 65.2013 52.8928C65.2013 51.2095 65.5281 49.7322 66.1815 48.4609C66.8349 47.1896 67.7546 46.1989 68.9407 45.4886C70.1339 44.7784 71.533 44.4233 73.1381 44.4233C74.2177 44.4233 75.2227 44.5973 76.1531 44.9453C77.0906 45.2862 77.9073 45.8011 78.6033 46.4901C79.3065 47.179 79.8533 48.0455 80.244 49.0895C80.6346 50.1264 80.8299 51.3409 80.8299 52.733V53.9794H67.0124V51.1669H76.5579C76.5579 50.5135 76.4158 49.9347 76.1317 49.4304C75.8477 48.9261 75.4535 48.532 74.9492 48.2479C74.4521 47.9567 73.8732 47.8111 73.2127 47.8111C72.5238 47.8111 71.913 47.9709 71.3803 48.2905C70.8548 48.603 70.4428 49.0256 70.1445 49.5582C69.8462 50.0838 69.6935 50.6697 69.6864 51.3161V53.9901C69.6864 54.7997 69.8356 55.4993 70.1339 56.0888C70.4393 56.6783 70.869 57.1328 71.4229 57.4524C71.9769 57.772 72.6339 57.9318 73.3938 57.9318C73.8981 57.9318 74.3597 57.8608 74.7788 57.7188C75.1978 57.5767 75.5565 57.3636 75.8548 57.0795C76.1531 56.7955 76.3803 56.4474 76.5366 56.0355L80.734 56.3125C80.521 57.321 80.0842 58.2017 79.4237 58.9545C78.7702 59.7003 77.9251 60.2827 76.8881 60.7017C75.8583 61.1136 74.6687 61.3196 73.3192 61.3196ZM83.7915 61V44.6364H88.1914V47.4915H88.3619C88.6602 46.4759 89.1609 45.7088 89.864 45.1903C90.5671 44.6648 91.3768 44.402 92.293 44.402C92.5202 44.402 92.7653 44.4162 93.0281 44.4446C93.2908 44.473 93.5217 44.5121 93.7205 44.5618V48.5888C93.5075 48.5249 93.2127 48.468 92.8363 48.4183C92.4599 48.3686 92.1154 48.3438 91.8029 48.3438C91.1353 48.3438 90.5387 48.4893 90.0131 48.7805C89.4947 49.0646 89.0827 49.4624 88.7773 49.9737C88.479 50.4851 88.3299 51.0746 88.3299 51.7422V61H83.7915ZM103.01 61V44.6364H107.41V47.4915H107.581C107.879 46.4759 108.38 45.7088 109.083 45.1903C109.786 44.6648 110.596 44.402 111.512 44.402C111.739 44.402 111.984 44.4162 112.247 44.4446C112.51 44.473 112.74 44.5121 112.939 44.5618V48.5888C112.726 48.5249 112.431 48.468 112.055 48.4183C111.679 48.3686 111.334 48.3438 111.022 48.3438C110.354 48.3438 109.757 48.4893 109.232 48.7805C108.713 49.0646 108.301 49.4624 107.996 49.9737C107.698 50.4851 107.549 51.0746 107.549 51.7422V61H103.01ZM121.981 61.3196C120.298 61.3196 118.849 60.9787 117.635 60.2969C116.427 59.608 115.497 58.6349 114.844 57.3778C114.19 56.1136 113.863 54.6186 113.863 52.8928C113.863 51.2095 114.19 49.7322 114.844 48.4609C115.497 47.1896 116.417 46.1989 117.603 45.4886C118.796 44.7784 120.195 44.4233 121.8 44.4233C122.88 44.4233 123.885 44.5973 124.815 44.9453C125.753 45.2862 126.569 45.8011 127.265 46.4901C127.969 47.179 128.515 48.0455 128.906 49.0895C129.297 50.1264 129.492 51.3409 129.492 52.733V53.9794H115.675V51.1669H125.22C125.22 50.5135 125.078 49.9347 124.794 49.4304C124.51 48.9261 124.116 48.532 123.611 48.2479C123.114 47.9567 122.535 47.8111 121.875 47.8111C121.186 47.8111 120.575 47.9709 120.042 48.2905C119.517 48.603 119.105 49.0256 118.807 49.5582C118.508 50.0838 118.356 50.6697 118.349 51.3161V53.9901C118.349 54.7997 118.498 55.4993 118.796 56.0888C119.101 56.6783 119.531 57.1328 120.085 57.4524C120.639 57.772 121.296 57.9318 122.056 57.9318C122.56 57.9318 123.022 57.8608 123.441 57.7188C123.86 57.5767 124.219 57.3636 124.517 57.0795C124.815 56.7955 125.042 56.4474 125.199 56.0355L129.396 56.3125C129.183 57.321 128.746 58.2017 128.086 58.9545C127.432 59.7003 126.587 60.2827 125.55 60.7017C124.52 61.1136 123.331 61.3196 121.981 61.3196ZM139.847 61.3196C138.171 61.3196 136.729 60.9645 135.522 60.2543C134.322 59.5369 133.398 58.5426 132.752 57.2713C132.113 56 131.793 54.5369 131.793 52.8821C131.793 51.206 132.116 49.7358 132.763 48.4716C133.416 47.2003 134.343 46.2095 135.543 45.4993C136.743 44.782 138.171 44.4233 139.826 44.4233C141.253 44.4233 142.503 44.6825 143.576 45.201C144.648 45.7195 145.497 46.4474 146.122 47.3849C146.747 48.3224 147.091 49.4233 147.155 50.6875H142.873C142.752 49.8707 142.432 49.2138 141.914 48.7166C141.403 48.2124 140.731 47.9602 139.9 47.9602C139.197 47.9602 138.583 48.152 138.057 48.5355C137.539 48.9119 137.134 49.4624 136.843 50.1868C136.552 50.9112 136.406 51.7884 136.406 52.8182C136.406 53.8622 136.548 54.75 136.832 55.4815C137.123 56.2131 137.532 56.7706 138.057 57.1541C138.583 57.5376 139.197 57.7294 139.9 57.7294C140.419 57.7294 140.884 57.6229 141.296 57.4098C141.715 57.1967 142.059 56.8878 142.329 56.483C142.606 56.071 142.787 55.5774 142.873 55.0021H147.155C147.084 56.2521 146.743 57.353 146.133 58.3047C145.529 59.2493 144.694 59.9879 143.629 60.5206C142.564 61.0533 141.303 61.3196 139.847 61.3196ZM157.455 61.3196C155.8 61.3196 154.369 60.968 153.161 60.2649C151.961 59.5547 151.034 58.5675 150.381 57.3033C149.727 56.032 149.401 54.5582 149.401 52.8821C149.401 51.1918 149.727 49.7145 150.381 48.4503C151.034 47.179 151.961 46.1918 153.161 45.4886C154.369 44.7784 155.8 44.4233 157.455 44.4233C159.109 44.4233 160.537 44.7784 161.737 45.4886C162.945 46.1918 163.875 47.179 164.528 48.4503C165.182 49.7145 165.509 51.1918 165.509 52.8821C165.509 54.5582 165.182 56.032 164.528 57.3033C163.875 58.5675 162.945 59.5547 161.737 60.2649C160.537 60.968 159.109 61.3196 157.455 61.3196ZM157.476 57.804C158.229 57.804 158.857 57.5909 159.362 57.1648C159.866 56.7315 160.246 56.142 160.501 55.3963C160.764 54.6506 160.896 53.8018 160.896 52.8501C160.896 51.8984 160.764 51.0497 160.501 50.304C160.246 49.5582 159.866 48.9687 159.362 48.5355C158.857 48.1023 158.229 47.8857 157.476 47.8857C156.716 47.8857 156.077 48.1023 155.558 48.5355C155.047 48.9687 154.66 49.5582 154.397 50.304C154.141 51.0497 154.013 51.8984 154.013 52.8501C154.013 53.8018 154.141 54.6506 154.397 55.3963C154.66 56.142 155.047 56.7315 155.558 57.1648C156.077 57.5909 156.716 57.804 157.476 57.804ZM168.46 61V44.6364H172.785V47.5234H172.977C173.317 46.5646 173.886 45.8082 174.681 45.2543C175.477 44.7003 176.428 44.4233 177.536 44.4233C178.658 44.4233 179.614 44.7038 180.402 45.2649C181.19 45.8189 181.716 46.5717 181.979 47.5234H182.149C182.483 46.5859 183.087 45.8366 183.96 45.2756C184.841 44.7074 185.881 44.4233 187.082 44.4233C188.609 44.4233 189.848 44.9098 190.8 45.8828C191.759 46.8487 192.238 48.2195 192.238 49.995V61H187.71V50.8899C187.71 49.9808 187.469 49.299 186.986 48.8445C186.503 48.3899 185.899 48.1626 185.175 48.1626C184.351 48.1626 183.708 48.4254 183.246 48.951C182.785 49.4695 182.554 50.1548 182.554 51.0071V61H178.154V50.794C178.154 49.9915 177.923 49.3523 177.462 48.8764C177.007 48.4006 176.407 48.1626 175.661 48.1626C175.157 48.1626 174.702 48.2905 174.298 48.5462C173.9 48.7947 173.584 49.1463 173.349 49.6009C173.115 50.0483 172.998 50.5739 172.998 51.1776V61H168.46ZM203.28 61.3196C201.597 61.3196 200.148 60.9787 198.934 60.2969C197.726 59.608 196.796 58.6349 196.142 57.3778C195.489 56.1136 195.162 54.6186 195.162 52.8928C195.162 51.2095 195.489 49.7322 196.142 48.4609C196.796 47.1896 197.716 46.1989 198.902 45.4886C200.095 44.7784 201.494 44.4233 203.099 44.4233C204.179 44.4233 205.184 44.5973 206.114 44.9453C207.051 45.2862 207.868 45.8011 208.564 46.4901C209.267 47.179 209.814 48.0455 210.205 49.0895C210.596 50.1264 210.791 51.3409 210.791 52.733V53.9794H196.973V51.1669H206.519C206.519 50.5135 206.377 49.9347 206.093 49.4304C205.809 48.9261 205.414 48.532 204.91 48.2479C204.413 47.9567 203.834 47.8111 203.174 47.8111C202.485 47.8111 201.874 47.9709 201.341 48.2905C200.816 48.603 200.404 49.0256 200.105 49.5582C199.807 50.0838 199.654 50.6697 199.647 51.3161V53.9901C199.647 54.7997 199.797 55.4993 200.095 56.0888C200.4 56.6783 200.83 57.1328 201.384 57.4524C201.938 57.772 202.595 57.9318 203.355 57.9318C203.859 57.9318 204.321 57.8608 204.74 57.7188C205.159 57.5767 205.517 57.3636 205.816 57.0795C206.114 56.7955 206.341 56.4474 206.498 56.0355L210.695 56.3125C210.482 57.321 210.045 58.2017 209.385 58.9545C208.731 59.7003 207.886 60.2827 206.849 60.7017C205.819 61.1136 204.63 61.3196 203.28 61.3196ZM218.291 51.5398V61H213.752V44.6364H218.078V47.5234H218.27C218.632 46.5717 219.239 45.8189 220.091 45.2649C220.944 44.7038 221.977 44.4233 223.191 44.4233C224.328 44.4233 225.319 44.6719 226.164 45.169C227.009 45.6662 227.666 46.3764 228.135 47.2997C228.603 48.2159 228.838 49.3097 228.838 50.581V61H224.299V51.3906C224.306 50.3892 224.051 49.608 223.532 49.0469C223.014 48.4787 222.3 48.1946 221.391 48.1946C220.78 48.1946 220.24 48.326 219.772 48.5888C219.31 48.8516 218.948 49.2351 218.685 49.7393C218.429 50.2365 218.298 50.8366 218.291 51.5398ZM238.444 61.2663C237.202 61.2663 236.076 60.9467 235.067 60.3075C234.066 59.6612 233.27 58.7131 232.681 57.4631C232.099 56.206 231.807 54.6648 231.807 52.8395C231.807 50.9645 232.109 49.4055 232.713 48.1626C233.317 46.9126 234.119 45.9787 235.121 45.3608C236.129 44.7358 237.233 44.4233 238.434 44.4233C239.35 44.4233 240.113 44.5795 240.724 44.892C241.342 45.1974 241.839 45.581 242.216 46.0426C242.599 46.4972 242.89 46.9446 243.089 47.3849H243.228V39.1818H247.756V61H243.281V58.3793H243.089C242.876 58.8338 242.574 59.2848 242.184 59.7322C241.8 60.1726 241.3 60.5384 240.682 60.8295C240.071 61.1207 239.325 61.2663 238.444 61.2663ZM239.883 57.6548C240.614 57.6548 241.232 57.456 241.736 57.0582C242.248 56.6534 242.638 56.0888 242.908 55.3643C243.185 54.6399 243.324 53.7912 243.324 52.8182C243.324 51.8452 243.189 51 242.919 50.2827C242.649 49.5653 242.258 49.0114 241.747 48.6207C241.236 48.2301 240.614 48.0348 239.883 48.0348C239.137 48.0348 238.508 48.2372 237.997 48.642C237.486 49.0469 237.099 49.608 236.836 50.3253C236.573 51.0426 236.442 51.8736 236.442 52.8182C236.442 53.7699 236.573 54.6115 236.836 55.343C237.106 56.0675 237.493 56.6357 237.997 57.0476C238.508 57.4524 239.137 57.6548 239.883 57.6548ZM256.153 61.3089C255.109 61.3089 254.179 61.1278 253.362 60.7656C252.545 60.3963 251.899 59.853 251.423 59.1357C250.954 58.4112 250.72 57.5092 250.72 56.4297C250.72 55.5206 250.887 54.7571 251.221 54.1392C251.554 53.5213 252.009 53.0241 252.584 52.6477C253.159 52.2713 253.813 51.9872 254.544 51.7955C255.283 51.6037 256.057 51.4688 256.867 51.3906C257.819 51.2912 258.586 51.1989 259.168 51.1136C259.75 51.0213 260.173 50.8864 260.436 50.7088C260.699 50.5312 260.83 50.2685 260.83 49.9205V49.8565C260.83 49.1818 260.617 48.6598 260.191 48.2905C259.772 47.9212 259.175 47.7365 258.401 47.7365C257.584 47.7365 256.934 47.9176 256.451 48.2798C255.968 48.6349 255.649 49.0824 255.493 49.6222L251.295 49.2812C251.508 48.2869 251.927 47.4276 252.552 46.7031C253.177 45.9716 253.983 45.4105 254.971 45.0199C255.965 44.6222 257.115 44.4233 258.422 44.4233C259.331 44.4233 260.201 44.5298 261.032 44.7429C261.87 44.956 262.613 45.2862 263.259 45.7337C263.912 46.1811 264.427 46.7564 264.804 47.4595C265.18 48.1555 265.368 48.9901 265.368 49.9631V61H261.064V58.7308H260.936C260.674 59.2422 260.322 59.6932 259.882 60.0838C259.441 60.4673 258.912 60.7692 258.294 60.9893C257.676 61.2024 256.963 61.3089 256.153 61.3089ZM257.453 58.1768C258.12 58.1768 258.71 58.0455 259.221 57.7827C259.733 57.5128 260.134 57.1506 260.425 56.696C260.716 56.2415 260.862 55.7266 260.862 55.1513V53.4148C260.72 53.5071 260.525 53.5923 260.276 53.6705C260.034 53.7415 259.761 53.8089 259.456 53.8729C259.15 53.9297 258.845 53.983 258.539 54.0327C258.234 54.0753 257.957 54.1143 257.708 54.1499C257.176 54.228 256.711 54.3523 256.313 54.5227C255.915 54.6932 255.606 54.924 255.386 55.2152C255.166 55.4993 255.056 55.8544 255.056 56.2805C255.056 56.8984 255.279 57.3707 255.727 57.6974C256.181 58.017 256.757 58.1768 257.453 58.1768ZM276.283 61.3196C274.607 61.3196 273.165 60.9645 271.957 60.2543C270.757 59.5369 269.834 58.5426 269.188 57.2713C268.548 56 268.229 54.5369 268.229 52.8821C268.229 51.206 268.552 49.7358 269.198 48.4716C269.852 47.2003 270.778 46.2095 271.979 45.4993C273.179 44.782 274.607 44.4233 276.261 44.4233C277.689 44.4233 278.939 44.6825 280.011 45.201C281.084 45.7195 281.933 46.4474 282.558 47.3849C283.183 48.3224 283.527 49.4233 283.591 50.6875H279.308C279.188 49.8707 278.868 49.2138 278.349 48.7166C277.838 48.2124 277.167 47.9602 276.336 47.9602C275.633 47.9602 275.018 48.152 274.493 48.5355C273.974 48.9119 273.57 49.4624 273.278 50.1868C272.987 50.9112 272.842 51.7884 272.842 52.8182C272.842 53.8622 272.984 54.75 273.268 55.4815C273.559 56.2131 273.967 56.7706 274.493 57.1541C275.018 57.5376 275.633 57.7294 276.336 57.7294C276.854 57.7294 277.32 57.6229 277.732 57.4098C278.151 57.1967 278.495 56.8878 278.765 56.483C279.042 56.071 279.223 55.5774 279.308 55.0021H283.591C283.52 56.2521 283.179 57.353 282.568 58.3047C281.964 59.2493 281.13 59.9879 280.065 60.5206C278.999 61.0533 277.739 61.3196 276.283 61.3196ZM275.217 60.9148H277.305L277.135 61.8416C277.866 61.9553 278.463 62.2287 278.925 62.6619C279.393 63.0952 279.631 63.6847 279.638 64.4304C279.646 65.4886 279.156 66.3303 278.168 66.9553C277.181 67.5874 275.796 67.9034 274.013 67.9034L273.971 65.8793C274.866 65.8793 275.565 65.7692 276.07 65.549C276.581 65.3359 276.847 65.0021 276.869 64.5476C276.883 64.1143 276.716 63.7841 276.368 63.5568C276.02 63.3295 275.477 63.1697 274.738 63.0774L275.217 60.9148ZM293.89 61.3196C292.235 61.3196 290.804 60.968 289.597 60.2649C288.396 59.5547 287.47 58.5675 286.816 57.3033C286.163 56.032 285.836 54.5582 285.836 52.8821C285.836 51.1918 286.163 49.7145 286.816 48.4503C287.47 47.179 288.396 46.1918 289.597 45.4886C290.804 44.7784 292.235 44.4233 293.89 44.4233C295.545 44.4233 296.972 44.7784 298.173 45.4886C299.38 46.1918 300.311 47.179 300.964 48.4503C301.617 49.7145 301.944 51.1918 301.944 52.8821C301.944 54.5582 301.617 56.032 300.964 57.3033C300.311 58.5675 299.38 59.5547 298.173 60.2649C296.972 60.968 295.545 61.3196 293.89 61.3196ZM293.911 57.804C294.664 57.804 295.293 57.5909 295.797 57.1648C296.301 56.7315 296.681 56.142 296.937 55.3963C297.2 54.6506 297.331 53.8018 297.331 52.8501C297.331 51.8984 297.2 51.0497 296.937 50.304C296.681 49.5582 296.301 48.9687 295.797 48.5355C295.293 48.1023 294.664 47.8857 293.911 47.8857C293.151 47.8857 292.512 48.1023 291.994 48.5355C291.482 48.9687 291.095 49.5582 290.833 50.304C290.577 51.0497 290.449 51.8984 290.449 52.8501C290.449 53.8018 290.577 54.6506 290.833 55.3963C291.095 56.142 291.482 56.7315 291.994 57.1648C292.512 57.5909 293.151 57.804 293.911 57.804ZM290.843 42.6229L288.318 42.5909C288.318 41.2344 288.652 40.1939 289.32 39.4695C289.994 38.745 290.815 38.3793 291.781 38.3722C292.278 38.3722 292.704 38.4538 293.059 38.6172C293.421 38.7734 293.744 38.9581 294.029 39.1712C294.32 39.3842 294.597 39.5724 294.86 39.7358C295.122 39.892 295.406 39.9702 295.712 39.9702C296.124 39.9631 296.436 39.8104 296.649 39.5121C296.869 39.2067 296.98 38.8089 296.98 38.3189L299.462 38.3935C299.448 39.7358 299.107 40.7727 298.439 41.5043C297.771 42.2287 296.958 42.5945 295.999 42.6016C295.467 42.6016 295.019 42.5234 294.657 42.3672C294.302 42.2038 293.99 42.0192 293.72 41.8132C293.45 41.6001 293.187 41.4119 292.931 41.2486C292.676 41.0852 292.388 41.0036 292.068 41.0036C291.699 41.0036 291.401 41.1491 291.173 41.4403C290.953 41.7315 290.843 42.1257 290.843 42.6229ZM312.352 61.3196C310.669 61.3196 309.22 60.9787 308.006 60.2969C306.798 59.608 305.868 58.6349 305.215 57.3778C304.561 56.1136 304.235 54.6186 304.235 52.8928C304.235 51.2095 304.561 49.7322 305.215 48.4609C305.868 47.1896 306.788 46.1989 307.974 45.4886C309.167 44.7784 310.566 44.4233 312.171 44.4233C313.251 44.4233 314.256 44.5973 315.186 44.9453C316.124 45.2862 316.941 45.8011 317.637 46.4901C318.34 47.179 318.887 48.0455 319.277 49.0895C319.668 50.1264 319.863 51.3409 319.863 52.733V53.9794H306.046V51.1669H315.591C315.591 50.5135 315.449 49.9347 315.165 49.4304C314.881 48.9261 314.487 48.532 313.982 48.2479C313.485 47.9567 312.906 47.8111 312.246 47.8111C311.557 47.8111 310.946 47.9709 310.414 48.2905C309.888 48.603 309.476 49.0256 309.178 49.5582C308.879 50.0838 308.727 50.6697 308.72 51.3161V53.9901C308.72 54.7997 308.869 55.4993 309.167 56.0888C309.472 56.6783 309.902 57.1328 310.456 57.4524C311.01 57.772 311.667 57.9318 312.427 57.9318C312.931 57.9318 313.393 57.8608 313.812 57.7188C314.231 57.5767 314.59 57.3636 314.888 57.0795C315.186 56.7955 315.414 56.4474 315.57 56.0355L319.767 56.3125C319.554 57.321 319.117 58.2017 318.457 58.9545C317.803 59.7003 316.958 60.2827 315.921 60.7017C314.892 61.1136 313.702 61.3196 312.352 61.3196ZM336.44 49.3026L332.285 49.5582C332.214 49.2031 332.061 48.8835 331.827 48.5994C331.593 48.3082 331.284 48.0774 330.9 47.907C330.524 47.7294 330.073 47.6406 329.547 47.6406C328.844 47.6406 328.251 47.7898 327.768 48.0881C327.285 48.3793 327.044 48.7699 327.044 49.2599C327.044 49.6506 327.2 49.9808 327.512 50.2507C327.825 50.5206 328.361 50.7372 329.121 50.9006L332.083 51.4972C333.673 51.8239 334.86 52.3494 335.641 53.0739C336.422 53.7983 336.813 54.75 336.813 55.929C336.813 57.0014 336.497 57.9425 335.865 58.7521C335.24 59.5618 334.38 60.1939 333.286 60.6484C332.2 61.0959 330.946 61.3196 329.526 61.3196C327.36 61.3196 325.634 60.8686 324.348 59.9666C323.07 59.0575 322.32 57.8217 322.1 56.2592L326.564 56.0249C326.699 56.6854 327.026 57.1896 327.544 57.5376C328.063 57.8786 328.727 58.049 329.536 58.049C330.332 58.049 330.971 57.8963 331.454 57.5909C331.944 57.2784 332.193 56.8771 332.2 56.3871C332.193 55.9751 332.019 55.6378 331.678 55.375C331.337 55.1051 330.811 54.8991 330.101 54.7571L327.267 54.1925C325.669 53.8729 324.48 53.3189 323.698 52.5305C322.924 51.7422 322.537 50.7372 322.537 49.5156C322.537 48.4645 322.821 47.5589 323.389 46.799C323.965 46.0391 324.771 45.4531 325.808 45.0412C326.852 44.6293 328.073 44.4233 329.472 44.4233C331.539 44.4233 333.166 44.8601 334.352 45.7337C335.545 46.6072 336.241 47.7969 336.44 49.3026Z" fill="white"/>
</g>
<defs>
<filter id="filter0_d_590_12" x="0" y="0" width="385" height="107" filterUnits="userSpaceOnUse" color-interpolation-filters="sRGB">
<feFlood flood-opacity="0" result="BackgroundImageFix"/>
<feColorMatrix in="SourceAlpha" type="matrix" values="0 0 0 0 0 0 0 0 0 0 0 0 0 0 0 0 0 0 127 0" result="hardAlpha"/>
<feOffset dy="4"/>
<feGaussianBlur stdDeviation="2"/>
<feComposite in2="hardAlpha" operator="out"/>
<feColorMatrix type="matrix" values="0 0 0 0 0 0 0 0 0 0 0 0 0 0 0 0 0 0 0.25 0"/>
<feBlend mode="normal" in2="BackgroundImageFix" result="effect1_dropShadow_590_12"/>
<feBlend mode="normal" in="SourceGraphic" in2="effect1_dropShadow_590_12" result="shape"/>
</filter>
<filter id="filter1_d_590_12" x="43.5117" y="38.3189" width="297.301" height="37.5845" filterUnits="userSpaceOnUse" color-interpolation-filters="sRGB">
<feFlood flood-opacity="0" result="BackgroundImageFix"/>
<feColorMatrix in="SourceAlpha" type="matrix" values="0 0 0 0 0 0 0 0 0 0 0 0 0 0 0 0 0 0 127 0" result="hardAlpha"/>
<feOffset dy="4"/>
<feGaussianBlur stdDeviation="2"/>
<feComposite in2="hardAlpha" operator="out"/>
<feColorMatrix type="matrix" values="0 0 0 0 0 0 0 0 0 0 0 0 0 0 0 0 0 0 0.25 0"/>
<feBlend mode="normal" in2="BackgroundImageFix" result="effect1_dropShadow_590_12"/>
<feBlend mode="normal" in="SourceGraphic" in2="effect1_dropShadow_590_12" result="shape"/>
</filter>
</defs>
</svg>
