<svg width="314" height="88" viewBox="0 0 314 88" fill="none" xmlns="http://www.w3.org/2000/svg">
<rect x="14" y="10" width="285.34" height="60" rx="12" fill="#FAD905"/>
<g filter="url(#filter0_d_567_474)">
<rect x="14" y="10" width="285.34" height="60" rx="12" fill="white" fill-opacity="0.01" shape-rendering="crispEdges"/>
</g>
<path d="M49.429 46H46.463L50.9822 32.9091H54.549L59.0618 46H56.0959L52.8167 35.9006H52.7145L49.429 46ZM49.2436 40.8544H56.2493V43.0149H49.2436V40.8544ZM60.5863 49.6818V36.1818H63.2709V37.831H63.3924C63.5117 37.5668 63.6843 37.2983 63.9101 37.0256C64.1402 36.7486 64.4385 36.5185 64.805 36.3352C65.1758 36.1477 65.636 36.054 66.1857 36.054C66.9016 36.054 67.5621 36.2415 68.1672 36.6165C68.7723 36.9872 69.256 37.5476 69.6182 38.2976C69.9804 39.0433 70.1616 39.9787 70.1616 41.1037C70.1616 42.1989 69.9847 43.1236 69.631 43.8778C69.2816 44.6278 68.8043 45.1967 68.1992 45.5845C67.5983 45.968 66.925 46.1598 66.1793 46.1598C65.6509 46.1598 65.2013 46.0724 64.8306 45.8977C64.4641 45.723 64.1637 45.5036 63.9293 45.2393C63.6949 44.9709 63.516 44.7003 63.3924 44.4276H63.3093V49.6818H60.5863ZM63.2517 41.0909C63.2517 41.6747 63.3327 42.1839 63.4946 42.6186C63.6566 43.0533 63.891 43.392 64.1978 43.6349C64.5046 43.8736 64.8775 43.9929 65.3164 43.9929C65.7596 43.9929 66.1346 43.8714 66.4414 43.6286C66.7482 43.3814 66.9804 43.0405 67.1381 42.6058C67.3 42.1669 67.381 41.6619 67.381 41.0909C67.381 40.5241 67.3022 40.0256 67.1445 39.5952C66.9868 39.1648 66.7546 38.8281 66.4478 38.5852C66.141 38.3423 65.7638 38.2209 65.3164 38.2209C64.8732 38.2209 64.4982 38.3381 64.1914 38.5724C63.8888 38.8068 63.6566 39.1392 63.4946 39.5696C63.3327 40 63.2517 40.5071 63.2517 41.0909ZM71.9769 46V36.1818H74.6168V37.8949H74.7191C74.8981 37.2855 75.1985 36.8253 75.6204 36.5142C76.0422 36.1989 76.528 36.0412 77.0777 36.0412C77.2141 36.0412 77.3611 36.0497 77.5188 36.0668C77.6765 36.0838 77.815 36.1072 77.9343 36.1371V38.5533C77.8064 38.5149 77.6296 38.4808 77.4037 38.451C77.1779 38.4212 76.9712 38.4062 76.7837 38.4062C76.3831 38.4062 76.0252 38.4936 75.7098 38.6683C75.3988 38.8388 75.1516 39.0774 74.9684 39.3842C74.7894 39.6911 74.6999 40.0447 74.6999 40.4453V46H71.9769ZM83.3595 46.1918C82.3496 46.1918 81.4803 45.9872 80.7516 45.5781C80.0271 45.1648 79.4689 44.581 79.0769 43.8267C78.6848 43.0682 78.4888 42.1712 78.4888 41.1357C78.4888 40.1257 78.6848 39.2393 79.0769 38.4766C79.4689 37.7138 80.0207 37.1193 80.7324 36.6932C81.4483 36.267 82.2878 36.054 83.2509 36.054C83.8986 36.054 84.5016 36.1584 85.0598 36.3672C85.6223 36.5717 86.1124 36.8807 86.53 37.294C86.9519 37.7074 87.28 38.2273 87.5144 38.8537C87.7487 39.4759 87.8659 40.2045 87.8659 41.0398V41.7876H79.5754V40.1001H85.3027C85.3027 39.7081 85.2175 39.3608 85.047 39.0582C84.8766 38.7557 84.6401 38.5192 84.3375 38.3487C84.0392 38.174 83.6919 38.0866 83.2956 38.0866C82.8823 38.0866 82.5158 38.1825 82.1962 38.3743C81.8808 38.5618 81.6337 38.8153 81.4547 39.1349C81.2757 39.4503 81.1841 39.8018 81.1798 40.1896V41.794C81.1798 42.2798 81.2693 42.6996 81.4483 43.0533C81.6315 43.407 81.8894 43.6797 82.2217 43.8714C82.5541 44.0632 82.9483 44.1591 83.4043 44.1591C83.7068 44.1591 83.9838 44.1165 84.2352 44.0312C84.4867 43.946 84.7019 43.8182 84.8808 43.6477C85.0598 43.4773 85.1962 43.2685 85.2899 43.0213L87.8084 43.1875C87.6805 43.7926 87.4185 44.321 87.0222 44.7727C86.6301 45.2202 86.123 45.5696 85.5009 45.821C84.883 46.0682 84.1692 46.1918 83.3595 46.1918ZM92.3659 40.3239V46H89.6429V36.1818H92.2381V37.9141H92.3531C92.5705 37.343 92.9348 36.8913 93.4462 36.5589C93.9575 36.2223 94.5776 36.054 95.3063 36.054C95.9881 36.054 96.5825 36.2031 97.0896 36.5014C97.5967 36.7997 97.9909 37.2259 98.2722 37.7798C98.5534 38.3295 98.694 38.9858 98.694 39.7486V46H95.971V40.2344C95.9753 39.6335 95.8219 39.1648 95.5108 38.8281C95.1997 38.4872 94.7715 38.3168 94.226 38.3168C93.8595 38.3168 93.5357 38.3956 93.2544 38.5533C92.9774 38.7109 92.7601 38.9411 92.6024 39.2436C92.449 39.5419 92.3702 39.902 92.3659 40.3239ZM104.458 46.1598C103.712 46.1598 103.037 45.968 102.432 45.5845C101.831 45.1967 101.354 44.6278 101 43.8778C100.651 43.1236 100.476 42.1989 100.476 41.1037C100.476 39.9787 100.657 39.0433 101.019 38.2976C101.381 37.5476 101.863 36.9872 102.464 36.6165C103.069 36.2415 103.732 36.054 104.452 36.054C105.001 36.054 105.459 36.1477 105.826 36.3352C106.197 36.5185 106.495 36.7486 106.721 37.0256C106.951 37.2983 107.126 37.5668 107.245 37.831H107.328V32.9091H110.045V46H107.36V44.4276H107.245C107.117 44.7003 106.936 44.9709 106.702 45.2393C106.472 45.5036 106.171 45.723 105.8 45.8977C105.434 46.0724 104.986 46.1598 104.458 46.1598ZM105.321 43.9929C105.76 43.9929 106.131 43.8736 106.433 43.6349C106.74 43.392 106.974 43.0533 107.136 42.6186C107.303 42.1839 107.386 41.6747 107.386 41.0909C107.386 40.5071 107.305 40 107.143 39.5696C106.981 39.1392 106.746 38.8068 106.44 38.5724C106.133 38.3381 105.76 38.2209 105.321 38.2209C104.874 38.2209 104.496 38.3423 104.19 38.5852C103.883 38.8281 103.651 39.1648 103.493 39.5952C103.335 40.0256 103.256 40.5241 103.256 41.0909C103.256 41.6619 103.335 42.1669 103.493 42.6058C103.655 43.0405 103.887 43.3814 104.19 43.6286C104.496 43.8714 104.874 43.9929 105.321 43.9929ZM115.083 46.1854C114.457 46.1854 113.899 46.0767 113.409 45.8594C112.918 45.6378 112.531 45.3118 112.245 44.8814C111.964 44.4467 111.823 43.9055 111.823 43.2578C111.823 42.7124 111.923 42.2543 112.124 41.8835C112.324 41.5128 112.597 41.2145 112.942 40.9886C113.287 40.7628 113.679 40.5923 114.118 40.4773C114.561 40.3622 115.026 40.2812 115.512 40.2344C116.083 40.1747 116.543 40.1193 116.892 40.0682C117.242 40.0128 117.495 39.9318 117.653 39.8253C117.811 39.7187 117.889 39.5611 117.889 39.3523V39.3139C117.889 38.9091 117.762 38.5959 117.506 38.3743C117.254 38.1527 116.896 38.0419 116.432 38.0419C115.942 38.0419 115.552 38.1506 115.262 38.3679C114.972 38.581 114.781 38.8494 114.687 39.1733L112.168 38.9688C112.296 38.3722 112.548 37.8565 112.923 37.4219C113.298 36.983 113.781 36.6463 114.374 36.4119C114.97 36.1733 115.661 36.054 116.445 36.054C116.99 36.054 117.512 36.1179 118.011 36.2457C118.514 36.3736 118.959 36.5717 119.347 36.8402C119.739 37.1087 120.048 37.4538 120.274 37.8757C120.499 38.2933 120.612 38.794 120.612 39.3778V46H118.03V44.6385H117.953C117.796 44.9453 117.585 45.2159 117.32 45.4503C117.056 45.6804 116.739 45.8615 116.368 45.9936C115.997 46.1214 115.569 46.1854 115.083 46.1854ZM115.863 44.3061C116.264 44.3061 116.617 44.2273 116.924 44.0696C117.231 43.9077 117.472 43.6903 117.646 43.4176C117.821 43.1449 117.909 42.8359 117.909 42.4908V41.4489C117.823 41.5043 117.706 41.5554 117.557 41.6023C117.412 41.6449 117.248 41.6854 117.065 41.7237C116.882 41.7578 116.698 41.7898 116.515 41.8196C116.332 41.8452 116.166 41.8686 116.016 41.8899C115.697 41.9368 115.418 42.0114 115.179 42.1136C114.94 42.2159 114.755 42.3544 114.623 42.5291C114.491 42.6996 114.425 42.9126 114.425 43.1683C114.425 43.5391 114.559 43.8224 114.828 44.0185C115.1 44.2102 115.445 44.3061 115.863 44.3061ZM129.691 46.1854C129.064 46.1854 128.506 46.0767 128.016 45.8594C127.526 45.6378 127.138 45.3118 126.853 44.8814C126.571 44.4467 126.431 43.9055 126.431 43.2578C126.431 42.7124 126.531 42.2543 126.731 41.8835C126.931 41.5128 127.204 41.2145 127.549 40.9886C127.895 40.7628 128.287 40.5923 128.725 40.4773C129.169 40.3622 129.633 40.2812 130.119 40.2344C130.69 40.1747 131.15 40.1193 131.5 40.0682C131.849 40.0128 132.103 39.9318 132.26 39.8253C132.418 39.7187 132.497 39.5611 132.497 39.3523V39.3139C132.497 38.9091 132.369 38.5959 132.113 38.3743C131.862 38.1527 131.504 38.0419 131.039 38.0419C130.549 38.0419 130.159 38.1506 129.87 38.3679C129.58 38.581 129.388 38.8494 129.294 39.1733L126.776 38.9688C126.904 38.3722 127.155 37.8565 127.53 37.4219C127.905 36.983 128.389 36.6463 128.981 36.4119C129.578 36.1733 130.268 36.054 131.052 36.054C131.598 36.054 132.12 36.1179 132.618 36.2457C133.121 36.3736 133.566 36.5717 133.954 36.8402C134.346 37.1087 134.655 37.4538 134.881 37.8757C135.107 38.2933 135.22 38.794 135.22 39.3778V46H132.637V44.6385H132.561C132.403 44.9453 132.192 45.2159 131.928 45.4503C131.664 45.6804 131.346 45.8615 130.975 45.9936C130.605 46.1214 130.176 46.1854 129.691 46.1854ZM130.47 44.3061C130.871 44.3061 131.225 44.2273 131.532 44.0696C131.838 43.9077 132.079 43.6903 132.254 43.4176C132.429 43.1449 132.516 42.8359 132.516 42.4908V41.4489C132.431 41.5043 132.314 41.5554 132.164 41.6023C132.02 41.6449 131.855 41.6854 131.672 41.7237C131.489 41.7578 131.306 41.7898 131.122 41.8196C130.939 41.8452 130.773 41.8686 130.624 41.8899C130.304 41.9368 130.025 42.0114 129.787 42.1136C129.548 42.2159 129.363 42.3544 129.23 42.5291C129.098 42.6996 129.032 42.9126 129.032 43.1683C129.032 43.5391 129.167 43.8224 129.435 44.0185C129.708 44.2102 130.053 44.3061 130.47 44.3061ZM145.116 46.1598C144.371 46.1598 143.695 45.968 143.09 45.5845C142.489 45.1967 142.012 44.6278 141.658 43.8778C141.309 43.1236 141.134 42.1989 141.134 41.1037C141.134 39.9787 141.315 39.0433 141.677 38.2976C142.04 37.5476 142.521 36.9872 143.122 36.6165C143.727 36.2415 144.39 36.054 145.11 36.054C145.66 36.054 146.118 36.1477 146.484 36.3352C146.855 36.5185 147.153 36.7486 147.379 37.0256C147.609 37.2983 147.784 37.5668 147.903 37.831H147.986V32.9091H150.703V46H148.018V44.4276H147.903C147.775 44.7003 147.594 44.9709 147.36 45.2393C147.13 45.5036 146.829 45.723 146.459 45.8977C146.092 46.0724 145.645 46.1598 145.116 46.1598ZM145.979 43.9929C146.418 43.9929 146.789 43.8736 147.091 43.6349C147.398 43.392 147.633 43.0533 147.795 42.6186C147.961 42.1839 148.044 41.6747 148.044 41.0909C148.044 40.5071 147.963 40 147.801 39.5696C147.639 39.1392 147.405 38.8068 147.098 38.5724C146.791 38.3381 146.418 38.2209 145.979 38.2209C145.532 38.2209 145.155 38.3423 144.848 38.5852C144.541 38.8281 144.309 39.1648 144.151 39.5952C143.993 40.0256 143.915 40.5241 143.915 41.0909C143.915 41.6619 143.993 42.1669 144.151 42.6058C144.313 43.0405 144.545 43.3814 144.848 43.6286C145.155 43.8714 145.532 43.9929 145.979 43.9929ZM157.416 46.1918C156.406 46.1918 155.537 45.9872 154.808 45.5781C154.084 45.1648 153.526 44.581 153.133 43.8267C152.741 43.0682 152.545 42.1712 152.545 41.1357C152.545 40.1257 152.741 39.2393 153.133 38.4766C153.526 37.7138 154.077 37.1193 154.789 36.6932C155.505 36.267 156.344 36.054 157.308 36.054C157.955 36.054 158.558 36.1584 159.116 36.3672C159.679 36.5717 160.169 36.8807 160.587 37.294C161.008 37.7074 161.337 38.2273 161.571 38.8537C161.805 39.4759 161.923 40.2045 161.923 41.0398V41.7876H153.632V40.1001H159.359C159.359 39.7081 159.274 39.3608 159.104 39.0582C158.933 38.7557 158.697 38.5192 158.394 38.3487C158.096 38.174 157.749 38.0866 157.352 38.0866C156.939 38.0866 156.572 38.1825 156.253 38.3743C155.937 38.5618 155.69 38.8153 155.511 39.1349C155.332 39.4503 155.241 39.8018 155.236 40.1896V41.794C155.236 42.2798 155.326 42.6996 155.505 43.0533C155.688 43.407 155.946 43.6797 156.278 43.8714C156.611 44.0632 157.005 44.1591 157.461 44.1591C157.763 44.1591 158.04 44.1165 158.292 44.0312C158.543 43.946 158.758 43.8182 158.937 43.6477C159.116 43.4773 159.253 43.2685 159.347 43.0213L161.865 43.1875C161.737 43.7926 161.475 44.321 161.079 44.7727C160.687 45.2202 160.18 45.5696 159.558 45.821C158.94 46.0682 158.226 46.1918 157.416 46.1918ZM168.136 46.1918C167.13 46.1918 166.265 45.9787 165.54 45.5526C164.82 45.1222 164.266 44.5256 163.879 43.7628C163.495 43 163.303 42.1222 163.303 41.1293C163.303 40.1236 163.497 39.2415 163.885 38.483C164.277 37.7202 164.833 37.1257 165.553 36.6996C166.273 36.2692 167.13 36.054 168.123 36.054C168.979 36.054 169.729 36.2095 170.373 36.5206C171.016 36.8317 171.526 37.2685 171.901 37.831C172.276 38.3935 172.482 39.054 172.521 39.8125H169.951C169.879 39.3224 169.687 38.9283 169.376 38.63C169.069 38.3274 168.666 38.1761 168.168 38.1761C167.746 38.1761 167.377 38.2912 167.062 38.5213C166.751 38.7472 166.508 39.0774 166.333 39.5121C166.158 39.9467 166.071 40.473 166.071 41.0909C166.071 41.7173 166.156 42.25 166.327 42.6889C166.501 43.1278 166.746 43.4624 167.062 43.6925C167.377 43.9226 167.746 44.0376 168.168 44.0376C168.479 44.0376 168.758 43.9737 169.005 43.8459C169.256 43.718 169.463 43.5327 169.625 43.2898C169.791 43.0426 169.9 42.7464 169.951 42.4013H172.521C172.478 43.1513 172.273 43.8118 171.907 44.3828C171.545 44.9496 171.044 45.3928 170.405 45.7124C169.766 46.032 169.009 46.1918 168.136 46.1918ZM174.264 46V36.1818H176.987V46H174.264ZM175.632 34.9162C175.227 34.9162 174.88 34.782 174.59 34.5135C174.304 34.2408 174.162 33.9148 174.162 33.5355C174.162 33.1605 174.304 32.8388 174.59 32.5703C174.88 32.2976 175.227 32.1612 175.632 32.1612C176.037 32.1612 176.382 32.2976 176.667 32.5703C176.957 32.8388 177.102 33.1605 177.102 33.5355C177.102 33.9148 176.957 34.2408 176.667 34.5135C176.382 34.782 176.037 34.9162 175.632 34.9162ZM182.786 46.1598C182.04 46.1598 181.365 45.968 180.76 45.5845C180.159 45.1967 179.682 44.6278 179.328 43.8778C178.979 43.1236 178.804 42.1989 178.804 41.1037C178.804 39.9787 178.985 39.0433 179.347 38.2976C179.709 37.5476 180.191 36.9872 180.792 36.6165C181.397 36.2415 182.06 36.054 182.78 36.054C183.33 36.054 183.788 36.1477 184.154 36.3352C184.525 36.5185 184.823 36.7486 185.049 37.0256C185.279 37.2983 185.454 37.5668 185.573 37.831H185.656V32.9091H188.373V46H185.688V44.4276H185.573C185.445 44.7003 185.264 44.9709 185.03 45.2393C184.8 45.5036 184.499 45.723 184.129 45.8977C183.762 46.0724 183.315 46.1598 182.786 46.1598ZM183.649 43.9929C184.088 43.9929 184.459 43.8736 184.761 43.6349C185.068 43.392 185.303 43.0533 185.464 42.6186C185.631 42.1839 185.714 41.6747 185.714 41.0909C185.714 40.5071 185.633 40 185.471 39.5696C185.309 39.1392 185.075 38.8068 184.768 38.5724C184.461 38.3381 184.088 38.2209 183.649 38.2209C183.202 38.2209 182.825 38.3423 182.518 38.5852C182.211 38.8281 181.979 39.1648 181.821 39.5952C181.663 40.0256 181.584 40.5241 181.584 41.0909C181.584 41.6619 181.663 42.1669 181.821 42.6058C181.983 43.0405 182.215 43.3814 182.518 43.6286C182.825 43.8714 183.202 43.9929 183.649 43.9929ZM190.612 46V36.1818H193.335V46H190.612ZM191.98 34.9162C191.575 34.9162 191.227 34.782 190.938 34.5135C190.652 34.2408 190.509 33.9148 190.509 33.5355C190.509 33.1605 190.652 32.8388 190.938 32.5703C191.227 32.2976 191.575 32.1612 191.98 32.1612C192.384 32.1612 192.73 32.2976 193.015 32.5703C193.305 32.8388 193.45 33.1605 193.45 33.5355C193.45 33.9148 193.305 34.2408 193.015 34.5135C192.73 34.782 192.384 34.9162 191.98 34.9162ZM195.516 46V36.1818H198.156V37.8949H198.258C198.437 37.2855 198.738 36.8253 199.159 36.5142C199.581 36.1989 200.067 36.0412 200.617 36.0412C200.753 36.0412 200.9 36.0497 201.058 36.0668C201.216 36.0838 201.354 36.1072 201.473 36.1371V38.5533C201.345 38.5149 201.169 38.4808 200.943 38.451C200.717 38.4212 200.51 38.4062 200.323 38.4062C199.922 38.4062 199.564 38.4936 199.249 38.6683C198.938 38.8388 198.691 39.0774 198.507 39.3842C198.328 39.6911 198.239 40.0447 198.239 40.4453V46H195.516ZM207.047 46V36.1818H209.642V37.9141H209.757C209.962 37.3388 210.303 36.8849 210.78 36.5526C211.257 36.2202 211.828 36.054 212.493 36.054C213.167 36.054 213.74 36.2223 214.213 36.5589C214.686 36.8913 215.001 37.343 215.159 37.9141H215.261C215.461 37.3516 215.823 36.902 216.348 36.5653C216.876 36.2244 217.5 36.054 218.22 36.054C219.137 36.054 219.88 36.3459 220.451 36.9297C221.027 37.5092 221.314 38.3317 221.314 39.397V46H218.598V39.9339C218.598 39.3885 218.453 38.9794 218.163 38.7067C217.873 38.4339 217.511 38.2976 217.076 38.2976C216.582 38.2976 216.196 38.4553 215.919 38.7706C215.642 39.0817 215.504 39.4929 215.504 40.0043V46H212.864V39.8764C212.864 39.3949 212.725 39.0114 212.448 38.7259C212.176 38.4403 211.816 38.2976 211.368 38.2976C211.066 38.2976 210.793 38.3743 210.55 38.5277C210.311 38.6768 210.122 38.8878 209.981 39.1605C209.841 39.429 209.77 39.7443 209.77 40.1065V46H207.047ZM227.94 46.1918C226.93 46.1918 226.06 45.9872 225.332 45.5781C224.607 45.1648 224.049 44.581 223.657 43.8267C223.265 43.0682 223.069 42.1712 223.069 41.1357C223.069 40.1257 223.265 39.2393 223.657 38.4766C224.049 37.7138 224.601 37.1193 225.312 36.6932C226.028 36.267 226.868 36.054 227.831 36.054C228.479 36.054 229.082 36.1584 229.64 36.3672C230.202 36.5717 230.692 36.8807 231.11 37.294C231.532 37.7074 231.86 38.2273 232.094 38.8537C232.329 39.4759 232.446 40.2045 232.446 41.0398V41.7876H224.156V40.1001H229.883C229.883 39.7081 229.798 39.3608 229.627 39.0582C229.457 38.7557 229.22 38.5192 228.918 38.3487C228.619 38.174 228.272 38.0866 227.876 38.0866C227.462 38.0866 227.096 38.1825 226.776 38.3743C226.461 38.5618 226.214 38.8153 226.035 39.1349C225.856 39.4503 225.764 39.8018 225.76 40.1896V41.794C225.76 42.2798 225.849 42.6996 226.028 43.0533C226.212 43.407 226.469 43.6797 226.802 43.8714C227.134 44.0632 227.528 44.1591 227.984 44.1591C228.287 44.1591 228.564 44.1165 228.815 44.0312C229.067 43.946 229.282 43.8182 229.461 43.6477C229.64 43.4773 229.776 43.2685 229.87 43.0213L232.388 43.1875C232.261 43.7926 231.999 44.321 231.602 44.7727C231.21 45.2202 230.703 45.5696 230.081 45.821C229.463 46.0682 228.749 46.1918 227.94 46.1918ZM236.946 32.9091V46H234.223V32.9091H236.946ZM241.85 40.3239V46H239.127V32.9091H241.774V37.9141H241.889C242.11 37.3345 242.468 36.8807 242.963 36.5526C243.457 36.2202 244.077 36.054 244.823 36.054C245.504 36.054 246.099 36.2031 246.606 36.5014C247.117 36.7955 247.514 37.2195 247.795 37.7734C248.08 38.3232 248.221 38.9815 248.217 39.7486V46H245.494V40.2344C245.498 39.6293 245.345 39.1584 245.034 38.8217C244.727 38.4851 244.296 38.3168 243.742 38.3168C243.372 38.3168 243.043 38.3956 242.758 38.5533C242.477 38.7109 242.255 38.9411 242.093 39.2436C241.936 39.5419 241.855 39.902 241.85 40.3239ZM254.796 46.1918C253.803 46.1918 252.944 45.9808 252.22 45.5589C251.5 45.1328 250.944 44.5405 250.551 43.782C250.159 43.0192 249.963 42.1349 249.963 41.1293C249.963 40.1151 250.159 39.2287 250.551 38.4702C250.944 37.7074 251.5 37.1151 252.22 36.6932C252.944 36.267 253.803 36.054 254.796 36.054C255.789 36.054 256.645 36.267 257.365 36.6932C258.09 37.1151 258.648 37.7074 259.04 38.4702C259.432 39.2287 259.628 40.1151 259.628 41.1293C259.628 42.1349 259.432 43.0192 259.04 43.782C258.648 44.5405 258.09 45.1328 257.365 45.5589C256.645 45.9808 255.789 46.1918 254.796 46.1918ZM254.809 44.0824C255.26 44.0824 255.637 43.9545 255.94 43.6989C256.243 43.4389 256.47 43.0852 256.624 42.6378C256.782 42.1903 256.86 41.6811 256.86 41.1101C256.86 40.5391 256.782 40.0298 256.624 39.5824C256.47 39.1349 256.243 38.7812 255.94 38.5213C255.637 38.2614 255.26 38.1314 254.809 38.1314C254.353 38.1314 253.969 38.2614 253.658 38.5213C253.351 38.7812 253.119 39.1349 252.961 39.5824C252.808 40.0298 252.731 40.5391 252.731 41.1101C252.731 41.6811 252.808 42.1903 252.961 42.6378C253.119 43.0852 253.351 43.4389 253.658 43.6989C253.969 43.9545 254.353 44.0824 254.809 44.0824ZM261.399 46V36.1818H264.039V37.8949H264.141C264.32 37.2855 264.62 36.8253 265.042 36.5142C265.464 36.1989 265.95 36.0412 266.5 36.0412C266.636 36.0412 266.783 36.0497 266.941 36.0668C267.098 36.0838 267.237 36.1072 267.356 36.1371V38.5533C267.228 38.5149 267.051 38.4808 266.826 38.451C266.6 38.4212 266.393 38.4062 266.206 38.4062C265.805 38.4062 265.447 38.4936 265.132 38.6683C264.821 38.8388 264.573 39.0774 264.39 39.3842C264.211 39.6911 264.122 40.0447 264.122 40.4453V46H261.399Z" fill="#141414"/>
<defs>
<filter id="filter0_d_567_474" x="0" y="0" width="313.34" height="88" filterUnits="userSpaceOnUse" color-interpolation-filters="sRGB">
<feFlood flood-opacity="0" result="BackgroundImageFix"/>
<feColorMatrix in="SourceAlpha" type="matrix" values="0 0 0 0 0 0 0 0 0 0 0 0 0 0 0 0 0 0 127 0" result="hardAlpha"/>
<feMorphology radius="2" operator="erode" in="SourceAlpha" result="effect1_dropShadow_567_474"/>
<feOffset dy="4"/>
<feGaussianBlur stdDeviation="8"/>
<feComposite in2="hardAlpha" operator="out"/>
<feColorMatrix type="matrix" values="0 0 0 0 0.980392 0 0 0 0 0.85098 0 0 0 0 0.0196078 0 0 0 0.4 0"/>
<feBlend mode="normal" in2="BackgroundImageFix" result="effect1_dropShadow_567_474"/>
<feBlend mode="normal" in="SourceGraphic" in2="effect1_dropShadow_567_474" result="shape"/>
</filter>
</defs>
</svg>
