<svg width="276" height="63" viewBox="0 0 276 63" fill="none" xmlns="http://www.w3.org/2000/svg">
<g opacity="0.75">
<rect x="12" y="2" width="252" height="39" rx="8" fill="#FAE007"/>
<g filter="url(#filter0_dd_567_288)">
<rect x="12" y="2" width="251.72" height="39" rx="8" fill="white" fill-opacity="0.01" shape-rendering="crispEdges"/>
</g>
<path d="M100.505 15.3455L103.564 24.9599H103.681L106.746 15.3455H109.712L105.35 28H101.902L97.5333 15.3455H100.505ZM114.44 28.1854C113.464 28.1854 112.624 27.9876 111.919 27.5922C111.219 27.1926 110.68 26.6283 110.301 25.8991C109.922 25.1659 109.732 24.2988 109.732 23.2978C109.732 22.3215 109.922 21.4647 110.301 20.7273C110.68 19.99 111.213 19.4153 111.901 19.0034C112.593 18.5915 113.404 18.3855 114.335 18.3855C114.962 18.3855 115.544 18.4864 116.084 18.6883C116.628 18.886 117.102 19.1847 117.505 19.5842C117.913 19.9838 118.23 20.4864 118.457 21.0919C118.683 21.6933 118.797 22.3977 118.797 23.2051V23.9281H110.783V22.2968H116.319C116.319 21.9178 116.237 21.5821 116.072 21.2896C115.907 20.9972 115.678 20.7685 115.386 20.6038C115.098 20.4349 114.762 20.3504 114.379 20.3504C113.979 20.3504 113.625 20.4431 113.316 20.6285C113.011 20.8097 112.772 21.0548 112.599 21.3638C112.426 21.6686 112.338 22.0085 112.333 22.3833V23.9342C112.333 24.4038 112.42 24.8096 112.593 25.1515C112.77 25.4934 113.019 25.757 113.341 25.9424C113.662 26.1278 114.043 26.2205 114.484 26.2205C114.776 26.2205 115.044 26.1793 115.287 26.0969C115.53 26.0145 115.738 25.8909 115.911 25.7261C116.084 25.5614 116.216 25.3595 116.307 25.1206L118.741 25.2813C118.617 25.8662 118.364 26.377 117.981 26.8136C117.602 27.2462 117.112 27.5839 116.51 27.827C115.913 28.0659 115.223 28.1854 114.44 28.1854ZM120.514 18.5091H123.147V28.4696C123.147 29.2028 123.002 29.796 122.714 30.2491C122.426 30.7023 122.012 31.0339 121.472 31.244C120.937 31.454 120.296 31.5591 119.551 31.5591C119.46 31.5591 119.373 31.557 119.291 31.5529C119.204 31.5529 119.114 31.5509 119.019 31.5467V29.4891C119.089 29.4933 119.151 29.4953 119.204 29.4953C119.254 29.4994 119.307 29.5015 119.365 29.5015C119.789 29.5015 120.086 29.4109 120.255 29.2296C120.428 29.0525 120.514 28.7847 120.514 28.4263V18.5091ZM121.824 17.2857C121.437 17.2857 121.103 17.1559 120.823 16.8964C120.543 16.6327 120.403 16.3176 120.403 15.951C120.403 15.5885 120.543 15.2775 120.823 15.018C121.103 14.7543 121.437 14.6225 121.824 14.6225C122.22 14.6225 122.556 14.7543 122.832 15.018C123.112 15.2775 123.252 15.5885 123.252 15.951C123.252 16.3176 123.112 16.6327 122.832 16.8964C122.556 17.1559 122.22 17.2857 121.824 17.2857ZM127.962 28.1792C127.356 28.1792 126.816 28.0741 126.343 27.8641C125.869 27.6499 125.494 27.3347 125.218 26.9187C124.946 26.4985 124.81 25.9754 124.81 25.3492C124.81 24.8219 124.907 24.3791 125.101 24.0207C125.294 23.6624 125.558 23.374 125.892 23.1557C126.225 22.9374 126.604 22.7726 127.029 22.6614C127.457 22.5501 127.906 22.4719 128.376 22.4266C128.928 22.3689 129.373 22.3153 129.71 22.2659C130.048 22.2124 130.293 22.1341 130.446 22.0311C130.598 21.9281 130.674 21.7757 130.674 21.5739V21.5368C130.674 21.1455 130.551 20.8427 130.303 20.6285C130.06 20.4143 129.714 20.3072 129.265 20.3072C128.792 20.3072 128.415 20.4122 128.135 20.6223C127.855 20.8283 127.669 21.0878 127.579 21.4009L125.144 21.2031C125.268 20.6264 125.511 20.128 125.873 19.7078C126.236 19.2835 126.703 18.9581 127.276 18.7315C127.852 18.5009 128.52 18.3855 129.278 18.3855C129.805 18.3855 130.31 18.4473 130.792 18.5709C131.278 18.6945 131.708 18.886 132.083 19.1455C132.462 19.405 132.761 19.7387 132.979 20.1465C133.197 20.5502 133.306 21.0342 133.306 21.5986V28H130.81V26.6839H130.736C130.584 26.9805 130.38 27.242 130.124 27.4686C129.869 27.6911 129.562 27.8661 129.204 27.9938C128.845 28.1174 128.431 28.1792 127.962 28.1792ZM128.715 26.3626C129.103 26.3626 129.445 26.2864 129.741 26.1339C130.038 25.9774 130.271 25.7673 130.439 25.5037C130.608 25.2401 130.693 24.9414 130.693 24.6077V23.6006C130.61 23.6541 130.497 23.7036 130.353 23.7489C130.213 23.7901 130.054 23.8292 129.877 23.8663C129.7 23.8992 129.523 23.9301 129.346 23.9589C129.169 23.9837 129.008 24.0063 128.864 24.0269C128.555 24.0722 128.285 24.1443 128.054 24.2432C127.824 24.342 127.644 24.4759 127.517 24.6448C127.389 24.8096 127.325 25.0156 127.325 25.2627C127.325 25.6211 127.455 25.895 127.714 26.0845C127.978 26.2699 128.312 26.3626 128.715 26.3626ZM139.376 28V18.5091H141.884V20.1836H141.996C142.193 19.6275 142.523 19.1888 142.984 18.8675C143.446 18.5462 143.998 18.3855 144.64 18.3855C145.291 18.3855 145.845 18.5482 146.302 18.8737C146.76 19.195 147.064 19.6316 147.217 20.1836H147.316C147.509 19.6398 147.859 19.2053 148.366 18.8798C148.877 18.5503 149.48 18.3855 150.177 18.3855C151.062 18.3855 151.781 18.6677 152.333 19.232C152.889 19.7923 153.167 20.5873 153.167 21.6171V28H150.541V22.1362C150.541 21.6089 150.401 21.2134 150.121 20.9498C149.841 20.6862 149.491 20.5543 149.071 20.5543C148.593 20.5543 148.22 20.7067 147.952 21.0116C147.684 21.3123 147.551 21.7098 147.551 22.2041V28H144.999V22.0805C144.999 21.6151 144.865 21.2443 144.597 20.9683C144.333 20.6923 143.985 20.5543 143.553 20.5543C143.26 20.5543 142.997 20.6285 142.762 20.7768C142.531 20.921 142.348 21.1249 142.212 21.3885C142.076 21.648 142.008 21.9528 142.008 22.303V28H139.376ZM157.953 28.1792C157.347 28.1792 156.808 28.0741 156.334 27.8641C155.86 27.6499 155.485 27.3347 155.209 26.9187C154.938 26.4985 154.802 25.9754 154.802 25.3492C154.802 24.8219 154.898 24.3791 155.092 24.0207C155.286 23.6624 155.549 23.374 155.883 23.1557C156.217 22.9374 156.596 22.7726 157.02 22.6614C157.448 22.5501 157.897 22.4719 158.367 22.4266C158.919 22.3689 159.364 22.3153 159.701 22.2659C160.039 22.2124 160.284 22.1341 160.437 22.0311C160.589 21.9281 160.665 21.7757 160.665 21.5739V21.5368C160.665 21.1455 160.542 20.8427 160.295 20.6285C160.052 20.4143 159.706 20.3072 159.257 20.3072C158.783 20.3072 158.406 20.4122 158.126 20.6223C157.846 20.8283 157.66 21.0878 157.57 21.4009L155.135 21.2031C155.259 20.6264 155.502 20.128 155.864 19.7078C156.227 19.2835 156.694 18.9581 157.267 18.7315C157.844 18.5009 158.511 18.3855 159.269 18.3855C159.796 18.3855 160.301 18.4473 160.783 18.5709C161.269 18.6945 161.699 18.886 162.074 19.1455C162.453 19.405 162.752 19.7387 162.97 20.1465C163.189 20.5502 163.298 21.0342 163.298 21.5986V28H160.801V26.6839H160.727C160.575 26.9805 160.371 27.242 160.115 27.4686C159.86 27.6911 159.553 27.8661 159.195 27.9938C158.836 28.1174 158.422 28.1792 157.953 28.1792ZM158.707 26.3626C159.094 26.3626 159.436 26.2864 159.732 26.1339C160.029 25.9774 160.262 25.7673 160.431 25.5037C160.6 25.2401 160.684 24.9414 160.684 24.6077V23.6006C160.602 23.6541 160.488 23.7036 160.344 23.7489C160.204 23.7901 160.045 23.8292 159.868 23.8663C159.691 23.8992 159.514 23.9301 159.337 23.9589C159.16 23.9837 158.999 24.0063 158.855 24.0269C158.546 24.0722 158.276 24.1443 158.046 24.2432C157.815 24.342 157.636 24.4759 157.508 24.6448C157.38 24.8096 157.316 25.0156 157.316 25.2627C157.316 25.6211 157.446 25.895 157.706 26.0845C157.969 26.2699 158.303 26.3626 158.707 26.3626ZM165.34 28V18.5091H167.972V28H165.34ZM166.662 17.2857C166.271 17.2857 165.935 17.1559 165.655 16.8964C165.379 16.6327 165.241 16.3176 165.241 15.951C165.241 15.5885 165.379 15.2775 165.655 15.018C165.935 14.7543 166.271 14.6225 166.662 14.6225C167.053 14.6225 167.387 14.7543 167.663 15.018C167.943 15.2775 168.083 15.5885 168.083 15.951C168.083 16.3176 167.943 16.6327 167.663 16.8964C167.387 17.1559 167.053 17.2857 166.662 17.2857ZM177.977 21.2155L175.568 21.3638C175.526 21.1578 175.438 20.9724 175.302 20.8077C175.166 20.6388 174.987 20.5049 174.764 20.406C174.546 20.3031 174.284 20.2516 173.98 20.2516C173.572 20.2516 173.228 20.3381 172.948 20.5111C172.668 20.68 172.528 20.9065 172.528 21.1908C172.528 21.4173 172.618 21.6089 172.799 21.7654C172.981 21.9219 173.292 22.0476 173.732 22.1423L175.45 22.4884C176.373 22.6778 177.061 22.9827 177.514 23.4028C177.967 23.823 178.194 24.375 178.194 25.0588C178.194 25.6808 178.01 26.2266 177.644 26.6962C177.281 27.1658 176.783 27.5325 176.148 27.7961C175.518 28.0556 174.791 28.1854 173.967 28.1854C172.711 28.1854 171.71 27.9238 170.964 27.4006C170.223 26.8734 169.788 26.1566 169.66 25.2504L172.249 25.1144C172.328 25.4975 172.517 25.79 172.818 25.9918C173.119 26.1896 173.504 26.2884 173.973 26.2884C174.435 26.2884 174.805 26.1999 175.086 26.0227C175.37 25.8415 175.514 25.6087 175.518 25.3245C175.514 25.0856 175.413 24.8899 175.215 24.7375C175.018 24.581 174.713 24.4615 174.301 24.3791L172.657 24.0516C171.73 23.8663 171.04 23.545 170.587 23.0877C170.138 22.6305 169.914 22.0476 169.914 21.3391C169.914 20.7294 170.079 20.2042 170.408 19.7634C170.742 19.3227 171.209 18.9828 171.811 18.7439C172.416 18.505 173.125 18.3855 173.936 18.3855C175.135 18.3855 176.078 18.6388 176.766 19.1455C177.458 19.6522 177.862 20.3422 177.977 21.2155Z" fill="black"/>
</g>
<defs>
<filter id="filter0_dd_567_288" x="0" y="0" width="275.72" height="63" filterUnits="userSpaceOnUse" color-interpolation-filters="sRGB">
<feFlood flood-opacity="0" result="BackgroundImageFix"/>
<feColorMatrix in="SourceAlpha" type="matrix" values="0 0 0 0 0 0 0 0 0 0 0 0 0 0 0 0 0 0 127 0" result="hardAlpha"/>
<feMorphology radius="4" operator="erode" in="SourceAlpha" result="effect1_dropShadow_567_288"/>
<feOffset dy="4"/>
<feGaussianBlur stdDeviation="3"/>
<feComposite in2="hardAlpha" operator="out"/>
<feColorMatrix type="matrix" values="0 0 0 0 0 0 0 0 0 0 0 0 0 0 0 0 0 0 0.1 0"/>
<feBlend mode="normal" in2="BackgroundImageFix" result="effect1_dropShadow_567_288"/>
<feColorMatrix in="SourceAlpha" type="matrix" values="0 0 0 0 0 0 0 0 0 0 0 0 0 0 0 0 0 0 127 0" result="hardAlpha"/>
<feMorphology radius="3" operator="erode" in="SourceAlpha" result="effect2_dropShadow_567_288"/>
<feOffset dy="10"/>
<feGaussianBlur stdDeviation="7.5"/>
<feComposite in2="hardAlpha" operator="out"/>
<feColorMatrix type="matrix" values="0 0 0 0 0 0 0 0 0 0 0 0 0 0 0 0 0 0 0.1 0"/>
<feBlend mode="normal" in2="effect1_dropShadow_567_288" result="effect2_dropShadow_567_288"/>
<feBlend mode="normal" in="SourceGraphic" in2="effect2_dropShadow_567_288" result="shape"/>
</filter>
</defs>
</svg>
