<svg width="143" height="48" viewBox="0 0 143 48" fill="none" xmlns="http://www.w3.org/2000/svg">
<rect width="143" height="48" rx="8" fill="url(#paint0_linear_617_63)"/>
<path d="M49.2975 22.7211H46.9022C46.8584 22.4112 46.7691 22.1359 46.6342 21.8953C46.4993 21.651 46.3261 21.4432 46.1146 21.2719C45.9032 21.1005 45.6589 20.9693 45.3818 20.8781C45.1084 20.787 44.8113 20.7414 44.4904 20.7414C43.9107 20.7414 43.4058 20.8854 42.9756 21.1734C42.5454 21.4578 42.2118 21.8734 41.9748 22.4203C41.7378 22.9635 41.6193 23.6234 41.6193 24.4C41.6193 25.1984 41.7378 25.8693 41.9748 26.4125C42.2154 26.9557 42.5508 27.3659 42.9811 27.643C43.4113 27.9201 43.9089 28.0586 44.474 28.0586C44.7912 28.0586 45.0847 28.0167 45.3545 27.9328C45.6279 27.849 45.8704 27.7268 46.0818 27.5664C46.2933 27.4023 46.4683 27.2036 46.6068 26.9703C46.749 26.737 46.8475 26.4708 46.9022 26.1719L49.2975 26.1828C49.2355 26.6969 49.0805 27.1927 48.8326 27.6703C48.5883 28.1443 48.2584 28.569 47.8428 28.9445C47.4308 29.3164 46.9386 29.6117 46.3662 29.8305C45.7975 30.0456 45.154 30.1531 44.4357 30.1531C43.4368 30.1531 42.5436 29.9271 41.7561 29.475C40.9722 29.0229 40.3524 28.3685 39.8967 27.5117C39.4446 26.6549 39.2186 25.6177 39.2186 24.4C39.2186 23.1786 39.4482 22.1396 39.9076 21.2828C40.367 20.426 40.9904 19.7734 41.7779 19.325C42.5654 18.8729 43.4514 18.6469 44.4357 18.6469C45.0847 18.6469 45.6863 18.738 46.2404 18.9203C46.7982 19.1026 47.2923 19.3687 47.7225 19.7187C48.1527 20.0651 48.5027 20.4898 48.7725 20.993C49.0459 21.4961 49.2209 22.0721 49.2975 22.7211ZM53.3471 30.1586C52.8111 30.1586 52.3335 30.0656 51.9143 29.8797C51.495 29.6901 51.1632 29.4112 50.9189 29.043C50.6783 28.6711 50.558 28.2081 50.558 27.6539C50.558 27.1872 50.6437 26.7953 50.815 26.4781C50.9864 26.1609 51.2197 25.9057 51.515 25.7125C51.8104 25.5193 52.1458 25.3734 52.5213 25.275C52.9005 25.1766 53.2979 25.1073 53.7135 25.0672C54.202 25.0161 54.5958 24.9688 54.8947 24.925C55.1937 24.8776 55.4106 24.8083 55.5455 24.7172C55.6804 24.626 55.7479 24.4911 55.7479 24.3125V24.2797C55.7479 23.9333 55.6385 23.6654 55.4197 23.4758C55.2046 23.2862 54.8984 23.1914 54.501 23.1914C54.0817 23.1914 53.7481 23.2844 53.5002 23.4703C53.2523 23.6526 53.0882 23.8823 53.008 24.1594L50.8533 23.9844C50.9627 23.474 51.1778 23.0328 51.4986 22.6609C51.8195 22.2854 52.2333 21.9974 52.74 21.7969C53.2505 21.5927 53.8411 21.4906 54.5119 21.4906C54.9786 21.4906 55.4252 21.5453 55.8518 21.6547C56.282 21.7641 56.663 21.9336 56.9947 22.1633C57.3301 22.393 57.5945 22.6883 57.7877 23.0492C57.9809 23.4065 58.0775 23.8349 58.0775 24.3344V30H55.8682V28.8352H55.8025C55.6676 29.0977 55.4872 29.3292 55.2611 29.5297C55.0351 29.7266 54.7635 29.8815 54.4463 29.9945C54.1291 30.1039 53.7627 30.1586 53.3471 30.1586ZM54.0143 28.5508C54.357 28.5508 54.6596 28.4833 54.9221 28.3484C55.1846 28.2099 55.3906 28.024 55.54 27.7906C55.6895 27.5573 55.7643 27.293 55.7643 26.9977V26.1063C55.6913 26.1536 55.5911 26.1974 55.4635 26.2375C55.3395 26.274 55.1992 26.3086 55.0424 26.3414C54.8856 26.3706 54.7288 26.3979 54.5721 26.4234C54.4153 26.4453 54.2731 26.4654 54.1455 26.4836C53.8721 26.5237 53.6333 26.5875 53.4291 26.675C53.2249 26.7625 53.0663 26.881 52.9533 27.0305C52.8403 27.1763 52.7838 27.3586 52.7838 27.5773C52.7838 27.8945 52.8986 28.137 53.1283 28.3047C53.3617 28.4687 53.657 28.5508 54.0143 28.5508ZM62.2146 25.1438V30H59.885V21.6H62.1053V23.082H62.2037C62.3896 22.5935 62.7014 22.207 63.1389 21.9227C63.5764 21.6346 64.1068 21.4906 64.7303 21.4906C65.3136 21.4906 65.8222 21.6182 66.2561 21.8734C66.6899 22.1286 67.0271 22.4932 67.2678 22.9672C67.5084 23.4375 67.6287 23.999 67.6287 24.6516V30H65.299V25.0672C65.3027 24.5531 65.1714 24.1521 64.9053 23.8641C64.6391 23.5724 64.2727 23.4266 63.8061 23.4266C63.4925 23.4266 63.2154 23.494 62.9748 23.6289C62.7378 23.7638 62.5519 23.9607 62.417 24.2195C62.2857 24.4747 62.2183 24.7828 62.2146 25.1438ZM73.2602 30.1641C72.3997 30.1641 71.6596 29.9818 71.0398 29.6172C70.4237 29.249 69.9497 28.7385 69.618 28.0859C69.2898 27.4333 69.1258 26.6823 69.1258 25.8328C69.1258 24.9724 69.2917 24.2177 69.6234 23.5687C69.9589 22.9161 70.4346 22.4076 71.0508 22.043C71.6669 21.6747 72.3997 21.4906 73.2492 21.4906C73.982 21.4906 74.6237 21.6237 75.1742 21.8898C75.7247 22.156 76.1604 22.5297 76.4812 23.0109C76.8021 23.4922 76.9789 24.0573 77.0117 24.7063H74.8133C74.7513 24.287 74.5872 23.9497 74.3211 23.6945C74.0586 23.4357 73.7141 23.3063 73.2875 23.3063C72.9266 23.3063 72.6112 23.4047 72.3414 23.6016C72.0753 23.7948 71.8674 24.0773 71.718 24.4492C71.5685 24.8211 71.4938 25.2714 71.4938 25.8C71.4938 26.3359 71.5667 26.7917 71.7125 27.1672C71.862 27.5427 72.0716 27.8289 72.3414 28.0258C72.6112 28.2227 72.9266 28.3211 73.2875 28.3211C73.5536 28.3211 73.7924 28.2664 74.0039 28.157C74.219 28.0477 74.3958 27.8891 74.5344 27.6812C74.6766 27.4698 74.7695 27.2164 74.8133 26.9211H77.0117C76.9753 27.5628 76.8003 28.1279 76.4867 28.6164C76.1768 29.1013 75.7484 29.4805 75.2016 29.7539C74.6547 30.0273 74.0076 30.1641 73.2602 30.1641ZM82.3314 30.1641C81.4674 30.1641 80.7236 29.9891 80.1002 29.6391C79.4804 29.2854 79.0028 28.7859 78.6674 28.1406C78.332 27.4917 78.1643 26.7242 78.1643 25.8383C78.1643 24.9742 78.332 24.2159 78.6674 23.5633C79.0028 22.9107 79.4749 22.4021 80.0838 22.0375C80.6963 21.6729 81.4145 21.4906 82.2385 21.4906C82.7926 21.4906 83.3085 21.5799 83.7861 21.7586C84.2674 21.9336 84.6867 22.1979 85.0439 22.5516C85.4049 22.9052 85.6856 23.35 85.8861 23.8859C86.0867 24.4182 86.1869 25.0417 86.1869 25.7563V26.3961H79.0939V24.9523H83.9939C83.9939 24.6169 83.921 24.3198 83.7752 24.0609C83.6294 23.8021 83.427 23.5997 83.1682 23.4539C82.913 23.3044 82.6158 23.2297 82.2768 23.2297C81.9231 23.2297 81.6096 23.3117 81.3361 23.4758C81.0663 23.6362 80.8549 23.8531 80.7018 24.1266C80.5486 24.3964 80.4702 24.6971 80.4666 25.0289V26.4016C80.4666 26.8172 80.5432 27.1763 80.6963 27.4789C80.8531 27.7815 81.0736 28.0148 81.358 28.1789C81.6424 28.343 81.9796 28.425 82.3697 28.425C82.6286 28.425 82.8656 28.3885 83.0807 28.3156C83.2958 28.2427 83.4799 28.1333 83.633 27.9875C83.7861 27.8417 83.9028 27.663 83.983 27.4516L86.1377 27.5938C86.0283 28.1115 85.8041 28.5635 85.465 28.95C85.1296 29.3328 84.6958 29.6318 84.1635 29.8469C83.6348 30.0583 83.0242 30.1641 82.3314 30.1641ZM90.0369 18.8V30H87.7072V18.8H90.0369ZM94.2984 30.1586C93.7625 30.1586 93.2849 30.0656 92.8656 29.8797C92.4464 29.6901 92.1146 29.4112 91.8703 29.043C91.6297 28.6711 91.5094 28.2081 91.5094 27.6539C91.5094 27.1872 91.5951 26.7953 91.7664 26.4781C91.9378 26.1609 92.1711 25.9057 92.4664 25.7125C92.7617 25.5193 93.0971 25.3734 93.4727 25.275C93.8518 25.1766 94.2492 25.1073 94.6648 25.0672C95.1534 25.0161 95.5471 24.9688 95.8461 24.925C96.1451 24.8776 96.362 24.8083 96.4969 24.7172C96.6318 24.626 96.6992 24.4911 96.6992 24.3125V24.2797C96.6992 23.9333 96.5898 23.6654 96.3711 23.4758C96.156 23.2862 95.8497 23.1914 95.4523 23.1914C95.0331 23.1914 94.6995 23.2844 94.4516 23.4703C94.2036 23.6526 94.0396 23.8823 93.9594 24.1594L91.8047 23.9844C91.9141 23.474 92.1292 23.0328 92.45 22.6609C92.7708 22.2854 93.1846 21.9974 93.6914 21.7969C94.2018 21.5927 94.7924 21.4906 95.4633 21.4906C95.9299 21.4906 96.3766 21.5453 96.8031 21.6547C97.2333 21.7641 97.6143 21.9336 97.9461 22.1633C98.2815 22.393 98.5458 22.6883 98.7391 23.0492C98.9323 23.4065 99.0289 23.8349 99.0289 24.3344V30H96.8195V28.8352H96.7539C96.619 29.0977 96.4385 29.3292 96.2125 29.5297C95.9865 29.7266 95.7148 29.8815 95.3977 29.9945C95.0805 30.1039 94.7141 30.1586 94.2984 30.1586ZM94.9656 28.5508C95.3083 28.5508 95.6109 28.4833 95.8734 28.3484C96.1359 28.2099 96.3419 28.024 96.4914 27.7906C96.6409 27.5573 96.7156 27.293 96.7156 26.9977V26.1063C96.6427 26.1536 96.5424 26.1974 96.4148 26.2375C96.2909 26.274 96.1505 26.3086 95.9938 26.3414C95.837 26.3706 95.6802 26.3979 95.5234 26.4234C95.3667 26.4453 95.2245 26.4654 95.0969 26.4836C94.8234 26.5237 94.5846 26.5875 94.3805 26.675C94.1763 26.7625 94.0177 26.881 93.9047 27.0305C93.7917 27.1763 93.7352 27.3586 93.7352 27.5773C93.7352 27.8945 93.85 28.137 94.0797 28.3047C94.313 28.4687 94.6083 28.5508 94.9656 28.5508ZM100.836 30V21.6H103.095V23.0656H103.182C103.336 22.5443 103.593 22.1505 103.954 21.8844C104.314 21.6146 104.73 21.4797 105.2 21.4797C105.317 21.4797 105.443 21.487 105.578 21.5016C105.713 21.5161 105.831 21.5362 105.933 21.5617V23.6289C105.824 23.5961 105.673 23.5669 105.479 23.5414C105.286 23.5159 105.109 23.5031 104.949 23.5031C104.606 23.5031 104.3 23.5779 104.03 23.7273C103.764 23.8732 103.552 24.0773 103.396 24.3398C103.243 24.6023 103.166 24.9049 103.166 25.2477V30H100.836Z" fill="white"/>
<defs>
<linearGradient id="paint0_linear_617_63" x1="0" y1="24" x2="143" y2="24" gradientUnits="userSpaceOnUse">
<stop stop-color="#177F72"/>
<stop offset="0.961538" stop-color="#2563EB"/>
</linearGradient>
</defs>
</svg>
