<svg width="40" height="40" viewBox="0 0 40 40" fill="none" xmlns="http://www.w3.org/2000/svg">
<rect width="40" height="40" rx="12" fill="white"/>
<g clip-path="url(#clip0_567_403)">
<path d="M20 14.1665C20.001 13.8332 19.9353 13.5031 19.8068 13.1955C19.6784 12.888 19.4897 12.6092 19.2519 12.3757C19.0141 12.1421 18.732 11.9584 18.4222 11.8355C18.1124 11.7125 17.7812 11.6528 17.4479 11.6597C17.1147 11.6667 16.7862 11.7402 16.4818 11.8759C16.1774 12.0117 15.9032 12.2069 15.6754 12.4502C15.4475 12.6935 15.2706 12.9799 15.1551 13.2925C15.0395 13.6051 14.9877 13.9377 15.0025 14.2707C14.5127 14.3967 14.0579 14.6324 13.6727 14.9601C13.2875 15.2879 12.9819 15.6989 12.7791 16.1623C12.5762 16.6256 12.4815 17.129 12.502 17.6343C12.5225 18.1397 12.6578 18.6337 12.8975 19.079C12.476 19.4215 12.1445 19.8617 11.932 20.3615C11.7194 20.8612 11.6322 21.4054 11.6778 21.9465C11.7235 22.4877 11.9007 23.0095 12.194 23.4666C12.4873 23.9236 12.8879 24.3021 13.3609 24.569C13.3025 25.0209 13.3373 25.4799 13.4633 25.9178C13.5892 26.3557 13.8036 26.7631 14.0932 27.1148C14.3827 27.4666 14.7414 27.7553 15.1469 27.963C15.5524 28.1708 15.9962 28.2932 16.4508 28.3227C16.9055 28.3522 17.3614 28.2881 17.7903 28.1346C18.2193 27.981 18.6122 27.7411 18.9448 27.4297C19.2774 27.1183 19.5427 26.742 19.7242 26.3241C19.9056 25.9062 19.9995 25.4555 20 24.9999V14.1665Z" stroke="#1AA7D5" stroke-width="1.66667" stroke-linecap="round" stroke-linejoin="round"/>
<path d="M20 14.1665C19.999 13.8332 20.0647 13.5031 20.1932 13.1955C20.3217 12.888 20.5103 12.6092 20.7481 12.3757C20.9859 12.1421 21.268 11.9584 21.5778 11.8355C21.8876 11.7125 22.2189 11.6528 22.5521 11.6597C22.8853 11.6667 23.2138 11.7402 23.5182 11.8759C23.8226 12.0117 24.0968 12.2069 24.3247 12.4502C24.5525 12.6935 24.7294 12.9799 24.845 13.2925C24.9605 13.6051 25.0124 13.9377 24.9975 14.2707C25.4873 14.3967 25.9421 14.6324 26.3273 14.9601C26.7125 15.2879 27.0181 15.6989 27.221 16.1623C27.4238 16.6256 27.5185 17.129 27.498 17.6343C27.4775 18.1397 27.3422 18.6337 27.1025 19.079C27.524 19.4215 27.8555 19.8617 28.0681 20.3615C28.2806 20.8612 28.3679 21.4054 28.3222 21.9465C28.2765 22.4877 28.0993 23.0095 27.806 23.4666C27.5127 23.9236 27.1121 24.3021 26.6392 24.569C26.6976 25.0209 26.6627 25.4799 26.5368 25.9178C26.4108 26.3557 26.1964 26.7631 25.9069 27.1148C25.6173 27.4666 25.2587 27.7553 24.8532 27.963C24.4477 28.1708 24.0039 28.2932 23.5492 28.3227C23.0945 28.3522 22.6386 28.2881 22.2097 28.1346C21.7807 27.981 21.3878 27.7411 21.0552 27.4297C20.7226 27.1183 20.4574 26.742 20.2759 26.3241C20.0944 25.9062 20.0005 25.4555 20 24.9999V14.1665Z" stroke="#1AA7D5" stroke-width="1.66667" stroke-linecap="round" stroke-linejoin="round"/>
<path d="M22.5 20.8333C21.8004 20.5872 21.1894 20.1392 20.7444 19.5458C20.2994 18.9525 20.0404 18.2406 20 17.5C19.9596 18.2406 19.7006 18.9525 19.2556 19.5458C18.8106 20.1392 18.1996 20.5872 17.5 20.8333" stroke="#1AA7D5" stroke-width="1.66667" stroke-linecap="round" stroke-linejoin="round"/>
<path d="M24.666 15.4166C24.8677 15.0671 24.9818 14.6739 24.9985 14.2708" stroke="#1AA7D5" stroke-width="1.66667" stroke-linecap="round" stroke-linejoin="round"/>
<path d="M15.0029 14.2708C15.0194 14.6739 15.1332 15.067 15.3346 15.4166" stroke="#1AA7D5" stroke-width="1.66667" stroke-linecap="round" stroke-linejoin="round"/>
<path d="M12.8975 19.08C13.0499 18.9558 13.213 18.8454 13.385 18.75" stroke="#1AA7D5" stroke-width="1.66667" stroke-linecap="round" stroke-linejoin="round"/>
<path d="M26.6152 18.75C26.7871 18.8454 26.9503 18.9558 27.1027 19.08" stroke="#1AA7D5" stroke-width="1.66667" stroke-linecap="round" stroke-linejoin="round"/>
<path d="M14.9995 25.0001C14.4252 25.0003 13.8606 24.8522 13.3604 24.5701" stroke="#1AA7D5" stroke-width="1.66667" stroke-linecap="round" stroke-linejoin="round"/>
<path d="M26.6392 24.5701C26.1389 24.8522 25.5743 25.0003 25 25.0001" stroke="#1AA7D5" stroke-width="1.66667" stroke-linecap="round" stroke-linejoin="round"/>
</g>
<defs>
<clipPath id="clip0_567_403">
<rect width="20" height="20" fill="white" transform="translate(10 10)"/>
</clipPath>
</defs>
</svg>
