<svg width="222" height="84" viewBox="0 0 222 84" fill="none" xmlns="http://www.w3.org/2000/svg">
<rect x="12" y="2" width="197.72" height="60" rx="8" fill="#FAE007"/>
<g filter="url(#filter0_dd_567_298)">
<rect x="12" y="2" width="197.72" height="60" rx="8" fill="white" fill-opacity="0.01" shape-rendering="crispEdges"/>
</g>
<path d="M56.8878 29.7758H54.1814C54.1319 29.4256 54.031 29.1146 53.8786 28.8428C53.7262 28.5668 53.5305 28.332 53.2916 28.1384C53.0527 27.9447 52.7767 27.7964 52.4636 27.6935C52.1547 27.5905 51.8189 27.539 51.4564 27.539C50.8015 27.539 50.2309 27.7017 49.7449 28.0271C49.2588 28.3484 48.8819 28.818 48.6141 29.4359C48.3464 30.0497 48.2125 30.7953 48.2125 31.6727C48.2125 32.5749 48.3464 33.3328 48.6141 33.9466C48.886 34.5604 49.265 35.0238 49.751 35.3369C50.2371 35.6499 50.7994 35.8065 51.4379 35.8065C51.7963 35.8065 52.1279 35.7591 52.4327 35.6643C52.7417 35.5696 53.0156 35.4316 53.2545 35.2504C53.4934 35.065 53.6912 34.8405 53.8477 34.5768C54.0084 34.3132 54.1196 34.0125 54.1814 33.6747L56.8878 33.6871C56.8177 34.2679 56.6427 34.8281 56.3626 35.3678C56.0866 35.9033 55.7138 36.3832 55.2442 36.8075C54.7787 37.2276 54.2226 37.5613 53.5758 37.8085C52.9332 38.0515 52.2062 38.173 51.3947 38.173C50.266 38.173 49.2567 37.9176 48.367 37.4068C47.4813 36.896 46.781 36.1566 46.2661 35.1886C45.7553 34.2205 45.4999 33.0486 45.4999 31.6727C45.4999 30.2928 45.7594 29.1188 46.2785 28.1507C46.7975 27.1827 47.5019 26.4453 48.3917 25.9386C49.2814 25.4278 50.2824 25.1724 51.3947 25.1724C52.1279 25.1724 52.8076 25.2754 53.4337 25.4814C54.064 25.6874 54.6221 25.9881 55.1082 26.3835C55.5943 26.7749 55.9898 27.2548 56.2946 27.8232C56.6035 28.3917 56.8013 29.0425 56.8878 29.7758ZM63.0451 38.1854C62.0853 38.1854 61.2553 37.9815 60.555 37.5737C59.8588 37.1617 59.3213 36.5891 58.9423 35.8559C58.5633 35.1185 58.3738 34.2638 58.3738 33.2916C58.3738 32.3112 58.5633 31.4544 58.9423 30.7212C59.3213 29.9838 59.8588 29.4112 60.555 29.0034C61.2553 28.5915 62.0853 28.3855 63.0451 28.3855C64.0049 28.3855 64.8329 28.5915 65.5291 29.0034C66.2294 29.4112 66.769 29.9838 67.148 30.7212C67.5269 31.4544 67.7164 32.3112 67.7164 33.2916C67.7164 34.2638 67.5269 35.1185 67.148 35.8559C66.769 36.5891 66.2294 37.1617 65.5291 37.5737C64.8329 37.9815 64.0049 38.1854 63.0451 38.1854ZM63.0575 36.1463C63.4941 36.1463 63.8587 36.0227 64.1512 35.7756C64.4436 35.5243 64.664 35.1824 64.8123 34.7499C64.9647 34.3173 65.0409 33.8251 65.0409 33.2731C65.0409 32.7211 64.9647 32.2288 64.8123 31.7963C64.664 31.3638 64.4436 31.0219 64.1512 30.7706C63.8587 30.5193 63.4941 30.3937 63.0575 30.3937C62.6167 30.3937 62.246 30.5193 61.9453 30.7706C61.6487 31.0219 61.4242 31.3638 61.2718 31.7963C61.1235 32.2288 61.0493 32.7211 61.0493 33.2731C61.0493 33.8251 61.1235 34.3173 61.2718 34.7499C61.4242 35.1824 61.6487 35.5243 61.9453 35.7756C62.246 36.0227 62.6167 36.1463 63.0575 36.1463ZM69.428 38V28.5091H71.9367V30.1836H72.0479C72.2456 29.6275 72.5752 29.1888 73.0365 28.8675C73.4979 28.5462 74.0499 28.3855 74.6925 28.3855C75.3433 28.3855 75.8974 28.5482 76.3546 28.8737C76.8119 29.195 77.1167 29.6316 77.2691 30.1836H77.368C77.5616 29.6398 77.9117 29.2053 78.4184 28.8798C78.9292 28.5503 79.5327 28.3855 80.2289 28.3855C81.1145 28.3855 81.8333 28.6677 82.3853 29.232C82.9414 29.7923 83.2195 30.5873 83.2195 31.6171V38H80.5934V32.1362C80.5934 31.6089 80.4534 31.2134 80.1732 30.9498C79.8931 30.6862 79.543 30.5543 79.1228 30.5543C78.645 30.5543 78.2722 30.7067 78.0044 31.0116C77.7367 31.3123 77.6028 31.7098 77.6028 32.2041V38H75.0509V32.0805C75.0509 31.6151 74.917 31.2443 74.6492 30.9683C74.3856 30.6923 74.0375 30.5543 73.605 30.5543C73.3125 30.5543 73.0489 30.6285 72.8141 30.7768C72.5834 30.921 72.4001 31.1249 72.2642 31.3885C72.1282 31.648 72.0602 31.9528 72.0602 32.303V38H69.428ZM89.624 38.1854C88.6477 38.1854 87.8074 37.9876 87.103 37.5922C86.4027 37.1926 85.8631 36.6283 85.4841 35.8991C85.1051 35.1659 84.9156 34.2988 84.9156 33.2978C84.9156 32.3215 85.1051 31.4647 85.4841 30.7273C85.8631 29.99 86.3965 29.4153 87.0844 29.0034C87.7765 28.5915 88.588 28.3855 89.5189 28.3855C90.1451 28.3855 90.728 28.4864 91.2676 28.6883C91.8113 28.886 92.2851 29.1847 92.6888 29.5842C93.0966 29.9838 93.4138 30.4864 93.6403 31.0919C93.8669 31.6933 93.9802 32.3977 93.9802 33.2051V33.9281H85.966V32.2968H91.5024C91.5024 31.9178 91.42 31.5821 91.2552 31.2896C91.0905 30.9972 90.8618 30.7685 90.5694 30.6038C90.281 30.4349 89.9453 30.3504 89.5622 30.3504C89.1626 30.3504 88.8084 30.4431 88.4994 30.6285C88.1946 30.8097 87.9557 31.0548 87.7827 31.3638C87.6096 31.6686 87.5211 32.0085 87.517 32.3833V33.9342C87.517 34.4038 87.6035 34.8096 87.7765 35.1515C87.9536 35.4934 88.2028 35.757 88.5241 35.9424C88.8454 36.1278 89.2265 36.2205 89.6672 36.2205C89.9597 36.2205 90.2275 36.1793 90.4705 36.0969C90.7135 36.0145 90.9216 35.8909 91.0946 35.7261C91.2676 35.5614 91.3994 35.3595 91.49 35.1206L93.9246 35.2813C93.801 35.8662 93.5476 36.377 93.1645 36.8136C92.7856 37.2462 92.2954 37.5839 91.6939 37.827C91.0966 38.0659 90.4067 38.1854 89.624 38.1854ZM99.9861 38.1854C99.014 38.1854 98.1778 37.9794 97.4775 37.5675C96.7813 37.1514 96.2458 36.5747 95.8709 35.8374C95.5002 35.1 95.3148 34.2514 95.3148 33.2916C95.3148 32.3195 95.5023 31.4668 95.8771 30.7335C96.2561 29.9962 96.7937 29.4215 97.4898 29.0096C98.186 28.5935 99.014 28.3855 99.9738 28.3855C100.802 28.3855 101.527 28.5359 102.149 28.8366C102.771 29.1373 103.263 29.5595 103.626 30.1033C103.988 30.647 104.188 31.2855 104.225 32.0188H101.741C101.671 31.545 101.486 31.164 101.185 30.8756C100.888 30.5832 100.499 30.4369 100.017 30.4369C99.6092 30.4369 99.2529 30.5482 98.9481 30.7706C98.6474 30.9889 98.4126 31.3082 98.2437 31.7283C98.0748 32.1485 97.9903 32.6572 97.9903 33.2545C97.9903 33.8601 98.0727 34.375 98.2375 34.7993C98.4064 35.2236 98.6432 35.5469 98.9481 35.7694C99.2529 35.9918 99.6092 36.1031 100.017 36.1031C100.318 36.1031 100.588 36.0413 100.826 35.9177C101.07 35.7941 101.269 35.6149 101.426 35.3801C101.586 35.1412 101.692 34.8549 101.741 34.5212H104.225C104.184 35.2462 103.986 35.8847 103.632 36.4367C103.282 36.9846 102.798 37.413 102.18 37.7219C101.562 38.0309 100.831 38.1854 99.9861 38.1854ZM99.3682 37.9506H100.579L100.48 38.4881C100.905 38.554 101.251 38.7126 101.519 38.9639C101.79 39.2152 101.928 39.5571 101.933 39.9896C101.937 40.6034 101.652 41.0915 101.08 41.454C100.507 41.8207 99.704 42.004 98.67 42.004L98.6453 40.83C99.1643 40.83 99.5701 40.7661 99.8626 40.6384C100.159 40.5148 100.314 40.3212 100.326 40.0576C100.334 39.8063 100.237 39.6148 100.036 39.483C99.8337 39.3511 99.5186 39.2585 99.0902 39.2049L99.3682 37.9506ZM108.617 38.1792C108.011 38.1792 107.471 38.0741 106.998 37.8641C106.524 37.6499 106.149 37.3347 105.873 36.9187C105.601 36.4985 105.465 35.9754 105.465 35.3492C105.465 34.8219 105.562 34.3791 105.756 34.0207C105.949 33.6624 106.213 33.374 106.547 33.1557C106.88 32.9374 107.259 32.7726 107.684 32.6614C108.112 32.5501 108.561 32.4719 109.031 32.4266C109.583 32.3689 110.027 32.3153 110.365 32.2659C110.703 32.2124 110.948 32.1341 111.101 32.0311C111.253 31.9281 111.329 31.7757 111.329 31.5739V31.5368C111.329 31.1455 111.206 30.8427 110.958 30.6285C110.715 30.4143 110.369 30.3072 109.92 30.3072C109.447 30.3072 109.07 30.4122 108.79 30.6223C108.51 30.8283 108.324 31.0878 108.234 31.4009L105.799 31.2031C105.923 30.6264 106.166 30.128 106.528 29.7078C106.891 29.2835 107.358 28.9581 107.931 28.7315C108.507 28.5009 109.175 28.3855 109.933 28.3855C110.46 28.3855 110.965 28.4473 111.447 28.5709C111.933 28.6945 112.363 28.886 112.738 29.1455C113.117 29.405 113.416 29.7387 113.634 30.1465C113.852 30.5502 113.961 31.0342 113.961 31.5986V38H111.465V36.6839H111.391C111.239 36.9805 111.035 37.242 110.779 37.4686C110.524 37.6911 110.217 37.8661 109.859 37.9938C109.5 38.1174 109.086 38.1792 108.617 38.1792ZM109.37 36.3626C109.758 36.3626 110.1 36.2864 110.396 36.1339C110.693 35.9774 110.925 35.7673 111.094 35.5037C111.263 35.2401 111.348 34.9414 111.348 34.6077V33.6006C111.265 33.6541 111.152 33.7036 111.008 33.7489C110.868 33.7901 110.709 33.8292 110.532 33.8663C110.355 33.8992 110.178 33.9301 110.001 33.9589C109.824 33.9837 109.663 34.0063 109.519 34.0269C109.21 34.0722 108.94 34.1443 108.709 34.2432C108.479 34.342 108.299 34.4759 108.172 34.6448C108.044 34.8096 107.98 35.0156 107.98 35.2627C107.98 35.6211 108.11 35.895 108.369 36.0845C108.633 36.2699 108.967 36.3626 109.37 36.3626ZM116.004 38V28.5091H118.556V30.1651H118.654C118.827 29.576 119.118 29.1311 119.526 28.8304C119.933 28.5256 120.403 28.3732 120.934 28.3732C121.066 28.3732 121.208 28.3814 121.361 28.3979C121.513 28.4143 121.647 28.437 121.762 28.4658V30.8015C121.639 30.7644 121.468 30.7315 121.25 30.7026C121.031 30.6738 120.831 30.6594 120.65 30.6594C120.263 30.6594 119.917 30.7438 119.612 30.9127C119.311 31.0775 119.072 31.3082 118.895 31.6048C118.722 31.9013 118.636 32.2433 118.636 32.6305V38H116.004ZM129.381 38H126.514L130.883 25.3455H134.33L138.693 38H135.826L132.656 28.2372H132.557L129.381 38ZM129.202 33.0259H135.974V35.1144H129.202V33.0259ZM144.001 41.7568C143.148 41.7568 142.417 41.6394 141.807 41.4046C141.201 41.1739 140.719 40.8588 140.361 40.4592C140.003 40.0597 139.77 39.6107 139.663 39.1122L142.097 38.7847C142.172 38.9742 142.289 39.1513 142.45 39.3161C142.61 39.4809 142.822 39.6127 143.086 39.7116C143.354 39.8146 143.679 39.8661 144.062 39.8661C144.635 39.8661 145.107 39.726 145.477 39.4459C145.852 39.1699 146.04 38.7065 146.04 38.0556V36.3193H145.928C145.813 36.583 145.64 36.8322 145.409 37.067C145.179 37.3018 144.882 37.4933 144.52 37.6416C144.157 37.7899 143.725 37.8641 143.222 37.8641C142.509 37.8641 141.861 37.6993 141.276 37.3697C140.695 37.0361 140.231 36.5273 139.885 35.8435C139.543 35.1556 139.372 34.2864 139.372 33.236C139.372 32.1609 139.548 31.2629 139.898 30.542C140.248 29.8211 140.713 29.2815 141.294 28.9231C141.879 28.5647 142.52 28.3855 143.216 28.3855C143.747 28.3855 144.192 28.4761 144.55 28.6574C144.909 28.8345 145.197 29.057 145.416 29.3247C145.638 29.5884 145.809 29.8479 145.928 30.1033H146.027V28.5091H148.641V38.0927C148.641 38.9001 148.443 39.5756 148.048 40.1194C147.652 40.6631 147.104 41.071 146.404 41.3428C145.708 41.6188 144.907 41.7568 144.001 41.7568ZM144.056 35.8868C144.48 35.8868 144.839 35.7817 145.131 35.5717C145.428 35.3575 145.654 35.0526 145.811 34.6572C145.972 34.2576 146.052 33.7798 146.052 33.2237C146.052 32.6675 145.974 32.1856 145.817 31.7778C145.661 31.3658 145.434 31.0466 145.137 30.82C144.841 30.5935 144.48 30.4802 144.056 30.4802C143.624 30.4802 143.259 30.5976 142.962 30.8324C142.666 31.0631 142.441 31.3844 142.289 31.7963C142.137 32.2082 142.06 32.684 142.06 33.2237C142.06 33.7715 142.137 34.2452 142.289 34.6448C142.445 35.0403 142.67 35.3472 142.962 35.5655C143.259 35.7797 143.624 35.8868 144.056 35.8868ZM155.024 38.1854C154.064 38.1854 153.234 37.9815 152.534 37.5737C151.838 37.1617 151.3 36.5891 150.921 35.8559C150.542 35.1185 150.353 34.2638 150.353 33.2916C150.353 32.3112 150.542 31.4544 150.921 30.7212C151.3 29.9838 151.838 29.4112 152.534 29.0034C153.234 28.5915 154.064 28.3855 155.024 28.3855C155.984 28.3855 156.812 28.5915 157.508 29.0034C158.208 29.4112 158.748 29.9838 159.127 30.7212C159.506 31.4544 159.695 32.3112 159.695 33.2916C159.695 34.2638 159.506 35.1185 159.127 35.8559C158.748 36.5891 158.208 37.1617 157.508 37.5737C156.812 37.9815 155.984 38.1854 155.024 38.1854ZM155.036 36.1463C155.473 36.1463 155.837 36.0227 156.13 35.7756C156.422 35.5243 156.643 35.1824 156.791 34.7499C156.943 34.3173 157.02 33.8251 157.02 33.2731C157.02 32.7211 156.943 32.2288 156.791 31.7963C156.643 31.3638 156.422 31.0219 156.13 30.7706C155.837 30.5193 155.473 30.3937 155.036 30.3937C154.595 30.3937 154.225 30.5193 153.924 30.7706C153.627 31.0219 153.403 31.3638 153.25 31.7963C153.102 32.2288 153.028 32.7211 153.028 33.2731C153.028 33.8251 153.102 34.3173 153.25 34.7499C153.403 35.1824 153.627 35.5243 153.924 35.7756C154.225 36.0227 154.595 36.1463 155.036 36.1463ZM161.407 38V28.5091H163.959V30.1651H164.057C164.231 29.576 164.521 29.1311 164.929 28.8304C165.337 28.5256 165.806 28.3732 166.338 28.3732C166.469 28.3732 166.611 28.3814 166.764 28.3979C166.916 28.4143 167.05 28.437 167.166 28.4658V30.8015C167.042 30.7644 166.871 30.7315 166.653 30.7026C166.434 30.6738 166.235 30.6594 166.053 30.6594C165.666 30.6594 165.32 30.7438 165.015 30.9127C164.715 31.0775 164.476 31.3082 164.298 31.6048C164.125 31.9013 164.039 32.2433 164.039 32.6305V38H161.407ZM170.961 38.1792C170.355 38.1792 169.816 38.0741 169.342 37.8641C168.868 37.6499 168.493 37.3347 168.217 36.9187C167.946 36.4985 167.81 35.9754 167.81 35.3492C167.81 34.8219 167.906 34.3791 168.1 34.0207C168.294 33.6624 168.557 33.374 168.891 33.1557C169.225 32.9374 169.604 32.7726 170.028 32.6614C170.456 32.5501 170.905 32.4719 171.375 32.4266C171.927 32.3689 172.372 32.3153 172.71 32.2659C173.047 32.2124 173.292 32.1341 173.445 32.0311C173.597 31.9281 173.674 31.7757 173.674 31.5739V31.5368C173.674 31.1455 173.55 30.8427 173.303 30.6285C173.06 30.4143 172.714 30.3072 172.265 30.3072C171.791 30.3072 171.414 30.4122 171.134 30.6223C170.854 30.8283 170.668 31.0878 170.578 31.4009L168.143 31.2031C168.267 30.6264 168.51 30.128 168.872 29.7078C169.235 29.2835 169.703 28.9581 170.275 28.7315C170.852 28.5009 171.519 28.3855 172.277 28.3855C172.804 28.3855 173.309 28.4473 173.791 28.5709C174.277 28.6945 174.707 28.886 175.082 29.1455C175.461 29.405 175.76 29.7387 175.978 30.1465C176.197 30.5502 176.306 31.0342 176.306 31.5986V38H173.809V36.6839H173.735C173.583 36.9805 173.379 37.242 173.124 37.4686C172.868 37.6911 172.561 37.8661 172.203 37.9938C171.845 38.1174 171.431 38.1792 170.961 38.1792ZM171.715 36.3626C172.102 36.3626 172.444 36.2864 172.741 36.1339C173.037 35.9774 173.27 35.7673 173.439 35.5037C173.608 35.2401 173.692 34.9414 173.692 34.6077V33.6006C173.61 33.6541 173.496 33.7036 173.352 33.7489C173.212 33.7901 173.054 33.8292 172.876 33.8663C172.699 33.8992 172.522 33.9301 172.345 33.9589C172.168 33.9837 172.007 34.0063 171.863 34.0269C171.554 34.0722 171.284 34.1443 171.054 34.2432C170.823 34.342 170.644 34.4759 170.516 34.6448C170.388 34.8096 170.325 35.0156 170.325 35.2627C170.325 35.6211 170.454 35.895 170.714 36.0845C170.977 36.2699 171.311 36.3626 171.715 36.3626Z" fill="#212529"/>
<defs>
<filter id="filter0_dd_567_298" x="0" y="0" width="221.72" height="84" filterUnits="userSpaceOnUse" color-interpolation-filters="sRGB">
<feFlood flood-opacity="0" result="BackgroundImageFix"/>
<feColorMatrix in="SourceAlpha" type="matrix" values="0 0 0 0 0 0 0 0 0 0 0 0 0 0 0 0 0 0 127 0" result="hardAlpha"/>
<feMorphology radius="4" operator="erode" in="SourceAlpha" result="effect1_dropShadow_567_298"/>
<feOffset dy="4"/>
<feGaussianBlur stdDeviation="3"/>
<feComposite in2="hardAlpha" operator="out"/>
<feColorMatrix type="matrix" values="0 0 0 0 0 0 0 0 0 0 0 0 0 0 0 0 0 0 0.1 0"/>
<feBlend mode="normal" in2="BackgroundImageFix" result="effect1_dropShadow_567_298"/>
<feColorMatrix in="SourceAlpha" type="matrix" values="0 0 0 0 0 0 0 0 0 0 0 0 0 0 0 0 0 0 127 0" result="hardAlpha"/>
<feMorphology radius="3" operator="erode" in="SourceAlpha" result="effect2_dropShadow_567_298"/>
<feOffset dy="10"/>
<feGaussianBlur stdDeviation="7.5"/>
<feComposite in2="hardAlpha" operator="out"/>
<feColorMatrix type="matrix" values="0 0 0 0 0 0 0 0 0 0 0 0 0 0 0 0 0 0 0.1 0"/>
<feBlend mode="normal" in2="effect1_dropShadow_567_298" result="effect2_dropShadow_567_298"/>
<feBlend mode="normal" in="SourceGraphic" in2="effect2_dropShadow_567_298" result="shape"/>
</filter>
</defs>
</svg>
