<svg width="40" height="40" viewBox="0 0 40 40" fill="none" xmlns="http://www.w3.org/2000/svg">
<rect width="40" height="40" rx="12" fill="white"/>
<path d="M20 15.8333V27.4999" stroke="#57B79C" stroke-width="1.66667" stroke-linecap="round" stroke-linejoin="round"/>
<path d="M12.5003 25C12.2793 25 12.0674 24.9122 11.9111 24.7559C11.7548 24.5996 11.667 24.3877 11.667 24.1667V13.3333C11.667 13.1123 11.7548 12.9004 11.9111 12.7441C12.0674 12.5878 12.2793 12.5 12.5003 12.5H16.667C17.551 12.5 18.3989 12.8512 19.024 13.4763C19.6491 14.1014 20.0003 14.9493 20.0003 15.8333C20.0003 14.9493 20.3515 14.1014 20.9766 13.4763C21.6018 12.8512 22.4496 12.5 23.3337 12.5H27.5003C27.7213 12.5 27.9333 12.5878 28.0896 12.7441C28.2459 12.9004 28.3337 13.1123 28.3337 13.3333V24.1667C28.3337 24.3877 28.2459 24.5996 28.0896 24.7559C27.9333 24.9122 27.7213 25 27.5003 25H22.5003C21.8373 25 21.2014 25.2634 20.7326 25.7322C20.2637 26.2011 20.0003 26.837 20.0003 27.5C20.0003 26.837 19.7369 26.2011 19.2681 25.7322C18.7993 25.2634 18.1634 25 17.5003 25H12.5003Z" stroke="#57B79C" stroke-width="1.66667" stroke-linecap="round" stroke-linejoin="round"/>
</svg>
