<svg width="49" height="40" viewBox="0 0 49 40" fill="none" xmlns="http://www.w3.org/2000/svg">
<rect width="49" height="40" rx="12" fill="white"/>
<path d="M18.3332 21.6667C18.1755 21.6673 18.0209 21.623 17.8874 21.5392C17.7538 21.4554 17.6468 21.3354 17.5787 21.1931C17.5106 21.0509 17.4843 20.8922 17.5028 20.7356C17.5213 20.579 17.5839 20.4309 17.6832 20.3084L25.9332 11.8084C25.9951 11.737 26.0795 11.6887 26.1724 11.6715C26.2653 11.6543 26.3613 11.6692 26.4447 11.7138C26.528 11.7584 26.5937 11.83 26.631 11.9168C26.6683 12.0037 26.675 12.1006 26.6499 12.1917L25.0499 17.2084C25.0027 17.3347 24.9869 17.4705 25.0037 17.6042C25.0206 17.738 25.0696 17.8656 25.1467 17.9762C25.2237 18.0869 25.3264 18.1771 25.446 18.2394C25.5656 18.3016 25.6984 18.3338 25.8332 18.3334H31.6666C31.8243 18.3329 31.9789 18.3771 32.1124 18.4609C32.246 18.5447 32.3531 18.6648 32.4211 18.807C32.4892 18.9493 32.5155 19.1079 32.497 19.2645C32.4785 19.4211 32.4159 19.5693 32.3166 19.6917L24.0666 28.1917C24.0047 28.2632 23.9204 28.3114 23.8274 28.3286C23.7345 28.3458 23.6385 28.3309 23.5551 28.2863C23.4718 28.2417 23.4061 28.1701 23.3688 28.0833C23.3315 27.9965 23.3248 27.8995 23.3499 27.8084L24.9499 22.7917C24.9971 22.6655 25.0129 22.5296 24.9961 22.3959C24.9792 22.2621 24.9302 22.1345 24.8532 22.0239C24.7761 21.9132 24.6734 21.823 24.5538 21.7608C24.4343 21.6985 24.3014 21.6663 24.1666 21.6667H18.3332Z" stroke="#FAD905" stroke-width="1.66667" stroke-linecap="round" stroke-linejoin="round"/>
</svg>
