<svg width="458" height="44" viewBox="0 0 458 44" fill="none" xmlns="http://www.w3.org/2000/svg">
<rect width="458" height="44" rx="10" fill="#59BDA3"/>
<path d="M195 13H199C199.53 13 200.039 13.2107 200.414 13.5858C200.789 13.9609 201 14.4696 201 15V29C201 29.5304 200.789 30.0391 200.414 30.4142C200.039 30.7893 199.53 31 199 31H195" stroke="white" stroke-width="1.33333" stroke-linecap="round" stroke-linejoin="round"/>
<path d="M190 27L195 22L190 17" stroke="white" stroke-width="1.33333" stroke-linecap="round" stroke-linejoin="round"/>
<path d="M195 22H183" stroke="white" stroke-width="1.33333" stroke-linecap="round" stroke-linejoin="round"/>
<path d="M210.653 30V15.1H220.553V17.5H213.373V21.32H220.153V23.72H213.373V27.6H220.553V30H210.653ZM222.327 30V19.12H224.787V21.26L224.587 20.88C224.841 20.2267 225.254 19.7333 225.827 19.4C226.414 19.0533 227.094 18.88 227.867 18.88C228.667 18.88 229.374 19.0533 229.987 19.4C230.614 19.7467 231.101 20.2333 231.447 20.86C231.794 21.4733 231.967 22.1867 231.967 23V30H229.347V23.62C229.347 23.14 229.254 22.7267 229.067 22.38C228.881 22.0333 228.621 21.7667 228.287 21.58C227.967 21.38 227.587 21.28 227.147 21.28C226.721 21.28 226.341 21.38 226.007 21.58C225.674 21.7667 225.414 22.0333 225.227 22.38C225.041 22.7267 224.947 23.14 224.947 23.62V30H222.327ZM239.143 30.12C237.916 30.12 236.963 29.7867 236.283 29.12C235.616 28.44 235.283 27.4867 235.283 26.26V21.46H233.403V19.12H233.603C234.136 19.12 234.55 18.98 234.843 18.7C235.136 18.42 235.283 18.0133 235.283 17.48V16.64H237.903V19.12H240.403V21.46H237.903V26.12C237.903 26.48 237.963 26.7867 238.083 27.04C238.216 27.2933 238.416 27.4867 238.683 27.62C238.963 27.7533 239.316 27.82 239.743 27.82C239.836 27.82 239.943 27.8133 240.063 27.8C240.196 27.7867 240.323 27.7733 240.443 27.76V30C240.256 30.0267 240.043 30.0533 239.803 30.08C239.563 30.1067 239.343 30.12 239.143 30.12ZM242.445 30V19.12H244.905V21.54L244.705 21.18C244.958 20.3667 245.351 19.8 245.885 19.48C246.431 19.16 247.085 19 247.845 19H248.485V21.32H247.545C246.798 21.32 246.198 21.5533 245.745 22.02C245.291 22.4733 245.065 23.1133 245.065 23.94V30H242.445ZM253.225 30.24C252.465 30.24 251.805 30.1133 251.245 29.86C250.685 29.6067 250.252 29.2467 249.945 28.78C249.638 28.3 249.485 27.7467 249.485 27.12C249.485 26.52 249.618 25.9867 249.885 25.52C250.152 25.04 250.565 24.64 251.125 24.32C251.685 24 252.392 23.7733 253.245 23.64L256.805 23.06V25.06L253.745 25.58C253.225 25.6733 252.838 25.84 252.585 26.08C252.332 26.32 252.205 26.6333 252.205 27.02C252.205 27.3933 252.345 27.6933 252.625 27.92C252.918 28.1333 253.278 28.24 253.705 28.24C254.252 28.24 254.732 28.1267 255.145 27.9C255.572 27.66 255.898 27.3333 256.125 26.92C256.365 26.5067 256.485 26.0533 256.485 25.56V22.76C256.485 22.2933 256.298 21.9067 255.925 21.6C255.565 21.28 255.085 21.12 254.485 21.12C253.925 21.12 253.425 21.2733 252.985 21.58C252.558 21.8733 252.245 22.2667 252.045 22.76L249.905 21.72C250.118 21.1467 250.452 20.6533 250.905 20.24C251.372 19.8133 251.918 19.48 252.545 19.24C253.172 19 253.852 18.88 254.585 18.88C255.478 18.88 256.265 19.0467 256.945 19.38C257.625 19.7 258.152 20.1533 258.525 20.74C258.912 21.3133 259.105 21.9867 259.105 22.76V30H256.625V28.14L257.185 28.1C256.905 28.5667 256.572 28.96 256.185 29.28C255.798 29.5867 255.358 29.8267 254.865 30C254.372 30.16 253.825 30.24 253.225 30.24ZM261.527 30V19.12H263.987V21.54L263.787 21.18C264.04 20.3667 264.433 19.8 264.967 19.48C265.513 19.16 266.167 19 266.927 19H267.567V21.32H266.627C265.88 21.32 265.28 21.5533 264.827 22.02C264.373 22.4733 264.147 23.1133 264.147 23.94V30H261.527Z" fill="white"/>
</svg>
