<svg width="222" height="84" viewBox="0 0 222 84" fill="none" xmlns="http://www.w3.org/2000/svg">
<g filter="url(#filter0_d_639_112)">
<rect x="12" y="2" width="197.72" height="60" rx="8" fill="#FAE007" shape-rendering="crispEdges"/>
<g filter="url(#filter1_dd_639_112)">
<rect x="12" y="2" width="197.72" height="60" rx="8" fill="white" fill-opacity="0.01" shape-rendering="crispEdges"/>
</g>
<path d="M62.8165 38V25.3455H71.1952V27.5513H65.492V30.5667H70.6391V32.7726H65.492V38H62.8165ZM75.5328 38.1792C74.9273 38.1792 74.3877 38.0741 73.9139 37.8641C73.4402 37.6499 73.0654 37.3347 72.7894 36.9187C72.5175 36.4985 72.3816 35.9754 72.3816 35.3492C72.3816 34.8219 72.4784 34.3791 72.672 34.0207C72.8656 33.6624 73.1292 33.374 73.4629 33.1557C73.7965 32.9374 74.1755 32.7726 74.5998 32.6614C75.0282 32.5501 75.4772 32.4719 75.9468 32.4266C76.4988 32.3689 76.9437 32.3153 77.2815 32.2659C77.6193 32.2124 77.8644 32.1341 78.0168 32.0311C78.1692 31.9281 78.2454 31.7757 78.2454 31.5739V31.5368C78.2454 31.1455 78.1218 30.8427 77.8747 30.6285C77.6316 30.4143 77.2856 30.3072 76.8366 30.3072C76.3629 30.3072 75.986 30.4122 75.7058 30.6223C75.4257 30.8283 75.2404 31.0878 75.1497 31.4009L72.7152 31.2031C72.8388 30.6264 73.0818 30.128 73.4443 29.7078C73.8068 29.2835 74.2744 28.9581 74.847 28.7315C75.4237 28.5009 76.091 28.3855 76.849 28.3855C77.3762 28.3855 77.8808 28.4473 78.3628 28.5709C78.8489 28.6945 79.2794 28.886 79.6542 29.1455C80.0332 29.405 80.3318 29.7387 80.5502 30.1465C80.7685 30.5502 80.8776 31.0342 80.8776 31.5986V38H78.3813V36.6839H78.3072C78.1548 36.9805 77.9509 37.242 77.6955 37.4686C77.4401 37.6911 77.1332 37.8661 76.7748 37.9938C76.4164 38.1174 76.0024 38.1792 75.5328 38.1792ZM76.2867 36.3626C76.6739 36.3626 77.0158 36.2864 77.3124 36.1339C77.609 35.9774 77.8417 35.7673 78.0106 35.5037C78.1795 35.2401 78.2639 34.9414 78.2639 34.6077V33.6006C78.1816 33.6541 78.0683 33.7036 77.9241 33.7489C77.784 33.7901 77.6254 33.8292 77.4483 33.8663C77.2712 33.8992 77.0941 33.9301 76.9169 33.9589C76.7398 33.9837 76.5791 34.0063 76.435 34.0269C76.126 34.0722 75.8562 34.1443 75.6255 34.2432C75.3948 34.342 75.2156 34.4759 75.0879 34.6448C74.9602 34.8096 74.8964 35.0156 74.8964 35.2627C74.8964 35.6211 75.0262 35.895 75.2857 36.0845C75.5493 36.2699 75.883 36.3626 76.2867 36.3626ZM82.8704 38V36.4305L87.517 30.6779V30.6099H83.031V28.5091H90.6868V30.2207L86.3244 35.8312V35.8991H90.8474V38H82.8704ZM96.9136 38.1854C95.9374 38.1854 95.097 37.9876 94.3926 37.5922C93.6923 37.1926 93.1527 36.6283 92.7737 35.8991C92.3947 35.1659 92.2053 34.2988 92.2053 33.2978C92.2053 32.3215 92.3947 31.4647 92.7737 30.7273C93.1527 29.99 93.6862 29.4153 94.3741 29.0034C95.0661 28.5915 95.8776 28.3855 96.8086 28.3855C97.4347 28.3855 98.0176 28.4864 98.5572 28.6883C99.101 28.886 99.5747 29.1847 99.9784 29.5842C100.386 29.9838 100.703 30.4864 100.93 31.0919C101.157 31.6933 101.27 32.3977 101.27 33.2051V33.9281H93.2557V32.2968H98.792C98.792 31.9178 98.7097 31.5821 98.5449 31.2896C98.3801 30.9972 98.1515 30.7685 97.859 30.6038C97.5707 30.4349 97.2349 30.3504 96.8519 30.3504C96.4523 30.3504 96.098 30.4431 95.7891 30.6285C95.4842 30.8097 95.2453 31.0548 95.0723 31.3638C94.8993 31.6686 94.8107 32.0085 94.8066 32.3833V33.9342C94.8066 34.4038 94.8931 34.8096 95.0661 35.1515C95.2433 35.4934 95.4925 35.757 95.8138 35.9424C96.1351 36.1278 96.5161 36.2205 96.9569 36.2205C97.2494 36.2205 97.5171 36.1793 97.7602 36.0969C98.0032 36.0145 98.2112 35.8909 98.3842 35.7261C98.5572 35.5614 98.6891 35.3595 98.7797 35.1206L101.214 35.2813C101.091 35.8662 100.837 36.377 100.454 36.8136C100.075 37.2462 99.585 37.5839 98.9836 37.827C98.3863 38.0659 97.6963 38.1854 96.9136 38.1854ZM102.988 38V28.5091H105.539V30.1651H105.638C105.811 29.576 106.102 29.1311 106.51 28.8304C106.917 28.5256 107.387 28.3732 107.918 28.3732C108.05 28.3732 108.192 28.3814 108.345 28.3979C108.497 28.4143 108.631 28.437 108.746 28.4658V30.8015C108.623 30.7644 108.452 30.7315 108.234 30.7026C108.015 30.6738 107.815 30.6594 107.634 30.6594C107.247 30.6594 106.901 30.7438 106.596 30.9127C106.295 31.0775 106.056 31.3082 105.879 31.6048C105.706 31.9013 105.62 32.2433 105.62 32.6305V38H102.988ZM114.184 38V25.3455H116.859V35.7941H122.285V38H114.184ZM128.295 38.1854C127.335 38.1854 126.505 37.9815 125.805 37.5737C125.109 37.1617 124.571 36.5891 124.192 35.8559C123.813 35.1185 123.624 34.2638 123.624 33.2916C123.624 32.3112 123.813 31.4544 124.192 30.7212C124.571 29.9838 125.109 29.4112 125.805 29.0034C126.505 28.5915 127.335 28.3855 128.295 28.3855C129.255 28.3855 130.083 28.5915 130.779 29.0034C131.479 29.4112 132.019 29.9838 132.398 30.7212C132.777 31.4544 132.966 32.3112 132.966 33.2916C132.966 34.2638 132.777 35.1185 132.398 35.8559C132.019 36.5891 131.479 37.1617 130.779 37.5737C130.083 37.9815 129.255 38.1854 128.295 38.1854ZM128.307 36.1463C128.744 36.1463 129.109 36.0227 129.401 35.7756C129.694 35.5243 129.914 35.1824 130.062 34.7499C130.215 34.3173 130.291 33.8251 130.291 33.2731C130.291 32.7211 130.215 32.2288 130.062 31.7963C129.914 31.3638 129.694 31.0219 129.401 30.7706C129.109 30.5193 128.744 30.3937 128.307 30.3937C127.867 30.3937 127.496 30.5193 127.195 30.7706C126.899 31.0219 126.674 31.3638 126.522 31.7963C126.373 32.2288 126.299 32.7211 126.299 33.2731C126.299 33.8251 126.373 34.3173 126.522 34.7499C126.674 35.1824 126.899 35.5243 127.195 35.7756C127.496 36.0227 127.867 36.1463 128.307 36.1463ZM138.954 41.7568C138.101 41.7568 137.37 41.6394 136.76 41.4046C136.155 41.1739 135.673 40.8588 135.314 40.4592C134.956 40.0597 134.723 39.6107 134.616 39.1122L137.051 38.7847C137.125 38.9742 137.242 39.1513 137.403 39.3161C137.564 39.4809 137.776 39.6127 138.039 39.7116C138.307 39.8146 138.633 39.8661 139.016 39.8661C139.588 39.8661 140.06 39.726 140.431 39.4459C140.805 39.1699 140.993 38.7065 140.993 38.0556V36.3193H140.882C140.766 36.583 140.593 36.8322 140.363 37.067C140.132 37.3018 139.835 37.4933 139.473 37.6416C139.11 37.7899 138.678 37.8641 138.175 37.8641C137.463 37.8641 136.814 37.6993 136.229 37.3697C135.648 37.0361 135.185 36.5273 134.839 35.8435C134.497 35.1556 134.326 34.2864 134.326 33.236C134.326 32.1609 134.501 31.2629 134.851 30.542C135.201 29.8211 135.667 29.2815 136.247 28.9231C136.832 28.5647 137.473 28.3855 138.169 28.3855C138.701 28.3855 139.145 28.4761 139.504 28.6574C139.862 28.8345 140.151 29.057 140.369 29.3247C140.591 29.5884 140.762 29.8479 140.882 30.1033H140.981V28.5091H143.594V38.0927C143.594 38.9001 143.397 39.5756 143.001 40.1194C142.606 40.6631 142.058 41.071 141.357 41.3428C140.661 41.6188 139.86 41.7568 138.954 41.7568ZM139.009 35.8868C139.434 35.8868 139.792 35.7817 140.085 35.5717C140.381 35.3575 140.608 35.0526 140.764 34.6572C140.925 34.2576 141.005 33.7798 141.005 33.2237C141.005 32.6675 140.927 32.1856 140.77 31.7778C140.614 31.3658 140.387 31.0466 140.091 30.82C139.794 30.5935 139.434 30.4802 139.009 30.4802C138.577 30.4802 138.212 30.5976 137.916 30.8324C137.619 31.0631 137.395 31.3844 137.242 31.7963C137.09 32.2082 137.014 32.684 137.014 33.2237C137.014 33.7715 137.09 34.2452 137.242 34.6448C137.399 35.0403 137.623 35.3472 137.916 35.5655C138.212 35.7797 138.577 35.8868 139.009 35.8868ZM145.689 38V28.5091H148.321V38H145.689ZM147.011 27.2857C146.62 27.2857 146.284 27.1559 146.004 26.8964C145.728 26.6327 145.59 26.3176 145.59 25.951C145.59 25.5885 145.728 25.2775 146.004 25.018C146.284 24.7543 146.62 24.6225 147.011 24.6225C147.403 24.6225 147.736 24.7543 148.012 25.018C148.292 25.2775 148.432 25.5885 148.432 25.951C148.432 26.3176 148.292 26.6327 148.012 26.8964C147.736 27.1559 147.403 27.2857 147.011 27.2857ZM153.062 32.5131V38H150.43V28.5091H152.938V30.1836H153.05C153.26 29.6316 153.612 29.195 154.106 28.8737C154.601 28.5482 155.2 28.3855 155.904 28.3855C156.563 28.3855 157.138 28.5297 157.628 28.818C158.118 29.1064 158.5 29.5183 158.771 30.0538C159.043 30.5852 159.179 31.2196 159.179 31.957V38H156.547V32.4266C156.551 31.8457 156.403 31.3926 156.102 31.0672C155.801 30.7376 155.387 30.5729 154.86 30.5729C154.506 30.5729 154.193 30.6491 153.921 30.8015C153.653 30.9539 153.443 31.1763 153.291 31.4688C153.142 31.7572 153.066 32.1053 153.062 32.5131Z" fill="#212529"/>
</g>
<defs>
<filter id="filter0_d_639_112" x="8" y="2" width="205.72" height="68" filterUnits="userSpaceOnUse" color-interpolation-filters="sRGB">
<feFlood flood-opacity="0" result="BackgroundImageFix"/>
<feColorMatrix in="SourceAlpha" type="matrix" values="0 0 0 0 0 0 0 0 0 0 0 0 0 0 0 0 0 0 127 0" result="hardAlpha"/>
<feOffset dy="4"/>
<feGaussianBlur stdDeviation="2"/>
<feComposite in2="hardAlpha" operator="out"/>
<feColorMatrix type="matrix" values="0 0 0 0 0 0 0 0 0 0 0 0 0 0 0 0 0 0 0.25 0"/>
<feBlend mode="normal" in2="BackgroundImageFix" result="effect1_dropShadow_639_112"/>
<feBlend mode="normal" in="SourceGraphic" in2="effect1_dropShadow_639_112" result="shape"/>
</filter>
<filter id="filter1_dd_639_112" x="0" y="0" width="221.72" height="84" filterUnits="userSpaceOnUse" color-interpolation-filters="sRGB">
<feFlood flood-opacity="0" result="BackgroundImageFix"/>
<feColorMatrix in="SourceAlpha" type="matrix" values="0 0 0 0 0 0 0 0 0 0 0 0 0 0 0 0 0 0 127 0" result="hardAlpha"/>
<feMorphology radius="4" operator="erode" in="SourceAlpha" result="effect1_dropShadow_639_112"/>
<feOffset dy="4"/>
<feGaussianBlur stdDeviation="3"/>
<feComposite in2="hardAlpha" operator="out"/>
<feColorMatrix type="matrix" values="0 0 0 0 0 0 0 0 0 0 0 0 0 0 0 0 0 0 0.1 0"/>
<feBlend mode="normal" in2="BackgroundImageFix" result="effect1_dropShadow_639_112"/>
<feColorMatrix in="SourceAlpha" type="matrix" values="0 0 0 0 0 0 0 0 0 0 0 0 0 0 0 0 0 0 127 0" result="hardAlpha"/>
<feMorphology radius="3" operator="erode" in="SourceAlpha" result="effect2_dropShadow_639_112"/>
<feOffset dy="10"/>
<feGaussianBlur stdDeviation="7.5"/>
<feComposite in2="hardAlpha" operator="out"/>
<feColorMatrix type="matrix" values="0 0 0 0 0 0 0 0 0 0 0 0 0 0 0 0 0 0 0.1 0"/>
<feBlend mode="normal" in2="effect1_dropShadow_639_112" result="effect2_dropShadow_639_112"/>
<feBlend mode="normal" in="SourceGraphic" in2="effect2_dropShadow_639_112" result="shape"/>
</filter>
</defs>
</svg>
