<svg width="186" height="71" viewBox="0 0 186 71" fill="none" xmlns="http://www.w3.org/2000/svg">
<rect x="1" y="1" width="184" height="69" rx="11" fill="#142952" fill-opacity="0.05"/>
<rect x="1" y="1" width="184" height="69" rx="11" stroke="#142952" stroke-width="2"/>
<path d="M99.667 18.1667H86.3337C85.4132 18.1667 84.667 18.9129 84.667 19.8334V28.1667C84.667 29.0872 85.4132 29.8334 86.3337 29.8334H99.667C100.587 29.8334 101.334 29.0872 101.334 28.1667V19.8334C101.334 18.9129 100.587 18.1667 99.667 18.1667Z" stroke="#142952" stroke-width="1.66667" stroke-linecap="round" stroke-linejoin="round"/>
<path d="M84.667 22.3333H101.334" stroke="#142952" stroke-width="1.66667" stroke-linecap="round" stroke-linejoin="round"/>
<path d="M50.5501 48.1108H49.2206C49.1694 47.8267 49.0743 47.5767 48.9351 47.3608C48.7959 47.1449 48.6254 46.9616 48.4237 46.8111C48.222 46.6605 47.9961 46.5469 47.7461 46.4702C47.499 46.3935 47.2362 46.3551 46.9578 46.3551C46.455 46.3551 46.0047 46.4815 45.6069 46.7344C45.2121 46.9872 44.8996 47.358 44.6694 47.8466C44.4422 48.3352 44.3285 48.9318 44.3285 49.6364C44.3285 50.3466 44.4422 50.946 44.6694 51.4347C44.8996 51.9233 45.2135 52.2926 45.6112 52.5426C46.0089 52.7926 46.4564 52.9176 46.9535 52.9176C47.2291 52.9176 47.4905 52.8807 47.7376 52.8068C47.9876 52.7301 48.2135 52.6179 48.4152 52.4702C48.6169 52.3224 48.7873 52.142 48.9265 51.929C49.0686 51.7131 49.1666 51.4659 49.2206 51.1875L50.5501 51.1918C50.4791 51.6207 50.3413 52.0156 50.1368 52.3764C49.9351 52.7344 49.6751 53.044 49.3569 53.3054C49.0416 53.5639 48.6808 53.7642 48.2746 53.9062C47.8683 54.0483 47.4251 54.1193 46.945 54.1193C46.1893 54.1193 45.516 53.9403 44.9251 53.5824C44.3342 53.2216 43.8683 52.706 43.5274 52.0355C43.1893 51.3651 43.0203 50.5653 43.0203 49.6364C43.0203 48.7045 43.1907 47.9048 43.5317 47.2372C43.8726 46.5668 44.3385 46.0526 44.9294 45.6946C45.5203 45.3338 46.1922 45.1534 46.945 45.1534C47.4081 45.1534 47.8399 45.2202 48.2405 45.3537C48.6439 45.4844 49.0061 45.6776 49.3271 45.9332C49.6481 46.1861 49.9138 46.4957 50.124 46.8622C50.3342 47.2259 50.4763 47.642 50.5501 48.1108ZM53.9283 54.1449C53.5135 54.1449 53.1385 54.0682 52.8033 53.9148C52.4681 53.7585 52.2025 53.5327 52.0064 53.2372C51.8133 52.9418 51.7167 52.5795 51.7167 52.1506C51.7167 51.7812 51.7877 51.4773 51.9297 51.2386C52.0718 51 52.2635 50.8111 52.505 50.6719C52.7465 50.5327 53.0164 50.4276 53.3147 50.3565C53.613 50.2855 53.917 50.2315 54.2266 50.1946C54.6187 50.1491 54.9368 50.1122 55.1812 50.0838C55.4255 50.0526 55.603 50.0028 55.7138 49.9347C55.8246 49.8665 55.88 49.7557 55.88 49.6023V49.5724C55.88 49.2003 55.7749 48.9119 55.5647 48.7074C55.3573 48.5028 55.0476 48.4006 54.6357 48.4006C54.2067 48.4006 53.8687 48.4957 53.6215 48.6861C53.3772 48.8736 53.2081 49.0824 53.1144 49.3125L51.917 49.0398C52.059 48.642 52.2664 48.321 52.5391 48.0767C52.8147 47.8295 53.1314 47.6506 53.4894 47.5398C53.8474 47.4261 54.2238 47.3693 54.6187 47.3693C54.88 47.3693 55.157 47.4006 55.4496 47.4631C55.7451 47.5227 56.0206 47.6335 56.2763 47.7955C56.5349 47.9574 56.7465 48.1889 56.9113 48.4901C57.076 48.7884 57.1584 49.1761 57.1584 49.6534V54H55.9141V53.1051H55.863C55.7806 53.2699 55.657 53.4318 55.4922 53.5909C55.3275 53.75 55.1158 53.8821 54.8573 53.9872C54.5988 54.0923 54.2891 54.1449 53.9283 54.1449ZM54.2053 53.1222C54.5576 53.1222 54.8587 53.0526 55.1087 52.9134C55.3616 52.7741 55.5533 52.5923 55.684 52.3679C55.8175 52.1406 55.8843 51.8977 55.8843 51.6392V50.7955C55.8388 50.8409 55.7508 50.8835 55.6201 50.9233C55.4922 50.9602 55.3459 50.9929 55.1812 51.0213C55.0164 51.0469 54.8559 51.071 54.6996 51.0938C54.5434 51.1136 54.4127 51.1307 54.3076 51.1449C54.0604 51.1761 53.8346 51.2287 53.63 51.3026C53.4283 51.3764 53.2664 51.483 53.1442 51.6222C53.0249 51.7585 52.9652 51.9403 52.9652 52.1676C52.9652 52.483 53.0817 52.7216 53.3147 52.8835C53.5476 53.0426 53.8445 53.1222 54.2053 53.1222ZM58.8555 54V47.4545H60.0871V48.4943H60.1552C60.2746 48.142 60.4848 47.8651 60.7859 47.6634C61.0899 47.4588 61.4336 47.3565 61.8172 47.3565C61.8967 47.3565 61.9905 47.3594 62.0984 47.3651C62.2092 47.3707 62.2959 47.3778 62.3584 47.3864V48.6051C62.3072 48.5909 62.2163 48.5753 62.0856 48.5582C61.955 48.5384 61.8243 48.5284 61.6936 48.5284C61.3925 48.5284 61.124 48.5923 60.8882 48.7202C60.6552 48.8452 60.4706 49.0199 60.3342 49.2443C60.1978 49.4659 60.1297 49.7187 60.1297 50.0028V54H58.8555ZM66.9031 47.4545V48.4773H63.3278V47.4545H66.9031ZM64.2866 45.8864H65.5608V52.0781C65.5608 52.3253 65.5977 52.5114 65.6716 52.6364C65.7454 52.7585 65.8406 52.8423 65.9571 52.8878C66.0764 52.9304 66.2057 52.9517 66.3449 52.9517C66.4471 52.9517 66.5366 52.9446 66.6133 52.9304C66.69 52.9162 66.7497 52.9048 66.7923 52.8963L67.0224 53.9489C66.9486 53.9773 66.8434 54.0057 66.7071 54.0341C66.5707 54.0653 66.4003 54.0824 66.1957 54.0852C65.8605 54.0909 65.548 54.0312 65.2582 53.9062C64.9684 53.7812 64.7341 53.5881 64.5551 53.3267C64.3761 53.0653 64.2866 52.7372 64.2866 52.3423V45.8864ZM70.2174 54.1449C69.8026 54.1449 69.4276 54.0682 69.0924 53.9148C68.7572 53.7585 68.4915 53.5327 68.2955 53.2372C68.1023 52.9418 68.0057 52.5795 68.0057 52.1506C68.0057 51.7812 68.0768 51.4773 68.2188 51.2386C68.3608 51 68.5526 50.8111 68.7941 50.6719C69.0356 50.5327 69.3054 50.4276 69.6037 50.3565C69.902 50.2855 70.206 50.2315 70.5157 50.1946C70.9077 50.1491 71.2259 50.1122 71.4702 50.0838C71.7145 50.0526 71.8921 50.0028 72.0029 49.9347C72.1137 49.8665 72.1691 49.7557 72.1691 49.6023V49.5724C72.1691 49.2003 72.064 48.9119 71.8537 48.7074C71.6464 48.5028 71.3367 48.4006 70.9248 48.4006C70.4958 48.4006 70.1577 48.4957 69.9106 48.6861C69.6662 48.8736 69.4972 49.0824 69.4035 49.3125L68.206 49.0398C68.3481 48.642 68.5554 48.321 68.8282 48.0767C69.1037 47.8295 69.4205 47.6506 69.7785 47.5398C70.1364 47.4261 70.5128 47.3693 70.9077 47.3693C71.1691 47.3693 71.4461 47.4006 71.7387 47.4631C72.0341 47.5227 72.3097 47.6335 72.5654 47.7955C72.8239 47.9574 73.0356 48.1889 73.2003 48.4901C73.3651 48.7884 73.4475 49.1761 73.4475 49.6534V54H72.2032V53.1051H72.152C72.0697 53.2699 71.9461 53.4318 71.7813 53.5909C71.6165 53.75 71.4049 53.8821 71.1464 53.9872C70.8878 54.0923 70.5782 54.1449 70.2174 54.1449ZM70.4944 53.1222C70.8466 53.1222 71.1478 53.0526 71.3978 52.9134C71.6506 52.7741 71.8424 52.5923 71.9731 52.3679C72.1066 52.1406 72.1733 51.8977 72.1733 51.6392V50.7955C72.1279 50.8409 72.0398 50.8835 71.9091 50.9233C71.7813 50.9602 71.635 50.9929 71.4702 51.0213C71.3054 51.0469 71.1449 51.071 70.9887 51.0938C70.8324 51.1136 70.7018 51.1307 70.5966 51.1449C70.3495 51.1761 70.1236 51.2287 69.9191 51.3026C69.7174 51.3764 69.5554 51.483 69.4333 51.6222C69.314 51.7585 69.2543 51.9403 69.2543 52.1676C69.2543 52.483 69.3708 52.7216 69.6037 52.8835C69.8367 53.0426 70.1336 53.1222 70.4944 53.1222ZM69.6932 46.6619L68.8367 46.6364C68.8367 46.1648 68.9631 45.7884 69.216 45.5071C69.4716 45.2259 69.787 45.0852 70.162 45.0852C70.3353 45.0852 70.4873 45.1151 70.6179 45.1747C70.7486 45.2315 70.8708 45.2983 70.9844 45.375C71.1009 45.4489 71.216 45.5156 71.3296 45.5753C71.4461 45.6321 71.5753 45.6605 71.7174 45.6605C71.8822 45.6605 72.0157 45.598 72.1179 45.473C72.2231 45.348 72.2756 45.1932 72.2756 45.0085L73.1151 45.0639C73.1151 45.5384 72.9873 45.9119 72.7316 46.1847C72.4759 46.4545 72.162 46.5909 71.7898 46.5938C71.5881 46.5938 71.4205 46.5653 71.287 46.5085C71.1563 46.4489 71.0398 46.3821 70.9376 46.3082C70.8353 46.2315 70.7302 46.1634 70.6222 46.1037C70.5143 46.044 70.385 46.0142 70.2344 46.0142C70.0753 46.0142 69.9447 46.0767 69.8424 46.2017C69.7429 46.3239 69.6932 46.4773 69.6932 46.6619ZM77.9017 54.1321C77.288 54.1321 76.7525 53.9915 76.2952 53.7102C75.8378 53.429 75.4827 53.0355 75.2298 52.5298C74.977 52.0241 74.8505 51.4332 74.8505 50.7571C74.8505 50.0781 74.977 49.4844 75.2298 48.9759C75.4827 48.4673 75.8378 48.0724 76.2952 47.7912C76.7525 47.5099 77.288 47.3693 77.9017 47.3693C78.5153 47.3693 79.0508 47.5099 79.5082 47.7912C79.9656 48.0724 80.3207 48.4673 80.5736 48.9759C80.8264 49.4844 80.9528 50.0781 80.9528 50.7571C80.9528 51.4332 80.8264 52.0241 80.5736 52.5298C80.3207 53.0355 79.9656 53.429 79.5082 53.7102C79.0508 53.9915 78.5153 54.1321 77.9017 54.1321ZM77.9059 53.0625C78.3037 53.0625 78.6332 52.9574 78.8946 52.7472C79.1559 52.5369 79.3491 52.2571 79.4741 51.9077C79.602 51.5582 79.6659 51.1733 79.6659 50.7528C79.6659 50.3352 79.602 49.9517 79.4741 49.6023C79.3491 49.25 79.1559 48.9673 78.8946 48.7543C78.6332 48.5412 78.3037 48.4347 77.9059 48.4347C77.5054 48.4347 77.173 48.5412 76.9088 48.7543C76.6474 48.9673 76.4528 49.25 76.325 49.6023C76.2 49.9517 76.1375 50.3352 76.1375 50.7528C76.1375 51.1733 76.2 51.5582 76.325 51.9077C76.4528 52.2571 76.6474 52.5369 76.9088 52.7472C77.173 52.9574 77.5054 53.0625 77.9059 53.0625ZM88.0011 54.1278C87.4727 54.1278 87.0011 53.9929 86.5863 53.723C86.1744 53.4503 85.8505 53.0625 85.6148 52.5597C85.3818 52.054 85.2653 51.4474 85.2653 50.7401C85.2653 50.0327 85.3832 49.4276 85.619 48.9247C85.8577 48.4219 86.1844 48.0369 86.5991 47.7699C87.0139 47.5028 87.4841 47.3693 88.0096 47.3693C88.4159 47.3693 88.7426 47.4375 88.9898 47.5739C89.2398 47.7074 89.4329 47.8636 89.5693 48.0426C89.7085 48.2216 89.8165 48.3793 89.8932 48.5156H89.9699V45.2727H91.244V54H89.9997V52.9815H89.8932C89.8165 53.1207 89.7057 53.2798 89.5608 53.4588C89.4187 53.6378 89.2227 53.794 88.9727 53.9276C88.7227 54.0611 88.3988 54.1278 88.0011 54.1278ZM88.2824 53.0412C88.6488 53.0412 88.9585 52.9446 89.2113 52.7514C89.467 52.5554 89.6602 52.2841 89.7909 51.9375C89.9244 51.5909 89.9912 51.1875 89.9912 50.7273C89.9912 50.2727 89.9258 49.875 89.7952 49.5341C89.6645 49.1932 89.4727 48.9276 89.2199 48.7372C88.967 48.5469 88.6545 48.4517 88.2824 48.4517C87.8988 48.4517 87.5792 48.5511 87.3236 48.75C87.0679 48.9489 86.8747 49.2202 86.744 49.5639C86.6162 49.9077 86.5523 50.2955 86.5523 50.7273C86.5523 51.1648 86.6176 51.5582 86.7483 51.9077C86.879 52.2571 87.0721 52.5341 87.3278 52.7386C87.5863 52.9403 87.9045 53.0412 88.2824 53.0412ZM95.8836 54.1321C95.2387 54.1321 94.6833 53.9943 94.2174 53.7188C93.7543 53.4403 93.3964 53.0497 93.1435 52.5469C92.8935 52.0412 92.7685 51.4489 92.7685 50.7699C92.7685 50.0994 92.8935 49.5085 93.1435 48.9972C93.3964 48.4858 93.7486 48.0866 94.2003 47.7997C94.6549 47.5128 95.1861 47.3693 95.7941 47.3693C96.1634 47.3693 96.5214 47.4304 96.8679 47.5526C97.2145 47.6747 97.5256 47.8665 97.8012 48.1278C98.0768 48.3892 98.2941 48.7287 98.4532 49.1463C98.6123 49.5611 98.6918 50.0653 98.6918 50.6591V51.1108H93.4887V50.1562H97.4432C97.4432 49.821 97.3751 49.5241 97.2387 49.2656C97.1023 49.0043 96.9106 48.7983 96.6634 48.6477C96.4191 48.4972 96.1322 48.4219 95.8026 48.4219C95.4447 48.4219 95.1322 48.5099 94.8651 48.6861C94.6009 48.8594 94.3964 49.0866 94.2515 49.3679C94.1094 49.6463 94.0384 49.9489 94.0384 50.2756V51.0213C94.0384 51.4588 94.1151 51.831 94.2685 52.1378C94.4248 52.4446 94.6421 52.679 94.9205 52.8409C95.1989 53 95.5242 53.0795 95.8964 53.0795C96.1378 53.0795 96.358 53.0455 96.5569 52.9773C96.7557 52.9062 96.9276 52.8011 97.0725 52.6619C97.2174 52.5227 97.3282 52.3509 97.4049 52.1463L98.6108 52.3636C98.5143 52.7187 98.341 53.0298 98.091 53.2969C97.8438 53.5611 97.5327 53.767 97.1577 53.9148C96.7856 54.0597 96.3608 54.1321 95.8836 54.1321ZM110.632 48.1108H109.303C109.251 47.8267 109.156 47.5767 109.017 47.3608C108.878 47.1449 108.707 46.9616 108.506 46.8111C108.304 46.6605 108.078 46.5469 107.828 46.4702C107.581 46.3935 107.318 46.3551 107.04 46.3551C106.537 46.3551 106.087 46.4815 105.689 46.7344C105.294 46.9872 104.982 47.358 104.751 47.8466C104.524 48.3352 104.411 48.9318 104.411 49.6364C104.411 50.3466 104.524 50.946 104.751 51.4347C104.982 51.9233 105.296 52.2926 105.693 52.5426C106.091 52.7926 106.538 52.9176 107.036 52.9176C107.311 52.9176 107.572 52.8807 107.82 52.8068C108.07 52.7301 108.296 52.6179 108.497 52.4702C108.699 52.3224 108.869 52.142 109.009 51.929C109.151 51.7131 109.249 51.4659 109.303 51.1875L110.632 51.1918C110.561 51.6207 110.423 52.0156 110.219 52.3764C110.017 52.7344 109.757 53.044 109.439 53.3054C109.124 53.5639 108.763 53.7642 108.357 53.9062C107.95 54.0483 107.507 54.1193 107.027 54.1193C106.271 54.1193 105.598 53.9403 105.007 53.5824C104.416 53.2216 103.95 52.706 103.609 52.0355C103.271 51.3651 103.102 50.5653 103.102 49.6364C103.102 48.7045 103.273 47.9048 103.614 47.2372C103.955 46.5668 104.421 46.0526 105.011 45.6946C105.602 45.3338 106.274 45.1534 107.027 45.1534C107.49 45.1534 107.922 45.2202 108.322 45.3537C108.726 45.4844 109.088 45.6776 109.409 45.9332C109.73 46.1861 109.996 46.4957 110.206 46.8622C110.416 47.2259 110.558 47.642 110.632 48.1108ZM112.106 54V47.4545H113.337V48.4943H113.405C113.525 48.142 113.735 47.8651 114.036 47.6634C114.34 47.4588 114.684 47.3565 115.067 47.3565C115.147 47.3565 115.24 47.3594 115.348 47.3651C115.459 47.3707 115.546 47.3778 115.608 47.3864V48.6051C115.557 48.5909 115.466 48.5753 115.336 48.5582C115.205 48.5384 115.074 48.5284 114.944 48.5284C114.642 48.5284 114.374 48.5923 114.138 48.7202C113.905 48.8452 113.721 49.0199 113.584 49.2443C113.448 49.4659 113.38 49.7187 113.38 50.0028V54H112.106ZM119.298 54.1321C118.653 54.1321 118.097 53.9943 117.631 53.7188C117.168 53.4403 116.81 53.0497 116.558 52.5469C116.308 52.0412 116.183 51.4489 116.183 50.7699C116.183 50.0994 116.308 49.5085 116.558 48.9972C116.81 48.4858 117.163 48.0866 117.614 47.7997C118.069 47.5128 118.6 47.3693 119.208 47.3693C119.577 47.3693 119.935 47.4304 120.282 47.5526C120.629 47.6747 120.94 47.8665 121.215 48.1278C121.491 48.3892 121.708 48.7287 121.867 49.1463C122.026 49.5611 122.106 50.0653 122.106 50.6591V51.1108H116.903V50.1562H120.857C120.857 49.821 120.789 49.5241 120.653 49.2656C120.516 49.0043 120.325 48.7983 120.077 48.6477C119.833 48.4972 119.546 48.4219 119.217 48.4219C118.859 48.4219 118.546 48.5099 118.279 48.6861C118.015 48.8594 117.81 49.0866 117.666 49.3679C117.523 49.6463 117.452 49.9489 117.452 50.2756V51.0213C117.452 51.4588 117.529 51.831 117.683 52.1378C117.839 52.4446 118.056 52.679 118.335 52.8409C118.613 53 118.938 53.0795 119.31 53.0795C119.552 53.0795 119.772 53.0455 119.971 52.9773C120.17 52.9062 120.342 52.8011 120.487 52.6619C120.631 52.5227 120.742 52.3509 120.819 52.1463L122.025 52.3636C121.928 52.7187 121.755 53.0298 121.505 53.2969C121.258 53.5611 120.947 53.767 120.572 53.9148C120.2 54.0597 119.775 54.1321 119.298 54.1321ZM118.633 46.581L119.63 44.6165H120.972L119.651 46.581H118.633ZM125.97 54.1278C125.441 54.1278 124.97 53.9929 124.555 53.723C124.143 53.4503 123.819 53.0625 123.584 52.5597C123.351 52.054 123.234 51.4474 123.234 50.7401C123.234 50.0327 123.352 49.4276 123.588 48.9247C123.826 48.4219 124.153 48.0369 124.568 47.7699C124.983 47.5028 125.453 47.3693 125.978 47.3693C126.385 47.3693 126.711 47.4375 126.959 47.5739C127.209 47.7074 127.402 47.8636 127.538 48.0426C127.677 48.2216 127.785 48.3793 127.862 48.5156H127.939V45.2727H129.213V54H127.968V52.9815H127.862C127.785 53.1207 127.674 53.2798 127.53 53.4588C127.387 53.6378 127.191 53.794 126.941 53.9276C126.691 54.0611 126.368 54.1278 125.97 54.1278ZM126.251 53.0412C126.618 53.0412 126.927 52.9446 127.18 52.7514C127.436 52.5554 127.629 52.2841 127.76 51.9375C127.893 51.5909 127.96 51.1875 127.96 50.7273C127.96 50.2727 127.895 49.875 127.764 49.5341C127.633 49.1932 127.441 48.9276 127.189 48.7372C126.936 48.5469 126.623 48.4517 126.251 48.4517C125.868 48.4517 125.548 48.5511 125.292 48.75C125.037 48.9489 124.843 49.2202 124.713 49.5639C124.585 49.9077 124.521 50.2955 124.521 50.7273C124.521 51.1648 124.586 51.5582 124.717 51.9077C124.848 52.2571 125.041 52.5341 125.297 52.7386C125.555 52.9403 125.873 53.0412 126.251 53.0412ZM131.031 54V47.4545H132.305V54H131.031ZM131.675 46.4446C131.453 46.4446 131.263 46.3707 131.104 46.223C130.947 46.0724 130.869 45.8935 130.869 45.6861C130.869 45.4759 130.947 45.2969 131.104 45.1491C131.263 44.9986 131.453 44.9233 131.675 44.9233C131.896 44.9233 132.085 44.9986 132.242 45.1491C132.401 45.2969 132.48 45.4759 132.48 45.6861C132.48 45.8935 132.401 46.0724 132.242 46.223C132.085 46.3707 131.896 46.4446 131.675 46.4446ZM137.075 47.4545V48.4773H133.5V47.4545H137.075ZM134.459 45.8864H135.733V52.0781C135.733 52.3253 135.77 52.5114 135.843 52.6364C135.917 52.7585 136.012 52.8423 136.129 52.8878C136.248 52.9304 136.378 52.9517 136.517 52.9517C136.619 52.9517 136.709 52.9446 136.785 52.9304C136.862 52.9162 136.922 52.9048 136.964 52.8963L137.194 53.9489C137.12 53.9773 137.015 54.0057 136.879 54.0341C136.743 54.0653 136.572 54.0824 136.368 54.0852C136.032 54.0909 135.72 54.0312 135.43 53.9062C135.14 53.7812 134.906 53.5881 134.727 53.3267C134.548 53.0653 134.459 52.7372 134.459 52.3423V45.8864ZM141.171 54.1321C140.558 54.1321 140.022 53.9915 139.565 53.7102C139.107 53.429 138.752 53.0355 138.499 52.5298C138.246 52.0241 138.12 51.4332 138.12 50.7571C138.12 50.0781 138.246 49.4844 138.499 48.9759C138.752 48.4673 139.107 48.0724 139.565 47.7912C140.022 47.5099 140.558 47.3693 141.171 47.3693C141.785 47.3693 142.32 47.5099 142.778 47.7912C143.235 48.0724 143.59 48.4673 143.843 48.9759C144.096 49.4844 144.222 50.0781 144.222 50.7571C144.222 51.4332 144.096 52.0241 143.843 52.5298C143.59 53.0355 143.235 53.429 142.778 53.7102C142.32 53.9915 141.785 54.1321 141.171 54.1321ZM141.175 53.0625C141.573 53.0625 141.903 52.9574 142.164 52.7472C142.425 52.5369 142.619 52.2571 142.744 51.9077C142.871 51.5582 142.935 51.1733 142.935 50.7528C142.935 50.3352 142.871 49.9517 142.744 49.6023C142.619 49.25 142.425 48.9673 142.164 48.7543C141.903 48.5412 141.573 48.4347 141.175 48.4347C140.775 48.4347 140.443 48.5412 140.178 48.7543C139.917 48.9673 139.722 49.25 139.595 49.6023C139.47 49.9517 139.407 50.3352 139.407 50.7528C139.407 51.1733 139.47 51.5582 139.595 51.9077C139.722 52.2571 139.917 52.5369 140.178 52.7472C140.443 52.9574 140.775 53.0625 141.175 53.0625Z" fill="#142952"/>
</svg>
