<svg width="574" height="48" viewBox="0 0 574 48" fill="none" xmlns="http://www.w3.org/2000/svg">
<rect width="574" height="48" rx="10" fill="url(#paint0_linear_623_65)"/>
<path d="M238.035 29.2226C237.176 29.2226 236.418 29.0689 235.761 28.7615C235.104 28.4541 234.59 28.0142 234.219 27.4418C233.848 26.8694 233.662 26.1804 233.662 25.3748V24.9296H235.729V25.3748C235.729 26.0426 235.936 26.5461 236.35 26.8853C236.763 27.2139 237.325 27.3782 238.035 27.3782C238.756 27.3782 239.291 27.2351 239.641 26.9489C240.001 26.6627 240.181 26.297 240.181 25.8518C240.181 25.5444 240.091 25.2953 239.911 25.1045C239.742 24.9137 239.487 24.76 239.148 24.6434C238.819 24.5162 238.417 24.3996 237.94 24.2936L237.574 24.2141C236.811 24.0445 236.153 23.8325 235.602 23.5781C235.062 23.3131 234.643 22.9686 234.346 22.5446C234.06 22.1206 233.917 21.5694 233.917 20.891C233.917 20.2126 234.076 19.6349 234.394 19.1579C234.722 18.6703 235.178 18.2993 235.761 18.0449C236.355 17.7799 237.049 17.6474 237.844 17.6474C238.639 17.6474 239.344 17.7852 239.959 18.0608C240.584 18.3258 241.072 18.7286 241.422 19.2692C241.782 19.7992 241.962 20.467 241.962 21.2726V21.7496H239.895V21.2726C239.895 20.8486 239.81 20.5094 239.641 20.255C239.482 19.99 239.249 19.7992 238.941 19.6826C238.634 19.5554 238.268 19.4918 237.844 19.4918C237.208 19.4918 236.736 19.6137 236.429 19.8575C236.132 20.0907 235.984 20.414 235.984 20.8274C235.984 21.103 236.053 21.3362 236.191 21.527C236.339 21.7178 236.556 21.8768 236.842 22.004C237.129 22.1312 237.494 22.2425 237.94 22.3379L238.305 22.4174C239.1 22.587 239.789 22.8043 240.372 23.0693C240.966 23.3343 241.427 23.6841 241.756 24.1187C242.084 24.5533 242.248 25.1098 242.248 25.7882C242.248 26.4666 242.074 27.0655 241.724 27.5849C241.385 28.0937 240.897 28.4965 240.261 28.7933C239.636 29.0795 238.894 29.2226 238.035 29.2226ZM243.877 29V21.1136H245.881V29H243.877ZM244.879 20.1914C244.519 20.1914 244.211 20.0748 243.957 19.8416C243.713 19.6084 243.591 19.301 243.591 18.9194C243.591 18.5378 243.713 18.2304 243.957 17.9972C244.211 17.764 244.519 17.6474 244.879 17.6474C245.25 17.6474 245.557 17.764 245.801 17.9972C246.045 18.2304 246.167 18.5378 246.167 18.9194C246.167 19.301 246.045 19.6084 245.801 19.8416C245.557 20.0748 245.25 20.1914 244.879 20.1914ZM248.101 29V21.1136H250.072V21.9722H250.359C250.496 21.7072 250.724 21.4793 251.042 21.2885C251.36 21.0871 251.779 20.9864 252.298 20.9864C252.86 20.9864 253.311 21.0977 253.65 21.3203C253.989 21.5323 254.249 21.8132 254.429 22.163H254.715C254.895 21.8238 255.15 21.5429 255.478 21.3203C255.807 21.0977 256.273 20.9864 256.878 20.9864C257.365 20.9864 257.805 21.0924 258.197 21.3044C258.6 21.5058 258.918 21.8185 259.151 22.2425C259.395 22.6559 259.517 23.1806 259.517 23.8166V29H257.514V23.9597C257.514 23.5251 257.402 23.2018 257.18 22.9898C256.957 22.7672 256.644 22.6559 256.242 22.6559C255.786 22.6559 255.431 22.8043 255.176 23.1011C254.932 23.3873 254.811 23.8007 254.811 24.3413V29H252.807V23.9597C252.807 23.5251 252.696 23.2018 252.473 22.9898C252.251 22.7672 251.938 22.6559 251.535 22.6559C251.079 22.6559 250.724 22.8043 250.47 23.1011C250.226 23.3873 250.104 23.8007 250.104 24.3413V29H248.101ZM264.553 29.1272C263.938 29.1272 263.397 28.9894 262.931 28.7138C262.475 28.4276 262.12 28.0354 261.865 27.5372C261.611 27.039 261.484 26.4666 261.484 25.82V21.1136H263.487V25.661C263.487 26.2546 263.63 26.6998 263.917 26.9966C264.213 27.2934 264.632 27.4418 265.173 27.4418C265.787 27.4418 266.264 27.2404 266.604 26.8376C266.943 26.4242 267.112 25.8518 267.112 25.1204V21.1136H269.116V29H267.144V27.9665H266.858C266.731 28.2315 266.492 28.4912 266.143 28.7456C265.793 29 265.263 29.1272 264.553 29.1272ZM271.345 29V17.87H273.349V29H271.345ZM278.017 29.2226C277.455 29.2226 276.952 29.1272 276.507 28.9364C276.062 28.735 275.706 28.4488 275.441 28.0778C275.187 27.6962 275.06 27.2351 275.06 26.6945C275.06 26.1539 275.187 25.7034 275.441 25.343C275.706 24.972 276.067 24.6964 276.523 24.5162C276.989 24.3254 277.519 24.23 278.113 24.23H280.275V23.7848C280.275 23.4138 280.158 23.1117 279.925 22.8785C279.692 22.6347 279.321 22.5128 278.812 22.5128C278.314 22.5128 277.943 22.6294 277.699 22.8626C277.455 23.0852 277.296 23.3767 277.222 23.7371L275.378 23.117C275.505 22.7142 275.706 22.3485 275.982 22.0199C276.268 21.6807 276.645 21.4104 277.111 21.209C277.588 20.997 278.166 20.891 278.844 20.891C279.883 20.891 280.704 21.1507 281.309 21.6701C281.913 22.1895 282.215 22.9421 282.215 23.9279V26.8694C282.215 27.1874 282.363 27.3464 282.66 27.3464H283.296V29H281.96C281.568 29 281.245 28.9046 280.991 28.7138C280.736 28.523 280.609 28.2686 280.609 27.9506V27.9347H280.307C280.264 28.0619 280.169 28.2315 280.021 28.4435C279.872 28.6449 279.639 28.8251 279.321 28.9841C279.003 29.1431 278.568 29.2226 278.017 29.2226ZM278.367 27.6008C278.929 27.6008 279.385 27.4471 279.734 27.1397C280.095 26.8217 280.275 26.403 280.275 25.8836V25.7246H278.256C277.885 25.7246 277.593 25.8041 277.381 25.9631C277.169 26.1221 277.063 26.3447 277.063 26.6309C277.063 26.9171 277.175 27.1503 277.397 27.3305C277.62 27.5107 277.943 27.6008 278.367 27.6008ZM284.761 29V21.1136H286.732V22.004H287.019C287.135 21.686 287.326 21.4528 287.591 21.3044C287.867 21.156 288.185 21.0818 288.545 21.0818H289.499V22.8626H288.513C288.004 22.8626 287.586 23.0004 287.257 23.276C286.929 23.541 286.764 23.9544 286.764 24.5162V29H284.761ZM294.72 29V27.1556H296.183V19.7144H294.72V17.87H299.3C300.794 17.87 301.928 18.2516 302.702 19.0148C303.487 19.7674 303.879 20.891 303.879 22.3856V24.4844C303.879 25.979 303.487 27.1079 302.702 27.8711C301.928 28.6237 300.794 29 299.3 29H294.72ZM298.282 27.092H299.331C300.179 27.092 300.8 26.8694 301.192 26.4242C301.584 25.979 301.78 25.3536 301.78 24.548V22.322C301.78 21.5058 301.584 20.8804 301.192 20.4458C300.8 20.0006 300.179 19.778 299.331 19.778H298.282V27.092ZM305.692 29V21.1136H307.695V29H305.692ZM305.485 20.2232L306.662 17.87H308.919L307.234 20.2232H305.485ZM311.569 29L309.057 21.1136H311.187L313.016 27.5372H313.302L315.13 21.1136H317.261L314.749 29H311.569ZM318.626 29V21.1136H320.629V29H318.626ZM319.628 20.1914C319.267 20.1914 318.96 20.0748 318.705 19.8416C318.462 19.6084 318.34 19.301 318.34 18.9194C318.34 18.5378 318.462 18.2304 318.705 17.9972C318.96 17.764 319.267 17.6474 319.628 17.6474C319.999 17.6474 320.306 17.764 320.55 17.9972C320.794 18.2304 320.916 18.5378 320.916 18.9194C320.916 19.301 320.794 19.6084 320.55 19.8416C320.306 20.0748 319.999 20.1914 319.628 20.1914ZM326.029 29.2226C325.404 29.2226 324.816 29.0689 324.264 28.7615C323.724 28.4435 323.289 27.9824 322.961 27.3782C322.632 26.774 322.468 26.0426 322.468 25.184V24.9296C322.468 24.071 322.632 23.3396 322.961 22.7354C323.289 22.1312 323.724 21.6754 324.264 21.368C324.805 21.05 325.393 20.891 326.029 20.891C326.506 20.891 326.904 20.9493 327.222 21.0659C327.55 21.1719 327.815 21.3097 328.017 21.4793C328.218 21.6489 328.372 21.8291 328.478 22.0199H328.764V17.87H330.768V29H328.796V28.046H328.51C328.33 28.3428 328.049 28.6131 327.667 28.8569C327.296 29.1007 326.75 29.2226 326.029 29.2226ZM326.634 27.4736C327.248 27.4736 327.762 27.2775 328.176 26.8853C328.589 26.4825 328.796 25.8995 328.796 25.1363V24.9773C328.796 24.2141 328.589 23.6364 328.176 23.2442C327.773 22.8414 327.259 22.64 326.634 22.64C326.019 22.64 325.505 22.8414 325.091 23.2442C324.678 23.6364 324.471 24.2141 324.471 24.9773V25.1363C324.471 25.8995 324.678 26.4825 325.091 26.8853C325.505 27.2775 326.019 27.4736 326.634 27.4736ZM335.437 29.2226C334.876 29.2226 334.372 29.1272 333.927 28.9364C333.482 28.735 333.127 28.4488 332.862 28.0778C332.607 27.6962 332.48 27.2351 332.48 26.6945C332.48 26.1539 332.607 25.7034 332.862 25.343C333.127 24.972 333.487 24.6964 333.943 24.5162C334.409 24.3254 334.939 24.23 335.533 24.23H337.695V23.7848C337.695 23.4138 337.579 23.1117 337.345 22.8785C337.112 22.6347 336.741 22.5128 336.232 22.5128C335.734 22.5128 335.363 22.6294 335.119 22.8626C334.876 23.0852 334.717 23.3767 334.642 23.7371L332.798 23.117C332.925 22.7142 333.127 22.3485 333.402 22.0199C333.688 21.6807 334.065 21.4104 334.531 21.209C335.008 20.997 335.586 20.891 336.264 20.891C337.303 20.891 338.124 21.1507 338.729 21.6701C339.333 22.1895 339.635 22.9421 339.635 23.9279V26.8694C339.635 27.1874 339.783 27.3464 340.08 27.3464H340.716V29H339.381C338.988 29 338.665 28.9046 338.411 28.7138C338.156 28.523 338.029 28.2686 338.029 27.9506V27.9347H337.727C337.685 28.0619 337.589 28.2315 337.441 28.4435C337.292 28.6449 337.059 28.8251 336.741 28.9841C336.423 29.1431 335.989 29.2226 335.437 29.2226ZM335.787 27.6008C336.349 27.6008 336.805 27.4471 337.155 27.1397C337.515 26.8217 337.695 26.403 337.695 25.8836V25.7246H335.676C335.305 25.7246 335.013 25.8041 334.801 25.9631C334.589 26.1221 334.483 26.3447 334.483 26.6309C334.483 26.9171 334.595 27.1503 334.817 27.3305C335.04 27.5107 335.363 27.6008 335.787 27.6008Z" fill="#FAFAFA"/>
<defs>
<linearGradient id="paint0_linear_623_65" x1="131.5" y1="-131.5" x2="442.5" y2="179.5" gradientUnits="userSpaceOnUse">
<stop stop-color="#177F72"/>
<stop offset="1" stop-color="#1AA7D5"/>
</linearGradient>
</defs>
</svg>
