<svg width="186" height="71" viewBox="0 0 186 71" fill="none" xmlns="http://www.w3.org/2000/svg">
<rect x="1" y="1" width="184" height="69" rx="11" fill="white"/>
<rect x="1" y="1" width="184" height="69" rx="11" stroke="#E5E7EB" stroke-width="2"/>
<path d="M86.333 15.6667V32.3334L87.9997 31.5L89.6663 32.3334L91.333 31.5L92.9997 32.3334L94.6663 31.5L96.333 32.3334L97.9997 31.5L99.6663 32.3334V15.6667L97.9997 16.5L96.333 15.6667L94.6663 16.5L92.9997 15.6667L91.333 16.5L89.6663 15.6667L87.9997 16.5L86.333 15.6667Z" stroke="#676F7E" stroke-width="1.66667" stroke-linecap="round" stroke-linejoin="round"/>
<path d="M96.3337 20.6667H91.3337C90.8916 20.6667 90.4677 20.8423 90.1551 21.1548C89.8426 21.4674 89.667 21.8913 89.667 22.3334C89.667 22.7754 89.8426 23.1993 90.1551 23.5119C90.4677 23.8244 90.8916 24 91.3337 24H94.667C95.109 24 95.5329 24.1756 95.8455 24.4882C96.1581 24.8007 96.3337 25.2247 96.3337 25.6667C96.3337 26.1087 96.1581 26.5326 95.8455 26.8452C95.5329 27.1578 95.109 27.3334 94.667 27.3334H89.667" stroke="#676F7E" stroke-width="1.66667" stroke-linecap="round" stroke-linejoin="round"/>
<path d="M93 28.5834V19.4167" stroke="#676F7E" stroke-width="1.66667" stroke-linecap="round" stroke-linejoin="round"/>
<path d="M53.5973 48.1108H52.2677C52.2166 47.8267 52.1214 47.5767 51.9822 47.3608C51.843 47.1449 51.6726 46.9616 51.4709 46.8111C51.2692 46.6605 51.0433 46.5469 50.7933 46.4702C50.5461 46.3935 50.2834 46.3551 50.0049 46.3551C49.5021 46.3551 49.0518 46.4815 48.6541 46.7344C48.2592 46.9872 47.9467 47.358 47.7166 47.8466C47.4893 48.3352 47.3757 48.9318 47.3757 49.6364C47.3757 50.3466 47.4893 50.946 47.7166 51.4347C47.9467 51.9233 48.2606 52.2926 48.6584 52.5426C49.0561 52.7926 49.5035 52.9176 50.0007 52.9176C50.2763 52.9176 50.5376 52.8807 50.7848 52.8068C51.0348 52.7301 51.2606 52.6179 51.4623 52.4702C51.664 52.3224 51.8345 52.142 51.9737 51.929C52.1157 51.7131 52.2138 51.4659 52.2677 51.1875L53.5973 51.1918C53.5263 51.6207 53.3885 52.0156 53.1839 52.3764C52.9822 52.7344 52.7223 53.044 52.4041 53.3054C52.0888 53.5639 51.728 53.7642 51.3217 53.9062C50.9155 54.0483 50.4723 54.1193 49.9922 54.1193C49.2365 54.1193 48.5632 53.9403 47.9723 53.5824C47.3814 53.2216 46.9155 52.706 46.5746 52.0355C46.2365 51.3651 46.0674 50.5653 46.0674 49.6364C46.0674 48.7045 46.2379 47.9048 46.5788 47.2372C46.9197 46.5668 47.3856 46.0526 47.9765 45.6946C48.5674 45.3338 49.2393 45.1534 49.9922 45.1534C50.4552 45.1534 50.8871 45.2202 51.2876 45.3537C51.691 45.4844 52.0532 45.6776 52.3743 45.9332C52.6953 46.1861 52.9609 46.4957 53.1711 46.8622C53.3814 47.2259 53.5234 47.642 53.5973 48.1108ZM56.3448 50.1136V54H55.0706V45.2727H56.3277V48.5199H56.4087C56.5621 48.1676 56.7965 47.8878 57.1118 47.6804C57.4272 47.473 57.8391 47.3693 58.3476 47.3693C58.7965 47.3693 59.1885 47.4616 59.5238 47.6463C59.8618 47.831 60.1232 48.1065 60.3079 48.473C60.4954 48.8366 60.5891 49.2912 60.5891 49.8366V54H59.315V49.9901C59.315 49.5099 59.1914 49.1378 58.9442 48.8736C58.6971 48.6065 58.3533 48.473 57.913 48.473C57.6118 48.473 57.342 48.5369 57.1033 48.6648C56.8675 48.7926 56.6814 48.9801 56.5451 49.2273C56.4116 49.4716 56.3448 49.767 56.3448 50.1136ZM65.1104 54.1321C64.4655 54.1321 63.9101 53.9943 63.4442 53.7188C62.9812 53.4403 62.6232 53.0497 62.3704 52.5469C62.1204 52.0412 61.9954 51.4489 61.9954 50.7699C61.9954 50.0994 62.1204 49.5085 62.3704 48.9972C62.6232 48.4858 62.9755 48.0866 63.4272 47.7997C63.8817 47.5128 64.413 47.3693 65.0209 47.3693C65.3902 47.3693 65.7482 47.4304 66.0948 47.5526C66.4414 47.6747 66.7525 47.8665 67.028 48.1278C67.3036 48.3892 67.5209 48.7287 67.68 49.1463C67.8391 49.5611 67.9187 50.0653 67.9187 50.6591V51.1108H62.7155V50.1562H66.6701C66.6701 49.821 66.6019 49.5241 66.4655 49.2656C66.3292 49.0043 66.1374 48.7983 65.8902 48.6477C65.6459 48.4972 65.359 48.4219 65.0295 48.4219C64.6715 48.4219 64.359 48.5099 64.092 48.6861C63.8277 48.8594 63.6232 49.0866 63.4783 49.3679C63.3363 49.6463 63.2652 49.9489 63.2652 50.2756V51.0213C63.2652 51.4588 63.342 51.831 63.4954 52.1378C63.6516 52.4446 63.8689 52.679 64.1474 52.8409C64.4258 53 64.751 53.0795 65.1232 53.0795C65.3647 53.0795 65.5849 53.0455 65.7837 52.9773C65.9826 52.9062 66.1545 52.8011 66.2993 52.6619C66.4442 52.5227 66.555 52.3509 66.6317 52.1463L67.8377 52.3636C67.7411 52.7187 67.5678 53.0298 67.3178 53.2969C67.0706 53.5611 66.7596 53.767 66.3846 53.9148C66.0124 54.0597 65.5877 54.1321 65.1104 54.1321ZM73.7514 56.4545V52.9815H73.6747C73.598 53.1207 73.4872 53.2798 73.3423 53.4588C73.2003 53.6378 73.0042 53.794 72.7542 53.9276C72.5042 54.0611 72.1804 54.1278 71.7826 54.1278C71.2542 54.1278 70.7826 53.9929 70.3679 53.723C69.9559 53.4503 69.6321 53.0625 69.3963 52.5597C69.1633 52.054 69.0469 51.4474 69.0469 50.7401C69.0469 50.0327 69.1648 49.4276 69.4005 48.9247C69.6392 48.4219 69.9659 48.0369 70.3807 47.7699C70.7954 47.5028 71.2656 47.3693 71.7912 47.3693C72.1974 47.3693 72.5241 47.4375 72.7713 47.5739C73.0213 47.7074 73.2145 47.8636 73.3508 48.0426C73.49 48.2216 73.598 48.3793 73.6747 48.5156H73.7812V47.4545H75.0255V56.4545H73.7514ZM72.0639 53.0412C72.4304 53.0412 72.74 52.9446 72.9929 52.7514C73.2486 52.5554 73.4417 52.2841 73.5724 51.9375C73.7059 51.5909 73.7727 51.1875 73.7727 50.7273C73.7727 50.2727 73.7074 49.875 73.5767 49.5341C73.446 49.1932 73.2542 48.9276 73.0014 48.7372C72.7486 48.5469 72.4361 48.4517 72.0639 48.4517C71.6804 48.4517 71.3608 48.5511 71.1051 48.75C70.8494 48.9489 70.6562 49.2202 70.5255 49.5639C70.3977 49.9077 70.3338 50.2955 70.3338 50.7273C70.3338 51.1648 70.3991 51.5582 70.5298 51.9077C70.6605 52.2571 70.8537 52.5341 71.1094 52.7386C71.3679 52.9403 71.6861 53.0412 72.0639 53.0412ZM80.8849 51.2855V47.4545H82.1633V54H80.9105V52.8665H80.8423C80.6917 53.2159 80.4503 53.5071 80.1179 53.7401C79.7883 53.9702 79.3778 54.0852 78.8863 54.0852C78.4659 54.0852 78.0937 53.9929 77.7699 53.8082C77.4488 53.6207 77.196 53.3438 77.0113 52.9773C76.8295 52.6108 76.7386 52.1577 76.7386 51.6179V47.4545H78.0128V51.4645C78.0128 51.9105 78.1363 52.2656 78.3835 52.5298C78.6307 52.794 78.9517 52.9261 79.3466 52.9261C79.5852 52.9261 79.8224 52.8665 80.0582 52.7472C80.2969 52.6278 80.4943 52.4474 80.6505 52.206C80.8096 51.9645 80.8878 51.6577 80.8849 51.2855ZM86.6964 54.1321C86.0515 54.1321 85.4961 53.9943 85.0302 53.7188C84.5671 53.4403 84.2091 53.0497 83.9563 52.5469C83.7063 52.0412 83.5813 51.4489 83.5813 50.7699C83.5813 50.0994 83.7063 49.5085 83.9563 48.9972C84.2091 48.4858 84.5614 48.0866 85.0131 47.7997C85.4677 47.5128 85.9989 47.3693 86.6069 47.3693C86.9762 47.3693 87.3341 47.4304 87.6807 47.5526C88.0273 47.6747 88.3384 47.8665 88.614 48.1278C88.8895 48.3892 89.1069 48.7287 89.266 49.1463C89.425 49.5611 89.5046 50.0653 89.5046 50.6591V51.1108H84.3015V50.1562H88.256C88.256 49.821 88.1878 49.5241 88.0515 49.2656C87.9151 49.0043 87.7233 48.7983 87.4762 48.6477C87.2319 48.4972 86.9449 48.4219 86.6154 48.4219C86.2574 48.4219 85.9449 48.5099 85.6779 48.6861C85.4137 48.8594 85.2091 49.0866 85.0643 49.3679C84.9222 49.6463 84.8512 49.9489 84.8512 50.2756V51.0213C84.8512 51.4588 84.9279 51.831 85.0813 52.1378C85.2375 52.4446 85.4549 52.679 85.7333 52.8409C86.0117 53 86.337 53.0795 86.7091 53.0795C86.9506 53.0795 87.1708 53.0455 87.3697 52.9773C87.5685 52.9062 87.7404 52.8011 87.8853 52.6619C88.0302 52.5227 88.141 52.3509 88.2177 52.1463L89.4236 52.3636C89.327 52.7187 89.1537 53.0298 88.9037 53.2969C88.6566 53.5611 88.3455 53.767 87.9705 53.9148C87.5983 54.0597 87.1736 54.1321 86.6964 54.1321ZM94.1964 54V45.2727H99.6679V46.4062H95.5131V49.0653H99.3824V50.1946H95.5131V52.8665H99.7191V54H94.1964ZM106.229 49.0526L105.075 49.2571C105.026 49.1094 104.95 48.9687 104.844 48.8352C104.742 48.7017 104.603 48.5923 104.427 48.5071C104.251 48.4219 104.031 48.3793 103.766 48.3793C103.406 48.3793 103.104 48.4602 102.863 48.6222C102.621 48.7812 102.501 48.9872 102.501 49.2401C102.501 49.4588 102.582 49.6349 102.744 49.7685C102.906 49.902 103.167 50.0114 103.528 50.0966L104.567 50.3352C105.17 50.4744 105.619 50.6889 105.914 50.9787C106.209 51.2685 106.357 51.6449 106.357 52.108C106.357 52.5 106.244 52.8494 106.016 53.1562C105.792 53.4602 105.478 53.6989 105.075 53.8722C104.674 54.0455 104.209 54.1321 103.681 54.1321C102.948 54.1321 102.35 53.9759 101.887 53.6634C101.424 53.348 101.14 52.9006 101.035 52.321L102.266 52.1335C102.343 52.4545 102.501 52.6974 102.739 52.8622C102.978 53.0241 103.289 53.1051 103.673 53.1051C104.09 53.1051 104.424 53.0185 104.674 52.8452C104.924 52.669 105.049 52.4545 105.049 52.2017C105.049 51.9972 104.972 51.8253 104.819 51.6861C104.668 51.5469 104.437 51.4418 104.124 51.3707L103.016 51.1278C102.406 50.9886 101.954 50.767 101.661 50.4631C101.371 50.1591 101.227 49.7741 101.227 49.3082C101.227 48.9219 101.334 48.5838 101.55 48.294C101.766 48.0043 102.065 47.7784 102.445 47.6165C102.826 47.4517 103.262 47.3693 103.754 47.3693C104.461 47.3693 105.018 47.5227 105.424 47.8295C105.83 48.1335 106.099 48.5412 106.229 49.0526ZM107.758 56.4545V47.4545H109.002V48.5156H109.109C109.183 48.3793 109.289 48.2216 109.429 48.0426C109.568 47.8636 109.761 47.7074 110.008 47.5739C110.255 47.4375 110.582 47.3693 110.988 47.3693C111.517 47.3693 111.988 47.5028 112.403 47.7699C112.818 48.0369 113.143 48.4219 113.379 48.9247C113.618 49.4276 113.737 50.0327 113.737 50.7401C113.737 51.4474 113.619 52.054 113.383 52.5597C113.147 53.0625 112.823 53.4503 112.412 53.723C112 53.9929 111.529 54.1278 111.001 54.1278C110.603 54.1278 110.278 54.0611 110.025 53.9276C109.775 53.794 109.579 53.6378 109.437 53.4588C109.295 53.2798 109.186 53.1207 109.109 52.9815H109.032V56.4545H107.758ZM109.007 50.7273C109.007 51.1875 109.073 51.5909 109.207 51.9375C109.341 52.2841 109.534 52.5554 109.787 52.7514C110.039 52.9446 110.349 53.0412 110.716 53.0412C111.096 53.0412 111.414 52.9403 111.67 52.7386C111.926 52.5341 112.119 52.2571 112.25 51.9077C112.383 51.5582 112.45 51.1648 112.45 50.7273C112.45 50.2955 112.385 49.9077 112.254 49.5639C112.126 49.2202 111.933 48.9489 111.674 48.75C111.419 48.5511 111.099 48.4517 110.716 48.4517C110.346 48.4517 110.034 48.5469 109.778 48.7372C109.525 48.9276 109.333 49.1932 109.203 49.5341C109.072 49.875 109.007 50.2727 109.007 50.7273ZM117.985 54.1321C117.341 54.1321 116.785 53.9943 116.319 53.7188C115.856 53.4403 115.498 53.0497 115.245 52.5469C114.995 52.0412 114.87 51.4489 114.87 50.7699C114.87 50.0994 114.995 49.5085 115.245 48.9972C115.498 48.4858 115.85 48.0866 116.302 47.7997C116.757 47.5128 117.288 47.3693 117.896 47.3693C118.265 47.3693 118.623 47.4304 118.97 47.5526C119.316 47.6747 119.627 47.8665 119.903 48.1278C120.179 48.3892 120.396 48.7287 120.555 49.1463C120.714 49.5611 120.794 50.0653 120.794 50.6591V51.1108H115.591V50.1562H119.545C119.545 49.821 119.477 49.5241 119.341 49.2656C119.204 49.0043 119.012 48.7983 118.765 48.6477C118.521 48.4972 118.234 48.4219 117.904 48.4219C117.546 48.4219 117.234 48.5099 116.967 48.6861C116.703 48.8594 116.498 49.0866 116.353 49.3679C116.211 49.6463 116.14 49.9489 116.14 50.2756V51.0213C116.14 51.4588 116.217 51.831 116.37 52.1378C116.527 52.4446 116.744 52.679 117.022 52.8409C117.301 53 117.626 53.0795 117.998 53.0795C118.24 53.0795 118.46 53.0455 118.659 52.9773C118.858 52.9062 119.029 52.8011 119.174 52.6619C119.319 52.5227 119.43 52.3509 119.507 52.1463L120.713 52.3636C120.616 52.7187 120.443 53.0298 120.193 53.2969C119.946 53.5611 119.635 53.767 119.26 53.9148C118.887 54.0597 118.463 54.1321 117.985 54.1321ZM124.964 54.1321C124.331 54.1321 123.785 53.9886 123.328 53.7017C122.874 53.4119 122.524 53.0128 122.28 52.5043C122.035 51.9957 121.913 51.4134 121.913 50.7571C121.913 50.0923 122.038 49.5057 122.288 48.9972C122.538 48.4858 122.891 48.0866 123.345 47.7997C123.8 47.5128 124.335 47.3693 124.952 47.3693C125.449 47.3693 125.892 47.4616 126.281 47.6463C126.67 47.8281 126.984 48.0838 127.223 48.4134C127.464 48.7429 127.608 49.1278 127.653 49.5682H126.413C126.345 49.2614 126.189 48.9972 125.945 48.7756C125.703 48.554 125.379 48.4432 124.973 48.4432C124.618 48.4432 124.307 48.5369 124.04 48.7244C123.776 48.9091 123.57 49.1733 123.422 49.517C123.274 49.858 123.2 50.2614 123.2 50.7273C123.2 51.2045 123.273 51.6165 123.418 51.9631C123.562 52.3097 123.767 52.5781 124.031 52.7685C124.298 52.9588 124.612 53.054 124.973 53.054C125.214 53.054 125.433 53.0099 125.629 52.9219C125.828 52.831 125.994 52.7017 126.128 52.5341C126.264 52.3665 126.359 52.1648 126.413 51.929H127.653C127.608 52.3523 127.47 52.7301 127.24 53.0625C127.01 53.3949 126.702 53.6562 126.315 53.8466C125.932 54.0369 125.482 54.1321 124.964 54.1321ZM129.016 54V47.4545H130.29V54H129.016ZM129.659 46.4446C129.438 46.4446 129.247 46.3707 129.088 46.223C128.932 46.0724 128.854 45.8935 128.854 45.6861C128.854 45.4759 128.932 45.2969 129.088 45.1491C129.247 44.9986 129.438 44.9233 129.659 44.9233C129.881 44.9233 130.07 44.9986 130.226 45.1491C130.385 45.2969 130.465 45.4759 130.465 45.6861C130.465 45.8935 130.385 46.0724 130.226 46.223C130.07 46.3707 129.881 46.4446 129.659 46.4446ZM133.909 54.1449C133.494 54.1449 133.119 54.0682 132.784 53.9148C132.449 53.7585 132.183 53.5327 131.987 53.2372C131.794 52.9418 131.697 52.5795 131.697 52.1506C131.697 51.7812 131.768 51.4773 131.91 51.2386C132.053 51 132.244 50.8111 132.486 50.6719C132.727 50.5327 132.997 50.4276 133.295 50.3565C133.594 50.2855 133.898 50.2315 134.207 50.1946C134.599 50.1491 134.918 50.1122 135.162 50.0838C135.406 50.0526 135.584 50.0028 135.695 49.9347C135.805 49.8665 135.861 49.7557 135.861 49.6023V49.5724C135.861 49.2003 135.756 48.9119 135.545 48.7074C135.338 48.5028 135.028 48.4006 134.616 48.4006C134.187 48.4006 133.849 48.4957 133.602 48.6861C133.358 48.8736 133.189 49.0824 133.095 49.3125L131.898 49.0398C132.04 48.642 132.247 48.321 132.52 48.0767C132.795 47.8295 133.112 47.6506 133.47 47.5398C133.828 47.4261 134.205 47.3693 134.599 47.3693C134.861 47.3693 135.138 47.4006 135.43 47.4631C135.726 47.5227 136.001 47.6335 136.257 47.7955C136.516 47.9574 136.727 48.1889 136.892 48.4901C137.057 48.7884 137.139 49.1761 137.139 49.6534V54H135.895V53.1051H135.844C135.761 53.2699 135.638 53.4318 135.473 53.5909C135.308 53.75 135.097 53.8821 134.838 53.9872C134.58 54.0923 134.27 54.1449 133.909 54.1449ZM134.186 53.1222C134.538 53.1222 134.839 53.0526 135.089 52.9134C135.342 52.7741 135.534 52.5923 135.665 52.3679C135.798 52.1406 135.865 51.8977 135.865 51.6392V50.7955C135.82 50.8409 135.732 50.8835 135.601 50.9233C135.473 50.9602 135.327 50.9929 135.162 51.0213C134.997 51.0469 134.837 51.071 134.68 51.0938C134.524 51.1136 134.393 51.1307 134.288 51.1449C134.041 51.1761 133.815 51.2287 133.611 51.3026C133.409 51.3764 133.247 51.483 133.125 51.6222C133.006 51.7585 132.946 51.9403 132.946 52.1676C132.946 52.483 133.062 52.7216 133.295 52.8835C133.528 53.0426 133.825 53.1222 134.186 53.1222ZM140.11 45.2727V54H138.836V45.2727H140.11Z" fill="#676F7E"/>
</svg>
