<svg width="186" height="71" viewBox="0 0 186 71" fill="none" xmlns="http://www.w3.org/2000/svg">
<rect x="1" y="1" width="184" height="69" rx="11" fill="white"/>
<rect x="1" y="1" width="184" height="69" rx="11" stroke="#E5E7EB" stroke-width="2"/>
<path d="M85.5 32.3333H100.5" stroke="#676F7E" stroke-width="1.66667" stroke-linecap="round" stroke-linejoin="round"/>
<path d="M88 29V23.1667" stroke="#676F7E" stroke-width="1.66667" stroke-linecap="round" stroke-linejoin="round"/>
<path d="M91.333 29V23.1667" stroke="#676F7E" stroke-width="1.66667" stroke-linecap="round" stroke-linejoin="round"/>
<path d="M94.667 29V23.1667" stroke="#676F7E" stroke-width="1.66667" stroke-linecap="round" stroke-linejoin="round"/>
<path d="M98 29V23.1667" stroke="#676F7E" stroke-width="1.66667" stroke-linecap="round" stroke-linejoin="round"/>
<path d="M92.9997 15.6667L99.6663 19.8334H86.333L92.9997 15.6667Z" stroke="#676F7E" stroke-width="1.66667" stroke-linecap="round" stroke-linejoin="round"/>
<path d="M59.9268 54V45.2727H65.3984V46.4062H61.2435V49.0653H65.1129V50.1946H61.2435V52.8665H65.4495V54H59.9268ZM67.055 54V47.4545H68.278V48.5199H68.3589C68.4953 48.1591 68.7183 47.8778 69.028 47.6761C69.3376 47.4716 69.7084 47.3693 70.1402 47.3693C70.5777 47.3693 70.9442 47.4716 71.2396 47.6761C71.5379 47.8807 71.7581 48.1619 71.9001 48.5199H71.9683C72.1246 48.1705 72.3732 47.892 72.7141 47.6847C73.055 47.4744 73.4612 47.3693 73.9328 47.3693C74.5266 47.3693 75.0109 47.5554 75.3859 47.9276C75.7638 48.2997 75.9527 48.8608 75.9527 49.6108V54H74.6786V49.7301C74.6786 49.2869 74.5578 48.9659 74.3163 48.767C74.0749 48.5682 73.7865 48.4688 73.4513 48.4688C73.0365 48.4688 72.7141 48.5966 72.4839 48.8523C72.2538 49.1051 72.1388 49.4304 72.1388 49.8281V54H70.8689V49.6491C70.8689 49.294 70.7581 49.0085 70.5365 48.7926C70.3149 48.5767 70.0266 48.4688 69.6714 48.4688C69.43 48.4688 69.207 48.5327 69.0024 48.6605C68.8007 48.7855 68.6374 48.9602 68.5124 49.1847C68.3902 49.4091 68.3291 49.669 68.3291 49.9645V54H67.055ZM77.6604 56.4545V47.4545H78.9048V48.5156H79.0113C79.0852 48.3793 79.1917 48.2216 79.3309 48.0426C79.4701 47.8636 79.6633 47.7074 79.9104 47.5739C80.1576 47.4375 80.4843 47.3693 80.8906 47.3693C81.419 47.3693 81.8906 47.5028 82.3053 47.7699C82.7201 48.0369 83.0454 48.4219 83.2812 48.9247C83.5198 49.4276 83.6391 50.0327 83.6391 50.7401C83.6391 51.4474 83.5212 52.054 83.2854 52.5597C83.0496 53.0625 82.7258 53.4503 82.3138 53.723C81.9019 53.9929 81.4317 54.1278 80.9033 54.1278C80.5056 54.1278 80.1803 54.0611 79.9275 53.9276C79.6775 53.794 79.4815 53.6378 79.3394 53.4588C79.1974 53.2798 79.088 53.1207 79.0113 52.9815H78.9346V56.4545H77.6604ZM78.909 50.7273C78.909 51.1875 78.9758 51.5909 79.1093 51.9375C79.2428 52.2841 79.436 52.5554 79.6888 52.7514C79.9417 52.9446 80.2513 53.0412 80.6178 53.0412C80.9985 53.0412 81.3167 52.9403 81.5724 52.7386C81.8281 52.5341 82.0212 52.2571 82.1519 51.9077C82.2854 51.5582 82.3522 51.1648 82.3522 50.7273C82.3522 50.2955 82.2869 49.9077 82.1562 49.5639C82.0283 49.2202 81.8352 48.9489 81.5766 48.75C81.321 48.5511 81.0013 48.4517 80.6178 48.4517C80.2485 48.4517 79.936 48.5469 79.6803 48.7372C79.4275 48.9276 79.2357 49.1932 79.105 49.5341C78.9744 49.875 78.909 50.2727 78.909 50.7273ZM85.0667 54V47.4545H86.2982V48.4943H86.3664C86.4857 48.142 86.696 47.8651 86.9971 47.6634C87.3011 47.4588 87.6448 47.3565 88.0283 47.3565C88.1079 47.3565 88.2016 47.3594 88.3096 47.3651C88.4204 47.3707 88.507 47.3778 88.5695 47.3864V48.6051C88.5184 48.5909 88.4275 48.5753 88.2968 48.5582C88.1661 48.5384 88.0354 48.5284 87.9048 48.5284C87.6036 48.5284 87.3352 48.5923 87.0994 48.7202C86.8664 48.8452 86.6817 49.0199 86.5454 49.2443C86.409 49.4659 86.3408 49.7187 86.3408 50.0028V54H85.0667ZM92.2588 54.1321C91.6139 54.1321 91.0585 53.9943 90.5926 53.7188C90.1295 53.4403 89.7716 53.0497 89.5187 52.5469C89.2687 52.0412 89.1437 51.4489 89.1437 50.7699C89.1437 50.0994 89.2687 49.5085 89.5187 48.9972C89.7716 48.4858 90.1239 48.0866 90.5756 47.7997C91.0301 47.5128 91.5614 47.3693 92.1693 47.3693C92.5386 47.3693 92.8966 47.4304 93.2432 47.5526C93.5898 47.6747 93.9009 47.8665 94.1764 48.1278C94.452 48.3892 94.6693 48.7287 94.8284 49.1463C94.9875 49.5611 95.067 50.0653 95.067 50.6591V51.1108H89.8639V50.1562H93.8185C93.8185 49.821 93.7503 49.5241 93.6139 49.2656C93.4776 49.0043 93.2858 48.7983 93.0386 48.6477C92.7943 48.4972 92.5074 48.4219 92.1778 48.4219C91.8199 48.4219 91.5074 48.5099 91.2403 48.6861C90.9761 48.8594 90.7716 49.0866 90.6267 49.3679C90.4847 49.6463 90.4136 49.9489 90.4136 50.2756V51.0213C90.4136 51.4588 90.4903 51.831 90.6437 52.1378C90.8 52.4446 91.0173 52.679 91.2957 52.8409C91.5741 53 91.8994 53.0795 92.2716 53.0795C92.5131 53.0795 92.7332 53.0455 92.9321 52.9773C93.131 52.9062 93.3028 52.8011 93.4477 52.6619C93.5926 52.5227 93.7034 52.3509 93.7801 52.1463L94.9861 52.3636C94.8895 52.7187 94.7162 53.0298 94.4662 53.2969C94.219 53.5611 93.908 53.767 93.533 53.9148C93.1608 54.0597 92.7361 54.1321 92.2588 54.1321ZM91.594 46.581L92.5912 44.6165H93.9335L92.6125 46.581H91.594ZM101.386 49.0526L100.231 49.2571C100.182 49.1094 100.106 48.9687 100.001 48.8352C99.8984 48.7017 99.7592 48.5923 99.583 48.5071C99.4069 48.4219 99.1867 48.3793 98.9225 48.3793C98.5617 48.3793 98.2606 48.4602 98.0191 48.6222C97.7776 48.7812 97.6569 48.9872 97.6569 49.2401C97.6569 49.4588 97.7379 49.6349 97.8998 49.7685C98.0617 49.902 98.3231 50.0114 98.6839 50.0966L99.7237 50.3352C100.326 50.4744 100.775 50.6889 101.07 50.9787C101.366 51.2685 101.513 51.6449 101.513 52.108C101.513 52.5 101.4 52.8494 101.173 53.1562C100.948 53.4602 100.634 53.6989 100.231 53.8722C99.8302 54.0455 99.3657 54.1321 98.8373 54.1321C98.1043 54.1321 97.5063 53.9759 97.0433 53.6634C96.5802 53.348 96.2961 52.9006 96.191 52.321L97.4225 52.1335C97.4992 52.4545 97.6569 52.6974 97.8955 52.8622C98.1342 53.0241 98.4452 53.1051 98.8288 53.1051C99.2464 53.1051 99.5802 53.0185 99.8302 52.8452C100.08 52.669 100.205 52.4545 100.205 52.2017C100.205 51.9972 100.128 51.8253 99.9751 51.6861C99.8245 51.5469 99.593 51.4418 99.2805 51.3707L98.1725 51.1278C97.5617 50.9886 97.11 50.767 96.8174 50.4631C96.5276 50.1591 96.3827 49.7741 96.3827 49.3082C96.3827 48.9219 96.4907 48.5838 96.7066 48.294C96.9225 48.0043 97.2208 47.7784 97.6015 47.6165C97.9822 47.4517 98.4183 47.3693 98.9097 47.3693C99.6171 47.3693 100.174 47.5227 100.58 47.8295C100.986 48.1335 101.255 48.5412 101.386 49.0526ZM105.97 47.4545V48.4773H102.394V47.4545H105.97ZM103.353 45.8864H104.627V52.0781C104.627 52.3253 104.664 52.5114 104.738 52.6364C104.812 52.7585 104.907 52.8423 105.024 52.8878C105.143 52.9304 105.272 52.9517 105.412 52.9517C105.514 52.9517 105.603 52.9446 105.68 52.9304C105.757 52.9162 105.816 52.9048 105.859 52.8963L106.089 53.9489C106.015 53.9773 105.91 54.0057 105.774 54.0341C105.637 54.0653 105.467 54.0824 105.262 54.0852C104.927 54.0909 104.615 54.0312 104.325 53.9062C104.035 53.7812 103.801 53.5881 103.622 53.3267C103.443 53.0653 103.353 52.7372 103.353 52.3423V45.8864ZM107.379 54V47.4545H108.653V54H107.379ZM108.023 46.4446C107.801 46.4446 107.611 46.3707 107.452 46.223C107.295 46.0724 107.217 45.8935 107.217 45.6861C107.217 45.4759 107.295 45.2969 107.452 45.1491C107.611 44.9986 107.801 44.9233 108.023 44.9233C108.244 44.9233 108.433 44.9986 108.589 45.1491C108.749 45.2969 108.828 45.4759 108.828 45.6861C108.828 45.8935 108.749 46.0724 108.589 46.223C108.433 46.3707 108.244 46.4446 108.023 46.4446ZM110.367 54V47.4545H111.59V48.5199H111.671C111.808 48.1591 112.031 47.8778 112.34 47.6761C112.65 47.4716 113.021 47.3693 113.453 47.3693C113.89 47.3693 114.257 47.4716 114.552 47.6761C114.85 47.8807 115.071 48.1619 115.213 48.5199H115.281C115.437 48.1705 115.686 47.892 116.027 47.6847C116.367 47.4744 116.774 47.3693 117.245 47.3693C117.839 47.3693 118.323 47.5554 118.698 47.9276C119.076 48.2997 119.265 48.8608 119.265 49.6108V54H117.991V49.7301C117.991 49.2869 117.87 48.9659 117.629 48.767C117.387 48.5682 117.099 48.4688 116.764 48.4688C116.349 48.4688 116.027 48.5966 115.796 48.8523C115.566 49.1051 115.451 49.4304 115.451 49.8281V54H114.181V49.6491C114.181 49.294 114.071 49.0085 113.849 48.7926C113.627 48.5767 113.339 48.4688 112.984 48.4688C112.742 48.4688 112.519 48.5327 112.315 48.6605C112.113 48.7855 111.95 48.9602 111.825 49.1847C111.703 49.4091 111.642 49.669 111.642 49.9645V54H110.367ZM123.73 54.1321C123.116 54.1321 122.581 53.9915 122.124 53.7102C121.666 53.429 121.311 53.0355 121.058 52.5298C120.805 52.0241 120.679 51.4332 120.679 50.7571C120.679 50.0781 120.805 49.4844 121.058 48.9759C121.311 48.4673 121.666 48.0724 122.124 47.7912C122.581 47.5099 123.116 47.3693 123.73 47.3693C124.344 47.3693 124.879 47.5099 125.337 47.7912C125.794 48.0724 126.149 48.4673 126.402 48.9759C126.655 49.4844 126.781 50.0781 126.781 50.7571C126.781 51.4332 126.655 52.0241 126.402 52.5298C126.149 53.0355 125.794 53.429 125.337 53.7102C124.879 53.9915 124.344 54.1321 123.73 54.1321ZM123.734 53.0625C124.132 53.0625 124.462 52.9574 124.723 52.7472C124.984 52.5369 125.177 52.2571 125.302 51.9077C125.43 51.5582 125.494 51.1733 125.494 50.7528C125.494 50.3352 125.43 49.9517 125.302 49.6023C125.177 49.25 124.984 48.9673 124.723 48.7543C124.462 48.5412 124.132 48.4347 123.734 48.4347C123.334 48.4347 123.001 48.5412 122.737 48.7543C122.476 48.9673 122.281 49.25 122.153 49.6023C122.028 49.9517 121.966 50.3352 121.966 50.7528C121.966 51.1733 122.028 51.5582 122.153 51.9077C122.281 52.2571 122.476 52.5369 122.737 52.7472C123.001 52.9574 123.334 53.0625 123.734 53.0625Z" fill="#676F7E"/>
</svg>
