<svg width="243" height="96" viewBox="0 0 243 96" fill="none" xmlns="http://www.w3.org/2000/svg">
<rect width="243" height="96" rx="48" fill="#59BDA3"/>
<path d="M78.5333 27H73.8927V13.9091H78.5716C79.8884 13.9091 81.0219 14.1712 81.9722 14.6953C82.9225 15.2152 83.6533 15.9631 84.1647 16.9389C84.6803 17.9148 84.9381 19.0824 84.9381 20.4418C84.9381 21.8054 84.6803 22.9773 84.1647 23.9574C83.6533 24.9375 82.9182 25.6896 81.9594 26.2138C81.0049 26.7379 79.8628 27 78.5333 27ZM76.6604 24.6286H78.4182C79.2364 24.6286 79.9246 24.4837 80.4829 24.1939C81.0454 23.8999 81.4672 23.446 81.7485 22.8324C82.034 22.2145 82.1768 21.4176 82.1768 20.4418C82.1768 19.4744 82.034 18.6839 81.7485 18.0703C81.4672 17.4567 81.0475 17.005 80.4893 16.7152C79.931 16.4254 79.2428 16.2805 78.4246 16.2805H76.6604V24.6286ZM91.4117 27.1918C90.4017 27.1918 89.5324 26.9872 88.8037 26.5781C88.0793 26.1648 87.521 25.581 87.129 24.8267C86.7369 24.0682 86.5409 23.1712 86.5409 22.1357C86.5409 21.1257 86.7369 20.2393 87.129 19.4766C87.521 18.7138 88.0729 18.1193 88.7845 17.6932C89.5004 17.267 90.3399 17.054 91.303 17.054C91.9507 17.054 92.5537 17.1584 93.1119 17.3672C93.6744 17.5717 94.1645 17.8807 94.5821 18.294C95.004 18.7074 95.3321 19.2273 95.5665 19.8537C95.8009 20.4759 95.9181 21.2045 95.9181 22.0398V22.7876H87.6276V21.1001H93.3548C93.3548 20.7081 93.2696 20.3608 93.0992 20.0582C92.9287 19.7557 92.6922 19.5192 92.3896 19.3487C92.0914 19.174 91.7441 19.0866 91.3477 19.0866C90.9344 19.0866 90.5679 19.1825 90.2483 19.3743C89.933 19.5618 89.6858 19.8153 89.5068 20.1349C89.3279 20.4503 89.2362 20.8018 89.232 21.1896V22.794C89.232 23.2798 89.3215 23.6996 89.5004 24.0533C89.6837 24.407 89.9415 24.6797 90.2739 24.8714C90.6063 25.0632 91.0004 25.1591 91.4564 25.1591C91.759 25.1591 92.036 25.1165 92.2874 25.0312C92.5388 24.946 92.754 24.8182 92.933 24.6477C93.1119 24.4773 93.2483 24.2685 93.3421 24.0213L95.8605 24.1875C95.7327 24.7926 95.4706 25.321 95.0743 25.7727C94.6823 26.2202 94.1752 26.5696 93.553 26.821C92.9351 27.0682 92.2213 27.1918 91.4117 27.1918ZM105.864 19.9815L103.371 20.1349C103.329 19.9219 103.237 19.7301 103.096 19.5597C102.956 19.3849 102.77 19.2464 102.54 19.1442C102.314 19.0376 102.044 18.9844 101.728 18.9844C101.307 18.9844 100.951 19.0739 100.661 19.2528C100.371 19.4276 100.226 19.6619 100.226 19.956C100.226 20.1903 100.32 20.3885 100.508 20.5504C100.695 20.7124 101.017 20.8423 101.473 20.9403L103.25 21.2983C104.204 21.4943 104.916 21.8097 105.385 22.2443C105.853 22.679 106.088 23.25 106.088 23.9574C106.088 24.6009 105.898 25.1655 105.519 25.6513C105.144 26.1371 104.628 26.5163 103.972 26.7891C103.32 27.0575 102.568 27.1918 101.716 27.1918C100.416 27.1918 99.3804 26.9212 98.6091 26.38C97.8421 25.8345 97.3925 25.093 97.2604 24.1555L99.9387 24.0149C100.02 24.4112 100.216 24.7138 100.527 24.9226C100.838 25.1271 101.236 25.2294 101.722 25.2294C102.199 25.2294 102.583 25.1378 102.873 24.9545C103.167 24.767 103.316 24.5263 103.32 24.2322C103.316 23.9851 103.211 23.7827 103.007 23.625C102.802 23.4631 102.487 23.3395 102.061 23.2543L100.361 22.9155C99.4017 22.7237 98.6879 22.3913 98.2192 21.9183C97.7547 21.4453 97.5225 20.8423 97.5225 20.1094C97.5225 19.4787 97.6929 18.9354 98.0338 18.4794C98.379 18.0234 98.8627 17.6719 99.4848 17.4247C100.111 17.1776 100.844 17.054 101.684 17.054C102.924 17.054 103.9 17.3161 104.611 17.8402C105.327 18.3643 105.745 19.0781 105.864 19.9815ZM112.239 27.1918C111.233 27.1918 110.368 26.9787 109.643 26.5526C108.923 26.1222 108.369 25.5256 107.981 24.7628C107.598 24 107.406 23.1222 107.406 22.1293C107.406 21.1236 107.6 20.2415 107.988 19.483C108.38 18.7202 108.936 18.1257 109.656 17.6996C110.376 17.2692 111.233 17.054 112.226 17.054C113.082 17.054 113.832 17.2095 114.476 17.5206C115.119 17.8317 115.628 18.2685 116.003 18.831C116.378 19.3935 116.585 20.054 116.623 20.8125H114.054C113.981 20.3224 113.79 19.9283 113.479 19.63C113.172 19.3274 112.769 19.1761 112.271 19.1761C111.849 19.1761 111.48 19.2912 111.165 19.5213C110.854 19.7472 110.611 20.0774 110.436 20.5121C110.261 20.9467 110.174 21.473 110.174 22.0909C110.174 22.7173 110.259 23.25 110.43 23.6889C110.604 24.1278 110.849 24.4624 111.165 24.6925C111.48 24.9226 111.849 25.0376 112.271 25.0376C112.582 25.0376 112.861 24.9737 113.108 24.8459C113.359 24.718 113.566 24.5327 113.728 24.2898C113.894 24.0426 114.003 23.7464 114.054 23.4013H116.623C116.581 24.1513 116.376 24.8118 116.01 25.3828C115.648 25.9496 115.147 26.3928 114.508 26.7124C113.869 27.032 113.112 27.1918 112.239 27.1918ZM111.599 26.9489H112.852L112.75 27.505C113.189 27.5732 113.547 27.7372 113.824 27.9972C114.105 28.2571 114.248 28.6108 114.252 29.0582C114.256 29.6932 113.962 30.1982 113.37 30.5732C112.778 30.9524 111.947 31.142 110.877 31.142L110.851 29.9276C111.388 29.9276 111.808 29.8615 112.111 29.7294C112.418 29.6016 112.577 29.4013 112.59 29.1286C112.599 28.8686 112.498 28.6705 112.29 28.5341C112.081 28.3977 111.755 28.3018 111.312 28.2464L111.599 26.9489ZM121.167 27.1854C120.54 27.1854 119.982 27.0767 119.492 26.8594C119.002 26.6378 118.614 26.3118 118.329 25.8814C118.047 25.4467 117.907 24.9055 117.907 24.2578C117.907 23.7124 118.007 23.2543 118.207 22.8835C118.407 22.5128 118.68 22.2145 119.025 21.9886C119.37 21.7628 119.763 21.5923 120.201 21.4773C120.645 21.3622 121.109 21.2812 121.595 21.2344C122.166 21.1747 122.626 21.1193 122.976 21.0682C123.325 21.0128 123.579 20.9318 123.736 20.8253C123.894 20.7187 123.973 20.5611 123.973 20.3523V20.3139C123.973 19.9091 123.845 19.5959 123.589 19.3743C123.338 19.1527 122.98 19.0419 122.515 19.0419C122.025 19.0419 121.635 19.1506 121.346 19.3679C121.056 19.581 120.864 19.8494 120.77 20.1733L118.252 19.9688C118.38 19.3722 118.631 18.8565 119.006 18.4219C119.381 17.983 119.865 17.6463 120.457 17.4119C121.054 17.1733 121.744 17.054 122.528 17.054C123.074 17.054 123.596 17.1179 124.094 17.2457C124.597 17.3736 125.042 17.5717 125.43 17.8402C125.822 18.1087 126.131 18.4538 126.357 18.8757C126.583 19.2933 126.696 19.794 126.696 20.3778V27H124.113V25.6385H124.037C123.879 25.9453 123.668 26.2159 123.404 26.4503C123.14 26.6804 122.822 26.8615 122.451 26.9936C122.081 27.1214 121.652 27.1854 121.167 27.1854ZM121.946 25.3061C122.347 25.3061 122.701 25.2273 123.008 25.0696C123.314 24.9077 123.555 24.6903 123.73 24.4176C123.905 24.1449 123.992 23.8359 123.992 23.4908V22.4489C123.907 22.5043 123.79 22.5554 123.64 22.6023C123.495 22.6449 123.331 22.6854 123.148 22.7237C122.965 22.7578 122.782 22.7898 122.598 22.8196C122.415 22.8452 122.249 22.8686 122.1 22.8899C121.78 22.9368 121.501 23.0114 121.263 23.1136C121.024 23.2159 120.839 23.3544 120.706 23.5291C120.574 23.6996 120.508 23.9126 120.508 24.1683C120.508 24.5391 120.642 24.8224 120.911 25.0185C121.184 25.2102 121.529 25.3061 121.946 25.3061ZM132.974 30.6818V17.1818H135.659V18.831H135.78C135.9 18.5668 136.072 18.2983 136.298 18.0256C136.528 17.7486 136.827 17.5185 137.193 17.3352C137.564 17.1477 138.024 17.054 138.574 17.054C139.29 17.054 139.95 17.2415 140.555 17.6165C141.16 17.9872 141.644 18.5476 142.006 19.2976C142.369 20.0433 142.55 20.9787 142.55 22.1037C142.55 23.1989 142.373 24.1236 142.019 24.8778C141.67 25.6278 141.192 26.1967 140.587 26.5845C139.986 26.968 139.313 27.1598 138.567 27.1598C138.039 27.1598 137.589 27.0724 137.219 26.8977C136.852 26.723 136.552 26.5036 136.317 26.2393C136.083 25.9709 135.904 25.7003 135.78 25.4276H135.697V30.6818H132.974ZM135.64 22.0909C135.64 22.6747 135.721 23.1839 135.883 23.6186C136.045 24.0533 136.279 24.392 136.586 24.6349C136.893 24.8736 137.266 24.9929 137.704 24.9929C138.148 24.9929 138.523 24.8714 138.829 24.6286C139.136 24.3814 139.369 24.0405 139.526 23.6058C139.688 23.1669 139.769 22.6619 139.769 22.0909C139.769 21.5241 139.69 21.0256 139.533 20.5952C139.375 20.1648 139.143 19.8281 138.836 19.5852C138.529 19.3423 138.152 19.2209 137.704 19.2209C137.261 19.2209 136.886 19.3381 136.579 19.5724C136.277 19.8068 136.045 20.1392 135.883 20.5696C135.721 21 135.64 21.5071 135.64 22.0909ZM147.165 27.1854C146.538 27.1854 145.98 27.0767 145.49 26.8594C145 26.6378 144.612 26.3118 144.327 25.8814C144.045 25.4467 143.905 24.9055 143.905 24.2578C143.905 23.7124 144.005 23.2543 144.205 22.8835C144.405 22.5128 144.678 22.2145 145.023 21.9886C145.369 21.7628 145.761 21.5923 146.199 21.4773C146.643 21.3622 147.107 21.2812 147.593 21.2344C148.164 21.1747 148.624 21.1193 148.974 21.0682C149.323 21.0128 149.577 20.9318 149.734 20.8253C149.892 20.7187 149.971 20.5611 149.971 20.3523V20.3139C149.971 19.9091 149.843 19.5959 149.587 19.3743C149.336 19.1527 148.978 19.0419 148.513 19.0419C148.023 19.0419 147.633 19.1506 147.344 19.3679C147.054 19.581 146.862 19.8494 146.768 20.1733L144.25 19.9688C144.378 19.3722 144.629 18.8565 145.004 18.4219C145.379 17.983 145.863 17.6463 146.455 17.4119C147.052 17.1733 147.742 17.054 148.526 17.054C149.072 17.054 149.594 17.1179 150.092 17.2457C150.595 17.3736 151.04 17.5717 151.428 17.8402C151.82 18.1087 152.129 18.4538 152.355 18.8757C152.581 19.2933 152.694 19.794 152.694 20.3778V27H150.111V25.6385H150.035C149.877 25.9453 149.666 26.2159 149.402 26.4503C149.138 26.6804 148.82 26.8615 148.449 26.9936C148.079 27.1214 147.65 27.1854 147.165 27.1854ZM147.945 25.3061C148.345 25.3061 148.699 25.2273 149.006 25.0696C149.312 24.9077 149.553 24.6903 149.728 24.4176C149.903 24.1449 149.99 23.8359 149.99 23.4908V22.4489C149.905 22.5043 149.788 22.5554 149.638 22.6023C149.494 22.6449 149.329 22.6854 149.146 22.7237C148.963 22.7578 148.78 22.7898 148.597 22.8196C148.413 22.8452 148.247 22.8686 148.098 22.8899C147.778 22.9368 147.499 23.0114 147.261 23.1136C147.022 23.2159 146.837 23.3544 146.704 23.5291C146.572 23.6996 146.506 23.9126 146.506 24.1683C146.506 24.5391 146.641 24.8224 146.909 25.0185C147.182 25.2102 147.527 25.3061 147.945 25.3061ZM154.806 27V17.1818H157.446V18.8949H157.549C157.728 18.2855 158.028 17.8253 158.45 17.5142C158.872 17.1989 159.358 17.0412 159.907 17.0412C160.044 17.0412 160.191 17.0497 160.348 17.0668C160.506 17.0838 160.644 17.1072 160.764 17.1371V19.5533C160.636 19.5149 160.459 19.4808 160.233 19.451C160.007 19.4212 159.801 19.4062 159.613 19.4062C159.213 19.4062 158.855 19.4936 158.539 19.6683C158.228 19.8388 157.981 20.0774 157.798 20.3842C157.619 20.6911 157.529 21.0447 157.529 21.4453V27H154.806ZM164.69 27.1854C164.064 27.1854 163.505 27.0767 163.015 26.8594C162.525 26.6378 162.138 26.3118 161.852 25.8814C161.571 25.4467 161.43 24.9055 161.43 24.2578C161.43 23.7124 161.53 23.2543 161.731 22.8835C161.931 22.5128 162.204 22.2145 162.549 21.9886C162.894 21.7628 163.286 21.5923 163.725 21.4773C164.168 21.3622 164.633 21.2812 165.118 21.2344C165.689 21.1747 166.15 21.1193 166.499 21.0682C166.848 21.0128 167.102 20.9318 167.26 20.8253C167.417 20.7187 167.496 20.5611 167.496 20.3523V20.3139C167.496 19.9091 167.368 19.5959 167.113 19.3743C166.861 19.1527 166.503 19.0419 166.039 19.0419C165.549 19.0419 165.159 19.1506 164.869 19.3679C164.579 19.581 164.388 19.8494 164.294 20.1733L161.775 19.9688C161.903 19.3722 162.155 18.8565 162.53 18.4219C162.905 17.983 163.388 17.6463 163.981 17.4119C164.577 17.1733 165.267 17.054 166.052 17.054C166.597 17.054 167.119 17.1179 167.618 17.2457C168.12 17.3736 168.566 17.5717 168.954 17.8402C169.346 18.1087 169.655 18.4538 169.88 18.8757C170.106 19.2933 170.219 19.794 170.219 20.3778V27H167.637V25.6385H167.56C167.402 25.9453 167.191 26.2159 166.927 26.4503C166.663 26.6804 166.346 26.8615 165.975 26.9936C165.604 27.1214 165.176 27.1854 164.69 27.1854ZM165.47 25.3061C165.87 25.3061 166.224 25.2273 166.531 25.0696C166.838 24.9077 167.079 24.6903 167.253 24.4176C167.428 24.1449 167.515 23.8359 167.515 23.4908V22.4489C167.43 22.5043 167.313 22.5554 167.164 22.6023C167.019 22.6449 166.855 22.6854 166.672 22.7237C166.488 22.7578 166.305 22.7898 166.122 22.8196C165.939 22.8452 165.772 22.8686 165.623 22.8899C165.304 22.9368 165.025 23.0114 164.786 23.1136C164.547 23.2159 164.362 23.3544 164.23 23.5291C164.098 23.6996 164.032 23.9126 164.032 24.1683C164.032 24.5391 164.166 24.8224 164.434 25.0185C164.707 25.2102 165.052 25.3061 165.47 25.3061ZM83.1795 47.9815L80.6866 48.1349C80.644 47.9219 80.5524 47.7301 80.4118 47.5597C80.2711 47.3849 80.0858 47.2464 79.8556 47.1442C79.6298 47.0376 79.3592 46.9844 79.0439 46.9844C78.622 46.9844 78.2662 47.0739 77.9764 47.2528C77.6866 47.4276 77.5417 47.6619 77.5417 47.956C77.5417 48.1903 77.6355 48.3885 77.823 48.5504C78.0105 48.7124 78.3322 48.8423 78.7882 48.9403L80.5652 49.2983C81.5197 49.4943 82.2314 49.8097 82.7001 50.2443C83.1689 50.679 83.4032 51.25 83.4032 51.9574C83.4032 52.6009 83.2136 53.1655 82.8343 53.6513C82.4593 54.1371 81.9437 54.5163 81.2875 54.7891C80.6355 55.0575 79.8833 55.1918 79.0311 55.1918C77.7314 55.1918 76.6958 54.9212 75.9245 54.38C75.1575 53.8345 74.7079 53.093 74.5758 52.1555L77.2541 52.0149C77.335 52.4112 77.5311 52.7138 77.8422 52.9226C78.1532 53.1271 78.5517 53.2294 79.0375 53.2294C79.5147 53.2294 79.8983 53.1378 80.188 52.9545C80.4821 52.767 80.6312 52.5263 80.6355 52.2322C80.6312 51.9851 80.5268 51.7827 80.3223 51.625C80.1177 51.4631 79.8024 51.3395 79.3762 51.2543L77.676 50.9155C76.7172 50.7237 76.0034 50.3913 75.5346 49.9183C75.0701 49.4453 74.8379 48.8423 74.8379 48.1094C74.8379 47.4787 75.0083 46.9354 75.3493 46.4794C75.6944 46.0234 76.1781 45.6719 76.8002 45.4247C77.4267 45.1776 78.1596 45.054 78.9991 45.054C80.2392 45.054 81.215 45.3161 81.9267 45.8402C82.6426 46.3643 83.0602 47.0781 83.1795 47.9815ZM87.9176 55.1854C87.2912 55.1854 86.733 55.0767 86.2429 54.8594C85.7528 54.6378 85.3651 54.3118 85.0795 53.8814C84.7983 53.4467 84.6577 52.9055 84.6577 52.2578C84.6577 51.7124 84.7578 51.2543 84.9581 50.8835C85.1584 50.5128 85.4311 50.2145 85.7763 49.9886C86.1214 49.7628 86.5135 49.5923 86.9524 49.4773C87.3956 49.3622 87.8601 49.2812 88.3459 49.2344C88.9169 49.1747 89.3771 49.1193 89.7266 49.0682C90.076 49.0128 90.3295 48.9318 90.4872 48.8253C90.6449 48.7187 90.7237 48.5611 90.7237 48.3523V48.3139C90.7237 47.9091 90.5959 47.5959 90.3402 47.3743C90.0888 47.1527 89.7308 47.0419 89.2663 47.0419C88.7763 47.0419 88.3864 47.1506 88.0966 47.3679C87.8068 47.581 87.6151 47.8494 87.5213 48.1733L85.0028 47.9688C85.1307 47.3722 85.3821 46.8565 85.7571 46.4219C86.1321 45.983 86.6158 45.6463 87.2081 45.4119C87.8047 45.1733 88.495 45.054 89.2791 45.054C89.8246 45.054 90.3466 45.1179 90.8452 45.2457C91.348 45.3736 91.7933 45.5717 92.1811 45.8402C92.5732 46.1087 92.8821 46.4538 93.108 46.8757C93.3338 47.2933 93.4467 47.794 93.4467 48.3778V55H90.8643V53.6385H90.7876C90.63 53.9453 90.419 54.2159 90.1548 54.4503C89.8906 54.6804 89.5732 54.8615 89.2024 54.9936C88.8317 55.1214 88.4034 55.1854 87.9176 55.1854ZM88.6974 53.3061C89.098 53.3061 89.4517 53.2273 89.7585 53.0696C90.0653 52.9077 90.3061 52.6903 90.4808 52.4176C90.6555 52.1449 90.7429 51.8359 90.7429 51.4908V50.4489C90.6577 50.5043 90.5405 50.5554 90.3913 50.6023C90.2464 50.6449 90.0824 50.6854 89.8991 50.7237C89.7159 50.7578 89.5327 50.7898 89.3494 50.8196C89.1662 50.8452 89 50.8686 88.8509 50.8899C88.5313 50.9368 88.2521 51.0114 88.0135 51.1136C87.7749 51.2159 87.5895 51.3544 87.4574 51.5291C87.3253 51.6996 87.2592 51.9126 87.2592 52.1683C87.2592 52.5391 87.3935 52.8224 87.6619 53.0185C87.9347 53.2102 88.2798 53.3061 88.6974 53.3061ZM95.6104 55V41.9091H98.3335V46.831H98.4165C98.5359 46.5668 98.7085 46.2983 98.9343 46.0256C99.1644 45.7486 99.4627 45.5185 99.8292 45.3352C100.2 45.1477 100.66 45.054 101.21 45.054C101.926 45.054 102.586 45.2415 103.191 45.6165C103.797 45.9872 104.28 46.5476 104.642 47.2976C105.005 48.0433 105.186 48.9787 105.186 50.1037C105.186 51.1989 105.009 52.1236 104.655 52.8778C104.306 53.6278 103.828 54.1967 103.223 54.5845C102.623 54.968 101.949 55.1598 101.203 55.1598C100.675 55.1598 100.225 55.0724 99.8548 54.8977C99.4883 54.723 99.1879 54.5036 98.9535 54.2393C98.7191 53.9709 98.5401 53.7003 98.4165 53.4276H98.2951V55H95.6104ZM98.2759 50.0909C98.2759 50.6747 98.3569 51.1839 98.5188 51.6186C98.6808 52.0533 98.9151 52.392 99.2219 52.6349C99.5288 52.8736 99.9016 52.9929 100.341 52.9929C100.784 52.9929 101.159 52.8714 101.466 52.6286C101.772 52.3814 102.005 52.0405 102.162 51.6058C102.324 51.1669 102.405 50.6619 102.405 50.0909C102.405 49.5241 102.326 49.0256 102.169 48.5952C102.011 48.1648 101.779 47.8281 101.472 47.5852C101.165 47.3423 100.788 47.2209 100.341 47.2209C99.8974 47.2209 99.5224 47.3381 99.2156 47.5724C98.913 47.8068 98.6808 48.1392 98.5188 48.5696C98.3569 49 98.2759 49.5071 98.2759 50.0909ZM111.477 55.1918C110.467 55.1918 109.598 54.9872 108.869 54.5781C108.145 54.1648 107.586 53.581 107.194 52.8267C106.802 52.0682 106.606 51.1712 106.606 50.1357C106.606 49.1257 106.802 48.2393 107.194 47.4766C107.586 46.7138 108.138 46.1193 108.85 45.6932C109.566 45.267 110.405 45.054 111.368 45.054C112.016 45.054 112.619 45.1584 113.177 45.3672C113.74 45.5717 114.23 45.8807 114.648 46.294C115.069 46.7074 115.398 47.2273 115.632 47.8537C115.866 48.4759 115.983 49.2045 115.983 50.0398V50.7876H107.693V49.1001H113.42C113.42 48.7081 113.335 48.3608 113.165 48.0582C112.994 47.7557 112.758 47.5192 112.455 47.3487C112.157 47.174 111.809 47.0866 111.413 47.0866C111 47.0866 110.633 47.1825 110.314 47.3743C109.998 47.5618 109.751 47.8153 109.572 48.1349C109.393 48.4503 109.302 48.8018 109.297 49.1896V50.794C109.297 51.2798 109.387 51.6996 109.566 52.0533C109.749 52.407 110.007 52.6797 110.339 52.8714C110.672 53.0632 111.066 53.1591 111.522 53.1591C111.824 53.1591 112.101 53.1165 112.353 53.0312C112.604 52.946 112.819 52.8182 112.998 52.6477C113.177 52.4773 113.314 52.2685 113.407 52.0213L115.926 52.1875C115.798 52.7926 115.536 53.321 115.14 53.7727C114.748 54.2202 114.241 54.5696 113.618 54.821C113.001 55.0682 112.287 55.1918 111.477 55.1918ZM117.76 55V45.1818H120.4V46.8949H120.503C120.682 46.2855 120.982 45.8253 121.404 45.5142C121.826 45.1989 122.312 45.0412 122.861 45.0412C122.998 45.0412 123.145 45.0497 123.302 45.0668C123.46 45.0838 123.599 45.1072 123.718 45.1371V47.5533C123.59 47.5149 123.413 47.4808 123.187 47.451C122.961 47.4212 122.755 47.4062 122.567 47.4062C122.167 47.4062 121.809 47.4936 121.493 47.6683C121.182 47.8388 120.935 48.0774 120.752 48.3842C120.573 48.6911 120.483 49.0447 120.483 49.4453V55H117.76ZM129.292 55V45.1818H131.887V46.9141H132.002C132.206 46.3388 132.547 45.8849 133.025 45.5526C133.502 45.2202 134.073 45.054 134.738 45.054C135.411 45.054 135.984 45.2223 136.457 45.5589C136.93 45.8913 137.246 46.343 137.403 46.9141H137.506C137.706 46.3516 138.068 45.902 138.592 45.5653C139.121 45.2244 139.745 45.054 140.465 45.054C141.381 45.054 142.125 45.3459 142.696 45.9297C143.271 46.5092 143.559 47.3317 143.559 48.397V55H140.842V48.9339C140.842 48.3885 140.697 47.9794 140.407 47.7067C140.118 47.4339 139.756 47.2976 139.321 47.2976C138.827 47.2976 138.441 47.4553 138.164 47.7706C137.887 48.0817 137.748 48.4929 137.748 49.0043V55H135.108V48.8764C135.108 48.3949 134.97 48.0114 134.693 47.7259C134.42 47.4403 134.06 47.2976 133.613 47.2976C133.31 47.2976 133.037 47.3743 132.795 47.5277C132.556 47.6768 132.366 47.8878 132.226 48.1605C132.085 48.429 132.015 48.7443 132.015 49.1065V55H129.292ZM148.509 55.1854C147.883 55.1854 147.325 55.0767 146.835 54.8594C146.345 54.6378 145.957 54.3118 145.671 53.8814C145.39 53.4467 145.249 52.9055 145.249 52.2578C145.249 51.7124 145.35 51.2543 145.55 50.8835C145.75 50.5128 146.023 50.2145 146.368 49.9886C146.713 49.7628 147.105 49.5923 147.544 49.4773C147.987 49.3622 148.452 49.2812 148.938 49.2344C149.509 49.1747 149.969 49.1193 150.318 49.0682C150.668 49.0128 150.921 48.9318 151.079 48.8253C151.237 48.7187 151.316 48.5611 151.316 48.3523V48.3139C151.316 47.9091 151.188 47.5959 150.932 47.3743C150.681 47.1527 150.323 47.0419 149.858 47.0419C149.368 47.0419 148.978 47.1506 148.688 47.3679C148.399 47.581 148.207 47.8494 148.113 48.1733L145.595 47.9688C145.722 47.3722 145.974 46.8565 146.349 46.4219C146.724 45.983 147.208 45.6463 147.8 45.4119C148.396 45.1733 149.087 45.054 149.871 45.054C150.416 45.054 150.938 45.1179 151.437 45.2457C151.94 45.3736 152.385 45.5717 152.773 45.8402C153.165 46.1087 153.474 46.4538 153.7 46.8757C153.926 47.2933 154.039 47.794 154.039 48.3778V55H151.456V53.6385H151.379C151.222 53.9453 151.011 54.2159 150.747 54.4503C150.482 54.6804 150.165 54.8615 149.794 54.9936C149.423 55.1214 148.995 55.1854 148.509 55.1854ZM149.289 53.3061C149.69 53.3061 150.044 53.2273 150.35 53.0696C150.657 52.9077 150.898 52.6903 151.073 52.4176C151.247 52.1449 151.335 51.8359 151.335 51.4908V50.4489C151.249 50.5043 151.132 50.5554 150.983 50.6023C150.838 50.6449 150.674 50.6854 150.491 50.7237C150.308 50.7578 150.124 50.7898 149.941 50.8196C149.758 50.8452 149.592 50.8686 149.443 50.8899C149.123 50.9368 148.844 51.0114 148.605 51.1136C148.367 51.2159 148.181 51.3544 148.049 51.5291C147.917 51.6996 147.851 51.9126 147.851 52.1683C147.851 52.5391 147.985 52.8224 148.254 53.0185C148.526 53.2102 148.872 53.3061 149.289 53.3061ZM156.151 55V45.1818H158.874V55H156.151ZM157.519 43.9162C157.114 43.9162 156.767 43.782 156.477 43.5135C156.192 43.2408 156.049 42.9148 156.049 42.5355C156.049 42.1605 156.192 41.8388 156.477 41.5703C156.767 41.2976 157.114 41.1612 157.519 41.1612C157.924 41.1612 158.269 41.2976 158.555 41.5703C158.844 41.8388 158.989 42.1605 158.989 42.5355C158.989 42.9148 158.844 43.2408 158.555 43.5135C158.269 43.782 157.924 43.9162 157.519 43.9162ZM169.224 47.9815L166.732 48.1349C166.689 47.9219 166.597 47.7301 166.457 47.5597C166.316 47.3849 166.131 47.2464 165.901 47.1442C165.675 47.0376 165.404 46.9844 165.089 46.9844C164.667 46.9844 164.311 47.0739 164.021 47.2528C163.732 47.4276 163.587 47.6619 163.587 47.956C163.587 48.1903 163.68 48.3885 163.868 48.5504C164.055 48.7124 164.377 48.8423 164.833 48.9403L166.61 49.2983C167.565 49.4943 168.276 49.8097 168.745 50.2443C169.214 50.679 169.448 51.25 169.448 51.9574C169.448 52.6009 169.259 53.1655 168.879 53.6513C168.504 54.1371 167.989 54.5163 167.332 54.7891C166.68 55.0575 165.928 55.1918 165.076 55.1918C163.776 55.1918 162.741 54.9212 161.969 54.38C161.202 53.8345 160.753 53.093 160.621 52.1555L163.299 52.0149C163.38 52.4112 163.576 52.7138 163.887 52.9226C164.198 53.1271 164.597 53.2294 165.082 53.2294C165.56 53.2294 165.943 53.1378 166.233 52.9545C166.527 52.767 166.676 52.5263 166.68 52.2322C166.676 51.9851 166.572 51.7827 166.367 51.625C166.163 51.4631 165.847 51.3395 165.421 51.2543L163.721 50.9155C162.762 50.7237 162.048 50.3913 161.58 49.9183C161.115 49.4453 160.883 48.8423 160.883 48.1094C160.883 47.4787 161.053 46.9354 161.394 46.4794C161.739 46.0234 162.223 45.6719 162.845 45.4247C163.472 45.1776 164.205 45.054 165.044 45.054C166.284 45.054 167.26 45.3161 167.972 45.8402C168.688 46.3643 169.105 47.0781 169.224 47.9815Z" fill="white"/>
<path d="M122 66.5517L122.073 87.521" stroke="white" stroke-width="1.33333" stroke-linecap="round" stroke-linejoin="round"/>
<path d="M132.521 76.9998L122.073 87.5209L111.552 77.0729" stroke="white" stroke-width="1.33333" stroke-linecap="round" stroke-linejoin="round"/>
</svg>
