<svg width="245" height="56" viewBox="0 0 245 56" fill="none" xmlns="http://www.w3.org/2000/svg">
<rect width="244.94" height="56" rx="28" fill="#FAE007"/>
<path d="M47.7847 21.9091V35H45.0169V21.9091H47.7847ZM52.7337 29.3239V35H50.0107V25.1818H52.6059V26.9141H52.7209C52.9383 26.343 53.3026 25.8913 53.814 25.5589C54.3254 25.2223 54.9454 25.054 55.6741 25.054C56.3559 25.054 56.9504 25.2031 57.4575 25.5014C57.9646 25.7997 58.3587 26.2259 58.64 26.7798C58.9212 27.3295 59.0619 27.9858 59.0619 28.7486V35H56.3388V29.2344C56.3431 28.6335 56.1897 28.1648 55.8786 27.8281C55.5675 27.4872 55.1393 27.3168 54.5938 27.3168C54.2273 27.3168 53.9035 27.3956 53.6222 27.5533C53.3452 27.7109 53.1279 27.9411 52.9702 28.2436C52.8168 28.5419 52.738 28.902 52.7337 29.3239ZM61.208 35V25.1818H63.931V35H61.208ZM62.5759 23.9162C62.1711 23.9162 61.8238 23.782 61.534 23.5135C61.2485 23.2408 61.1057 22.9148 61.1057 22.5355C61.1057 22.1605 61.2485 21.8388 61.534 21.5703C61.8238 21.2976 62.1711 21.1612 62.5759 21.1612C62.9807 21.1612 63.3259 21.2976 63.6114 21.5703C63.9012 21.8388 64.0461 22.1605 64.0461 22.5355C64.0461 22.9148 63.9012 23.2408 63.6114 23.5135C63.3259 23.782 62.9807 23.9162 62.5759 23.9162ZM70.5484 35.1918C69.5427 35.1918 68.6776 34.9787 67.9532 34.5526C67.233 34.1222 66.679 33.5256 66.2913 32.7628C65.9077 32 65.716 31.1222 65.716 30.1293C65.716 29.1236 65.9099 28.2415 66.2977 27.483C66.6897 26.7202 67.2458 26.1257 67.966 25.6996C68.6861 25.2692 69.5427 25.054 70.5356 25.054C71.3921 25.054 72.1421 25.2095 72.7856 25.5206C73.429 25.8317 73.9383 26.2685 74.3133 26.831C74.6883 27.3935 74.895 28.054 74.9333 28.8125H72.3637C72.2913 28.3224 72.0995 27.9283 71.7884 27.63C71.4816 27.3274 71.0789 27.1761 70.5803 27.1761C70.1584 27.1761 69.7898 27.2912 69.4745 27.5213C69.1634 27.7472 68.9205 28.0774 68.7458 28.5121C68.5711 28.9467 68.4837 29.473 68.4837 30.0909C68.4837 30.7173 68.569 31.25 68.7394 31.6889C68.9141 32.1278 69.1592 32.4624 69.4745 32.6925C69.7898 32.9226 70.1584 33.0376 70.5803 33.0376C70.8914 33.0376 71.1705 32.9737 71.4177 32.8459C71.6691 32.718 71.8758 32.5327 72.0377 32.2898C72.2039 32.0426 72.3126 31.7464 72.3637 31.4013H74.9333C74.8907 32.1513 74.6861 32.8118 74.3197 33.3828C73.9575 33.9496 73.4567 34.3928 72.8175 34.7124C72.1783 35.032 71.4219 35.1918 70.5484 35.1918ZM76.6767 35V25.1818H79.3997V35H76.6767ZM78.0446 23.9162C77.6398 23.9162 77.2925 23.782 77.0027 23.5135C76.7172 23.2408 76.5745 22.9148 76.5745 22.5355C76.5745 22.1605 76.7172 21.8388 77.0027 21.5703C77.2925 21.2976 77.6398 21.1612 78.0446 21.1612C78.4495 21.1612 78.7946 21.2976 79.0801 21.5703C79.3699 21.8388 79.5148 22.1605 79.5148 22.5355C79.5148 22.9148 79.3699 23.2408 79.0801 23.5135C78.7946 23.782 78.4495 23.9162 78.0446 23.9162ZM84.3807 35.1854C83.7543 35.1854 83.1961 35.0767 82.706 34.8594C82.216 34.6378 81.8282 34.3118 81.5427 33.8814C81.2614 33.4467 81.1208 32.9055 81.1208 32.2578C81.1208 31.7124 81.2209 31.2543 81.4212 30.8835C81.6215 30.5128 81.8942 30.2145 82.2394 29.9886C82.5846 29.7628 82.9766 29.5923 83.4155 29.4773C83.8587 29.3622 84.3232 29.2812 84.809 29.2344C85.38 29.1747 85.8403 29.1193 86.1897 29.0682C86.5391 29.0128 86.7927 28.9318 86.9504 28.8253C87.108 28.7187 87.1869 28.5611 87.1869 28.3523V28.3139C87.1869 27.9091 87.059 27.5959 86.8033 27.3743C86.5519 27.1527 86.194 27.0419 85.7295 27.0419C85.2394 27.0419 84.8495 27.1506 84.5597 27.3679C84.27 27.581 84.0782 27.8494 83.9844 28.1733L81.466 27.9688C81.5938 27.3722 81.8452 26.8565 82.2202 26.4219C82.5952 25.983 83.0789 25.6463 83.6712 25.4119C84.2678 25.1733 84.9582 25.054 85.7423 25.054C86.2877 25.054 86.8097 25.1179 87.3083 25.2457C87.8111 25.3736 88.2565 25.5717 88.6442 25.8402C89.0363 26.1087 89.3452 26.4538 89.5711 26.8757C89.7969 27.2933 89.9099 27.794 89.9099 28.3778V35H87.3275V33.6385H87.2508C87.0931 33.9453 86.8822 34.2159 86.618 34.4503C86.3538 34.6804 86.0363 34.8615 85.6655 34.9936C85.2948 35.1214 84.8665 35.1854 84.3807 35.1854ZM85.1606 33.3061C85.5611 33.3061 85.9148 33.2273 86.2217 33.0696C86.5285 32.9077 86.7692 32.6903 86.944 32.4176C87.1187 32.1449 87.206 31.8359 87.206 31.4908V30.4489C87.1208 30.5043 87.0036 30.5554 86.8545 30.6023C86.7096 30.6449 86.5455 30.6854 86.3623 30.7237C86.179 30.7578 85.9958 30.7898 85.8126 30.8196C85.6293 30.8452 85.4631 30.8686 85.314 30.8899C84.9944 30.9368 84.7153 31.0114 84.4766 31.1136C84.238 31.2159 84.0526 31.3544 83.9205 31.5291C83.7884 31.6996 83.7224 31.9126 83.7224 32.1683C83.7224 32.5391 83.8566 32.8224 84.1251 33.0185C84.3978 33.2102 84.743 33.3061 85.1606 33.3061ZM92.0224 35V25.1818H94.6624V26.8949H94.7646C94.9436 26.2855 95.244 25.8253 95.6659 25.5142C96.0878 25.1989 96.5736 25.0412 97.1233 25.0412C97.2597 25.0412 97.4067 25.0497 97.5643 25.0668C97.722 25.0838 97.8605 25.1072 97.9798 25.1371V27.5533C97.852 27.5149 97.6751 27.4808 97.4493 27.451C97.2234 27.4212 97.0168 27.4062 96.8293 27.4062C96.4287 27.4062 96.0707 27.4936 95.7554 27.6683C95.4443 27.8388 95.1972 28.0774 95.0139 28.3842C94.8349 28.6911 94.7455 29.0447 94.7455 29.4453V35H92.0224ZM108.546 30.4489H110.898L112.081 31.9702L113.244 33.3253L115.437 36.0739H112.854L111.346 34.2202L110.572 33.1207L108.546 30.4489ZM115.635 28.4545C115.635 29.8821 115.364 31.0966 114.823 32.098C114.286 33.0994 113.553 33.8643 112.624 34.3928C111.699 34.9169 110.66 35.179 109.505 35.179C108.341 35.179 107.297 34.9148 106.373 34.3864C105.448 33.858 104.717 33.093 104.18 32.0916C103.643 31.0902 103.375 29.8778 103.375 28.4545C103.375 27.027 103.643 25.8125 104.18 24.8111C104.717 23.8097 105.448 23.0469 106.373 22.5227C107.297 21.9943 108.341 21.7301 109.505 21.7301C110.66 21.7301 111.699 21.9943 112.624 22.5227C113.553 23.0469 114.286 23.8097 114.823 24.8111C115.364 25.8125 115.635 27.027 115.635 28.4545ZM112.829 28.4545C112.829 27.5298 112.69 26.75 112.413 26.1151C112.14 25.4801 111.755 24.9986 111.256 24.6705C110.758 24.3423 110.174 24.1783 109.505 24.1783C108.836 24.1783 108.252 24.3423 107.753 24.6705C107.255 24.9986 106.867 25.4801 106.59 26.1151C106.317 26.75 106.181 27.5298 106.181 28.4545C106.181 29.3793 106.317 30.1591 106.59 30.794C106.867 31.429 107.255 31.9105 107.753 32.2386C108.252 32.5668 108.836 32.7308 109.505 32.7308C110.174 32.7308 110.758 32.5668 111.256 32.2386C111.755 31.9105 112.14 31.429 112.413 30.794C112.69 30.1591 112.829 29.3793 112.829 28.4545ZM123.93 30.8196V25.1818H126.653V35H124.039V33.2166H123.936C123.715 33.7919 123.346 34.2543 122.831 34.6037C122.319 34.9531 121.695 35.1278 120.958 35.1278C120.301 35.1278 119.724 34.9787 119.225 34.6804C118.727 34.3821 118.337 33.9581 118.056 33.4084C117.779 32.8587 117.638 32.2003 117.634 31.4332V25.1818H120.357V30.9474C120.361 31.527 120.517 31.9851 120.823 32.3217C121.13 32.6584 121.541 32.8267 122.057 32.8267C122.385 32.8267 122.692 32.7521 122.978 32.603C123.263 32.4496 123.493 32.2237 123.668 31.9254C123.847 31.6271 123.934 31.2585 123.93 30.8196ZM128.831 35V25.1818H131.554V35H128.831ZM130.199 23.9162C129.794 23.9162 129.447 23.782 129.157 23.5135C128.872 23.2408 128.729 22.9148 128.729 22.5355C128.729 22.1605 128.872 21.8388 129.157 21.5703C129.447 21.2976 129.794 21.1612 130.199 21.1612C130.604 21.1612 130.949 21.2976 131.234 21.5703C131.524 21.8388 131.669 22.1605 131.669 22.5355C131.669 22.9148 131.524 23.2408 131.234 23.5135C130.949 23.782 130.604 23.9162 130.199 23.9162ZM133.684 35V33.3764L138.491 27.4254V27.3551H133.85V25.1818H141.77V26.9524L137.257 32.7564V32.8267H141.936V35H133.684ZM150.492 35H147.526L152.045 21.9091H155.612L160.125 35H157.159L153.88 24.9006H153.778L150.492 35ZM150.307 29.8544H157.312V32.0149H150.307V29.8544ZM165.616 38.8864C164.734 38.8864 163.977 38.7649 163.346 38.522C162.72 38.2834 162.221 37.9574 161.851 37.544C161.48 37.1307 161.239 36.6662 161.128 36.1506L163.647 35.8118C163.724 36.0078 163.845 36.1911 164.011 36.3615C164.177 36.532 164.397 36.6683 164.67 36.7706C164.947 36.8771 165.283 36.9304 165.68 36.9304C166.272 36.9304 166.76 36.7855 167.143 36.4957C167.531 36.2102 167.725 35.7308 167.725 35.0575V33.2614H167.61C167.491 33.5341 167.312 33.7919 167.073 34.0348C166.834 34.2777 166.528 34.4759 166.153 34.6293C165.778 34.7827 165.33 34.8594 164.81 34.8594C164.073 34.8594 163.402 34.6889 162.797 34.348C162.196 34.0028 161.717 33.4766 161.359 32.7692C161.005 32.0575 160.828 31.1584 160.828 30.0717C160.828 28.9595 161.009 28.0305 161.371 27.2848C161.734 26.5391 162.215 25.9808 162.816 25.6101C163.421 25.2393 164.084 25.054 164.804 25.054C165.354 25.054 165.814 25.1477 166.185 25.3352C166.555 25.5185 166.854 25.7486 167.079 26.0256C167.31 26.2983 167.486 26.5668 167.61 26.831H167.712V25.1818H170.416V35.0959C170.416 35.9311 170.212 36.63 169.802 37.1925C169.393 37.755 168.827 38.1768 168.102 38.4581C167.382 38.7436 166.553 38.8864 165.616 38.8864ZM165.673 32.8139C166.112 32.8139 166.483 32.7053 166.785 32.4879C167.092 32.2663 167.327 31.951 167.489 31.5419C167.655 31.1286 167.738 30.6342 167.738 30.0589C167.738 29.4837 167.657 28.9851 167.495 28.5632C167.333 28.1371 167.099 27.8068 166.792 27.5724C166.485 27.3381 166.112 27.2209 165.673 27.2209C165.226 27.2209 164.849 27.3423 164.542 27.5852C164.235 27.8239 164.003 28.1562 163.845 28.5824C163.687 29.0085 163.609 29.5007 163.609 30.0589C163.609 30.6257 163.687 31.1158 163.845 31.5291C164.007 31.9382 164.239 32.2557 164.542 32.4815C164.849 32.7031 165.226 32.8139 165.673 32.8139ZM177.019 35.1918C176.026 35.1918 175.168 34.9808 174.443 34.5589C173.723 34.1328 173.167 33.5405 172.775 32.782C172.383 32.0192 172.187 31.1349 172.187 30.1293C172.187 29.1151 172.383 28.2287 172.775 27.4702C173.167 26.7074 173.723 26.1151 174.443 25.6932C175.168 25.267 176.026 25.054 177.019 25.054C178.012 25.054 178.868 25.267 179.589 25.6932C180.313 26.1151 180.871 26.7074 181.263 27.4702C181.655 28.2287 181.851 29.1151 181.851 30.1293C181.851 31.1349 181.655 32.0192 181.263 32.782C180.871 33.5405 180.313 34.1328 179.589 34.5589C178.868 34.9808 178.012 35.1918 177.019 35.1918ZM177.032 33.0824C177.484 33.0824 177.861 32.9545 178.163 32.6989C178.466 32.4389 178.694 32.0852 178.847 31.6378C179.005 31.1903 179.084 30.6811 179.084 30.1101C179.084 29.5391 179.005 29.0298 178.847 28.5824C178.694 28.1349 178.466 27.7812 178.163 27.5213C177.861 27.2614 177.484 27.1314 177.032 27.1314C176.576 27.1314 176.192 27.2614 175.881 27.5213C175.574 27.7812 175.342 28.1349 175.185 28.5824C175.031 29.0298 174.954 29.5391 174.954 30.1101C174.954 30.6811 175.031 31.1903 175.185 31.6378C175.342 32.0852 175.574 32.4389 175.881 32.6989C176.192 32.9545 176.576 33.0824 177.032 33.0824ZM183.622 35V25.1818H186.262V26.8949H186.364C186.543 26.2855 186.844 25.8253 187.266 25.5142C187.687 25.1989 188.173 25.0412 188.723 25.0412C188.859 25.0412 189.006 25.0497 189.164 25.0668C189.322 25.0838 189.46 25.1072 189.579 25.1371V27.5533C189.452 27.5149 189.275 27.4808 189.049 27.451C188.823 27.4212 188.616 27.4062 188.429 27.4062C188.028 27.4062 187.67 27.4936 187.355 27.6683C187.044 27.8388 186.797 28.0774 186.614 28.3842C186.435 28.6911 186.345 29.0447 186.345 29.4453V35H183.622ZM193.506 35.1854C192.879 35.1854 192.321 35.0767 191.831 34.8594C191.341 34.6378 190.953 34.3118 190.668 33.8814C190.386 33.4467 190.246 32.9055 190.246 32.2578C190.246 31.7124 190.346 31.2543 190.546 30.8835C190.747 30.5128 191.019 30.2145 191.364 29.9886C191.71 29.7628 192.102 29.5923 192.541 29.4773C192.984 29.3622 193.448 29.2812 193.934 29.2344C194.505 29.1747 194.965 29.1193 195.315 29.0682C195.664 29.0128 195.918 28.9318 196.075 28.8253C196.233 28.7187 196.312 28.5611 196.312 28.3523V28.3139C196.312 27.9091 196.184 27.5959 195.928 27.3743C195.677 27.1527 195.319 27.0419 194.854 27.0419C194.364 27.0419 193.974 27.1506 193.685 27.3679C193.395 27.581 193.203 27.8494 193.109 28.1733L190.591 27.9688C190.719 27.3722 190.97 26.8565 191.345 26.4219C191.72 25.983 192.204 25.6463 192.796 25.4119C193.393 25.1733 194.083 25.054 194.867 25.054C195.413 25.054 195.935 25.1179 196.433 25.2457C196.936 25.3736 197.381 25.5717 197.769 25.8402C198.161 26.1087 198.47 26.4538 198.696 26.8757C198.922 27.2933 199.035 27.794 199.035 28.3778V35H196.452V33.6385H196.376C196.218 33.9453 196.007 34.2159 195.743 34.4503C195.479 34.6804 195.161 34.8615 194.791 34.9936C194.42 35.1214 193.992 35.1854 193.506 35.1854ZM194.286 33.3061C194.686 33.3061 195.04 33.2273 195.347 33.0696C195.653 32.9077 195.894 32.6903 196.069 32.4176C196.244 32.1449 196.331 31.8359 196.331 31.4908V30.4489C196.246 30.5043 196.129 30.5554 195.979 30.6023C195.835 30.6449 195.671 30.6854 195.487 30.7237C195.304 30.7578 195.121 30.7898 194.938 30.8196C194.754 30.8452 194.588 30.8686 194.439 30.8899C194.119 30.9368 193.84 31.0114 193.602 31.1136C193.363 31.2159 193.178 31.3544 193.046 31.5291C192.913 31.6996 192.847 31.9126 192.847 32.1683C192.847 32.5391 192.982 32.8224 193.25 33.0185C193.523 33.2102 193.868 33.3061 194.286 33.3061Z" fill="#171A26"/>
</svg>
