<svg width="603" height="84" viewBox="0 0 603 84" fill="none" xmlns="http://www.w3.org/2000/svg">
<g opacity="0.4">
<rect x="12" y="2" width="579" height="60" rx="16" fill="#7355EC"/>
<g filter="url(#filter0_dd_567_829)">
<rect x="12" y="2" width="579" height="60" rx="16" fill="white" fill-opacity="0.01" shape-rendering="crispEdges"/>
</g>
<path d="M226.51 38V24.9091H231.419C232.425 24.9091 233.269 25.0966 233.951 25.4716C234.637 25.8466 235.154 26.3622 235.504 27.0185C235.858 27.6705 236.034 28.4119 236.034 29.2429C236.034 30.0824 235.858 30.8281 235.504 31.4801C235.15 32.1321 234.628 32.6456 233.938 33.0206C233.248 33.3913 232.397 33.5767 231.387 33.5767H228.134V31.6271H231.068C231.656 31.6271 232.137 31.5249 232.512 31.3203C232.887 31.1158 233.164 30.8345 233.343 30.4766C233.527 30.1186 233.618 29.7074 233.618 29.2429C233.618 28.7784 233.527 28.3693 233.343 28.0156C233.164 27.6619 232.885 27.3871 232.506 27.1911C232.131 26.9908 231.647 26.8906 231.055 26.8906H228.882V38H226.51ZM237.992 38V28.1818H240.236V29.8182H240.338C240.517 29.2514 240.824 28.8146 241.258 28.5078C241.697 28.1967 242.198 28.0412 242.76 28.0412C242.888 28.0412 243.031 28.0476 243.189 28.0604C243.351 28.0689 243.485 28.0838 243.591 28.1051V30.2337C243.493 30.1996 243.338 30.1697 243.125 30.1442C242.916 30.1143 242.714 30.0994 242.518 30.0994C242.096 30.0994 241.716 30.1911 241.38 30.3743C241.047 30.5533 240.785 30.8026 240.594 31.1222C240.402 31.4418 240.306 31.8104 240.306 32.228V38H237.992ZM249.007 38.1918C248.048 38.1918 247.217 37.9808 246.514 37.5589C245.811 37.1371 245.266 36.5469 244.878 35.7884C244.494 35.0298 244.303 34.1435 244.303 33.1293C244.303 32.1151 244.494 31.2266 244.878 30.4638C245.266 29.701 245.811 29.1087 246.514 28.6868C247.217 28.2649 248.048 28.054 249.007 28.054C249.966 28.054 250.797 28.2649 251.5 28.6868C252.203 29.1087 252.746 29.701 253.13 30.4638C253.518 31.2266 253.712 32.1151 253.712 33.1293C253.712 34.1435 253.518 35.0298 253.13 35.7884C252.746 36.5469 252.203 37.1371 251.5 37.5589C250.797 37.9808 249.966 38.1918 249.007 38.1918ZM249.02 36.3381C249.54 36.3381 249.974 36.1953 250.324 35.9098C250.673 35.62 250.933 35.2322 251.104 34.7464C251.278 34.2607 251.366 33.7195 251.366 33.1229C251.366 32.522 251.278 31.9787 251.104 31.4929C250.933 31.0028 250.673 30.6129 250.324 30.3232C249.974 30.0334 249.54 29.8885 249.02 29.8885C248.487 29.8885 248.044 30.0334 247.69 30.3232C247.341 30.6129 247.079 31.0028 246.904 31.4929C246.734 31.9787 246.648 32.522 246.648 33.1229C246.648 33.7195 246.734 34.2607 246.904 34.7464C247.079 35.2322 247.341 35.62 247.69 35.9098C248.044 36.1953 248.487 36.3381 249.02 36.3381ZM248.119 26.8906L249.55 23.9695H251.813L249.851 26.8906H248.119ZM257.199 28.1818L259.18 31.8061L261.194 28.1818H263.642L260.682 33.0909L263.693 38H261.257L259.18 34.4652L257.122 38H254.667L257.659 33.0909L254.744 28.1818H257.199ZM265.431 38V28.1818H267.745V38H265.431ZM266.595 26.7884C266.228 26.7884 265.913 26.6669 265.649 26.424C265.385 26.1768 265.252 25.8807 265.252 25.5355C265.252 25.1861 265.385 24.8899 265.649 24.647C265.913 24.3999 266.228 24.2763 266.595 24.2763C266.966 24.2763 267.281 24.3999 267.541 24.647C267.805 24.8899 267.937 25.1861 267.937 25.5355C267.937 25.8807 267.805 26.1768 267.541 26.424C267.281 26.6669 266.966 26.7884 266.595 26.7884ZM270.125 38V28.1818H272.336V29.8501H272.452C272.656 29.2876 272.995 28.8487 273.468 28.5334C273.941 28.2138 274.506 28.054 275.162 28.054C275.827 28.054 276.387 28.2159 276.843 28.5398C277.303 28.8594 277.627 29.2962 277.814 29.8501H277.917C278.134 29.3047 278.501 28.87 279.016 28.5462C279.536 28.218 280.152 28.054 280.863 28.054C281.767 28.054 282.504 28.3395 283.075 28.9105C283.646 29.4815 283.932 30.3146 283.932 31.4098V38H281.611V31.7678C281.611 31.1584 281.449 30.7131 281.126 30.4318C280.802 30.1463 280.405 30.0036 279.937 30.0036C279.378 30.0036 278.942 30.1783 278.626 30.5277C278.315 30.8729 278.16 31.3224 278.16 31.8764V38H275.89V31.6719C275.89 31.1648 275.737 30.7599 275.43 30.4574C275.128 30.1548 274.731 30.0036 274.241 30.0036C273.909 30.0036 273.606 30.0888 273.334 30.2592C273.061 30.4254 272.844 30.6619 272.682 30.9688C272.52 31.2713 272.439 31.625 272.439 32.0298V38H270.125ZM289.104 38.1982C288.482 38.1982 287.922 38.0874 287.423 37.8658C286.929 37.6399 286.537 37.3075 286.247 36.8686C285.962 36.4297 285.819 35.8885 285.819 35.245C285.819 34.6911 285.921 34.233 286.126 33.8707C286.33 33.5085 286.609 33.2188 286.963 33.0014C287.317 32.7841 287.715 32.62 288.158 32.5092C288.606 32.3942 289.068 32.3111 289.545 32.2599C290.121 32.2003 290.587 32.147 290.945 32.1001C291.303 32.049 291.563 31.9723 291.725 31.87C291.891 31.7635 291.974 31.5994 291.974 31.3778V31.3395C291.974 30.858 291.832 30.4851 291.546 30.2209C291.261 29.9567 290.849 29.8246 290.312 29.8246C289.746 29.8246 289.296 29.9482 288.964 30.1953C288.636 30.4425 288.414 30.7344 288.299 31.071L286.138 30.7642C286.309 30.1676 286.59 29.669 286.982 29.2685C287.374 28.8636 287.854 28.5611 288.42 28.3608C288.987 28.1562 289.614 28.054 290.3 28.054C290.773 28.054 291.244 28.1094 291.712 28.2202C292.181 28.331 292.609 28.5142 292.997 28.7699C293.385 29.0213 293.696 29.3643 293.93 29.799C294.169 30.2337 294.288 30.777 294.288 31.429V38H292.064V36.6513H291.987C291.847 36.924 291.648 37.1797 291.393 37.4183C291.141 37.6527 290.824 37.8423 290.44 37.9872C290.061 38.1278 289.616 38.1982 289.104 38.1982ZM289.705 36.4979C290.17 36.4979 290.572 36.4062 290.913 36.223C291.254 36.0355 291.516 35.7884 291.7 35.4815C291.887 35.1747 291.981 34.8402 291.981 34.478V33.321C291.908 33.3807 291.785 33.4361 291.61 33.4872C291.44 33.5384 291.248 33.5831 291.035 33.6214C290.822 33.6598 290.611 33.6939 290.402 33.7237C290.193 33.7536 290.012 33.7791 289.859 33.8004C289.513 33.8473 289.205 33.924 288.932 34.0305C288.659 34.1371 288.444 34.2862 288.286 34.478C288.129 34.6655 288.05 34.9084 288.05 35.2067C288.05 35.6328 288.205 35.9545 288.516 36.1719C288.827 36.3892 289.224 36.4979 289.705 36.4979ZM301.182 38V24.9091H306.091C307.097 24.9091 307.941 25.0966 308.623 25.4716C309.309 25.8466 309.826 26.3622 310.176 27.0185C310.529 27.6705 310.706 28.4119 310.706 29.2429C310.706 30.0824 310.529 30.8281 310.176 31.4801C309.822 32.1321 309.3 32.6456 308.61 33.0206C307.919 33.3913 307.069 33.5767 306.059 33.5767H302.806V31.6271H305.74C306.328 31.6271 306.809 31.5249 307.184 31.3203C307.559 31.1158 307.836 30.8345 308.015 30.4766C308.199 30.1186 308.29 29.7074 308.29 29.2429C308.29 28.7784 308.199 28.3693 308.015 28.0156C307.836 27.6619 307.557 27.3871 307.178 27.1911C306.803 26.9908 306.319 26.8906 305.727 26.8906H303.554V38H301.182ZM316.87 38.1918C315.885 38.1918 315.035 37.9872 314.319 37.5781C313.608 37.1648 313.06 36.581 312.677 35.8267C312.293 35.0682 312.101 34.1754 312.101 33.1484C312.101 32.1385 312.293 31.2521 312.677 30.4893C313.064 29.7223 313.606 29.1257 314.3 28.6996C314.995 28.2692 315.811 28.054 316.748 28.054C317.354 28.054 317.925 28.152 318.461 28.348C319.003 28.5398 319.48 28.8381 319.893 29.2429C320.311 29.6477 320.639 30.1634 320.878 30.7898C321.116 31.4119 321.236 32.1534 321.236 33.0142V33.7237H313.188V32.1641H319.018C319.013 31.7209 318.917 31.3267 318.73 30.9815C318.542 30.6321 318.28 30.3572 317.944 30.157C317.611 29.9567 317.224 29.8565 316.78 29.8565C316.307 29.8565 315.892 29.9716 315.534 30.2017C315.176 30.4276 314.897 30.7259 314.697 31.0966C314.501 31.4631 314.4 31.8658 314.396 32.3047V33.6662C314.396 34.2372 314.501 34.7273 314.709 35.1364C314.918 35.5412 315.21 35.8523 315.585 36.0696C315.96 36.2827 316.399 36.3892 316.902 36.3892C317.238 36.3892 317.543 36.3423 317.816 36.2486C318.089 36.1506 318.325 36.0078 318.525 35.8203C318.726 35.6328 318.877 35.4006 318.979 35.1236L321.14 35.3665C321.003 35.9375 320.743 36.4361 320.36 36.8622C319.981 37.2841 319.495 37.6122 318.903 37.8466C318.31 38.0767 317.633 38.1918 316.87 38.1918ZM323.193 38V28.1818H325.437V29.8182H325.539C325.718 29.2514 326.025 28.8146 326.46 28.5078C326.898 28.1967 327.399 28.0412 327.962 28.0412C328.089 28.0412 328.232 28.0476 328.39 28.0604C328.552 28.0689 328.686 28.0838 328.793 28.1051V30.2337C328.695 30.1996 328.539 30.1697 328.326 30.1442C328.117 30.1143 327.915 30.0994 327.719 30.0994C327.297 30.0994 326.918 30.1911 326.581 30.3743C326.249 30.5533 325.987 30.8026 325.795 31.1222C325.603 31.4418 325.507 31.8104 325.507 32.228V38H323.193ZM334.195 41.8864C333.365 41.8864 332.651 41.7734 332.054 41.5476C331.458 41.326 330.978 41.0277 330.616 40.6527C330.254 40.2777 330.002 39.8622 329.862 39.4062L331.945 38.9013C332.039 39.093 332.176 39.2827 332.355 39.4702C332.534 39.6619 332.774 39.8196 333.077 39.9432C333.384 40.071 333.769 40.1349 334.234 40.1349C334.89 40.1349 335.433 39.9751 335.864 39.6555C336.294 39.3402 336.509 38.8203 336.509 38.0959V36.2358H336.394C336.275 36.4744 336.1 36.7195 335.87 36.9709C335.644 37.2223 335.344 37.4332 334.969 37.6037C334.598 37.7741 334.132 37.8594 333.569 37.8594C332.815 37.8594 332.131 37.6825 331.517 37.3288C330.908 36.9709 330.422 36.4382 330.06 35.7308C329.702 35.0192 329.523 34.1286 329.523 33.0589C329.523 31.9808 329.702 31.071 330.06 30.3295C330.422 29.5838 330.91 29.0192 331.524 28.6357C332.137 28.2479 332.821 28.054 333.575 28.054C334.151 28.054 334.624 28.152 334.994 28.348C335.369 28.5398 335.668 28.772 335.889 29.0447C336.111 29.3132 336.279 29.5668 336.394 29.8054H336.522V28.1818H338.804V38.1598C338.804 38.9993 338.604 39.6939 338.203 40.2436C337.803 40.7933 337.255 41.2045 336.561 41.4773C335.866 41.75 335.078 41.8864 334.195 41.8864ZM334.215 36.044C334.705 36.044 335.122 35.9247 335.468 35.6861C335.813 35.4474 336.075 35.1044 336.254 34.657C336.433 34.2095 336.522 33.6726 336.522 33.0462C336.522 32.4283 336.433 31.8871 336.254 31.4226C336.079 30.9581 335.819 30.598 335.474 30.3423C335.133 30.0824 334.713 29.9524 334.215 29.9524C333.699 29.9524 333.269 30.0866 332.923 30.3551C332.578 30.6236 332.318 30.9922 332.144 31.4609C331.969 31.9254 331.882 32.4538 331.882 33.0462C331.882 33.647 331.969 34.1733 332.144 34.625C332.323 35.0724 332.585 35.4219 332.93 35.6733C333.279 35.9205 333.708 36.044 334.215 36.044ZM347.433 33.8707V28.1818H349.747V38H347.504V36.255H347.401C347.18 36.8047 346.816 37.2543 346.308 37.6037C345.806 37.9531 345.186 38.1278 344.448 38.1278C343.805 38.1278 343.236 37.9851 342.742 37.6996C342.252 37.4098 341.868 36.9901 341.591 36.4403C341.314 35.8864 341.176 35.2173 341.176 34.4332V28.1818H343.49V34.0753C343.49 34.6974 343.66 35.1918 344.001 35.5582C344.342 35.9247 344.789 36.108 345.343 36.108C345.684 36.108 346.014 36.0249 346.334 35.8587C346.654 35.6925 346.916 35.4453 347.12 35.1172C347.329 34.7848 347.433 34.3693 347.433 33.8707ZM354.441 32.2472V38H352.127V28.1818H354.338V29.8501H354.453C354.679 29.3004 355.039 28.8636 355.534 28.5398C356.032 28.2159 356.648 28.054 357.381 28.054C358.059 28.054 358.649 28.1989 359.152 28.4886C359.659 28.7784 360.051 29.1982 360.328 29.7479C360.609 30.2976 360.748 30.9645 360.743 31.7486V38H358.429V32.1065C358.429 31.4503 358.259 30.9368 357.918 30.5661C357.581 30.1953 357.115 30.0099 356.518 30.0099C356.113 30.0099 355.753 30.0994 355.438 30.2784C355.127 30.4531 354.882 30.7067 354.703 31.0391C354.528 31.3714 354.441 31.7741 354.441 32.2472ZM367.998 28.1818V29.9716H362.354V28.1818H367.998ZM363.748 25.8295H366.061V35.0469C366.061 35.358 366.108 35.5966 366.202 35.7628C366.3 35.9247 366.428 36.0355 366.586 36.0952C366.743 36.1548 366.918 36.1847 367.11 36.1847C367.255 36.1847 367.387 36.174 367.506 36.1527C367.63 36.1314 367.723 36.1122 367.787 36.0952L368.177 37.9041C368.054 37.9467 367.877 37.9936 367.647 38.0447C367.421 38.0959 367.144 38.1257 366.816 38.1342C366.236 38.1513 365.714 38.0639 365.25 37.8722C364.785 37.6761 364.417 37.3736 364.144 36.9645C363.875 36.5554 363.743 36.044 363.748 35.4304V25.8295ZM372.759 38.1982C372.137 38.1982 371.576 38.0874 371.078 37.8658C370.583 37.6399 370.191 37.3075 369.901 36.8686C369.616 36.4297 369.473 35.8885 369.473 35.245C369.473 34.6911 369.575 34.233 369.78 33.8707C369.985 33.5085 370.264 33.2188 370.617 33.0014C370.971 32.7841 371.369 32.62 371.813 32.5092C372.26 32.3942 372.722 32.3111 373.2 32.2599C373.775 32.2003 374.242 32.147 374.6 32.1001C374.958 32.049 375.218 31.9723 375.379 31.87C375.546 31.7635 375.629 31.5994 375.629 31.3778V31.3395C375.629 30.858 375.486 30.4851 375.2 30.2209C374.915 29.9567 374.504 29.8246 373.967 29.8246C373.4 29.8246 372.95 29.9482 372.618 30.1953C372.29 30.4425 372.068 30.7344 371.953 31.071L369.793 30.7642C369.963 30.1676 370.244 29.669 370.637 29.2685C371.029 28.8636 371.508 28.5611 372.075 28.3608C372.642 28.1562 373.268 28.054 373.954 28.054C374.427 28.054 374.898 28.1094 375.367 28.2202C375.835 28.331 376.264 28.5142 376.651 28.7699C377.039 29.0213 377.35 29.3643 377.585 29.799C377.823 30.2337 377.943 30.777 377.943 31.429V38H375.718V36.6513H375.642C375.501 36.924 375.303 37.1797 375.047 37.4183C374.796 37.6527 374.478 37.8423 374.095 37.9872C373.715 38.1278 373.27 38.1982 372.759 38.1982ZM373.36 36.4979C373.824 36.4979 374.227 36.4062 374.568 36.223C374.909 36.0355 375.171 35.7884 375.354 35.4815C375.541 35.1747 375.635 34.8402 375.635 34.478V33.321C375.563 33.3807 375.439 33.4361 375.264 33.4872C375.094 33.5384 374.902 33.5831 374.689 33.6214C374.476 33.6598 374.265 33.6939 374.056 33.7237C373.847 33.7536 373.666 33.7791 373.513 33.8004C373.168 33.8473 372.859 33.924 372.586 34.0305C372.313 34.1371 372.098 34.2862 371.941 34.478C371.783 34.6655 371.704 34.9084 371.704 35.2067C371.704 35.6328 371.86 35.9545 372.171 36.1719C372.482 36.3892 372.878 36.4979 373.36 36.4979Z" fill="white"/>
</g>
<defs>
<filter id="filter0_dd_567_829" x="0" y="0" width="603" height="84" filterUnits="userSpaceOnUse" color-interpolation-filters="sRGB">
<feFlood flood-opacity="0" result="BackgroundImageFix"/>
<feColorMatrix in="SourceAlpha" type="matrix" values="0 0 0 0 0 0 0 0 0 0 0 0 0 0 0 0 0 0 127 0" result="hardAlpha"/>
<feMorphology radius="4" operator="erode" in="SourceAlpha" result="effect1_dropShadow_567_829"/>
<feOffset dy="4"/>
<feGaussianBlur stdDeviation="3"/>
<feComposite in2="hardAlpha" operator="out"/>
<feColorMatrix type="matrix" values="0 0 0 0 0.45098 0 0 0 0 0.333333 0 0 0 0 0.92549 0 0 0 0.25 0"/>
<feBlend mode="normal" in2="BackgroundImageFix" result="effect1_dropShadow_567_829"/>
<feColorMatrix in="SourceAlpha" type="matrix" values="0 0 0 0 0 0 0 0 0 0 0 0 0 0 0 0 0 0 127 0" result="hardAlpha"/>
<feMorphology radius="3" operator="erode" in="SourceAlpha" result="effect2_dropShadow_567_829"/>
<feOffset dy="10"/>
<feGaussianBlur stdDeviation="7.5"/>
<feComposite in2="hardAlpha" operator="out"/>
<feColorMatrix type="matrix" values="0 0 0 0 0.45098 0 0 0 0 0.333333 0 0 0 0 0.92549 0 0 0 0.25 0"/>
<feBlend mode="normal" in2="effect1_dropShadow_567_829" result="effect2_dropShadow_567_829"/>
<feBlend mode="normal" in="SourceGraphic" in2="effect2_dropShadow_567_829" result="shape"/>
</filter>
</defs>
</svg>
