<svg width="32" height="32" viewBox="0 0 32 32" fill="none" xmlns="http://www.w3.org/2000/svg">
<rect x="1" y="1" width="30" height="30" rx="15" stroke="white" stroke-width="2"/>
<path d="M18.5156 24.1533C18.5755 24.1533 18.6354 24.1458 18.6953 24.1309C18.7552 24.1159 18.8151 24.0859 18.875 24.041C19.0996 23.9362 19.2531 23.7677 19.3354 23.5356C19.4178 23.3035 19.3991 23.0752 19.2793 22.8506C19.2793 22.8506 19.1969 22.641 19.0322 22.2217C18.8525 21.7874 18.6504 21.2821 18.4258 20.7056C18.2012 20.1291 17.984 19.5413 17.7744 18.9424C17.5648 18.3434 17.4225 17.8643 17.3477 17.5049C17.2878 17.2653 17.2391 16.876 17.2017 16.3369C17.1642 15.7979 17.138 15.3786 17.123 15.0791C17.123 14.9593 17.153 14.8582 17.2129 14.7759C17.2728 14.6935 17.3477 14.6374 17.4375 14.6074L21.1211 13.4619C21.3457 13.402 21.5179 13.2598 21.6377 13.0352C21.7575 12.8105 21.7874 12.5785 21.7275 12.3389C21.6676 12.0993 21.5291 11.9196 21.312 11.7998C21.0949 11.68 20.874 11.6501 20.6494 11.71C20.6494 11.71 20.4622 11.7699 20.0879 11.8896C19.7285 12.0094 19.2943 12.1405 18.7852 12.2827C18.276 12.425 17.7594 12.556 17.2354 12.6758C16.7113 12.7956 16.2995 12.8555 16 12.8555C15.7005 12.8555 15.2887 12.8031 14.7646 12.6982C14.2555 12.5785 13.7502 12.4474 13.2485 12.3052C12.7469 12.1629 12.3164 12.0319 11.957 11.9121C11.5827 11.8073 11.3955 11.7549 11.3955 11.7549C11.1709 11.68 10.95 11.695 10.7329 11.7998C10.5158 11.9046 10.3698 12.0693 10.2949 12.2939C10.2201 12.5485 10.2388 12.7918 10.3511 13.0239C10.4634 13.256 10.6468 13.402 10.9014 13.4619L14.585 14.6074C14.6748 14.6374 14.7497 14.6935 14.8096 14.7759C14.8695 14.8582 14.8919 14.9518 14.877 15.0566C14.862 15.3711 14.8395 15.7979 14.8096 16.3369C14.7796 16.876 14.7347 17.2653 14.6748 17.5049C14.5999 17.8643 14.4577 18.3434 14.248 18.9424C14.0384 19.5413 13.8213 20.1291 13.5967 20.7056C13.3721 21.2821 13.1699 21.7799 12.9902 22.1992C12.8105 22.6335 12.7207 22.8506 12.7207 22.8506C12.6159 23.0752 12.6084 23.3035 12.6982 23.5356C12.7881 23.7677 12.9378 23.9362 13.1475 24.041C13.2074 24.071 13.2673 24.0934 13.3271 24.1084C13.387 24.1234 13.4469 24.1309 13.5068 24.1309C13.6715 24.1309 13.825 24.0859 13.9673 23.9961C14.1095 23.9062 14.2181 23.779 14.293 23.6143L16.0449 19.8857L17.7295 23.6367C17.8044 23.8014 17.9129 23.9287 18.0552 24.0186C18.1974 24.1084 18.3509 24.1533 18.5156 24.1533ZM17.9092 9.77832C17.9092 10.3024 17.722 10.7516 17.3477 11.126C16.9733 11.5003 16.5241 11.6875 16 11.6875C15.4759 11.6875 15.0267 11.5003 14.6523 11.126C14.278 10.7516 14.0908 10.3024 14.0908 9.77832C14.0908 9.23926 14.278 8.78255 14.6523 8.4082C15.0267 8.03385 15.4759 7.84668 16 7.84668C16.5241 7.84668 16.9733 8.03385 17.3477 8.4082C17.722 8.78255 17.9092 9.23926 17.9092 9.77832Z" fill="white"/>
</svg>
