<svg width="37" height="37" viewBox="0 0 37 37" fill="none" xmlns="http://www.w3.org/2000/svg">
<path d="M24.4914 4.59229C26.5213 4.59229 28.468 5.39864 29.9033 6.83396C31.3386 8.26928 32.145 10.216 32.145 12.2459V24.4916C32.145 26.5214 31.3386 28.4681 29.9033 29.9034C28.468 31.3388 26.5213 32.1451 24.4914 32.1451H12.2457C10.2158 32.1451 8.26913 31.3388 6.83381 29.9034C5.39849 28.4681 4.59213 26.5214 4.59213 24.4916V12.2459C4.59213 10.216 5.39849 8.26928 6.83381 6.83396C8.26913 5.39864 10.2158 4.59229 12.2457 4.59229H24.4914ZM18.3686 12.2459C16.7447 12.2459 15.1873 12.8909 14.039 14.0392C12.8908 15.1874 12.2457 16.7448 12.2457 18.3687C12.2457 19.9926 12.8908 21.55 14.039 22.6982C15.1873 23.8465 16.7447 24.4916 18.3686 24.4916C19.9924 24.4916 21.5498 23.8465 22.6981 22.6982C23.8463 21.55 24.4914 19.9926 24.4914 18.3687C24.4914 16.7448 23.8463 15.1874 22.6981 14.0392C21.5498 12.8909 19.9924 12.2459 18.3686 12.2459ZM18.3686 15.3073C19.1805 15.3073 19.9592 15.6298 20.5333 16.2039C21.1074 16.7781 21.43 17.5568 21.43 18.3687C21.43 19.1806 21.1074 19.9593 20.5333 20.5335C19.9592 21.1076 19.1805 21.4301 18.3686 21.4301C17.5566 21.4301 16.7779 21.1076 16.2038 20.5335C15.6297 19.9593 15.3071 19.1806 15.3071 18.3687C15.3071 17.5568 15.6297 16.7781 16.2038 16.2039C16.7779 15.6298 17.5566 15.3073 18.3686 15.3073ZM25.2568 9.94978C24.8508 9.94978 24.4614 10.1111 24.1744 10.3981C23.8873 10.6852 23.726 11.0745 23.726 11.4805C23.726 11.8865 23.8873 12.2758 24.1744 12.5629C24.4614 12.8499 24.8508 13.0112 25.2568 13.0112C25.6627 13.0112 26.0521 12.8499 26.3391 12.5629C26.6262 12.2758 26.7875 11.8865 26.7875 11.4805C26.7875 11.0745 26.6262 10.6852 26.3391 10.3981C26.0521 10.1111 25.6627 9.94978 25.2568 9.94978Z" fill="#177F72"/>
</svg>
