<svg width="170" height="52" viewBox="0 0 170 52" fill="none" xmlns="http://www.w3.org/2000/svg">
<rect width="169.06" height="52" rx="26" fill="white"/>
<path d="M33.4528 32V20.3636H41.021V22.1307H35.5607V25.2898H40.6289V27.0568H35.5607V30.233H41.0664V32H33.4528ZM44.7624 23.2727L46.5238 26.4943L48.3136 23.2727H50.4897L47.859 27.6364L50.5352 32H48.3704L46.5238 28.858L44.6943 32H42.5124L45.1715 27.6364L42.5806 23.2727H44.7624ZM52.0806 35.2727V23.2727H54.1033V24.7159H54.2227C54.3287 24.5038 54.4783 24.2784 54.6715 24.0398C54.8647 23.7973 55.1261 23.5909 55.4556 23.4205C55.7852 23.2462 56.2056 23.1591 56.717 23.1591C57.3912 23.1591 57.9992 23.3314 58.5408 23.6761C59.0863 24.017 59.5181 24.5227 59.8363 25.1932C60.1583 25.8598 60.3193 26.678 60.3193 27.6477C60.3193 28.6061 60.1621 29.4205 59.8477 30.0909C59.5333 30.7614 59.1052 31.2727 58.5636 31.625C58.0219 31.9773 57.4083 32.1534 56.7227 32.1534C56.2227 32.1534 55.8079 32.0701 55.4783 31.9034C55.1488 31.7367 54.8836 31.536 54.6829 31.3011C54.4859 31.0625 54.3325 30.8371 54.2227 30.625H54.1374V35.2727H52.0806ZM54.0977 27.6364C54.0977 28.2008 54.1772 28.6951 54.3363 29.1193C54.4992 29.5436 54.7321 29.875 55.0352 30.1136C55.342 30.3485 55.7132 30.4659 56.1488 30.4659C56.6033 30.4659 56.984 30.3447 57.2908 30.1023C57.5977 29.8561 57.8287 29.5208 57.984 29.0966C58.1431 28.6686 58.2227 28.1818 58.2227 27.6364C58.2227 27.0947 58.145 26.6136 57.9897 26.1932C57.8344 25.7727 57.6033 25.4432 57.2965 25.2045C56.9897 24.9659 56.6071 24.8466 56.1488 24.8466C55.7094 24.8466 55.3363 24.9621 55.0295 25.1932C54.7227 25.4242 54.4897 25.7481 54.3306 26.1648C54.1753 26.5814 54.0977 27.072 54.0977 27.6364ZM64.1374 20.3636V32H62.0806V20.3636H64.1374ZM70.0593 32.1705C69.207 32.1705 68.4684 31.983 67.8434 31.608C67.2184 31.233 66.7335 30.7083 66.3889 30.0341C66.0479 29.3598 65.8775 28.572 65.8775 27.6705C65.8775 26.7689 66.0479 25.9792 66.3889 25.3011C66.7335 24.6231 67.2184 24.0966 67.8434 23.7216C68.4684 23.3466 69.207 23.1591 70.0593 23.1591C70.9116 23.1591 71.6502 23.3466 72.2752 23.7216C72.9002 24.0966 73.3832 24.6231 73.7241 25.3011C74.0688 25.9792 74.2411 26.7689 74.2411 27.6705C74.2411 28.572 74.0688 29.3598 73.7241 30.0341C73.3832 30.7083 72.9002 31.233 72.2752 31.608C71.6502 31.983 70.9116 32.1705 70.0593 32.1705ZM70.0707 30.5227C70.5328 30.5227 70.9192 30.3958 71.2298 30.142C71.5404 29.8845 71.7714 29.5398 71.9229 29.108C72.0782 28.6761 72.1559 28.1951 72.1559 27.6648C72.1559 27.1307 72.0782 26.6477 71.9229 26.2159C71.7714 25.7803 71.5404 25.4337 71.2298 25.1761C70.9192 24.9186 70.5328 24.7898 70.0707 24.7898C69.5972 24.7898 69.2032 24.9186 68.8889 25.1761C68.5782 25.4337 68.3453 25.7803 68.19 26.2159C68.0385 26.6477 67.9627 27.1307 67.9627 27.6648C67.9627 28.1951 68.0385 28.6761 68.19 29.108C68.3453 29.5398 68.5782 29.8845 68.8889 30.142C69.2032 30.3958 69.5972 30.5227 70.0707 30.5227ZM75.9869 32V23.2727H77.9812V24.7273H78.0721C78.2312 24.2235 78.5039 23.8352 78.8903 23.5625C79.2804 23.286 79.7255 23.1477 80.2255 23.1477C80.3391 23.1477 80.466 23.1534 80.6062 23.1648C80.7501 23.1723 80.8694 23.1856 80.9641 23.2045V25.0966C80.877 25.0663 80.7388 25.0398 80.5494 25.017C80.3638 24.9905 80.1838 24.9773 80.0096 24.9773C79.6346 24.9773 79.2975 25.0587 78.9982 25.2216C78.7028 25.3807 78.4698 25.6023 78.2994 25.8864C78.1289 26.1705 78.0437 26.4981 78.0437 26.8693V32H75.9869ZM84.6857 32.1761C84.1327 32.1761 83.6346 32.0777 83.1914 31.8807C82.752 31.6799 82.4035 31.3845 82.146 30.9943C81.8922 30.6042 81.7653 30.1231 81.7653 29.5511C81.7653 29.0587 81.8562 28.6515 82.038 28.3295C82.2198 28.0076 82.4679 27.75 82.7823 27.5568C83.0967 27.3636 83.4509 27.2178 83.8448 27.1193C84.2425 27.017 84.6535 26.9432 85.0778 26.8977C85.5891 26.8447 86.0039 26.7973 86.3221 26.7557C86.6403 26.7102 86.8713 26.642 87.0153 26.5511C87.163 26.4564 87.2369 26.3106 87.2369 26.1136V26.0795C87.2369 25.6515 87.11 25.3201 86.8562 25.0852C86.6024 24.8504 86.2369 24.733 85.7596 24.733C85.2558 24.733 84.8562 24.8428 84.5607 25.0625C84.2691 25.2822 84.0721 25.5417 83.9698 25.8409L82.0494 25.5682C82.2009 25.0379 82.4509 24.5947 82.7994 24.2386C83.1478 23.8788 83.574 23.6098 84.0778 23.4318C84.5816 23.25 85.1384 23.1591 85.7482 23.1591C86.1687 23.1591 86.5872 23.2083 87.0039 23.3068C87.4206 23.4053 87.8013 23.5682 88.146 23.7955C88.4907 24.0189 88.7672 24.3239 88.9755 24.7102C89.1876 25.0966 89.2937 25.5795 89.2937 26.1591V32H87.3164V30.8011H87.2482C87.1232 31.0436 86.9471 31.2708 86.7198 31.483C86.4963 31.6913 86.2141 31.8598 85.8732 31.9886C85.5361 32.1136 85.1403 32.1761 84.6857 32.1761ZM85.2198 30.6648C85.6327 30.6648 85.9907 30.5833 86.2937 30.4205C86.5967 30.2538 86.8297 30.0341 86.9925 29.7614C87.1592 29.4886 87.2425 29.1913 87.2425 28.8693V27.8409C87.1782 27.8939 87.0683 27.9432 86.913 27.9886C86.7615 28.0341 86.591 28.0739 86.4016 28.108C86.2122 28.142 86.0247 28.1723 85.8391 28.1989C85.6535 28.2254 85.4925 28.2481 85.3562 28.267C85.0494 28.3087 84.7747 28.3769 84.5323 28.4716C84.2899 28.5663 84.0986 28.6989 83.9585 28.8693C83.8183 29.036 83.7482 29.2519 83.7482 29.517C83.7482 29.8958 83.8865 30.1818 84.163 30.375C84.4395 30.5682 84.7918 30.6648 85.2198 30.6648ZM91.3619 32V23.2727H93.3562V24.7273H93.4471C93.6062 24.2235 93.8789 23.8352 94.2653 23.5625C94.6554 23.286 95.1005 23.1477 95.6005 23.1477C95.7141 23.1477 95.841 23.1534 95.9812 23.1648C96.1251 23.1723 96.2444 23.1856 96.3391 23.2045V25.0966C96.252 25.0663 96.1138 25.0398 95.9244 25.017C95.7388 24.9905 95.5588 24.9773 95.3846 24.9773C95.0096 24.9773 94.6725 25.0587 94.3732 25.2216C94.0778 25.3807 93.8448 25.6023 93.6744 25.8864C93.5039 26.1705 93.4187 26.4981 93.4187 26.8693V32H91.3619ZM101.674 32V23.2727H103.64V24.7557H103.743C103.924 24.2557 104.226 23.8655 104.646 23.5852C105.066 23.3011 105.568 23.1591 106.152 23.1591C106.743 23.1591 107.241 23.303 107.646 23.5909C108.055 23.875 108.343 24.2633 108.51 24.7557H108.601C108.794 24.2708 109.119 23.8845 109.578 23.5966C110.04 23.3049 110.587 23.1591 111.22 23.1591C112.023 23.1591 112.678 23.4129 113.186 23.9205C113.693 24.428 113.947 25.1686 113.947 26.142V32H111.885V26.4602C111.885 25.9186 111.741 25.5227 111.453 25.2727C111.165 25.0189 110.813 24.892 110.396 24.892C109.9 24.892 109.511 25.0473 109.231 25.358C108.955 25.6648 108.816 26.0644 108.816 26.5568V32H106.799V26.375C106.799 25.9242 106.663 25.5644 106.39 25.2955C106.121 25.0265 105.769 24.892 105.333 24.892C105.038 24.892 104.769 24.9678 104.527 25.1193C104.284 25.267 104.091 25.4773 103.947 25.75C103.803 26.0189 103.731 26.3333 103.731 26.6932V32H101.674ZM118.545 32.1761C117.992 32.1761 117.494 32.0777 117.051 31.8807C116.611 31.6799 116.263 31.3845 116.005 30.9943C115.752 30.6042 115.625 30.1231 115.625 29.5511C115.625 29.0587 115.716 28.6515 115.897 28.3295C116.079 28.0076 116.327 27.75 116.642 27.5568C116.956 27.3636 117.31 27.2178 117.704 27.1193C118.102 27.017 118.513 26.9432 118.937 26.8977C119.449 26.8447 119.863 26.7973 120.181 26.7557C120.5 26.7102 120.731 26.642 120.875 26.5511C121.022 26.4564 121.096 26.3106 121.096 26.1136V26.0795C121.096 25.6515 120.969 25.3201 120.716 25.0852C120.462 24.8504 120.096 24.733 119.619 24.733C119.115 24.733 118.716 24.8428 118.42 25.0625C118.128 25.2822 117.931 25.5417 117.829 25.8409L115.909 25.5682C116.06 25.0379 116.31 24.5947 116.659 24.2386C117.007 23.8788 117.433 23.6098 117.937 23.4318C118.441 23.25 118.998 23.1591 119.608 23.1591C120.028 23.1591 120.447 23.2083 120.863 23.3068C121.28 23.4053 121.661 23.5682 122.005 23.7955C122.35 24.0189 122.627 24.3239 122.835 24.7102C123.047 25.0966 123.153 25.5795 123.153 26.1591V32H121.176V30.8011H121.108C120.983 31.0436 120.806 31.2708 120.579 31.483C120.356 31.6913 120.074 31.8598 119.733 31.9886C119.395 32.1136 119 32.1761 118.545 32.1761ZM119.079 30.6648C119.492 30.6648 119.85 30.5833 120.153 30.4205C120.456 30.2538 120.689 30.0341 120.852 29.7614C121.019 29.4886 121.102 29.1913 121.102 28.8693V27.8409C121.038 27.8939 120.928 27.9432 120.772 27.9886C120.621 28.0341 120.45 28.0739 120.261 28.108C120.072 28.142 119.884 28.1723 119.699 28.1989C119.513 28.2254 119.352 28.2481 119.216 28.267C118.909 28.3087 118.634 28.3769 118.392 28.4716C118.149 28.5663 117.958 28.6989 117.818 28.8693C117.678 29.036 117.608 29.2519 117.608 29.517C117.608 29.8958 117.746 30.1818 118.022 30.375C118.299 30.5682 118.651 30.6648 119.079 30.6648ZM125.221 32V23.2727H127.278V32H125.221ZM126.255 22.0341C125.93 22.0341 125.649 21.9261 125.414 21.7102C125.18 21.4905 125.062 21.2273 125.062 20.9205C125.062 20.6098 125.18 20.3466 125.414 20.1307C125.649 19.911 125.93 19.8011 126.255 19.8011C126.585 19.8011 126.865 19.911 127.096 20.1307C127.331 20.3466 127.449 20.6098 127.449 20.9205C127.449 21.2273 127.331 21.4905 127.096 21.7102C126.865 21.9261 126.585 22.0341 126.255 22.0341ZM136.291 25.5795L134.416 25.7841C134.363 25.5947 134.27 25.4167 134.137 25.25C134.009 25.0833 133.834 24.9489 133.615 24.8466C133.395 24.7443 133.126 24.6932 132.808 24.6932C132.38 24.6932 132.02 24.786 131.728 24.9716C131.44 25.1572 131.298 25.3977 131.302 25.6932C131.298 25.947 131.391 26.1534 131.581 26.3125C131.774 26.4716 132.092 26.6023 132.535 26.7045L134.024 27.0227C134.85 27.2008 135.463 27.483 135.865 27.8693C136.27 28.2557 136.475 28.7614 136.478 29.3864C136.475 29.9356 136.314 30.4205 135.995 30.8409C135.681 31.2576 135.243 31.5833 134.683 31.8182C134.122 32.053 133.478 32.1705 132.751 32.1705C131.683 32.1705 130.823 31.947 130.172 31.5C129.52 31.0492 129.132 30.4223 129.007 29.6193L131.012 29.4261C131.103 29.8201 131.297 30.1174 131.592 30.3182C131.887 30.5189 132.272 30.6193 132.745 30.6193C133.234 30.6193 133.626 30.5189 133.922 30.3182C134.221 30.1174 134.37 29.8693 134.37 29.5739C134.37 29.3239 134.274 29.1174 134.081 28.9545C133.891 28.7917 133.596 28.6667 133.194 28.5795L131.706 28.267C130.868 28.0928 130.249 27.7992 129.848 27.3864C129.446 26.9697 129.247 26.4432 129.251 25.8068C129.247 25.2689 129.393 24.803 129.689 24.4091C129.988 24.0114 130.403 23.7045 130.933 23.4886C131.467 23.2689 132.083 23.1591 132.779 23.1591C133.802 23.1591 134.607 23.3769 135.194 23.8125C135.785 24.2481 136.151 24.8371 136.291 25.5795Z" fill="#212529"/>
</svg>
