<svg width="168" height="52" viewBox="0 0 168 52" fill="none" xmlns="http://www.w3.org/2000/svg">
<rect width="168" height="52" rx="26" fill="#59BDA3"/>
<path d="M26.162 31V21.2H30.404C31.2813 21.2 32.0373 21.3447 32.672 21.634C33.3067 21.914 33.7967 22.32 34.142 22.852C34.4873 23.384 34.66 24.0187 34.66 24.756C34.66 25.484 34.4873 26.114 34.142 26.646C33.7967 27.1687 33.3067 27.57 32.672 27.85C32.0373 28.13 31.2813 28.27 30.404 28.27H27.422L28.43 27.276V31H26.162ZM32.392 31L29.942 27.444H32.364L34.842 31H32.392ZM28.43 27.528L27.422 26.464H30.278C30.978 26.464 31.5007 26.3147 31.846 26.016C32.1913 25.708 32.364 25.288 32.364 24.756C32.364 24.2147 32.1913 23.7947 31.846 23.496C31.5007 23.1973 30.978 23.048 30.278 23.048H27.422L28.43 21.97V27.528ZM40.2409 31.112C39.3823 31.112 38.6263 30.944 37.9729 30.608C37.3289 30.272 36.8296 29.8147 36.4749 29.236C36.1203 28.648 35.9429 27.9807 35.9429 27.234C35.9429 26.478 36.1156 25.8107 36.4609 25.232C36.8156 24.644 37.2963 24.1867 37.9029 23.86C38.5096 23.524 39.1956 23.356 39.9609 23.356C40.6983 23.356 41.3609 23.5147 41.9489 23.832C42.5463 24.14 43.0176 24.588 43.3629 25.176C43.7083 25.7547 43.8809 26.45 43.8809 27.262C43.8809 27.346 43.8763 27.444 43.8669 27.556C43.8576 27.6587 43.8483 27.7567 43.8389 27.85H37.7209V26.576H42.6909L41.8509 26.954C41.8509 26.562 41.7716 26.2213 41.6129 25.932C41.4543 25.6427 41.2349 25.4187 40.9549 25.26C40.6749 25.092 40.3483 25.008 39.9749 25.008C39.6016 25.008 39.2703 25.092 38.9809 25.26C38.7009 25.4187 38.4816 25.6473 38.3229 25.946C38.1643 26.2353 38.0849 26.5807 38.0849 26.982V27.318C38.0849 27.7287 38.1736 28.0927 38.3509 28.41C38.5376 28.718 38.7943 28.956 39.1209 29.124C39.4569 29.2827 39.8489 29.362 40.2969 29.362C40.6983 29.362 41.0483 29.3013 41.3469 29.18C41.6549 29.0587 41.9349 28.8767 42.1869 28.634L43.3489 29.894C43.0036 30.286 42.5696 30.5893 42.0469 30.804C41.5243 31.0093 40.9223 31.112 40.2409 31.112ZM49.077 33.828C48.3676 33.828 47.6816 33.7393 47.019 33.562C46.3656 33.394 45.8196 33.1373 45.381 32.792L46.249 31.224C46.5663 31.4853 46.9676 31.6907 47.453 31.84C47.9476 31.9987 48.433 32.078 48.909 32.078C49.6836 32.078 50.2436 31.9053 50.589 31.56C50.9436 31.2147 51.121 30.7013 51.121 30.02V28.886L51.261 26.996L51.233 25.092V23.468H53.305V29.74C53.305 31.14 52.941 32.1713 52.213 32.834C51.485 33.4967 50.4396 33.828 49.077 33.828ZM48.741 30.636C48.041 30.636 47.4063 30.4867 46.837 30.188C46.277 29.88 45.8243 29.4553 45.479 28.914C45.143 28.3633 44.975 27.724 44.975 26.996C44.975 26.2587 45.143 25.6193 45.479 25.078C45.8243 24.5273 46.277 24.1027 46.837 23.804C47.4063 23.5053 48.041 23.356 48.741 23.356C49.3756 23.356 49.9356 23.4867 50.421 23.748C50.9063 24 51.2843 24.3967 51.555 24.938C51.8256 25.47 51.961 26.156 51.961 26.996C51.961 27.8267 51.8256 28.5127 51.555 29.054C51.2843 29.586 50.9063 29.9827 50.421 30.244C49.9356 30.5053 49.3756 30.636 48.741 30.636ZM49.175 28.844C49.5576 28.844 49.8983 28.7693 50.197 28.62C50.4956 28.4613 50.729 28.242 50.897 27.962C51.065 27.682 51.149 27.36 51.149 26.996C51.149 26.6227 51.065 26.3007 50.897 26.03C50.729 25.75 50.4956 25.5353 50.197 25.386C49.8983 25.2273 49.5576 25.148 49.175 25.148C48.7923 25.148 48.4516 25.2273 48.153 25.386C47.8543 25.5353 47.6163 25.75 47.439 26.03C47.271 26.3007 47.187 26.6227 47.187 26.996C47.187 27.36 47.271 27.682 47.439 27.962C47.6163 28.242 47.8543 28.4613 48.153 28.62C48.4516 28.7693 48.7923 28.844 49.175 28.844ZM55.5377 31V23.468H57.7217V31H55.5377ZM56.6297 22.418C56.2284 22.418 55.9017 22.3013 55.6497 22.068C55.3977 21.8347 55.2717 21.5453 55.2717 21.2C55.2717 20.8547 55.3977 20.5653 55.6497 20.332C55.9017 20.0987 56.2284 19.982 56.6297 19.982C57.031 19.982 57.3577 20.094 57.6097 20.318C57.8617 20.5327 57.9877 20.8127 57.9877 21.158C57.9877 21.522 57.8617 21.8253 57.6097 22.068C57.367 22.3013 57.0404 22.418 56.6297 22.418ZM62.4826 31.112C61.8386 31.112 61.218 31.0373 60.6206 30.888C60.0326 30.7293 59.566 30.5333 59.2206 30.3L59.9486 28.732C60.294 28.9467 60.7 29.124 61.1666 29.264C61.6426 29.3947 62.1093 29.46 62.5666 29.46C63.0706 29.46 63.4253 29.3993 63.6306 29.278C63.8453 29.1567 63.9526 28.9887 63.9526 28.774C63.9526 28.5967 63.8686 28.466 63.7006 28.382C63.542 28.2887 63.3273 28.2187 63.0566 28.172C62.786 28.1253 62.4873 28.0787 62.1606 28.032C61.8433 27.9853 61.5213 27.9247 61.1946 27.85C60.868 27.766 60.5693 27.6447 60.2986 27.486C60.028 27.3273 59.8086 27.1127 59.6406 26.842C59.482 26.5713 59.4026 26.2213 59.4026 25.792C59.4026 25.316 59.538 24.896 59.8086 24.532C60.0886 24.168 60.49 23.8833 61.0126 23.678C61.5353 23.4633 62.1606 23.356 62.8886 23.356C63.402 23.356 63.9246 23.412 64.4566 23.524C64.9886 23.636 65.432 23.7993 65.7866 24.014L65.0586 25.568C64.6946 25.3533 64.326 25.2087 63.9526 25.134C63.5886 25.05 63.234 25.008 62.8886 25.008C62.4033 25.008 62.0486 25.0733 61.8246 25.204C61.6006 25.3347 61.4886 25.5027 61.4886 25.708C61.4886 25.8947 61.568 26.0347 61.7266 26.128C61.8946 26.2213 62.114 26.296 62.3846 26.352C62.6553 26.408 62.9493 26.4593 63.2666 26.506C63.5933 26.5433 63.92 26.604 64.2466 26.688C64.5733 26.772 64.8673 26.8933 65.1286 27.052C65.3993 27.2013 65.6186 27.4113 65.7866 27.682C65.9546 27.9433 66.0386 28.2887 66.0386 28.718C66.0386 29.1847 65.8986 29.6 65.6186 29.964C65.3386 30.3187 64.9326 30.5987 64.4006 30.804C63.878 31.0093 63.2386 31.112 62.4826 31.112ZM70.6661 31.112C69.7795 31.112 69.0888 30.888 68.5941 30.44C68.0995 29.9827 67.8521 29.306 67.8521 28.41V21.802H70.0361V28.382C70.0361 28.6993 70.1201 28.9467 70.2881 29.124C70.4561 29.292 70.6848 29.376 70.9741 29.376C71.3195 29.376 71.6135 29.2827 71.8561 29.096L72.4441 30.636C72.2201 30.7947 71.9495 30.916 71.6321 31C71.3241 31.0747 71.0021 31.112 70.6661 31.112ZM66.6901 25.316V23.636H71.9121V25.316H66.6901ZM73.8701 31V23.468H75.9561V25.596L75.6621 24.98C75.8861 24.448 76.2454 24.0467 76.7401 23.776C77.2348 23.496 77.8368 23.356 78.5461 23.356V25.372C78.4528 25.3627 78.3688 25.358 78.2941 25.358C78.2194 25.3487 78.1401 25.344 78.0561 25.344C77.4588 25.344 76.9734 25.5167 76.6001 25.862C76.2361 26.198 76.0541 26.7253 76.0541 27.444V31H73.8701ZM84.1725 31V29.53L84.0325 29.208V26.576C84.0325 26.1093 83.8879 25.7453 83.5985 25.484C83.3185 25.2227 82.8845 25.092 82.2965 25.092C81.8952 25.092 81.4985 25.1573 81.1065 25.288C80.7239 25.4093 80.3972 25.5773 80.1265 25.792L79.3425 24.266C79.7532 23.9767 80.2479 23.7527 80.8265 23.594C81.4052 23.4353 81.9932 23.356 82.5905 23.356C83.7385 23.356 84.6299 23.6267 85.2645 24.168C85.8992 24.7093 86.2165 25.554 86.2165 26.702V31H84.1725ZM81.8765 31.112C81.2885 31.112 80.7845 31.014 80.3645 30.818C79.9445 30.6127 79.6225 30.3373 79.3985 29.992C79.1745 29.6467 79.0625 29.2593 79.0625 28.83C79.0625 28.382 79.1699 27.99 79.3845 27.654C79.6085 27.318 79.9585 27.0567 80.4345 26.87C80.9105 26.674 81.5312 26.576 82.2965 26.576H84.2985V27.85H82.5345C82.0212 27.85 81.6665 27.934 81.4705 28.102C81.2839 28.27 81.1905 28.48 81.1905 28.732C81.1905 29.012 81.2979 29.236 81.5125 29.404C81.7365 29.5627 82.0399 29.642 82.4225 29.642C82.7865 29.642 83.1132 29.558 83.4025 29.39C83.6919 29.2127 83.9019 28.956 84.0325 28.62L84.3685 29.628C84.2099 30.1133 83.9205 30.482 83.5005 30.734C83.0805 30.986 82.5392 31.112 81.8765 31.112ZM88.3932 31V23.468H90.4792V25.596L90.1852 24.98C90.4092 24.448 90.7685 24.0467 91.2632 23.776C91.7578 23.496 92.3598 23.356 93.0692 23.356V25.372C92.9758 25.3627 92.8918 25.358 92.8172 25.358C92.7425 25.3487 92.6632 25.344 92.5792 25.344C91.9818 25.344 91.4965 25.5167 91.1232 25.862C90.7592 26.198 90.5772 26.7253 90.5772 27.444V31H88.3932ZM94.2194 27.934V26.184H98.1814V27.934H94.2194ZM102.634 31.112C101.99 31.112 101.369 31.0373 100.772 30.888C100.184 30.7293 99.7171 30.5333 99.3718 30.3L100.1 28.732C100.445 28.9467 100.851 29.124 101.318 29.264C101.794 29.3947 102.26 29.46 102.718 29.46C103.222 29.46 103.576 29.3993 103.782 29.278C103.996 29.1567 104.104 28.9887 104.104 28.774C104.104 28.5967 104.02 28.466 103.852 28.382C103.693 28.2887 103.478 28.2187 103.208 28.172C102.937 28.1253 102.638 28.0787 102.312 28.032C101.994 27.9853 101.672 27.9247 101.346 27.85C101.019 27.766 100.72 27.6447 100.45 27.486C100.179 27.3273 99.9598 27.1127 99.7918 26.842C99.6331 26.5713 99.5538 26.2213 99.5538 25.792C99.5538 25.316 99.6891 24.896 99.9598 24.532C100.24 24.168 100.641 23.8833 101.164 23.678C101.686 23.4633 102.312 23.356 103.04 23.356C103.553 23.356 104.076 23.412 104.608 23.524C105.14 23.636 105.583 23.7993 105.938 24.014L105.21 25.568C104.846 25.3533 104.477 25.2087 104.104 25.134C103.74 25.05 103.385 25.008 103.04 25.008C102.554 25.008 102.2 25.0733 101.976 25.204C101.752 25.3347 101.64 25.5027 101.64 25.708C101.64 25.8947 101.719 26.0347 101.878 26.128C102.046 26.2213 102.265 26.296 102.536 26.352C102.806 26.408 103.1 26.4593 103.418 26.506C103.744 26.5433 104.071 26.604 104.398 26.688C104.724 26.772 105.018 26.8933 105.28 27.052C105.55 27.2013 105.77 27.4113 105.938 27.682C106.106 27.9433 106.19 28.2887 106.19 28.718C106.19 29.1847 106.05 29.6 105.77 29.964C105.49 30.3187 105.084 30.5987 104.552 30.804C104.029 31.0093 103.39 31.112 102.634 31.112ZM111.475 31.112C110.617 31.112 109.861 30.944 109.207 30.608C108.563 30.272 108.064 29.8147 107.709 29.236C107.355 28.648 107.177 27.9807 107.177 27.234C107.177 26.478 107.35 25.8107 107.695 25.232C108.05 24.644 108.531 24.1867 109.137 23.86C109.744 23.524 110.43 23.356 111.195 23.356C111.933 23.356 112.595 23.5147 113.183 23.832C113.781 24.14 114.252 24.588 114.597 25.176C114.943 25.7547 115.115 26.45 115.115 27.262C115.115 27.346 115.111 27.444 115.101 27.556C115.092 27.6587 115.083 27.7567 115.073 27.85H108.955V26.576H113.925L113.085 26.954C113.085 26.562 113.006 26.2213 112.847 25.932C112.689 25.6427 112.469 25.4187 112.189 25.26C111.909 25.092 111.583 25.008 111.209 25.008C110.836 25.008 110.505 25.092 110.215 25.26C109.935 25.4187 109.716 25.6473 109.557 25.946C109.399 26.2353 109.319 26.5807 109.319 26.982V27.318C109.319 27.7287 109.408 28.0927 109.585 28.41C109.772 28.718 110.029 28.956 110.355 29.124C110.691 29.2827 111.083 29.362 111.531 29.362C111.933 29.362 112.283 29.3013 112.581 29.18C112.889 29.0587 113.169 28.8767 113.421 28.634L114.583 29.894C114.238 30.286 113.804 30.5893 113.281 30.804C112.759 31.0093 112.157 31.112 111.475 31.112Z" fill="white"/>
<g clip-path="url(#clip0_567_1199)">
<path fill-rule="evenodd" clip-rule="evenodd" d="M131 26C131 25.8106 131.079 25.6289 131.22 25.495C131.36 25.3611 131.551 25.2858 131.75 25.2858H140.438L137.218 22.2207C137.077 22.0866 136.998 21.9047 136.998 21.7151C136.998 21.5254 137.077 21.3435 137.218 21.2094C137.359 21.0753 137.55 21 137.749 21C137.948 21 138.139 21.0753 138.28 21.2094L142.78 25.4944C142.85 25.5607 142.905 25.6395 142.943 25.7263C142.981 25.8131 143 25.9061 143 26C143 26.0939 142.981 26.1869 142.943 26.2737C142.905 26.3605 142.85 26.4393 142.78 26.5056L138.28 30.7906C138.139 30.9247 137.948 31 137.749 31C137.55 31 137.359 30.9247 137.218 30.7906C137.077 30.6565 136.998 30.4746 136.998 30.2849C136.998 30.0953 137.077 29.9134 137.218 29.7793L140.438 26.7142H131.75C131.551 26.7142 131.36 26.6389 131.22 26.505C131.079 26.3711 131 26.1894 131 26Z" fill="white"/>
</g>
<defs>
<clipPath id="clip0_567_1199">
<rect width="12" height="10" fill="white" transform="translate(131 21)"/>
</clipPath>
</defs>
</svg>
