<svg width="205" height="59" viewBox="0 0 205 59" fill="none" xmlns="http://www.w3.org/2000/svg">
<rect width="205" height="59" rx="29.5" fill="#59BDA3"/>
<path d="M51.108 27.2898H48.983C48.9223 26.9413 48.8106 26.6326 48.6477 26.3636C48.4848 26.0909 48.2822 25.8598 48.0398 25.6705C47.7973 25.4811 47.5208 25.339 47.2102 25.2443C46.9034 25.1458 46.572 25.0966 46.2159 25.0966C45.5833 25.0966 45.0227 25.2557 44.5341 25.5739C44.0455 25.8883 43.6629 26.3504 43.3864 26.9602C43.1098 27.5663 42.9716 28.3068 42.9716 29.1818C42.9716 30.072 43.1098 30.822 43.3864 31.4318C43.6667 32.0379 44.0492 32.4962 44.5341 32.8068C45.0227 33.1136 45.5814 33.267 46.2102 33.267C46.5587 33.267 46.8845 33.2216 47.1875 33.1307C47.4943 33.036 47.7689 32.8977 48.0114 32.7159C48.2576 32.5341 48.464 32.3106 48.6307 32.0455C48.8011 31.7803 48.9186 31.4773 48.983 31.1364L51.108 31.1477C51.0284 31.7008 50.8561 32.2197 50.5909 32.7045C50.3295 33.1894 49.9867 33.6174 49.5625 33.9886C49.1383 34.3561 48.642 34.6439 48.0739 34.8523C47.5057 35.0568 46.875 35.1591 46.1818 35.1591C45.1591 35.1591 44.2462 34.9223 43.4432 34.4489C42.6402 33.9754 42.0076 33.2917 41.5455 32.3977C41.0833 31.5038 40.8523 30.4318 40.8523 29.1818C40.8523 27.928 41.0852 26.8561 41.5511 25.9659C42.017 25.072 42.6515 24.3883 43.4545 23.9148C44.2576 23.4413 45.1667 23.2045 46.1818 23.2045C46.8295 23.2045 47.4318 23.2955 47.9886 23.4773C48.5455 23.6591 49.0417 23.9261 49.4773 24.2784C49.9129 24.6269 50.2708 25.0549 50.5511 25.5625C50.8352 26.0663 51.0208 26.642 51.108 27.2898ZM56.4343 35.1705C55.582 35.1705 54.8434 34.983 54.2184 34.608C53.5934 34.233 53.1085 33.7083 52.7638 33.0341C52.4229 32.3598 52.2524 31.572 52.2524 30.6705C52.2524 29.7689 52.4229 28.9792 52.7638 28.3011C53.1085 27.6231 53.5934 27.0966 54.2184 26.7216C54.8434 26.3466 55.582 26.1591 56.4343 26.1591C57.2865 26.1591 58.0252 26.3466 58.6502 26.7216C59.2752 27.0966 59.7581 27.6231 60.099 28.3011C60.4437 28.9792 60.6161 29.7689 60.6161 30.6705C60.6161 31.572 60.4437 32.3598 60.099 33.0341C59.7581 33.7083 59.2752 34.233 58.6502 34.608C58.0252 34.983 57.2865 35.1705 56.4343 35.1705ZM56.4456 33.5227C56.9077 33.5227 57.2941 33.3958 57.6047 33.142C57.9153 32.8845 58.1464 32.5398 58.2979 32.108C58.4532 31.6761 58.5309 31.1951 58.5309 30.6648C58.5309 30.1307 58.4532 29.6477 58.2979 29.2159C58.1464 28.7803 57.9153 28.4337 57.6047 28.1761C57.2941 27.9186 56.9077 27.7898 56.4456 27.7898C55.9721 27.7898 55.5782 27.9186 55.2638 28.1761C54.9532 28.4337 54.7202 28.7803 54.5649 29.2159C54.4134 29.6477 54.3377 30.1307 54.3377 30.6648C54.3377 31.1951 54.4134 31.6761 54.5649 32.108C54.7202 32.5398 54.9532 32.8845 55.2638 33.142C55.5782 33.3958 55.9721 33.5227 56.4456 33.5227ZM64.0986 29.8864V35H62.0418V26.2727H64.0077V27.7557H64.11C64.3108 27.267 64.6308 26.8788 65.0702 26.5909C65.5134 26.303 66.0608 26.1591 66.7123 26.1591C67.3145 26.1591 67.8392 26.2879 68.2861 26.5455C68.7369 26.803 69.0854 27.1761 69.3316 27.6648C69.5816 28.1534 69.7047 28.7462 69.7009 29.4432V35H67.6441V29.7614C67.6441 29.178 67.4926 28.7216 67.1895 28.392C66.8903 28.0625 66.4755 27.8977 65.9452 27.8977C65.5854 27.8977 65.2653 27.9773 64.985 28.1364C64.7085 28.2917 64.4907 28.517 64.3316 28.8125C64.1763 29.108 64.0986 29.4659 64.0986 29.8864ZM75.8923 26.2727V27.8636H70.7332V26.2727H75.8923ZM72.023 35V25.4489C72.023 24.8617 72.1442 24.3731 72.3866 23.983C72.6328 23.5928 72.9623 23.3011 73.3752 23.108C73.7881 22.9148 74.2464 22.8182 74.7502 22.8182C75.1063 22.8182 75.4226 22.8466 75.6991 22.9034C75.9756 22.9602 76.1802 23.0114 76.3127 23.0568L75.9036 24.6477C75.8165 24.6212 75.7067 24.5947 75.5741 24.5682C75.4415 24.5379 75.2938 24.5227 75.1309 24.5227C74.7483 24.5227 74.4775 24.6155 74.3184 24.8011C74.1631 24.983 74.0855 25.2443 74.0855 25.5852V35H72.023ZM80.7186 35.1705C79.8436 35.1705 79.0879 34.9886 78.4515 34.625C77.819 34.2576 77.3322 33.7386 76.9913 33.0682C76.6504 32.3939 76.4799 31.6004 76.4799 30.6875C76.4799 29.7898 76.6504 29.0019 76.9913 28.3239C77.336 27.642 77.8171 27.1117 78.4345 26.733C79.0519 26.3504 79.7773 26.1591 80.6106 26.1591C81.1485 26.1591 81.6561 26.2462 82.1334 26.4205C82.6144 26.5909 83.0387 26.8561 83.4061 27.2159C83.7773 27.5758 84.069 28.0341 84.2811 28.5909C84.4932 29.1439 84.5993 29.803 84.5993 30.5682V31.1989H77.4459V29.8125H82.6277C82.6239 29.4186 82.5387 29.0682 82.372 28.7614C82.2053 28.4508 81.9724 28.2064 81.6731 28.0284C81.3777 27.8504 81.033 27.7614 80.639 27.7614C80.2186 27.7614 79.8493 27.8636 79.5311 28.0682C79.2129 28.2689 78.9648 28.5341 78.7868 28.8636C78.6125 29.1894 78.5235 29.5473 78.5197 29.9375V31.1477C78.5197 31.6553 78.6125 32.0909 78.7981 32.4545C78.9837 32.8144 79.2432 33.0909 79.5765 33.2841C79.9099 33.4735 80.3 33.5682 80.747 33.5682C81.0462 33.5682 81.3171 33.5265 81.5595 33.4432C81.8019 33.3561 82.0121 33.2292 82.1902 33.0625C82.3682 32.8958 82.5027 32.6894 82.5936 32.4432L84.514 32.6591C84.3928 33.1667 84.1618 33.6098 83.8209 33.9886C83.4837 34.3636 83.0519 34.6553 82.5254 34.8636C81.9989 35.0682 81.3966 35.1705 80.7186 35.1705ZM86.0193 35V26.2727H88.0136V27.7273H88.1045C88.2636 27.2235 88.5364 26.8352 88.9227 26.5625C89.3129 26.286 89.758 26.1477 90.258 26.1477C90.3716 26.1477 90.4985 26.1534 90.6386 26.1648C90.7826 26.1723 90.9019 26.1856 90.9966 26.2045V28.0966C90.9095 28.0663 90.7712 28.0398 90.5818 28.017C90.3962 27.9905 90.2163 27.9773 90.042 27.9773C89.667 27.9773 89.3299 28.0587 89.0307 28.2216C88.7352 28.3807 88.5023 28.6023 88.3318 28.8864C88.1614 29.1705 88.0761 29.4981 88.0761 29.8693V35H86.0193ZM92.0431 35V26.2727H94.0999V35H92.0431ZM93.0772 25.0341C92.7514 25.0341 92.4711 24.9261 92.2363 24.7102C92.0014 24.4905 91.884 24.2273 91.884 23.9205C91.884 23.6098 92.0014 23.3466 92.2363 23.1307C92.4711 22.911 92.7514 22.8011 93.0772 22.8011C93.4067 22.8011 93.687 22.911 93.9181 23.1307C94.1529 23.3466 94.2703 23.6098 94.2703 23.9205C94.2703 24.2273 94.1529 24.4905 93.9181 24.7102C93.687 24.9261 93.4067 25.0341 93.0772 25.0341ZM95.8949 35V26.2727H97.8893V27.7273H97.9802C98.1393 27.2235 98.412 26.8352 98.7984 26.5625C99.1885 26.286 99.6336 26.1477 100.134 26.1477C100.247 26.1477 100.374 26.1534 100.514 26.1648C100.658 26.1723 100.778 26.1856 100.872 26.2045V28.0966C100.785 28.0663 100.647 28.0398 100.457 28.017C100.272 27.9905 100.092 27.9773 99.9177 27.9773C99.5427 27.9773 99.2055 28.0587 98.9063 28.2216C98.6109 28.3807 98.3779 28.6023 98.2074 28.8864C98.037 29.1705 97.9518 29.4981 97.9518 29.8693V35H95.8949ZM105.567 35V26.2727H107.533V27.7557H107.636C107.817 27.2557 108.119 26.8655 108.539 26.5852C108.959 26.3011 109.461 26.1591 110.045 26.1591C110.636 26.1591 111.134 26.303 111.539 26.5909C111.948 26.875 112.236 27.2633 112.403 27.7557H112.494C112.687 27.2708 113.013 26.8845 113.471 26.5966C113.933 26.3049 114.48 26.1591 115.113 26.1591C115.916 26.1591 116.571 26.4129 117.079 26.9205C117.586 27.428 117.84 28.1686 117.84 29.142V35H115.778V29.4602C115.778 28.9186 115.634 28.5227 115.346 28.2727C115.058 28.0189 114.706 27.892 114.289 27.892C113.793 27.892 113.405 28.0473 113.124 28.358C112.848 28.6648 112.709 29.0644 112.709 29.5568V35H110.692V29.375C110.692 28.9242 110.556 28.5644 110.283 28.2955C110.014 28.0265 109.662 27.892 109.227 27.892C108.931 27.892 108.662 27.9678 108.42 28.1193C108.177 28.267 107.984 28.4773 107.84 28.75C107.696 29.0189 107.624 29.3333 107.624 29.6932V35H105.567ZM122.118 35.1761C121.565 35.1761 121.067 35.0777 120.624 34.8807C120.184 34.6799 119.836 34.3845 119.578 33.9943C119.325 33.6042 119.198 33.1231 119.198 32.5511C119.198 32.0587 119.289 31.6515 119.47 31.3295C119.652 31.0076 119.9 30.75 120.215 30.5568C120.529 30.3636 120.883 30.2178 121.277 30.1193C121.675 30.017 122.086 29.9432 122.51 29.8977C123.022 29.8447 123.436 29.7973 123.755 29.7557C124.073 29.7102 124.304 29.642 124.448 29.5511C124.595 29.4564 124.669 29.3106 124.669 29.1136V29.0795C124.669 28.6515 124.542 28.3201 124.289 28.0852C124.035 27.8504 123.669 27.733 123.192 27.733C122.688 27.733 122.289 27.8428 121.993 28.0625C121.702 28.2822 121.505 28.5417 121.402 28.8409L119.482 28.5682C119.633 28.0379 119.883 27.5947 120.232 27.2386C120.58 26.8788 121.006 26.6098 121.51 26.4318C122.014 26.25 122.571 26.1591 123.181 26.1591C123.601 26.1591 124.02 26.2083 124.436 26.3068C124.853 26.4053 125.234 26.5682 125.578 26.7955C125.923 27.0189 126.2 27.3239 126.408 27.7102C126.62 28.0966 126.726 28.5795 126.726 29.1591V35H124.749V33.8011H124.681C124.556 34.0436 124.38 34.2708 124.152 34.483C123.929 34.6913 123.647 34.8598 123.306 34.9886C122.969 35.1136 122.573 35.1761 122.118 35.1761ZM122.652 33.6648C123.065 33.6648 123.423 33.5833 123.726 33.4205C124.029 33.2538 124.262 33.0341 124.425 32.7614C124.592 32.4886 124.675 32.1913 124.675 31.8693V30.8409C124.611 30.8939 124.501 30.9432 124.345 30.9886C124.194 31.0341 124.023 31.0739 123.834 31.108C123.645 31.142 123.457 31.1723 123.272 31.1989C123.086 31.2254 122.925 31.2481 122.789 31.267C122.482 31.3087 122.207 31.3769 121.965 31.4716C121.722 31.5663 121.531 31.6989 121.391 31.8693C121.251 32.036 121.181 32.2519 121.181 32.517C121.181 32.8958 121.319 33.1818 121.595 33.375C121.872 33.5682 122.224 33.6648 122.652 33.6648ZM128.474 35V26.2727H130.531V35H128.474ZM129.508 25.0341C129.183 25.0341 128.902 24.9261 128.668 24.7102C128.433 24.4905 128.315 24.2273 128.315 23.9205C128.315 23.6098 128.433 23.3466 128.668 23.1307C128.902 22.911 129.183 22.8011 129.508 22.8011C129.838 22.8011 130.118 22.911 130.349 23.1307C130.584 23.3466 130.702 23.6098 130.702 23.9205C130.702 24.2273 130.584 24.4905 130.349 24.7102C130.118 24.9261 129.838 25.0341 129.508 25.0341ZM139.224 28.5795L137.349 28.7841C137.296 28.5947 137.203 28.4167 137.071 28.25C136.942 28.0833 136.767 27.9489 136.548 27.8466C136.328 27.7443 136.059 27.6932 135.741 27.6932C135.313 27.6932 134.953 27.786 134.661 27.9716C134.374 28.1572 134.231 28.3977 134.235 28.6932C134.231 28.947 134.324 29.1534 134.514 29.3125C134.707 29.4716 135.025 29.6023 135.468 29.7045L136.957 30.0227C137.783 30.2008 138.396 30.483 138.798 30.8693C139.203 31.2557 139.408 31.7614 139.411 32.3864C139.408 32.9356 139.247 33.4205 138.928 33.8409C138.614 34.2576 138.177 34.5833 137.616 34.8182C137.055 35.053 136.411 35.1705 135.684 35.1705C134.616 35.1705 133.756 34.947 133.105 34.5C132.453 34.0492 132.065 33.4223 131.94 32.6193L133.946 32.4261C134.036 32.8201 134.23 33.1174 134.525 33.3182C134.821 33.5189 135.205 33.6193 135.678 33.6193C136.167 33.6193 136.559 33.5189 136.855 33.3182C137.154 33.1174 137.303 32.8693 137.303 32.5739C137.303 32.3239 137.207 32.1174 137.014 31.9545C136.824 31.7917 136.529 31.6667 136.127 31.5795L134.639 31.267C133.802 31.0928 133.182 30.7992 132.781 30.3864C132.379 29.9697 132.18 29.4432 132.184 28.8068C132.18 28.2689 132.326 27.803 132.622 27.4091C132.921 27.0114 133.336 26.7045 133.866 26.4886C134.4 26.2689 135.016 26.1591 135.713 26.1591C136.735 26.1591 137.54 26.3769 138.127 26.8125C138.718 27.2481 139.084 27.8371 139.224 28.5795Z" fill="white"/>
<path d="M151 29.5H165" stroke="white" stroke-linecap="round" stroke-linejoin="round"/>
<path d="M158 22.5L165 29.5L158 36.5" stroke="white" stroke-linecap="round" stroke-linejoin="round"/>
</svg>
