<svg width="211" height="59" viewBox="0 0 211 59" fill="none" xmlns="http://www.w3.org/2000/svg">
<rect width="211" height="59" rx="29.5" fill="#59BDA3"/>
<path d="M23.4054 27H18.7647V13.9091H23.4437C24.7605 13.9091 25.894 14.1712 26.8443 14.6953C27.7946 15.2152 28.5254 15.9631 29.0368 16.9389C29.5524 17.9148 29.8102 19.0824 29.8102 20.4418C29.8102 21.8054 29.5524 22.9773 29.0368 23.9574C28.5254 24.9375 27.7903 25.6896 26.8315 26.2138C25.877 26.7379 24.7349 27 23.4054 27ZM21.5325 24.6286H23.2903C24.1085 24.6286 24.7967 24.4837 25.3549 24.1939C25.9174 23.8999 26.3393 23.446 26.6206 22.8324C26.9061 22.2145 27.0488 21.4176 27.0488 20.4418C27.0488 19.4744 26.9061 18.6839 26.6206 18.0703C26.3393 17.4567 25.9196 17.005 25.3613 16.7152C24.8031 16.4254 24.1149 16.2805 23.2967 16.2805H21.5325V24.6286ZM36.2837 27.1918C35.2738 27.1918 34.4045 26.9872 33.6758 26.5781C32.9513 26.1648 32.3931 25.581 32.0011 24.8267C31.609 24.0682 31.413 23.1712 31.413 22.1357C31.413 21.1257 31.609 20.2393 32.0011 19.4766C32.3931 18.7138 32.945 18.1193 33.6566 17.6932C34.3725 17.267 35.212 17.054 36.1751 17.054C36.8228 17.054 37.4258 17.1584 37.984 17.3672C38.5465 17.5717 39.0366 17.8807 39.4542 18.294C39.8761 18.7074 40.2042 19.2273 40.4386 19.8537C40.6729 20.4759 40.7901 21.2045 40.7901 22.0398V22.7876H32.4996V21.1001H38.2269C38.2269 20.7081 38.1417 20.3608 37.9712 20.0582C37.8008 19.7557 37.5643 19.5192 37.2617 19.3487C36.9634 19.174 36.6161 19.0866 36.2198 19.0866C35.8065 19.0866 35.44 19.1825 35.1204 19.3743C34.805 19.5618 34.5579 19.8153 34.3789 20.1349C34.1999 20.4503 34.1083 20.8018 34.104 21.1896V22.794C34.104 23.2798 34.1935 23.6996 34.3725 24.0533C34.5558 24.407 34.8136 24.6797 35.146 24.8714C35.4783 25.0632 35.8725 25.1591 36.3285 25.1591C36.631 25.1591 36.908 25.1165 37.1594 25.0312C37.4109 24.946 37.6261 24.8182 37.805 24.6477C37.984 24.4773 38.1204 24.2685 38.2141 24.0213L40.7326 24.1875C40.6048 24.7926 40.3427 25.321 39.9464 25.7727C39.5543 26.2202 39.0472 26.5696 38.4251 26.821C37.8072 27.0682 37.0934 27.1918 36.2837 27.1918ZM50.7362 19.9815L48.2433 20.1349C48.2006 19.9219 48.109 19.7301 47.9684 19.5597C47.8278 19.3849 47.6424 19.2464 47.4123 19.1442C47.1864 19.0376 46.9158 18.9844 46.6005 18.9844C46.1786 18.9844 45.8228 19.0739 45.533 19.2528C45.2433 19.4276 45.0984 19.6619 45.0984 19.956C45.0984 20.1903 45.1921 20.3885 45.3796 20.5504C45.5671 20.7124 45.8888 20.8423 46.3448 20.9403L48.1218 21.2983C49.0763 21.4943 49.788 21.8097 50.2567 22.2443C50.7255 22.679 50.9599 23.25 50.9599 23.9574C50.9599 24.6009 50.7702 25.1655 50.391 25.6513C50.016 26.1371 49.5004 26.5163 48.8441 26.7891C48.1921 27.0575 47.44 27.1918 46.5877 27.1918C45.288 27.1918 44.2525 26.9212 43.4812 26.38C42.7141 25.8345 42.2646 25.093 42.1325 24.1555L44.8107 24.0149C44.8917 24.4112 45.0877 24.7138 45.3988 24.9226C45.7099 25.1271 46.1083 25.2294 46.5941 25.2294C47.0714 25.2294 47.4549 25.1378 47.7447 24.9545C48.0387 24.767 48.1879 24.5263 48.1921 24.2322C48.1879 23.9851 48.0835 23.7827 47.8789 23.625C47.6744 23.4631 47.359 23.3395 46.9329 23.2543L45.2326 22.9155C44.2738 22.7237 43.56 22.3913 43.0913 21.9183C42.6268 21.4453 42.3945 20.8423 42.3945 20.1094C42.3945 19.4787 42.565 18.9354 42.9059 18.4794C43.2511 18.0234 43.7347 17.6719 44.3569 17.4247C44.9833 17.1776 45.7163 17.054 46.5558 17.054C47.7958 17.054 48.7717 17.3161 49.4833 17.8402C50.1992 18.3643 50.6168 19.0781 50.7362 19.9815ZM57.1106 27.1918C56.1049 27.1918 55.2399 26.9787 54.5154 26.5526C53.7953 26.1222 53.2413 25.5256 52.8535 24.7628C52.47 24 52.2782 23.1222 52.2782 22.1293C52.2782 21.1236 52.4721 20.2415 52.8599 19.483C53.252 18.7202 53.8081 18.1257 54.5282 17.6996C55.2484 17.2692 56.1049 17.054 57.0978 17.054C57.9544 17.054 58.7044 17.2095 59.3478 17.5206C59.9913 17.8317 60.5005 18.2685 60.8755 18.831C61.2505 19.3935 61.4572 20.054 61.4956 20.8125H58.926C58.8535 20.3224 58.6618 19.9283 58.3507 19.63C58.0439 19.3274 57.6412 19.1761 57.1426 19.1761C56.7207 19.1761 56.3521 19.2912 56.0368 19.5213C55.7257 19.7472 55.4828 20.0774 55.3081 20.5121C55.1333 20.9467 55.046 21.473 55.046 22.0909C55.046 22.7173 55.1312 23.25 55.3017 23.6889C55.4764 24.1278 55.7214 24.4624 56.0368 24.6925C56.3521 24.9226 56.7207 25.0376 57.1426 25.0376C57.4537 25.0376 57.7328 24.9737 57.9799 24.8459C58.2314 24.718 58.438 24.5327 58.6 24.2898C58.7662 24.0426 58.8748 23.7464 58.926 23.4013H61.4956C61.4529 24.1513 61.2484 24.8118 60.8819 25.3828C60.5197 25.9496 60.019 26.3928 59.3798 26.7124C58.7406 27.032 57.9842 27.1918 57.1106 27.1918ZM69.5352 22.8196V17.1818H72.2582V27H69.6438V25.2166H69.5415C69.32 25.7919 68.9513 26.2543 68.4357 26.6037C67.9244 26.9531 67.3001 27.1278 66.5629 27.1278C65.9066 27.1278 65.3292 26.9787 64.8306 26.6804C64.332 26.3821 63.9421 25.9581 63.6609 25.4084C63.3839 24.8587 63.2433 24.2003 63.239 23.4332V17.1818H65.962V22.9474C65.9663 23.527 66.1218 23.9851 66.4286 24.3217C66.7354 24.6584 67.1467 24.8267 67.6623 24.8267C67.9904 24.8267 68.2972 24.7521 68.5827 24.603C68.8683 24.4496 69.0984 24.2237 69.2731 23.9254C69.4521 23.6271 69.5394 23.2585 69.5352 22.8196ZM74.4874 27V13.9091H77.2104V18.831H77.2935C77.4128 18.5668 77.5854 18.2983 77.8113 18.0256C78.0414 17.7486 78.3397 17.5185 78.7061 17.3352C79.0769 17.1477 79.5371 17.054 80.0868 17.054C80.8027 17.054 81.4632 17.2415 82.0684 17.6165C82.6735 17.9872 83.1571 18.5476 83.5194 19.2976C83.8816 20.0433 84.0627 20.9787 84.0627 22.1037C84.0627 23.1989 83.8858 24.1236 83.5321 24.8778C83.1827 25.6278 82.7054 26.1967 82.1003 26.5845C81.4995 26.968 80.8262 27.1598 80.0804 27.1598C79.552 27.1598 79.1025 27.0724 78.7317 26.8977C78.3652 26.723 78.0648 26.5036 77.8304 26.2393C77.5961 25.9709 77.4171 25.7003 77.2935 25.4276H77.1721V27H74.4874ZM77.1529 22.0909C77.1529 22.6747 77.2338 23.1839 77.3958 23.6186C77.5577 24.0533 77.7921 24.392 78.0989 24.6349C78.4057 24.8736 78.7786 24.9929 79.2175 24.9929C79.6607 24.9929 80.0357 24.8714 80.3425 24.6286C80.6493 24.3814 80.8816 24.0405 81.0392 23.6058C81.2012 23.1669 81.2821 22.6619 81.2821 22.0909C81.2821 21.5241 81.2033 21.0256 81.0456 20.5952C80.888 20.1648 80.6557 19.8281 80.3489 19.5852C80.0421 19.3423 79.665 19.2209 79.2175 19.2209C78.7743 19.2209 78.3993 19.3381 78.0925 19.5724C77.79 19.8068 77.5577 20.1392 77.3958 20.5696C77.2338 21 77.1529 21.5071 77.1529 22.0909ZM85.8796 27V17.1818H88.5195V18.8949H88.6218C88.8008 18.2855 89.1012 17.8253 89.5231 17.5142C89.945 17.1989 90.4308 17.0412 90.9805 17.0412C91.1168 17.0412 91.2638 17.0497 91.4215 17.0668C91.5792 17.0838 91.7177 17.1072 91.837 17.1371V19.5533C91.7092 19.5149 91.5323 19.4808 91.3065 19.451C91.0806 19.4212 90.8739 19.4062 90.6864 19.4062C90.2859 19.4062 89.9279 19.4936 89.6126 19.6683C89.3015 19.8388 89.0543 20.0774 88.8711 20.3842C88.6921 20.6911 88.6026 21.0447 88.6026 21.4453V27H85.8796ZM95.7633 27.1854C95.1369 27.1854 94.5787 27.0767 94.0886 26.8594C93.5985 26.6378 93.2108 26.3118 92.9252 25.8814C92.644 25.4467 92.5034 24.9055 92.5034 24.2578C92.5034 23.7124 92.6035 23.2543 92.8038 22.8835C93.0041 22.5128 93.2768 22.2145 93.622 21.9886C93.9672 21.7628 94.3592 21.5923 94.7981 21.4773C95.2413 21.3622 95.7058 21.2812 96.1916 21.2344C96.7626 21.1747 97.2228 21.1193 97.5723 21.0682C97.9217 21.0128 98.1752 20.9318 98.3329 20.8253C98.4906 20.7187 98.5694 20.5611 98.5694 20.3523V20.3139C98.5694 19.9091 98.4416 19.5959 98.1859 19.3743C97.9345 19.1527 97.5765 19.0419 97.112 19.0419C96.622 19.0419 96.2321 19.1506 95.9423 19.3679C95.6525 19.581 95.4608 19.8494 95.367 20.1733L92.8485 19.9688C92.9764 19.3722 93.2278 18.8565 93.6028 18.4219C93.9778 17.983 94.4615 17.6463 95.0538 17.4119C95.6504 17.1733 96.3407 17.054 97.1248 17.054C97.6703 17.054 98.1923 17.1179 98.6909 17.2457C99.1937 17.3736 99.639 17.5717 100.027 17.8402C100.419 18.1087 100.728 18.4538 100.954 18.8757C101.18 19.2933 101.292 19.794 101.292 20.3778V27H98.7101V25.6385H98.6333C98.4757 25.9453 98.2647 26.2159 98.0005 26.4503C97.7363 26.6804 97.4189 26.8615 97.0481 26.9936C96.6774 27.1214 96.2491 27.1854 95.7633 27.1854ZM96.5431 25.3061C96.9437 25.3061 97.2974 25.2273 97.6042 25.0696C97.911 24.9077 98.1518 24.6903 98.3265 24.4176C98.5012 24.1449 98.5886 23.8359 98.5886 23.4908V22.4489C98.5034 22.5043 98.3862 22.5554 98.237 22.6023C98.0922 22.6449 97.9281 22.6854 97.7449 22.7237C97.5616 22.7578 97.3784 22.7898 97.1951 22.8196C97.0119 22.8452 96.8457 22.8686 96.6966 22.8899C96.377 22.9368 96.0978 23.0114 95.8592 23.1136C95.6206 23.2159 95.4352 23.3544 95.3031 23.5291C95.171 23.6996 95.1049 23.9126 95.1049 24.1683C95.1049 24.5391 95.2392 24.8224 95.5076 25.0185C95.7804 25.2102 96.1255 25.3061 96.5431 25.3061ZM112.007 27.1918C111.014 27.1918 110.156 26.9808 109.431 26.5589C108.711 26.1328 108.155 25.5405 107.763 24.782C107.371 24.0192 107.175 23.1349 107.175 22.1293C107.175 21.1151 107.371 20.2287 107.763 19.4702C108.155 18.7074 108.711 18.1151 109.431 17.6932C110.156 17.267 111.014 17.054 112.007 17.054C113 17.054 113.857 17.267 114.577 17.6932C115.301 18.1151 115.859 18.7074 116.251 19.4702C116.643 20.2287 116.839 21.1151 116.839 22.1293C116.839 23.1349 116.643 24.0192 116.251 24.782C115.859 25.5405 115.301 26.1328 114.577 26.5589C113.857 26.9808 113 27.1918 112.007 27.1918ZM112.02 25.0824C112.472 25.0824 112.849 24.9545 113.151 24.6989C113.454 24.4389 113.682 24.0852 113.835 23.6378C113.993 23.1903 114.072 22.6811 114.072 22.1101C114.072 21.5391 113.993 21.0298 113.835 20.5824C113.682 20.1349 113.454 19.7812 113.151 19.5213C112.849 19.2614 112.472 19.1314 112.02 19.1314C111.564 19.1314 111.18 19.2614 110.869 19.5213C110.563 19.7812 110.33 20.1349 110.173 20.5824C110.019 21.0298 109.942 21.5391 109.942 22.1101C109.942 22.6811 110.019 23.1903 110.173 23.6378C110.33 24.0852 110.563 24.4389 110.869 24.6989C111.18 24.9545 111.564 25.0824 112.02 25.0824ZM122.776 30.6818V17.1818H125.461V18.831H125.582C125.702 18.5668 125.874 18.2983 126.1 18.0256C126.33 17.7486 126.628 17.5185 126.995 17.3352C127.366 17.1477 127.826 17.054 128.376 17.054C129.091 17.054 129.752 17.2415 130.357 17.6165C130.962 17.9872 131.446 18.5476 131.808 19.2976C132.17 20.0433 132.351 20.9787 132.351 22.1037C132.351 23.1989 132.175 24.1236 131.821 24.8778C131.471 25.6278 130.994 26.1967 130.389 26.5845C129.788 26.968 129.115 27.1598 128.369 27.1598C127.841 27.1598 127.391 27.0724 127.02 26.8977C126.654 26.723 126.354 26.5036 126.119 26.2393C125.885 25.9709 125.706 25.7003 125.582 25.4276H125.499V30.6818H122.776ZM125.442 22.0909C125.442 22.6747 125.523 23.1839 125.684 23.6186C125.846 24.0533 126.081 24.392 126.388 24.6349C126.694 24.8736 127.067 24.9929 127.506 24.9929C127.949 24.9929 128.324 24.8714 128.631 24.6286C128.938 24.3814 129.17 24.0405 129.328 23.6058C129.49 23.1669 129.571 22.6619 129.571 22.0909C129.571 21.5241 129.492 21.0256 129.334 20.5952C129.177 20.1648 128.944 19.8281 128.638 19.5852C128.331 19.3423 127.954 19.2209 127.506 19.2209C127.063 19.2209 126.688 19.3381 126.381 19.5724C126.079 19.8068 125.846 20.1392 125.684 20.5696C125.523 21 125.442 21.5071 125.442 22.0909ZM138.603 27.1918C137.61 27.1918 136.751 26.9808 136.027 26.5589C135.307 26.1328 134.751 25.5405 134.358 24.782C133.966 24.0192 133.77 23.1349 133.77 22.1293C133.77 21.1151 133.966 20.2287 134.358 19.4702C134.751 18.7074 135.307 18.1151 136.027 17.6932C136.751 17.267 137.61 17.054 138.603 17.054C139.596 17.054 140.452 17.267 141.172 17.6932C141.897 18.1151 142.455 18.7074 142.847 19.4702C143.239 20.2287 143.435 21.1151 143.435 22.1293C143.435 23.1349 143.239 24.0192 142.847 24.782C142.455 25.5405 141.897 26.1328 141.172 26.5589C140.452 26.9808 139.596 27.1918 138.603 27.1918ZM138.616 25.0824C139.067 25.0824 139.444 24.9545 139.747 24.6989C140.05 24.4389 140.278 24.0852 140.431 23.6378C140.589 23.1903 140.667 22.6811 140.667 22.1101C140.667 21.5391 140.589 21.0298 140.431 20.5824C140.278 20.1349 140.05 19.7812 139.747 19.5213C139.444 19.2614 139.067 19.1314 138.616 19.1314C138.16 19.1314 137.776 19.2614 137.465 19.5213C137.158 19.7812 136.926 20.1349 136.768 20.5824C136.615 21.0298 136.538 21.5391 136.538 22.1101C136.538 22.6811 136.615 23.1903 136.768 23.6378C136.926 24.0852 137.158 24.4389 137.465 24.6989C137.776 24.9545 138.16 25.0824 138.616 25.0824ZM145.206 27V17.1818H147.846V18.8949H147.948C148.127 18.2855 148.427 17.8253 148.849 17.5142C149.271 17.1989 149.757 17.0412 150.307 17.0412C150.443 17.0412 150.59 17.0497 150.748 17.0668C150.905 17.0838 151.044 17.1072 151.163 17.1371V19.5533C151.035 19.5149 150.858 19.4808 150.633 19.451C150.407 19.4212 150.2 19.4062 150.013 19.4062C149.612 19.4062 149.254 19.4936 148.939 19.6683C148.628 19.8388 148.381 20.0774 148.197 20.3842C148.018 20.6911 147.929 21.0447 147.929 21.4453V27H145.206ZM158.602 30.6818V25.4276H158.519C158.391 25.7003 158.21 25.9709 157.975 26.2393C157.745 26.5036 157.445 26.723 157.074 26.8977C156.708 27.0724 156.26 27.1598 155.732 27.1598C154.986 27.1598 154.311 26.968 153.706 26.5845C153.105 26.1967 152.627 25.6278 152.274 24.8778C151.924 24.1236 151.75 23.1989 151.75 22.1037C151.75 20.9787 151.931 20.0433 152.293 19.2976C152.655 18.5476 153.137 17.9872 153.738 17.6165C154.343 17.2415 155.005 17.054 155.725 17.054C156.275 17.054 156.733 17.1477 157.1 17.3352C157.471 17.5185 157.769 17.7486 157.995 18.0256C158.225 18.2983 158.4 18.5668 158.519 18.831H158.634V17.1818H161.319V30.6818H158.602ZM156.595 24.9929C157.034 24.9929 157.404 24.8736 157.707 24.6349C158.014 24.392 158.248 24.0533 158.41 23.6186C158.576 23.1839 158.659 22.6747 158.659 22.0909C158.659 21.5071 158.578 21 158.417 20.5696C158.255 20.1392 158.02 19.8068 157.713 19.5724C157.407 19.3381 157.034 19.2209 156.595 19.2209C156.147 19.2209 155.77 19.3423 155.463 19.5852C155.157 19.8281 154.924 20.1648 154.767 20.5952C154.609 21.0256 154.53 21.5241 154.53 22.0909C154.53 22.6619 154.609 23.1669 154.767 23.6058C154.929 24.0405 155.161 24.3814 155.463 24.6286C155.77 24.8714 156.147 24.9929 156.595 24.9929ZM169.801 22.8196V17.1818H172.524V27H169.909V25.2166H169.807C169.586 25.7919 169.217 26.2543 168.701 26.6037C168.19 26.9531 167.566 27.1278 166.828 27.1278C166.172 27.1278 165.595 26.9787 165.096 26.6804C164.598 26.3821 164.208 25.9581 163.926 25.4084C163.65 24.8587 163.509 24.2003 163.505 23.4332V17.1818H166.228V22.9474C166.232 23.527 166.387 23.9851 166.694 24.3217C167.001 24.6584 167.412 24.8267 167.928 24.8267C168.256 24.8267 168.563 24.7521 168.848 24.603C169.134 24.4496 169.364 24.2237 169.539 23.9254C169.718 23.6271 169.805 23.2585 169.801 22.8196ZM179.176 27.1918C178.166 27.1918 177.297 26.9872 176.568 26.5781C175.844 26.1648 175.286 25.581 174.894 24.8267C174.502 24.0682 174.306 23.1712 174.306 22.1357C174.306 21.1257 174.502 20.2393 174.894 19.4766C175.286 18.7138 175.838 18.1193 176.549 17.6932C177.265 17.267 178.105 17.054 179.068 17.054C179.715 17.054 180.318 17.1584 180.877 17.3672C181.439 17.5717 181.929 17.8807 182.347 18.294C182.769 18.7074 183.097 19.2273 183.331 19.8537C183.566 20.4759 183.683 21.2045 183.683 22.0398V22.7876H175.392V21.1001H181.119C181.119 20.7081 181.034 20.3608 180.864 20.0582C180.693 19.7557 180.457 19.5192 180.154 19.3487C179.856 19.174 179.509 19.0866 179.112 19.0866C178.699 19.0866 178.333 19.1825 178.013 19.3743C177.698 19.5618 177.45 19.8153 177.271 20.1349C177.093 20.4503 177.001 20.8018 176.997 21.1896V22.794C176.997 23.2798 177.086 23.6996 177.265 24.0533C177.448 24.407 177.706 24.6797 178.039 24.8714C178.371 25.0632 178.765 25.1591 179.221 25.1591C179.524 25.1591 179.801 25.1165 180.052 25.0312C180.303 24.946 180.519 24.8182 180.698 24.6477C180.877 24.4773 181.013 24.2685 181.107 24.0213L183.625 24.1875C183.497 24.7926 183.235 25.321 182.839 25.7727C182.447 26.2202 181.94 26.5696 181.318 26.821C180.7 27.0682 179.986 27.1918 179.176 27.1918Z" fill="white"/>
<path d="M106 31.6666V50.3333" stroke="white" stroke-width="1.33333" stroke-linecap="round" stroke-linejoin="round"/>
<path d="M115.333 41L106 50.3333L96.6666 41" stroke="white" stroke-width="1.33333" stroke-linecap="round" stroke-linejoin="round"/>
</svg>
