<svg width="32" height="32" viewBox="0 0 32 32" fill="none" xmlns="http://www.w3.org/2000/svg">
<rect x="1" y="1" width="30" height="30" rx="15" stroke="white" stroke-width="2"/>
<path d="M16.0205 12.3906C15.0225 12.3906 14.1748 12.7427 13.4775 13.4468C12.7803 14.1509 12.4316 14.9951 12.4316 15.9795C12.4316 16.9775 12.7803 17.8252 13.4775 18.5225C14.1748 19.2197 15.0225 19.5684 16.0205 19.5684C17.0049 19.5684 17.8491 19.2197 18.5532 18.5225C19.2573 17.8252 19.6094 16.9775 19.6094 15.9795C19.6094 14.9951 19.2573 14.1509 18.5532 13.4468C17.8491 12.7427 17.0049 12.3906 16.0205 12.3906ZM16.0205 18.3379C15.3779 18.3379 14.8242 18.1089 14.3594 17.6509C13.8945 17.1929 13.6621 16.6357 13.6621 15.9795C13.6621 15.3369 13.8911 14.79 14.3491 14.3389C14.8071 13.8877 15.3643 13.6621 16.0205 13.6621C16.6631 13.6621 17.21 13.8877 17.6611 14.3389C18.1123 14.79 18.3379 15.3369 18.3379 15.9795C18.3379 16.6357 18.1123 17.1929 17.6611 17.6509C17.21 18.1089 16.6631 18.3379 16.0205 18.3379ZM20.5732 12.2676C20.5732 12.0352 20.4912 11.8369 20.3271 11.6729C20.1631 11.5088 19.9648 11.4268 19.7324 11.4268C19.5 11.4268 19.3018 11.5088 19.1377 11.6729C18.9736 11.8369 18.8916 12.0352 18.8916 12.2676C18.8916 12.5 18.9736 12.6982 19.1377 12.8623C19.3018 13.0264 19.5 13.1084 19.7324 13.1084C19.9648 13.1084 20.1631 13.0264 20.3271 12.8623C20.4912 12.6982 20.5732 12.5 20.5732 12.2676ZM22.9521 13.1084C22.9248 12.5479 22.8325 12.0215 22.6753 11.5293C22.5181 11.0371 22.2344 10.5859 21.8242 10.1758C21.4141 9.76562 20.9629 9.48193 20.4707 9.32471C19.9785 9.16748 19.4521 9.0752 18.8916 9.04785C18.6045 9.03418 18.1943 9.02051 17.6611 9.00684C17.1279 9.00684 16.5742 9.00684 16 9.00684C15.4258 9.00684 14.8721 9.00684 14.3389 9.00684C13.8057 9.02051 13.3955 9.03418 13.1084 9.04785C12.5479 9.0752 12.0249 9.16748 11.5396 9.32471C11.0542 9.48193 10.5996 9.76562 10.1758 10.1758C9.76562 10.5859 9.48193 11.0371 9.32471 11.5293C9.16748 12.0215 9.0752 12.5479 9.04785 13.1084C9.03418 13.3955 9.02051 13.8057 9.00684 14.3389C9.00684 14.8721 9.00684 15.4258 9.00684 16C9.00684 16.5742 9.00684 17.1279 9.00684 17.6611C9.02051 18.1943 9.03418 18.6045 9.04785 18.8916C9.0752 19.4521 9.16748 19.9751 9.32471 20.4604C9.48193 20.9458 9.76562 21.4004 10.1758 21.8242C10.5996 22.2344 11.0542 22.5181 11.5396 22.6753C12.0249 22.8325 12.5479 22.9248 13.1084 22.9521C13.3955 22.9658 13.8057 22.9795 14.3389 22.9932C14.8721 22.9932 15.4258 22.9932 16 22.9932C16.5742 22.9932 17.1279 22.9932 17.6611 22.9932C18.1943 22.9795 18.6045 22.9658 18.8916 22.9521C19.4521 22.9248 19.9785 22.8325 20.4707 22.6753C20.9629 22.5181 21.4141 22.2344 21.8242 21.8242C22.2344 21.4004 22.5181 20.9458 22.6753 20.4604C22.8325 19.9751 22.9248 19.4521 22.9521 18.8916C22.9658 18.6045 22.9795 18.1943 22.9932 17.6611C22.9932 17.1279 22.9932 16.5742 22.9932 16C22.9932 15.4258 22.9932 14.8721 22.9932 14.3389C22.9795 13.8057 22.9658 13.3955 22.9521 13.1084ZM21.4551 20.1016C21.3457 20.416 21.1748 20.6895 20.9424 20.9219C20.71 21.1543 20.4434 21.332 20.1426 21.4551C19.6777 21.6465 18.9976 21.7422 18.1021 21.7422C17.2065 21.7422 16.5127 21.7422 16.0205 21.7422C15.501 21.7422 14.7969 21.7422 13.9082 21.7422C13.0195 21.7422 12.3496 21.6465 11.8984 21.4551C11.584 21.332 11.3105 21.1543 11.0781 20.9219C10.8457 20.6895 10.668 20.416 10.5449 20.1016C10.3535 19.6504 10.2578 18.9805 10.2578 18.0918C10.2578 17.2031 10.2578 16.499 10.2578 15.9795C10.2578 15.4873 10.2578 14.7935 10.2578 13.8979C10.2578 13.0024 10.3535 12.3223 10.5449 11.8574C10.668 11.5566 10.8457 11.2935 11.0781 11.0679C11.3105 10.8423 11.584 10.668 11.8984 10.5449C12.3496 10.3535 13.0195 10.2578 13.9082 10.2578C14.7969 10.2578 15.501 10.2578 16.0205 10.2578C16.5127 10.2578 17.2065 10.2578 18.1021 10.2578C18.9976 10.2578 19.6777 10.3535 20.1426 10.5449C20.4434 10.6543 20.7065 10.8252 20.9321 11.0576C21.1577 11.29 21.332 11.5566 21.4551 11.8574C21.6465 12.3223 21.7422 13.0024 21.7422 13.8979C21.7422 14.7935 21.7422 15.4873 21.7422 15.9795C21.7422 16.499 21.7422 17.2031 21.7422 18.0918C21.7422 18.9805 21.6465 19.6504 21.4551 20.1016Z" fill="white"/>
</svg>
