<svg id="visual" viewBox="0 0 1920 1080" width="1920" height="1080" xmlns="http://www.w3.org/2000/svg" xmlns:xlink="http://www.w3.org/1999/xlink" version="1.1"><rect x="0" y="0" width="1920" height="1080" fill="#ffffff"></rect><path d="M0 37L45.7 41.3C91.3 45.7 182.7 54.3 274.2 55.5C365.7 56.7 457.3 50.3 548.8 47.2C640.3 44 731.7 44 823 41.7C914.3 39.3 1005.7 34.7 1097 35.2C1188.3 35.7 1279.7 41.3 1371.2 46C1462.7 50.7 1554.3 54.3 1645.8 50C1737.3 45.7 1828.7 33.3 1874.3 27.2L1920 21L1920 0L1874.3 0C1828.7 0 1737.3 0 1645.8 0C1554.3 0 1462.7 0 1371.2 0C1279.7 0 1188.3 0 1097 0C1005.7 0 914.3 0 823 0C731.7 0 640.3 0 548.8 0C457.3 0 365.7 0 274.2 0C182.7 0 91.3 0 45.7 0L0 0Z" fill="#2b9c89" stroke-linecap="round" stroke-linejoin="miter"></path></svg>