<svg id="visual" viewBox="0 0 1920 1080" width="1920" height="1080" xmlns="http://www.w3.org/2000/svg" xmlns:xlink="http://www.w3.org/1999/xlink" version="1.1"><rect x="0" y="0" width="1920" height="1080" fill="#ffffff"></rect><path d="M0 1032L45.7 1032.3C91.3 1032.7 182.7 1033.3 274.2 1036.8C365.7 1040.3 457.3 1046.7 548.8 1046.8C640.3 1047 731.7 1041 823 1040.2C914.3 1039.3 1005.7 1043.7 1097 1044.8C1188.3 1046 1279.7 1044 1371.2 1036.8C1462.7 1029.7 1554.3 1017.3 1645.8 1014.7C1737.3 1012 1828.7 1019 1874.3 1022.5L1920 1026L1920 1081L1874.3 1081C1828.7 1081 1737.3 1081 1645.8 1081C1554.3 1081 1462.7 1081 1371.2 1081C1279.7 1081 1188.3 1081 1097 1081C1005.7 1081 914.3 1081 823 1081C731.7 1081 640.3 1081 548.8 1081C457.3 1081 365.7 1081 274.2 1081C182.7 1081 91.3 1081 45.7 1081L0 1081Z" fill="#2b9c89" stroke-linecap="round" stroke-linejoin="miter"></path></svg>