<svg width="32" height="32" viewBox="0 0 32 32" fill="none" xmlns="http://www.w3.org/2000/svg">
<rect x="1" y="1" width="30" height="30" rx="15" stroke="white" stroke-width="2"/>
<path d="M23.5264 12.2266C23.4443 11.8848 23.2769 11.5874 23.0239 11.3345C22.771 11.0815 22.4805 10.9072 22.1523 10.8115C21.8379 10.7295 21.3457 10.6611 20.6758 10.6064C19.9922 10.5654 19.3052 10.5347 18.6147 10.5142C17.9243 10.4937 17.3193 10.4834 16.7998 10.4834C16.2803 10.4697 16.0205 10.4629 16.0205 10.4629C16.0205 10.4629 15.7539 10.4697 15.2207 10.4834C14.7012 10.4834 14.0928 10.4937 13.3955 10.5142C12.6982 10.5347 12.0146 10.5654 11.3447 10.6064C10.6611 10.6611 10.1621 10.7295 9.84766 10.8115C9.51953 10.9072 9.229 11.0815 8.97607 11.3345C8.72314 11.5874 8.55566 11.8848 8.47363 12.2266C8.2959 12.8281 8.19336 13.6108 8.16602 14.5747C8.13867 15.5386 8.125 16.0205 8.125 16.0205C8.125 16.0205 8.13867 16.499 8.16602 17.4561C8.19336 18.4131 8.2959 19.2061 8.47363 19.835C8.55566 20.1768 8.72314 20.4707 8.97607 20.7168C9.229 20.9629 9.51953 21.127 9.84766 21.209C10.1621 21.291 10.6611 21.3525 11.3447 21.3936C12.0146 21.4346 12.6982 21.4653 13.3955 21.4858C14.0928 21.5063 14.7012 21.5166 15.2207 21.5166C15.7539 21.5166 16.0205 21.5166 16.0205 21.5166C16.0205 21.5166 16.2803 21.5166 16.7998 21.5166C17.3193 21.5166 17.9243 21.5063 18.6147 21.4858C19.3052 21.4653 19.9922 21.4346 20.6758 21.3936C21.3457 21.3525 21.8379 21.291 22.1523 21.209C22.4805 21.127 22.771 20.9629 23.0239 20.7168C23.2769 20.4707 23.4443 20.1768 23.5264 19.835C23.7041 19.2061 23.8066 18.4131 23.834 17.4561C23.8613 16.499 23.875 16.0205 23.875 16.0205C23.875 16.0205 23.8613 15.5386 23.834 14.5747C23.8066 13.6108 23.7041 12.8281 23.5264 12.2266ZM14.4004 18.3584V13.7031L18.4814 16.0205L14.4004 18.3584Z" fill="white"/>
</svg>
