<svg width="116" height="40" viewBox="0 0 116 40" fill="none" xmlns="http://www.w3.org/2000/svg">
<rect x="1" y="1" width="113.88" height="38" rx="19" stroke="white" stroke-width="2"/>
<path d="M33.2344 10.9922C32.4375 10.1797 31.5039 9.55078 30.4336 9.10547C29.3633 8.66016 28.2578 8.4375 27.1172 8.4375C25.9922 8.4375 24.8945 8.66016 23.8242 9.10547C22.7539 9.55078 21.8125 10.1797 21 10.9922C20.1875 11.8047 19.5664 12.7344 19.1367 13.7812C18.707 14.8281 18.4922 15.9297 18.4922 17.0859C18.4922 17.7422 18.5781 18.4141 18.75 19.1016C18.9219 19.7891 19.1758 20.4922 19.5117 21.2109C19.8477 21.9297 20.2734 22.6562 20.7891 23.3906C21.2891 24.125 21.8828 24.875 22.5703 25.6406C23.0859 26.2188 23.5859 26.7383 24.0703 27.1992C24.5547 27.6602 24.9609 28.0391 25.2891 28.3359C25.4766 28.5078 25.6484 28.6562 25.8047 28.7812C25.9609 28.9062 26.0938 29.0078 26.2031 29.0859C26.2188 29.1172 26.2969 29.1836 26.4375 29.2852C26.5781 29.3867 26.6875 29.4609 26.7656 29.5078C26.875 29.5703 26.9961 29.6016 27.1289 29.6016C27.2617 29.6016 27.3828 29.5703 27.4922 29.5078C27.5703 29.4609 27.6836 29.3828 27.832 29.2734C27.9805 29.1641 28.0547 29.1094 28.0547 29.1094C28.1641 29.0156 28.293 28.9062 28.4414 28.7812C28.5898 28.6562 28.7578 28.5078 28.9453 28.3359C29.2734 28.0547 29.6797 27.6836 30.1641 27.2227C30.6484 26.7617 31.1484 26.2344 31.6641 25.6406C32.3516 24.8906 32.9453 24.1406 33.4453 23.3906C33.9609 22.6562 34.3906 21.9336 34.7344 21.2227C35.0781 20.5117 35.3359 19.8125 35.5078 19.125C35.6797 18.4375 35.7656 17.7578 35.7656 17.0859C35.7656 15.9453 35.5469 14.8477 35.1094 13.793C34.6719 12.7383 34.0469 11.8047 33.2344 10.9922ZM33.8438 17.0859C33.8438 17.7578 33.7344 18.4297 33.5156 19.1016C33.2969 19.7578 33.0156 20.4023 32.6719 21.0352C32.3281 21.668 31.9375 22.2656 31.5 22.8281C31.0781 23.3906 30.6641 23.9062 30.2578 24.375C29.8828 24.7969 29.4805 25.2188 29.0508 25.6406C28.6211 26.0625 28.1719 26.4844 27.7031 26.9062C27.5938 27 27.4922 27.0859 27.3984 27.1641C27.3047 27.2422 27.2109 27.3125 27.1172 27.375C27.0391 27.3125 26.9531 27.2383 26.8594 27.1523C26.7656 27.0664 26.6641 26.9844 26.5547 26.9062C26.0859 26.4844 25.6367 26.0625 25.207 25.6406C24.7773 25.2188 24.375 24.7969 24 24.375C23.5938 23.9062 23.1719 23.3906 22.7344 22.8281C22.3125 22.2656 21.9258 21.668 21.5742 21.0352C21.2227 20.4023 20.9375 19.7578 20.7188 19.1016C20.5 18.4297 20.3906 17.7578 20.3906 17.0859C20.3906 16.1953 20.5625 15.3398 20.9062 14.5195C21.25 13.6992 21.7344 12.9688 22.3594 12.3281C22.9844 11.7031 23.7109 11.2188 24.5391 10.875C25.3672 10.5312 26.2266 10.3594 27.1172 10.3594C27.9922 10.3594 28.8477 10.5312 29.6836 10.875C30.5195 11.2188 31.25 11.7031 31.875 12.3281C32.5 12.9688 32.9844 13.6992 33.3281 14.5195C33.6719 15.3398 33.8438 16.1953 33.8438 17.0859ZM27.1406 13.2422C26.0781 13.2422 25.1719 13.6172 24.4219 14.3672C23.6719 15.1172 23.2969 16.0234 23.2969 17.0859C23.2969 18.1484 23.6719 19.0547 24.4219 19.8047C25.1719 20.5547 26.0781 20.9297 27.1406 20.9297C28.2031 20.9297 29.1094 20.5547 29.8594 19.8047C30.6094 19.0547 30.9844 18.1484 30.9844 17.0859C30.9844 16.0234 30.6094 15.1172 29.8594 14.3672C29.1094 13.6172 28.2031 13.2422 27.1406 13.2422ZM29.0625 17.0859C29.0625 17.6172 28.875 18.0703 28.5 18.4453C28.125 18.8203 27.6719 19.0078 27.1406 19.0078C26.6094 19.0078 26.1562 18.8203 25.7812 18.4453C25.4062 18.0703 25.2188 17.6172 25.2188 17.0859C25.2188 16.5547 25.4062 16.1016 25.7812 15.7266C26.1562 15.3516 26.6094 15.1641 27.1406 15.1641C27.6719 15.1641 28.125 15.3516 28.5 15.7266C28.875 16.1016 29.0625 16.5547 29.0625 17.0859Z" fill="white"/>
<path d="M54.6366 26V14.3636H58.7048C59.5154 14.3636 60.1839 14.5038 60.7105 14.7841C61.237 15.0606 61.629 15.4337 61.8866 15.9034C62.1442 16.3693 62.273 16.8864 62.273 17.4545C62.273 17.9545 62.1839 18.3674 62.0059 18.6932C61.8317 19.0189 61.6006 19.2765 61.3127 19.4659C61.0286 19.6553 60.7199 19.7955 60.3866 19.8864V20C60.7427 20.0227 61.1006 20.1477 61.4605 20.375C61.8203 20.6023 62.1214 20.928 62.3639 21.3523C62.6063 21.7765 62.7275 22.2955 62.7275 22.9091C62.7275 23.4924 62.5949 24.017 62.3298 24.483C62.0646 24.9489 61.6461 25.3182 61.0741 25.5909C60.5021 25.8636 59.7578 26 58.8411 26H54.6366ZM56.0457 24.75H58.8411C59.7616 24.75 60.415 24.572 60.8014 24.2159C61.1915 23.8561 61.3866 23.4205 61.3866 22.9091C61.3866 22.5152 61.2862 22.1515 61.0855 21.8182C60.8847 21.4811 60.5987 21.2121 60.2275 21.0114C59.8563 20.8068 59.4169 20.7045 58.9093 20.7045H56.0457V24.75ZM56.0457 19.4773H58.6593C59.0836 19.4773 59.4661 19.3939 59.807 19.2273C60.1517 19.0606 60.4245 18.8258 60.6252 18.5227C60.8298 18.2197 60.932 17.8636 60.932 17.4545C60.932 16.9432 60.754 16.5095 60.398 16.1534C60.0419 15.7936 59.4775 15.6136 58.7048 15.6136H56.0457V19.4773ZM64.861 26V17.2727H66.1565V18.5909H66.2474C66.4065 18.1591 66.6944 17.8087 67.111 17.5398C67.5277 17.2708 67.9974 17.1364 68.5201 17.1364C68.6186 17.1364 68.7417 17.1383 68.8894 17.142C69.0372 17.1458 69.1489 17.1515 69.2247 17.1591V18.5227C69.1792 18.5114 69.075 18.4943 68.9122 18.4716C68.7531 18.4451 68.5845 18.4318 68.4065 18.4318C67.9822 18.4318 67.6034 18.5208 67.2701 18.6989C66.9406 18.8731 66.6792 19.1155 66.486 19.4261C66.2966 19.733 66.2019 20.0833 66.2019 20.4773V26H64.861ZM73.3823 26.2045C72.8293 26.2045 72.3274 26.1004 71.8766 25.892C71.4259 25.6799 71.0679 25.375 70.8028 24.9773C70.5376 24.5758 70.4051 24.0909 70.4051 23.5227C70.4051 23.0227 70.5035 22.6174 70.7005 22.3068C70.8975 21.9924 71.1607 21.7462 71.4903 21.5682C71.8198 21.3902 72.1835 21.2576 72.5812 21.1705C72.9827 21.0795 73.3861 21.0076 73.7914 20.9545C74.3217 20.8864 74.7516 20.8352 75.0812 20.8011C75.4145 20.7633 75.657 20.7008 75.8085 20.6136C75.9638 20.5265 76.0414 20.375 76.0414 20.1591V20.1136C76.0414 19.553 75.888 19.1174 75.5812 18.8068C75.2782 18.4962 74.8179 18.3409 74.2005 18.3409C73.5604 18.3409 73.0585 18.4811 72.6948 18.7614C72.3312 19.0417 72.0755 19.3409 71.9278 19.6591L70.6551 19.2045C70.8823 18.6742 71.1854 18.2614 71.5641 17.9659C71.9467 17.6667 72.3634 17.4583 72.8141 17.3409C73.2687 17.2197 73.7157 17.1591 74.1551 17.1591C74.4354 17.1591 74.7573 17.1932 75.121 17.2614C75.4884 17.3258 75.8426 17.4602 76.1835 17.6648C76.5282 17.8693 76.8141 18.178 77.0414 18.5909C77.2687 19.0038 77.3823 19.5568 77.3823 20.25V26H76.0414V24.8182H75.9732C75.8823 25.0076 75.7308 25.2102 75.5187 25.4261C75.3066 25.642 75.0244 25.8258 74.6721 25.9773C74.3198 26.1288 73.8899 26.2045 73.3823 26.2045ZM73.5869 25C74.1172 25 74.5641 24.8958 74.9278 24.6875C75.2952 24.4792 75.5717 24.2102 75.7573 23.8807C75.9467 23.5511 76.0414 23.2045 76.0414 22.8409V21.6136C75.9846 21.6818 75.8596 21.7443 75.6664 21.8011C75.477 21.8542 75.2573 21.9015 75.0073 21.9432C74.7611 21.9811 74.5206 22.0152 74.2857 22.0455C74.0547 22.072 73.8672 22.0947 73.7232 22.1136C73.3748 22.1591 73.049 22.233 72.746 22.3352C72.4467 22.4337 72.2043 22.5833 72.0187 22.7841C71.8369 22.9811 71.746 23.25 71.746 23.5909C71.746 24.0568 71.9183 24.4091 72.263 24.6477C72.6115 24.8826 73.0528 25 73.5869 25ZM79.5798 26V24.9773L84.5343 18.6136V18.5227H79.7389V17.2727H86.2616V18.3409L81.4434 24.6591V24.75H86.4207V26H79.5798ZM88.486 26V17.2727H89.8269V26H88.486ZM89.1678 15.8182C88.9065 15.8182 88.6811 15.7292 88.4917 15.5511C88.3061 15.3731 88.2133 15.1591 88.2133 14.9091C88.2133 14.6591 88.3061 14.4451 88.4917 14.267C88.6811 14.089 88.9065 14 89.1678 14C89.4292 14 89.6527 14.089 89.8383 14.267C90.0277 14.4451 90.1224 14.6591 90.1224 14.9091C90.1224 15.1591 90.0277 15.3731 89.8383 15.5511C89.6527 15.7292 89.4292 15.8182 89.1678 15.8182ZM93.6238 14.3636V26H92.2829V14.3636H93.6238Z" fill="white"/>
</svg>
