<svg width="448" height="60" viewBox="0 0 448 60" fill="none" xmlns="http://www.w3.org/2000/svg">
<rect width="448" height="60" rx="30" fill="#FACC15"/>
<path d="M197.76 36V22.9091H206.581V25.1911H200.528V28.3104H206.127V30.5923H200.528V33.718H206.607V36H197.76ZM211.453 30.3239V36H208.73V26.1818H211.326V27.9141H211.441C211.658 27.343 212.022 26.8913 212.534 26.5589C213.045 26.2223 213.665 26.054 214.394 26.054C215.076 26.054 215.67 26.2031 216.177 26.5014C216.684 26.7997 217.078 27.2259 217.36 27.7798C217.641 28.3295 217.782 28.9858 217.782 29.7486V36H215.059V30.2344C215.063 29.6335 214.909 29.1648 214.598 28.8281C214.287 28.4872 213.859 28.3168 213.314 28.3168C212.947 28.3168 212.623 28.3956 212.342 28.5533C212.065 28.7109 211.848 28.9411 211.69 29.2436C211.537 29.5419 211.458 29.902 211.453 30.3239ZM228.73 26.1818L225.297 36H222.229L218.796 26.1818H221.673L223.712 33.2067H223.814L225.847 26.1818H228.73ZM230.123 36V26.1818H232.846V36H230.123ZM231.491 24.9162C231.086 24.9162 230.739 24.782 230.449 24.5135C230.163 24.2408 230.021 23.9148 230.021 23.5355C230.021 23.1605 230.163 22.8388 230.449 22.5703C230.739 22.2976 231.086 22.1612 231.491 22.1612C231.896 22.1612 232.241 22.2976 232.526 22.5703C232.816 22.8388 232.961 23.1605 232.961 23.5355C232.961 23.9148 232.816 24.2408 232.526 24.5135C232.241 24.782 231.896 24.9162 231.491 24.9162ZM237.827 36.1854C237.201 36.1854 236.642 36.0767 236.152 35.8594C235.662 35.6378 235.274 35.3118 234.989 34.8814C234.708 34.4467 234.567 33.9055 234.567 33.2578C234.567 32.7124 234.667 32.2543 234.868 31.8835C235.068 31.5128 235.341 31.2145 235.686 30.9886C236.031 30.7628 236.423 30.5923 236.862 30.4773C237.305 30.3622 237.769 30.2812 238.255 30.2344C238.826 30.1747 239.287 30.1193 239.636 30.0682C239.985 30.0128 240.239 29.9318 240.397 29.8253C240.554 29.7187 240.633 29.5611 240.633 29.3523V29.3139C240.633 28.9091 240.505 28.5959 240.25 28.3743C239.998 28.1527 239.64 28.0419 239.176 28.0419C238.686 28.0419 238.296 28.1506 238.006 28.3679C237.716 28.581 237.524 28.8494 237.431 29.1733L234.912 28.9688C235.04 28.3722 235.292 27.8565 235.667 27.4219C236.042 26.983 236.525 26.6463 237.118 26.4119C237.714 26.1733 238.404 26.054 239.189 26.054C239.734 26.054 240.256 26.1179 240.755 26.2457C241.257 26.3736 241.703 26.5717 242.091 26.8402C242.483 27.1087 242.792 27.4538 243.017 27.8757C243.243 28.2933 243.356 28.794 243.356 29.3778V36H240.774V34.6385H240.697C240.539 34.9453 240.328 35.2159 240.064 35.4503C239.8 35.6804 239.483 35.8615 239.112 35.9936C238.741 36.1214 238.313 36.1854 237.827 36.1854ZM238.607 34.3061C239.007 34.3061 239.361 34.2273 239.668 34.0696C239.975 33.9077 240.216 33.6903 240.39 33.4176C240.565 33.1449 240.652 32.8359 240.652 32.4908V31.4489C240.567 31.5043 240.45 31.5554 240.301 31.6023C240.156 31.6449 239.992 31.6854 239.809 31.7237C239.625 31.7578 239.442 31.7898 239.259 31.8196C239.076 31.8452 238.909 31.8686 238.76 31.8899C238.441 31.9368 238.162 32.0114 237.923 32.1136C237.684 32.2159 237.499 32.3544 237.367 32.5291C237.235 32.6996 237.169 32.9126 237.169 33.1683C237.169 33.5391 237.303 33.8224 237.571 34.0185C237.844 34.2102 238.189 34.3061 238.607 34.3061ZM245.469 36V26.1818H248.109V27.8949H248.211C248.39 27.2855 248.69 26.8253 249.112 26.5142C249.534 26.1989 250.02 26.0412 250.57 26.0412C250.706 26.0412 250.853 26.0497 251.011 26.0668C251.168 26.0838 251.307 26.1072 251.426 26.1371V28.5533C251.298 28.5149 251.121 28.4808 250.896 28.451C250.67 28.4212 250.463 28.4062 250.276 28.4062C249.875 28.4062 249.517 28.4936 249.202 28.6683C248.891 28.8388 248.643 29.0774 248.46 29.3842C248.281 29.6911 248.192 30.0447 248.192 30.4453V36H245.469Z" fill="#111827"/>
</svg>
