<svg width="120" height="52" viewBox="0 0 120 52" fill="none" xmlns="http://www.w3.org/2000/svg">
<rect width="120" height="52" rx="26" fill="#59BDA3"/>
<path d="M26.162 31V21.2H28.43V29.152H33.344V31H26.162ZM38.2002 31.112C37.3975 31.112 36.6835 30.944 36.0582 30.608C35.4422 30.272 34.9522 29.8147 34.5882 29.236C34.2335 28.648 34.0562 27.9807 34.0562 27.234C34.0562 26.478 34.2335 25.8107 34.5882 25.232C34.9522 24.644 35.4422 24.1867 36.0582 23.86C36.6835 23.524 37.3975 23.356 38.2002 23.356C38.9935 23.356 39.7029 23.524 40.3282 23.86C40.9535 24.1867 41.4435 24.6393 41.7982 25.218C42.1529 25.7967 42.3302 26.4687 42.3302 27.234C42.3302 27.9807 42.1529 28.648 41.7982 29.236C41.4435 29.8147 40.9535 30.272 40.3282 30.608C39.7029 30.944 38.9935 31.112 38.2002 31.112ZM38.2002 29.32C38.5642 29.32 38.8909 29.236 39.1802 29.068C39.4695 28.9 39.6982 28.662 39.8662 28.354C40.0342 28.0367 40.1182 27.6633 40.1182 27.234C40.1182 26.7953 40.0342 26.422 39.8662 26.114C39.6982 25.806 39.4695 25.568 39.1802 25.4C38.8909 25.232 38.5642 25.148 38.2002 25.148C37.8362 25.148 37.5095 25.232 37.2202 25.4C36.9309 25.568 36.6975 25.806 36.5202 26.114C36.3522 26.422 36.2682 26.7953 36.2682 27.234C36.2682 27.6633 36.3522 28.0367 36.5202 28.354C36.6975 28.662 36.9309 28.9 37.2202 29.068C37.5095 29.236 37.8362 29.32 38.2002 29.32ZM47.532 33.828C46.8227 33.828 46.1367 33.7393 45.474 33.562C44.8207 33.394 44.2747 33.1373 43.836 32.792L44.704 31.224C45.0214 31.4853 45.4227 31.6907 45.908 31.84C46.4027 31.9987 46.888 32.078 47.364 32.078C48.1387 32.078 48.6987 31.9053 49.044 31.56C49.3987 31.2147 49.576 30.7013 49.576 30.02V28.886L49.716 26.996L49.688 25.092V23.468H51.76V29.74C51.76 31.14 51.396 32.1713 50.668 32.834C49.94 33.4967 48.8947 33.828 47.532 33.828ZM47.196 30.636C46.496 30.636 45.8614 30.4867 45.292 30.188C44.732 29.88 44.2794 29.4553 43.934 28.914C43.598 28.3633 43.43 27.724 43.43 26.996C43.43 26.2587 43.598 25.6193 43.934 25.078C44.2794 24.5273 44.732 24.1027 45.292 23.804C45.8614 23.5053 46.496 23.356 47.196 23.356C47.8307 23.356 48.3907 23.4867 48.876 23.748C49.3614 24 49.7394 24.3967 50.01 24.938C50.2807 25.47 50.416 26.156 50.416 26.996C50.416 27.8267 50.2807 28.5127 50.01 29.054C49.7394 29.586 49.3614 29.9827 48.876 30.244C48.3907 30.5053 47.8307 30.636 47.196 30.636ZM47.63 28.844C48.0127 28.844 48.3534 28.7693 48.652 28.62C48.9507 28.4613 49.184 28.242 49.352 27.962C49.52 27.682 49.604 27.36 49.604 26.996C49.604 26.6227 49.52 26.3007 49.352 26.03C49.184 25.75 48.9507 25.5353 48.652 25.386C48.3534 25.2273 48.0127 25.148 47.63 25.148C47.2474 25.148 46.9067 25.2273 46.608 25.386C46.3094 25.5353 46.0714 25.75 45.894 26.03C45.726 26.3007 45.642 26.6227 45.642 26.996C45.642 27.36 45.726 27.682 45.894 27.962C46.0714 28.242 46.3094 28.4613 46.608 28.62C46.9067 28.7693 47.2474 28.844 47.63 28.844ZM53.9928 31V23.468H56.1768V31H53.9928ZM55.0848 22.418C54.6834 22.418 54.3568 22.3013 54.1048 22.068C53.8528 21.8347 53.7268 21.5453 53.7268 21.2C53.7268 20.8547 53.8528 20.5653 54.1048 20.332C54.3568 20.0987 54.6834 19.982 55.0848 19.982C55.4861 19.982 55.8128 20.094 56.0648 20.318C56.3168 20.5327 56.4428 20.8127 56.4428 21.158C56.4428 21.522 56.3168 21.8253 56.0648 22.068C55.8221 22.3013 55.4954 22.418 55.0848 22.418ZM62.9817 23.356C63.579 23.356 64.111 23.4773 64.5777 23.72C65.0537 23.9533 65.427 24.3173 65.6977 24.812C65.9684 25.2973 66.1037 25.9227 66.1037 26.688V31H63.9197V27.024C63.9197 26.4173 63.7844 25.9693 63.5137 25.68C63.2524 25.3907 62.879 25.246 62.3937 25.246C62.0484 25.246 61.7357 25.3207 61.4557 25.47C61.185 25.61 60.9704 25.8293 60.8117 26.128C60.6624 26.4267 60.5877 26.8093 60.5877 27.276V31H58.4037V23.468H60.4897V25.554L60.0977 24.924C60.3684 24.42 60.7557 24.0327 61.2597 23.762C61.7637 23.4913 62.3377 23.356 62.9817 23.356Z" fill="white"/>
<g clip-path="url(#clip0_567_1195)">
<path fill-rule="evenodd" clip-rule="evenodd" d="M83 26C83 25.8106 83.079 25.6289 83.2196 25.495C83.3603 25.3611 83.551 25.2858 83.7499 25.2858H92.4384L89.2183 22.2207C89.0775 22.0866 88.9984 21.9047 88.9984 21.7151C88.9984 21.5254 89.0775 21.3435 89.2183 21.2094C89.3591 21.0753 89.5501 21 89.7492 21C89.9484 21 90.1394 21.0753 90.2802 21.2094L94.7797 25.4944C94.8495 25.5607 94.9049 25.6395 94.9427 25.7263C94.9805 25.8131 95 25.9061 95 26C95 26.0939 94.9805 26.1869 94.9427 26.2737C94.9049 26.3605 94.8495 26.4393 94.7797 26.5056L90.2802 30.7906C90.1394 30.9247 89.9484 31 89.7492 31C89.5501 31 89.3591 30.9247 89.2183 30.7906C89.0775 30.6565 88.9984 30.4746 88.9984 30.2849C88.9984 30.0953 89.0775 29.9134 89.2183 29.7793L92.4384 26.7142H83.7499C83.551 26.7142 83.3603 26.6389 83.2196 26.505C83.079 26.3711 83 26.1894 83 26Z" fill="white"/>
</g>
<defs>
<clipPath id="clip0_567_1195">
<rect width="12" height="10" fill="white" transform="translate(83 21)"/>
</clipPath>
</defs>
</svg>
