<svg width="209" height="53" viewBox="0 0 209 53" fill="none" xmlns="http://www.w3.org/2000/svg">
<rect width="209" height="53" rx="26.5" fill="#2B9C89"/>
<path d="M56.8149 34H52.1743V20.9091H56.8532C58.17 20.9091 59.3035 21.1712 60.2538 21.6953C61.2041 22.2152 61.9349 22.9631 62.4463 23.9389C62.9619 24.9148 63.2197 26.0824 63.2197 27.4418C63.2197 28.8054 62.9619 29.9773 62.4463 30.9574C61.9349 31.9375 61.1998 32.6896 60.241 33.2138C59.2865 33.7379 58.1444 34 56.8149 34ZM54.942 31.6286H56.6998C57.518 31.6286 58.2062 31.4837 58.7645 31.1939C59.327 30.8999 59.7488 30.446 60.0301 29.8324C60.3156 29.2145 60.4584 28.4176 60.4584 27.4418C60.4584 26.4744 60.3156 25.6839 60.0301 25.0703C59.7488 24.4567 59.3291 24.005 58.7709 23.7152C58.2126 23.4254 57.5244 23.2805 56.7062 23.2805H54.942V31.6286ZM69.6933 34.1918C68.6833 34.1918 67.814 33.9872 67.0853 33.5781C66.3609 33.1648 65.8026 32.581 65.4106 31.8267C65.0186 31.0682 64.8225 30.1712 64.8225 29.1357C64.8225 28.1257 65.0186 27.2393 65.4106 26.4766C65.8026 25.7138 66.3545 25.1193 67.0661 24.6932C67.782 24.267 68.6215 24.054 69.5846 24.054C70.2323 24.054 70.8353 24.1584 71.3936 24.3672C71.9561 24.5717 72.4461 24.8807 72.8637 25.294C73.2856 25.7074 73.6137 26.2273 73.8481 26.8537C74.0825 27.4759 74.1997 28.2045 74.1997 29.0398V29.7876H65.9092V28.1001H71.6364C71.6364 27.7081 71.5512 27.3608 71.3808 27.0582C71.2103 26.7557 70.9738 26.5192 70.6712 26.3487C70.373 26.174 70.0257 26.0866 69.6293 26.0866C69.216 26.0866 68.8495 26.1825 68.5299 26.3743C68.2146 26.5618 67.9674 26.8153 67.7884 27.1349C67.6095 27.4503 67.5178 27.8018 67.5136 28.1896V29.794C67.5136 30.2798 67.6031 30.6996 67.782 31.0533C67.9653 31.407 68.2231 31.6797 68.5555 31.8714C68.8879 32.0632 69.282 32.1591 69.738 32.1591C70.0406 32.1591 70.3176 32.1165 70.569 32.0312C70.8204 31.946 71.0356 31.8182 71.2146 31.6477C71.3936 31.4773 71.5299 31.2685 71.6237 31.0213L74.1421 31.1875C74.0143 31.7926 73.7522 32.321 73.3559 32.7727C72.9639 33.2202 72.4568 33.5696 71.8346 33.821C71.2167 34.0682 70.5029 34.1918 69.6933 34.1918ZM84.1457 26.9815L81.6528 27.1349C81.6102 26.9219 81.5186 26.7301 81.3779 26.5597C81.2373 26.3849 81.0519 26.2464 80.8218 26.1442C80.596 26.0376 80.3254 25.9844 80.01 25.9844C79.5882 25.9844 79.2323 26.0739 78.9426 26.2528C78.6528 26.4276 78.5079 26.6619 78.5079 26.956C78.5079 27.1903 78.6016 27.3885 78.7891 27.5504C78.9766 27.7124 79.2984 27.8423 79.7543 27.9403L81.5313 28.2983C82.4859 28.4943 83.1975 28.8097 83.6663 29.2443C84.135 29.679 84.3694 30.25 84.3694 30.9574C84.3694 31.6009 84.1798 32.1655 83.8005 32.6513C83.4255 33.1371 82.9099 33.5163 82.2536 33.7891C81.6016 34.0575 80.8495 34.1918 79.9972 34.1918C78.6975 34.1918 77.662 33.9212 76.8907 33.38C76.1237 32.8345 75.6741 32.093 75.542 31.1555L78.2203 31.0149C78.3012 31.4112 78.4972 31.7138 78.8083 31.9226C79.1194 32.1271 79.5178 32.2294 80.0036 32.2294C80.4809 32.2294 80.8644 32.1378 81.1542 31.9545C81.4482 31.767 81.5974 31.5263 81.6016 31.2322C81.5974 30.9851 81.493 30.7827 81.2884 30.625C81.0839 30.4631 80.7686 30.3395 80.3424 30.2543L78.6421 29.9155C77.6833 29.7237 76.9695 29.3913 76.5008 28.9183C76.0363 28.4453 75.8041 27.8423 75.8041 27.1094C75.8041 26.4787 75.9745 25.9354 76.3154 25.4794C76.6606 25.0234 77.1443 24.6719 77.7664 24.4247C78.3928 24.1776 79.1258 24.054 79.9653 24.054C81.2053 24.054 82.1812 24.3161 82.8928 24.8402C83.6087 25.3643 84.0264 26.0781 84.1457 26.9815ZM90.5201 34.1918C89.5145 34.1918 88.6494 33.9787 87.925 33.5526C87.2048 33.1222 86.6508 32.5256 86.263 31.7628C85.8795 31 85.6878 30.1222 85.6878 29.1293C85.6878 28.1236 85.8817 27.2415 86.2694 26.483C86.6615 25.7202 87.2176 25.1257 87.9378 24.6996C88.6579 24.2692 89.5145 24.054 90.5074 24.054C91.3639 24.054 92.1139 24.2095 92.7574 24.5206C93.4008 24.8317 93.9101 25.2685 94.2851 25.831C94.6601 26.3935 94.8667 27.054 94.9051 27.8125H92.3355C92.263 27.3224 92.0713 26.9283 91.7602 26.63C91.4534 26.3274 91.0507 26.1761 90.5521 26.1761C90.1302 26.1761 89.7616 26.2912 89.4463 26.5213C89.1352 26.7472 88.8923 27.0774 88.7176 27.5121C88.5429 27.9467 88.4555 28.473 88.4555 29.0909C88.4555 29.7173 88.5407 30.25 88.7112 30.6889C88.8859 31.1278 89.1309 31.4624 89.4463 31.6925C89.7616 31.9226 90.1302 32.0376 90.5521 32.0376C90.8632 32.0376 91.1423 31.9737 91.3895 31.8459C91.6409 31.718 91.8476 31.5327 92.0095 31.2898C92.1757 31.0426 92.2844 30.7464 92.3355 30.4013H94.9051C94.8625 31.1513 94.6579 31.8118 94.2915 32.3828C93.9292 32.9496 93.4285 33.3928 92.7893 33.7124C92.1501 34.032 91.3937 34.1918 90.5201 34.1918ZM101.085 34.1918C100.092 34.1918 99.233 33.9808 98.5086 33.5589C97.7884 33.1328 97.2323 32.5405 96.8403 31.782C96.4482 31.0192 96.2522 30.1349 96.2522 29.1293C96.2522 28.1151 96.4482 27.2287 96.8403 26.4702C97.2323 25.7074 97.7884 25.1151 98.5086 24.6932C99.233 24.267 100.092 24.054 101.085 24.054C102.077 24.054 102.934 24.267 103.654 24.6932C104.379 25.1151 104.937 25.7074 105.329 26.4702C105.721 27.2287 105.917 28.1151 105.917 29.1293C105.917 30.1349 105.721 31.0192 105.329 31.782C104.937 32.5405 104.379 33.1328 103.654 33.5589C102.934 33.9808 102.077 34.1918 101.085 34.1918ZM101.097 32.0824C101.549 32.0824 101.926 31.9545 102.229 31.6989C102.531 31.4389 102.759 31.0852 102.913 30.6378C103.07 30.1903 103.149 29.6811 103.149 29.1101C103.149 28.5391 103.07 28.0298 102.913 27.5824C102.759 27.1349 102.531 26.7812 102.229 26.5213C101.926 26.2614 101.549 26.1314 101.097 26.1314C100.641 26.1314 100.258 26.2614 99.9468 26.5213C99.64 26.7812 99.4078 27.1349 99.2501 27.5824C99.0967 28.0298 99.02 28.5391 99.02 29.1101C99.02 29.6811 99.0967 30.1903 99.2501 30.6378C99.4078 31.0852 99.64 31.4389 99.9468 31.6989C100.258 31.9545 100.641 32.0824 101.097 32.0824ZM107.739 34V20.9091H110.462V25.831H110.545C110.664 25.5668 110.837 25.2983 111.063 25.0256C111.293 24.7486 111.591 24.5185 111.957 24.3352C112.328 24.1477 112.788 24.054 113.338 24.054C114.054 24.054 114.715 24.2415 115.32 24.6165C115.925 24.9872 116.408 25.5476 116.771 26.2976C117.133 27.0433 117.314 27.9787 117.314 29.1037C117.314 30.1989 117.137 31.1236 116.783 31.8778C116.434 32.6278 115.957 33.1967 115.352 33.5845C114.751 33.968 114.077 34.1598 113.332 34.1598C112.803 34.1598 112.354 34.0724 111.983 33.8977C111.617 33.723 111.316 33.5036 111.082 33.2393C110.847 32.9709 110.668 32.7003 110.545 32.4276H110.423V34H107.739ZM110.404 29.0909C110.404 29.6747 110.485 30.1839 110.647 30.6186C110.809 31.0533 111.043 31.392 111.35 31.6349C111.657 31.8736 112.03 31.9929 112.469 31.9929C112.912 31.9929 113.287 31.8714 113.594 31.6286C113.901 31.3814 114.133 31.0405 114.291 30.6058C114.452 30.1669 114.533 29.6619 114.533 29.0909C114.533 28.5241 114.455 28.0256 114.297 27.5952C114.139 27.1648 113.907 26.8281 113.6 26.5852C113.293 26.3423 112.916 26.2209 112.469 26.2209C112.026 26.2209 111.651 26.3381 111.344 26.5724C111.041 26.8068 110.809 27.1392 110.647 27.5696C110.485 28 110.404 28.5071 110.404 29.0909ZM119.131 34V24.1818H121.771V25.8949H121.873C122.052 25.2855 122.353 24.8253 122.774 24.5142C123.196 24.1989 123.682 24.0412 124.232 24.0412C124.368 24.0412 124.515 24.0497 124.673 24.0668C124.831 24.0838 124.969 24.1072 125.088 24.1371V26.5533C124.96 26.5149 124.784 26.4808 124.558 26.451C124.332 26.4212 124.125 26.4062 123.938 26.4062C123.537 26.4062 123.179 26.4936 122.864 26.6683C122.553 26.8388 122.306 27.0774 122.122 27.3842C121.943 27.6911 121.854 28.0447 121.854 28.4453V34H119.131ZM126.496 34V24.1818H129.219V34H126.496ZM127.864 22.9162C127.459 22.9162 127.112 22.782 126.822 22.5135C126.537 22.2408 126.394 21.9148 126.394 21.5355C126.394 21.1605 126.537 20.8388 126.822 20.5703C127.112 20.2976 127.459 20.1612 127.864 20.1612C128.269 20.1612 128.614 20.2976 128.9 20.5703C129.189 20.8388 129.334 21.1605 129.334 21.5355C129.334 21.9148 129.189 22.2408 128.9 22.5135C128.614 22.782 128.269 22.9162 127.864 22.9162ZM131.4 34V24.1818H134.04V25.8949H134.143C134.322 25.2855 134.622 24.8253 135.044 24.5142C135.466 24.1989 135.952 24.0412 136.501 24.0412C136.638 24.0412 136.785 24.0497 136.942 24.0668C137.1 24.0838 137.239 24.1072 137.358 24.1371V26.5533C137.23 26.5149 137.053 26.4808 136.827 26.451C136.601 26.4212 136.395 26.4062 136.207 26.4062C135.807 26.4062 135.449 26.4936 135.133 26.6683C134.822 26.8388 134.575 27.0774 134.392 27.3842C134.213 27.6911 134.123 28.0447 134.123 28.4453V34H131.4Z" fill="white"/>
<path d="M146.383 27H155.717" stroke="white" stroke-width="1.33333" stroke-linecap="round" stroke-linejoin="round"/>
<path d="M151.05 22.3333L155.717 26.9999L151.05 31.6666" stroke="white" stroke-width="1.33333" stroke-linecap="round" stroke-linejoin="round"/>
</svg>
