<svg width="273" height="85" viewBox="0 0 273 85" fill="none" xmlns="http://www.w3.org/2000/svg">
<rect width="273" height="85" rx="37" fill="#59BDA3"/>
<path d="M60.6303 42.76H68.6943V45.88H60.6303V42.76ZM60.9183 52H57.0303V35.2H69.7263V38.32H60.9183V52ZM79.8394 52V49.48L79.5994 48.928V44.416C79.5994 43.616 79.3514 42.992 78.8554 42.544C78.3754 42.096 77.6314 41.872 76.6234 41.872C75.9354 41.872 75.2554 41.984 74.5834 42.208C73.9274 42.416 73.3674 42.704 72.9034 43.072L71.5594 40.456C72.2634 39.96 73.1114 39.576 74.1034 39.304C75.0954 39.032 76.1034 38.896 77.1274 38.896C79.0954 38.896 80.6234 39.36 81.7114 40.288C82.7994 41.216 83.3434 42.664 83.3434 44.632V52H79.8394ZM75.9034 52.192C74.8954 52.192 74.0314 52.024 73.3114 51.688C72.5914 51.336 72.0394 50.864 71.6554 50.272C71.2714 49.68 71.0794 49.016 71.0794 48.28C71.0794 47.512 71.2634 46.84 71.6314 46.264C72.0154 45.688 72.6154 45.24 73.4314 44.92C74.2474 44.584 75.3114 44.416 76.6234 44.416H80.0554V46.6H77.0314C76.1514 46.6 75.5434 46.744 75.2074 47.032C74.8874 47.32 74.7274 47.68 74.7274 48.112C74.7274 48.592 74.9114 48.976 75.2794 49.264C75.6634 49.536 76.1834 49.672 76.8394 49.672C77.4634 49.672 78.0234 49.528 78.5194 49.24C79.0154 48.936 79.3754 48.496 79.5994 47.92L80.1754 49.648C79.9034 50.48 79.4074 51.112 78.6874 51.544C77.9674 51.976 77.0394 52.192 75.9034 52.192ZM86.0439 52V49.744L93.6759 40.72L94.3239 41.968H86.2119V39.088H97.3479V41.344L89.7159 50.368L89.0439 49.12H97.5639V52H86.0439ZM106.407 52.192C104.935 52.192 103.639 51.904 102.519 51.328C101.415 50.752 100.559 49.968 99.9511 48.976C99.3431 47.968 99.0391 46.824 99.0391 45.544C99.0391 44.248 99.3351 43.104 99.9271 42.112C100.535 41.104 101.359 40.32 102.399 39.76C103.439 39.184 104.615 38.896 105.927 38.896C107.191 38.896 108.327 39.168 109.335 39.712C110.359 40.24 111.167 41.008 111.759 42.016C112.351 43.008 112.647 44.2 112.647 45.592C112.647 45.736 112.639 45.904 112.623 46.096C112.607 46.272 112.591 46.44 112.575 46.6H102.087V44.416H110.607L109.167 45.064C109.167 44.392 109.031 43.808 108.759 43.312C108.487 42.816 108.111 42.432 107.631 42.16C107.151 41.872 106.591 41.728 105.951 41.728C105.311 41.728 104.743 41.872 104.247 42.16C103.767 42.432 103.391 42.824 103.119 43.336C102.847 43.832 102.711 44.424 102.711 45.112V45.688C102.711 46.392 102.863 47.016 103.167 47.56C103.487 48.088 103.927 48.496 104.487 48.784C105.063 49.056 105.735 49.192 106.503 49.192C107.191 49.192 107.791 49.088 108.303 48.88C108.831 48.672 109.311 48.36 109.743 47.944L111.735 50.104C111.143 50.776 110.399 51.296 109.503 51.664C108.607 52.016 107.575 52.192 106.407 52.192ZM115.34 52V39.088H118.916V42.736L118.412 41.68C118.796 40.768 119.412 40.08 120.26 39.616C121.108 39.136 122.14 38.896 123.356 38.896V42.352C123.196 42.336 123.052 42.328 122.924 42.328C122.796 42.312 122.66 42.304 122.516 42.304C121.492 42.304 120.66 42.6 120.02 43.192C119.396 43.768 119.084 44.672 119.084 45.904V52H115.34ZM139.017 52.192C137.641 52.192 136.417 51.904 135.345 51.328C134.289 50.752 133.449 49.968 132.825 48.976C132.217 47.968 131.913 46.824 131.913 45.544C131.913 44.248 132.217 43.104 132.825 42.112C133.449 41.104 134.289 40.32 135.345 39.76C136.417 39.184 137.641 38.896 139.017 38.896C140.377 38.896 141.593 39.184 142.665 39.76C143.737 40.32 144.577 41.096 145.185 42.088C145.793 43.08 146.097 44.232 146.097 45.544C146.097 46.824 145.793 47.968 145.185 48.976C144.577 49.968 143.737 50.752 142.665 51.328C141.593 51.904 140.377 52.192 139.017 52.192ZM139.017 49.12C139.641 49.12 140.201 48.976 140.697 48.688C141.193 48.4 141.585 47.992 141.873 47.464C142.161 46.92 142.305 46.28 142.305 45.544C142.305 44.792 142.161 44.152 141.873 43.624C141.585 43.096 141.193 42.688 140.697 42.4C140.201 42.112 139.641 41.968 139.017 41.968C138.393 41.968 137.833 42.112 137.337 42.4C136.841 42.688 136.441 43.096 136.137 43.624C135.849 44.152 135.705 44.792 135.705 45.544C135.705 46.28 135.849 46.92 136.137 47.464C136.441 47.992 136.841 48.4 137.337 48.688C137.833 48.976 138.393 49.12 139.017 49.12ZM161.076 52.192C159.556 52.192 158.372 51.808 157.524 51.04C156.676 50.256 156.252 49.096 156.252 47.56V36.232H159.996V47.512C159.996 48.056 160.14 48.48 160.428 48.784C160.716 49.072 161.108 49.216 161.604 49.216C162.196 49.216 162.7 49.056 163.116 48.736L164.124 51.376C163.74 51.648 163.276 51.856 162.732 52C162.204 52.128 161.652 52.192 161.076 52.192ZM154.26 42.256V39.376H163.212V42.256H154.26ZM172.435 52.192C170.963 52.192 169.667 51.904 168.547 51.328C167.443 50.752 166.587 49.968 165.979 48.976C165.371 47.968 165.067 46.824 165.067 45.544C165.067 44.248 165.363 43.104 165.955 42.112C166.563 41.104 167.387 40.32 168.427 39.76C169.467 39.184 170.643 38.896 171.955 38.896C173.219 38.896 174.355 39.168 175.363 39.712C176.387 40.24 177.195 41.008 177.787 42.016C178.379 43.008 178.675 44.2 178.675 45.592C178.675 45.736 178.667 45.904 178.651 46.096C178.635 46.272 178.619 46.44 178.603 46.6H168.115V44.416H176.635L175.195 45.064C175.195 44.392 175.059 43.808 174.787 43.312C174.515 42.816 174.139 42.432 173.659 42.16C173.179 41.872 172.619 41.728 171.979 41.728C171.339 41.728 170.771 41.872 170.275 42.16C169.795 42.432 169.419 42.824 169.147 43.336C168.875 43.832 168.739 44.424 168.739 45.112V45.688C168.739 46.392 168.891 47.016 169.195 47.56C169.515 48.088 169.955 48.496 170.515 48.784C171.091 49.056 171.763 49.192 172.531 49.192C173.219 49.192 173.819 49.088 174.331 48.88C174.859 48.672 175.339 48.36 175.771 47.944L177.763 50.104C177.171 50.776 176.427 51.296 175.531 51.664C174.635 52.016 173.603 52.192 172.435 52.192ZM185.712 52.192C184.608 52.192 183.544 52.064 182.52 51.808C181.512 51.536 180.712 51.2 180.12 50.8L181.368 48.112C181.96 48.48 182.656 48.784 183.456 49.024C184.272 49.248 185.072 49.36 185.856 49.36C186.72 49.36 187.328 49.256 187.68 49.048C188.048 48.84 188.232 48.552 188.232 48.184C188.232 47.88 188.088 47.656 187.8 47.512C187.528 47.352 187.16 47.232 186.696 47.152C186.232 47.072 185.72 46.992 185.16 46.912C184.616 46.832 184.064 46.728 183.504 46.6C182.944 46.456 182.432 46.248 181.968 45.976C181.504 45.704 181.128 45.336 180.84 44.872C180.568 44.408 180.432 43.808 180.432 43.072C180.432 42.256 180.664 41.536 181.128 40.912C181.608 40.288 182.296 39.8 183.192 39.448C184.088 39.08 185.16 38.896 186.408 38.896C187.288 38.896 188.184 38.992 189.096 39.184C190.008 39.376 190.768 39.656 191.376 40.024L190.128 42.688C189.504 42.32 188.872 42.072 188.232 41.944C187.608 41.8 187 41.728 186.408 41.728C185.576 41.728 184.968 41.84 184.584 42.064C184.2 42.288 184.008 42.576 184.008 42.928C184.008 43.248 184.144 43.488 184.416 43.648C184.704 43.808 185.08 43.936 185.544 44.032C186.008 44.128 186.512 44.216 187.056 44.296C187.616 44.36 188.176 44.464 188.736 44.608C189.296 44.752 189.8 44.96 190.248 45.232C190.712 45.488 191.088 45.848 191.376 46.312C191.664 46.76 191.808 47.352 191.808 48.088C191.808 48.888 191.568 49.6 191.088 50.224C190.608 50.832 189.912 51.312 189 51.664C188.104 52.016 187.008 52.192 185.712 52.192ZM199.598 52.192C198.078 52.192 196.894 51.808 196.046 51.04C195.198 50.256 194.774 49.096 194.774 47.56V36.232H198.518V47.512C198.518 48.056 198.662 48.48 198.95 48.784C199.238 49.072 199.63 49.216 200.126 49.216C200.718 49.216 201.222 49.056 201.638 48.736L202.646 51.376C202.262 51.648 201.798 51.856 201.254 52C200.726 52.128 200.174 52.192 199.598 52.192ZM192.782 42.256V39.376H201.734V42.256H192.782ZM210.957 52.192C209.485 52.192 208.189 51.904 207.069 51.328C205.965 50.752 205.109 49.968 204.501 48.976C203.893 47.968 203.589 46.824 203.589 45.544C203.589 44.248 203.885 43.104 204.477 42.112C205.085 41.104 205.909 40.32 206.949 39.76C207.989 39.184 209.165 38.896 210.477 38.896C211.741 38.896 212.877 39.168 213.885 39.712C214.909 40.24 215.717 41.008 216.309 42.016C216.901 43.008 217.197 44.2 217.197 45.592C217.197 45.736 217.189 45.904 217.173 46.096C217.157 46.272 217.141 46.44 217.125 46.6H206.637V44.416H215.157L213.717 45.064C213.717 44.392 213.581 43.808 213.309 43.312C213.037 42.816 212.661 42.432 212.181 42.16C211.701 41.872 211.141 41.728 210.501 41.728C209.861 41.728 209.293 41.872 208.797 42.16C208.317 42.432 207.941 42.824 207.669 43.336C207.397 43.832 207.261 44.424 207.261 45.112V45.688C207.261 46.392 207.413 47.016 207.717 47.56C208.037 48.088 208.477 48.496 209.037 48.784C209.613 49.056 210.285 49.192 211.053 49.192C211.741 49.192 212.341 49.088 212.853 48.88C213.381 48.672 213.861 48.36 214.293 47.944L216.285 50.104C215.693 50.776 214.949 51.296 214.053 51.664C213.157 52.016 212.125 52.192 210.957 52.192Z" fill="white"/>
</svg>
