<svg width="16" height="12" viewBox="0 0 16 12" fill="none" xmlns="http://www.w3.org/2000/svg">
<path d="M15.4014 1.76367C15.3193 1.42188 15.1519 1.12451 14.8989 0.871582C14.646 0.618652 14.3555 0.444336 14.0273 0.348633C13.7129 0.266602 13.2207 0.198242 12.5508 0.143555C11.8672 0.102539 11.1802 0.0717773 10.4897 0.0512695C9.79932 0.0307617 9.19434 0.0205078 8.6748 0.0205078C8.15527 0.00683594 7.89551 0 7.89551 0C7.89551 0 7.62891 0.00683594 7.0957 0.0205078C6.57617 0.0205078 5.96777 0.0307617 5.27051 0.0512695C4.57324 0.0717773 3.88965 0.102539 3.21973 0.143555C2.53613 0.198242 2.03711 0.266602 1.72266 0.348633C1.39453 0.444336 1.104 0.618652 0.851074 0.871582C0.598145 1.12451 0.430664 1.42188 0.348633 1.76367C0.170898 2.36523 0.0683594 3.14795 0.0410156 4.11182C0.0136719 5.07568 0 5.55762 0 5.55762C0 5.55762 0.0136719 6.03613 0.0410156 6.99316C0.0683594 7.9502 0.170898 8.74316 0.348633 9.37207C0.430664 9.71387 0.598145 10.0078 0.851074 10.2539C1.104 10.5 1.39453 10.6641 1.72266 10.7461C2.03711 10.8281 2.53613 10.8896 3.21973 10.9307C3.88965 10.9717 4.57324 11.0024 5.27051 11.0229C5.96777 11.0435 6.57617 11.0537 7.0957 11.0537C7.62891 11.0537 7.89551 11.0537 7.89551 11.0537C7.89551 11.0537 8.15527 11.0537 8.6748 11.0537C9.19434 11.0537 9.79932 11.0435 10.4897 11.0229C11.1802 11.0024 11.8672 10.9717 12.5508 10.9307C13.2207 10.8896 13.7129 10.8281 14.0273 10.7461C14.3555 10.6641 14.646 10.5 14.8989 10.2539C15.1519 10.0078 15.3193 9.71387 15.4014 9.37207C15.5791 8.74316 15.6816 7.9502 15.709 6.99316C15.7363 6.03613 15.75 5.55762 15.75 5.55762C15.75 5.55762 15.7363 5.07568 15.709 4.11182C15.6816 3.14795 15.5791 2.36523 15.4014 1.76367ZM6.27539 7.89551V3.24023L10.3564 5.55762L6.27539 7.89551Z" fill="white"/>
</svg>
