<svg width="14" height="14" viewBox="0 0 14 14" fill="none" xmlns="http://www.w3.org/2000/svg">
<path d="M7.01367 3.38379C6.01562 3.38379 5.16797 3.73584 4.4707 4.43994C3.77344 5.14404 3.4248 5.98828 3.4248 6.97266C3.4248 7.9707 3.77344 8.81836 4.4707 9.51562C5.16797 10.2129 6.01562 10.5615 7.01367 10.5615C7.99805 10.5615 8.84229 10.2129 9.54639 9.51562C10.2505 8.81836 10.6025 7.9707 10.6025 6.97266C10.6025 5.98828 10.2505 5.14404 9.54639 4.43994C8.84229 3.73584 7.99805 3.38379 7.01367 3.38379ZM7.01367 9.33105C6.37109 9.33105 5.81738 9.10205 5.35254 8.64404C4.8877 8.18604 4.65527 7.62891 4.65527 6.97266C4.65527 6.33008 4.88428 5.7832 5.34229 5.33203C5.80029 4.88086 6.35742 4.65527 7.01367 4.65527C7.65625 4.65527 8.20312 4.88086 8.6543 5.33203C9.10547 5.7832 9.33105 6.33008 9.33105 6.97266C9.33105 7.62891 9.10547 8.18604 8.6543 8.64404C8.20312 9.10205 7.65625 9.33105 7.01367 9.33105ZM11.5664 3.26074C11.5664 3.02832 11.4844 2.83008 11.3203 2.66602C11.1562 2.50195 10.958 2.41992 10.7256 2.41992C10.4932 2.41992 10.2949 2.50195 10.1309 2.66602C9.9668 2.83008 9.88477 3.02832 9.88477 3.26074C9.88477 3.49316 9.9668 3.69141 10.1309 3.85547C10.2949 4.01953 10.4932 4.10156 10.7256 4.10156C10.958 4.10156 11.1562 4.01953 11.3203 3.85547C11.4844 3.69141 11.5664 3.49316 11.5664 3.26074ZM13.9453 4.10156C13.918 3.54102 13.8257 3.01465 13.6685 2.52246C13.5112 2.03027 13.2275 1.5791 12.8174 1.16895C12.4072 0.758789 11.9561 0.475098 11.4639 0.317871C10.9717 0.160645 10.4453 0.0683594 9.88477 0.0410156C9.59766 0.0273438 9.1875 0.0136719 8.6543 0C8.12109 0 7.56738 0 6.99316 0C6.41895 0 5.86523 0 5.33203 0C4.79883 0.0136719 4.38867 0.0273438 4.10156 0.0410156C3.54102 0.0683594 3.01807 0.160645 2.53271 0.317871C2.04736 0.475098 1.59277 0.758789 1.16895 1.16895C0.758789 1.5791 0.475098 2.03027 0.317871 2.52246C0.160645 3.01465 0.0683594 3.54102 0.0410156 4.10156C0.0273438 4.38867 0.0136719 4.79883 0 5.33203C0 5.86523 0 6.41895 0 6.99316C0 7.56738 0 8.12109 0 8.6543C0.0136719 9.1875 0.0273438 9.59766 0.0410156 9.88477C0.0683594 10.4453 0.160645 10.9683 0.317871 11.4536C0.475098 11.939 0.758789 12.3936 1.16895 12.8174C1.59277 13.2275 2.04736 13.5112 2.53271 13.6685C3.01807 13.8257 3.54102 13.918 4.10156 13.9453C4.38867 13.959 4.79883 13.9727 5.33203 13.9863C5.86523 13.9863 6.41895 13.9863 6.99316 13.9863C7.56738 13.9863 8.12109 13.9863 8.6543 13.9863C9.1875 13.9727 9.59766 13.959 9.88477 13.9453C10.4453 13.918 10.9717 13.8257 11.4639 13.6685C11.9561 13.5112 12.4072 13.2275 12.8174 12.8174C13.2275 12.3936 13.5112 11.939 13.6685 11.4536C13.8257 10.9683 13.918 10.4453 13.9453 9.88477C13.959 9.59766 13.9727 9.1875 13.9863 8.6543C13.9863 8.12109 13.9863 7.56738 13.9863 6.99316C13.9863 6.41895 13.9863 5.86523 13.9863 5.33203C13.9727 4.79883 13.959 4.38867 13.9453 4.10156ZM12.4482 11.0947C12.3389 11.4092 12.168 11.6826 11.9355 11.915C11.7031 12.1475 11.4365 12.3252 11.1357 12.4482C10.6709 12.6396 9.99072 12.7354 9.09521 12.7354C8.19971 12.7354 7.50586 12.7354 7.01367 12.7354C6.49414 12.7354 5.79004 12.7354 4.90137 12.7354C4.0127 12.7354 3.34277 12.6396 2.8916 12.4482C2.57715 12.3252 2.30371 12.1475 2.07129 11.915C1.83887 11.6826 1.66113 11.4092 1.53809 11.0947C1.34668 10.6436 1.25098 9.97363 1.25098 9.08496C1.25098 8.19629 1.25098 7.49219 1.25098 6.97266C1.25098 6.48047 1.25098 5.78662 1.25098 4.89111C1.25098 3.99561 1.34668 3.31543 1.53809 2.85059C1.66113 2.5498 1.83887 2.28662 2.07129 2.06104C2.30371 1.83545 2.57715 1.66113 2.8916 1.53809C3.34277 1.34668 4.0127 1.25098 4.90137 1.25098C5.79004 1.25098 6.49414 1.25098 7.01367 1.25098C7.50586 1.25098 8.19971 1.25098 9.09521 1.25098C9.99072 1.25098 10.6709 1.34668 11.1357 1.53809C11.4365 1.64746 11.6997 1.81836 11.9253 2.05078C12.1509 2.2832 12.3252 2.5498 12.4482 2.85059C12.6396 3.31543 12.7354 3.99561 12.7354 4.89111C12.7354 5.78662 12.7354 6.48047 12.7354 6.97266C12.7354 7.49219 12.7354 8.19629 12.7354 9.08496C12.7354 9.97363 12.6396 10.6436 12.4482 11.0947Z" fill="white"/>
</svg>
