<svg width="12" height="17" viewBox="0 0 12 17" fill="none" xmlns="http://www.w3.org/2000/svg">
<path d="M8.26562 16.3066C8.32552 16.3066 8.38542 16.2992 8.44531 16.2842C8.50521 16.2692 8.5651 16.2393 8.625 16.1943C8.84961 16.0895 9.00309 15.9211 9.08545 15.689C9.16781 15.4569 9.14909 15.2285 9.0293 15.0039C9.0293 15.0039 8.94694 14.7943 8.78223 14.375C8.60254 13.9408 8.40039 13.4354 8.17578 12.8589C7.95117 12.2824 7.73405 11.6947 7.52441 11.0957C7.31478 10.4967 7.17253 10.0176 7.09766 9.6582C7.03776 9.41862 6.9891 9.0293 6.95166 8.49023C6.91423 7.95117 6.88802 7.5319 6.87305 7.23242C6.87305 7.11263 6.90299 7.01156 6.96289 6.9292C7.02279 6.84684 7.09766 6.79069 7.1875 6.76074L10.8711 5.61523C11.0957 5.55534 11.2679 5.41309 11.3877 5.18848C11.5075 4.96387 11.5374 4.73177 11.4775 4.49219C11.4176 4.2526 11.2791 4.07292 11.062 3.95312C10.8449 3.83333 10.624 3.80339 10.3994 3.86328C10.3994 3.86328 10.2122 3.92318 9.83789 4.04297C9.47852 4.16276 9.04427 4.29378 8.53516 4.43604C8.02604 4.57829 7.50944 4.70931 6.98535 4.8291C6.46126 4.94889 6.04948 5.00879 5.75 5.00879C5.45052 5.00879 5.03874 4.95638 4.51465 4.85156C4.00553 4.73177 3.50016 4.60075 2.99854 4.4585C2.49691 4.31624 2.06641 4.18522 1.70703 4.06543C1.33268 3.96061 1.14551 3.9082 1.14551 3.9082C0.920898 3.83333 0.700033 3.84831 0.48291 3.95312C0.265788 4.05794 0.119792 4.22266 0.0449219 4.44727C-0.0299479 4.70182 -0.0112305 4.94515 0.101074 5.17725C0.213379 5.40934 0.39681 5.55534 0.651367 5.61523L4.33496 6.76074C4.4248 6.79069 4.49967 6.84684 4.55957 6.9292C4.61947 7.01156 4.64193 7.10514 4.62695 7.20996C4.61198 7.52441 4.58952 7.95117 4.55957 8.49023C4.52962 9.0293 4.4847 9.41862 4.4248 9.6582C4.34994 10.0176 4.20768 10.4967 3.99805 11.0957C3.78841 11.6947 3.57129 12.2824 3.34668 12.8589C3.12207 13.4354 2.91992 13.9333 2.74023 14.3525C2.56055 14.7868 2.4707 15.0039 2.4707 15.0039C2.36589 15.2285 2.3584 15.4569 2.44824 15.689C2.53809 15.9211 2.68783 16.0895 2.89746 16.1943C2.95736 16.2243 3.01725 16.2467 3.07715 16.2617C3.13704 16.2767 3.19694 16.2842 3.25684 16.2842C3.42155 16.2842 3.57503 16.2393 3.71729 16.1494C3.85954 16.0596 3.9681 15.9323 4.04297 15.7676L5.79492 12.0391L7.47949 15.79C7.55436 15.9548 7.66292 16.082 7.80518 16.1719C7.94743 16.2617 8.10091 16.3066 8.26562 16.3066ZM7.65918 1.93164C7.65918 2.45573 7.47201 2.90495 7.09766 3.2793C6.72331 3.65365 6.27409 3.84082 5.75 3.84082C5.22591 3.84082 4.77669 3.65365 4.40234 3.2793C4.02799 2.90495 3.84082 2.45573 3.84082 1.93164C3.84082 1.39258 4.02799 0.935872 4.40234 0.561523C4.77669 0.187174 5.22591 0 5.75 0C6.27409 0 6.72331 0.187174 7.09766 0.561523C7.47201 0.935872 7.65918 1.39258 7.65918 1.93164Z" fill="white"/>
</svg>
